*
*
G04 PADS 9.5 Build Number: 522968 generated Gerber (RS-274-X) file*
G04 PC Version=2.1*
*
%IN "Gapfiller_GSM900_REV4.p"*%
*
%MOIN*%
*
%FSLAX35Y35*%
*
*
*
*
G04 PC Standard Apertures*
*
*
G04 Thermal Relief Aperture macro.*
%AMTER*
1,1,$1,0,0*
1,0,$1-$2,0,0*
21,0,$3,$4,0,0,45*
21,0,$3,$4,0,0,135*
%
*
*
G04 Annular Aperture macro.*
%AMANN*
1,1,$1,0,0*
1,0,$2,0,0*
%
*
*
G04 Odd Aperture macro.*
%AMODD*
1,1,$1,0,0*
1,0,$1-0.005,0,0*
%
*
*
G04 PC Custom Aperture Macros*
*
*
*
*
*
*
G04 PC Aperture Table*
*
%ADD014C,0.01*%
%ADD015C,0.008*%
%ADD016C,0.025*%
%ADD023C,0.001*%
%ADD032C,0.186*%
%ADD043C,0.079*%
%ADD044C,0.097*%
%ADD046C,0.05118*%
%ADD085C,0.0315*%
*
*
*
*
G04 PC Circuitry*
G04 Layer Name Gapfiller_GSM900_REV4.p - circuitry*
%LPD*%
*
*
G04 PC Custom Flashes*
G04 Layer Name Gapfiller_GSM900_REV4.p - flashes*
%LPD*%
*
*
G04 PC Circuitry*
G04 Layer Name Gapfiller_GSM900_REV4.p - circuitry*
%LPD*%
*
G54D14*
G01X3740008Y258807D02*
Y260682D01*
X3741883Y259659*
Y260170*
X3742117Y260511*
X3742352Y260682*
X3743055Y260852*
X3743523*
X3744227Y260682*
X3744695Y260341*
X3744930Y259830*
Y259318*
X3744695Y258807*
X3744461Y258636*
X3743992Y258466*
X3705580Y46781D02*
X3708989D01*
X3709330Y50719*
X3708989Y50281*
X3707966Y49844*
X3706943*
X3705920Y50281*
X3705239Y51156*
X3704898Y52469*
X3705239Y53344*
X3705580Y54656*
X3706261Y55531*
X3707284Y55969*
X3708307*
X3709330Y55531*
X3709670Y55094*
X3710011Y54219*
X3701489Y55094D02*
X3701830Y55531D01*
X3701489Y55969*
X3701148Y55531*
X3701489Y55094*
X3696034Y46781D02*
X3697057Y47219D01*
X3697739Y48531*
X3698080Y50719*
Y52031*
X3697739Y54219*
X3697057Y55531*
X3696034Y55969*
X3695352*
X3694330Y55531*
X3693648Y54219*
X3693307Y52031*
Y50719*
X3693648Y48531*
X3694330Y47219*
X3695352Y46781*
X3696034*
X3688193D02*
X3689216Y47219D01*
X3689898Y48531*
X3690239Y50719*
Y52031*
X3689898Y54219*
X3689216Y55531*
X3688193Y55969*
X3687511*
X3686489Y55531*
X3685807Y54219*
X3685466Y52031*
Y50719*
X3685807Y48531*
X3686489Y47219*
X3687511Y46781*
X3688193*
X3680352D02*
X3681375Y47219D01*
X3682057Y48531*
X3682398Y50719*
Y52031*
X3682057Y54219*
X3681375Y55531*
X3680352Y55969*
X3679670*
X3678648Y55531*
X3677966Y54219*
X3677625Y52031*
Y50719*
X3677966Y48531*
X3678648Y47219*
X3679670Y46781*
X3680352*
X3672511D02*
X3673534Y47219D01*
X3674216Y48531*
X3674557Y50719*
Y52031*
X3674216Y54219*
X3673534Y55531*
X3672511Y55969*
X3671830*
X3670807Y55531*
X3670125Y54219*
X3669784Y52031*
Y50719*
X3670125Y48531*
X3670807Y47219*
X3671830Y46781*
X3672511*
X3655807Y48094D02*
Y55969D01*
X3658875Y52031D02*
X3652739D01*
X3643534Y45031D02*
X3649670Y59031D01*
X3640466Y52031D02*
X3634330D01*
X3623080Y55094D02*
X3623420Y55531D01*
X3623080Y55969*
X3622739Y55531*
X3623080Y55094*
X3617625Y46781D02*
X3618648Y47219D01*
X3619330Y48531*
X3619670Y50719*
Y52031*
X3619330Y54219*
X3618648Y55531*
X3617625Y55969*
X3616943*
X3615920Y55531*
X3615239Y54219*
X3614898Y52031*
Y50719*
X3615239Y48531*
X3615920Y47219*
X3616943Y46781*
X3617625*
X3609784D02*
X3610807Y47219D01*
X3611489Y48531*
X3611830Y50719*
Y52031*
X3611489Y54219*
X3610807Y55531*
X3609784Y55969*
X3609102*
X3608080Y55531*
X3607398Y54219*
X3607057Y52031*
Y50719*
X3607398Y48531*
X3608080Y47219*
X3609102Y46781*
X3609784*
X3601943D02*
X3602966Y47219D01*
X3603648Y48531*
X3603989Y50719*
Y52031*
X3603648Y54219*
X3602966Y55531*
X3601943Y55969*
X3601261*
X3600239Y55531*
X3599557Y54219*
X3599216Y52031*
Y50719*
X3599557Y48531*
X3600239Y47219*
X3601261Y46781*
X3601943*
X3591716D02*
X3595125D01*
X3595466Y50719*
X3595125Y50281*
X3594102Y49844*
X3593080*
X3592057Y50281*
X3591375Y51156*
X3591034Y52469*
X3591375Y53344*
X3591716Y54656*
X3592398Y55531*
X3593420Y55969*
X3594443*
X3595466Y55531*
X3595807Y55094*
X3596148Y54219*
X3580125Y46781D02*
Y55969D01*
Y46781D02*
X3577057D01*
X3576034Y47219*
X3575693Y47656*
X3575352Y48531*
Y49406*
X3575693Y50281*
X3576034Y50719*
X3577057Y51156*
X3580125*
X3577739D02*
X3575352Y55969D01*
X3572284Y46781D02*
Y55969D01*
Y46781D02*
X3567852D01*
X3572284Y51156D02*
X3569557D01*
X3572284Y55969D02*
X3567852D01*
X3564784Y46781D02*
Y55969D01*
Y46781D02*
X3560352D01*
X3564784Y51156D02*
X3562057D01*
X3445781Y352943D02*
X3446219Y351920D01*
X3447094Y351580*
X3447969*
X3448844Y351920*
X3449281Y352602*
X3449719Y353966*
X3450156Y354989*
X3451031Y355670*
X3451906Y356011*
X3453219*
X3454094Y355670*
X3454531Y355330*
X3454969Y354307*
Y352943*
X3454531Y351920*
X3454094Y351580*
X3453219Y351239*
X3451906*
X3451031Y351580*
X3450156Y352261*
X3449719Y353284*
X3449281Y354648*
X3448844Y355330*
X3447969Y355670*
X3447094*
X3446219Y355330*
X3445781Y354307*
Y352943*
X3454094Y359420D02*
X3454531Y359080D01*
X3454969Y359420*
X3454531Y359761*
X3454094Y359420*
X3445781Y364875D02*
X3446219Y363852D01*
X3447531Y363170*
X3449719Y362830*
X3451031*
X3453219Y363170*
X3454531Y363852*
X3454969Y364875*
Y365557*
X3454531Y366580*
X3453219Y367261*
X3451031Y367602*
X3449719*
X3447531Y367261*
X3446219Y366580*
X3445781Y365557*
Y364875*
Y372716D02*
X3446219Y371693D01*
X3447531Y371011*
X3449719Y370670*
X3451031*
X3453219Y371011*
X3454531Y371693*
X3454969Y372716*
Y373398*
X3454531Y374420*
X3453219Y375102*
X3451031Y375443*
X3449719*
X3447531Y375102*
X3446219Y374420*
X3445781Y373398*
Y372716*
Y380557D02*
X3446219Y379534D01*
X3447531Y378852*
X3449719Y378511*
X3451031*
X3453219Y378852*
X3454531Y379534*
X3454969Y380557*
Y381239*
X3454531Y382261*
X3453219Y382943*
X3451031Y383284*
X3449719*
X3447531Y382943*
X3446219Y382261*
X3445781Y381239*
Y380557*
Y388398D02*
X3446219Y387375D01*
X3447531Y386693*
X3449719Y386352*
X3451031*
X3453219Y386693*
X3454531Y387375*
X3454969Y388398*
Y389080*
X3454531Y390102*
X3453219Y390784*
X3451031Y391125*
X3449719*
X3447531Y390784*
X3446219Y390102*
X3445781Y389080*
Y388398*
X3447094Y405102D02*
X3454969D01*
X3451031Y402034D02*
Y408170D01*
X3444031Y417375D02*
X3458031Y411239D01*
X3451031Y420443D02*
Y426580D01*
X3454094Y437830D02*
X3454531Y437489D01*
X3454969Y437830*
X3454531Y438170*
X3454094Y437830*
X3445781Y443284D02*
X3446219Y442261D01*
X3447531Y441580*
X3449719Y441239*
X3451031*
X3453219Y441580*
X3454531Y442261*
X3454969Y443284*
Y443966*
X3454531Y444989*
X3453219Y445670*
X3451031Y446011*
X3449719*
X3447531Y445670*
X3446219Y444989*
X3445781Y443966*
Y443284*
Y451125D02*
X3446219Y450102D01*
X3447531Y449420*
X3449719Y449080*
X3451031*
X3453219Y449420*
X3454531Y450102*
X3454969Y451125*
Y451807*
X3454531Y452830*
X3453219Y453511*
X3451031Y453852*
X3449719*
X3447531Y453511*
X3446219Y452830*
X3445781Y451807*
Y451125*
Y458966D02*
X3446219Y457943D01*
X3447531Y457261*
X3449719Y456920*
X3451031*
X3453219Y457261*
X3454531Y457943*
X3454969Y458966*
Y459648*
X3454531Y460670*
X3453219Y461352*
X3451031Y461693*
X3449719*
X3447531Y461352*
X3446219Y460670*
X3445781Y459648*
Y458966*
Y469193D02*
Y465784D01*
X3449719Y465443*
X3449281Y465784*
X3448844Y466807*
Y467830*
X3449281Y468852*
X3450156Y469534*
X3451469Y469875*
X3452344Y469534*
X3453656Y469193*
X3454531Y468511*
X3454969Y467489*
Y466466*
X3454531Y465443*
X3454094Y465102*
X3453219Y464761*
X3445781Y488625D02*
X3454969D01*
X3445781D02*
Y491693D01*
X3446219Y492716*
X3446656Y493057*
X3447531Y493398*
X3448406*
X3449281Y493057*
X3449719Y492716*
X3450156Y491693*
Y488625*
Y491011D02*
X3454969Y493398D01*
X3445781Y496466D02*
X3454969D01*
X3445781D02*
Y500898D01*
X3450156Y496466D02*
Y499193D01*
X3454969Y496466D02*
Y500898D01*
X3445781Y503966D02*
X3454969D01*
X3445781D02*
Y508398D01*
X3450156Y503966D02*
Y506693D01*
X3820437Y833682D02*
X3827000D01*
X3820437D02*
Y836636D01*
X3823562Y833682D02*
Y835500D01*
X3820437Y838682D02*
X3827000D01*
X3820437Y840727D02*
X3827000D01*
Y843455*
X3820437Y845500D02*
X3827000D01*
X3820437D02*
X3827000Y847318D01*
X3820437Y849136D02*
X3827000Y847318D01*
X3820437Y849136D02*
X3827000D01*
X3824187Y851182D02*
Y855273D01*
X3820437Y858909D02*
X3827000D01*
X3820437Y857318D02*
Y860500D01*
Y864364D02*
X3827000Y862545D01*
X3820437Y864364D02*
X3827000Y866182D01*
X3824812Y863227D02*
Y865500D01*
X3820437Y868227D02*
X3827000D01*
X3820437D02*
Y870273D01*
X3820437D02*
X3820750Y870955D01*
X3821062Y871182*
X3821062D02*
X3821687Y871409D01*
X3821687D02*
X3822312D01*
X3822312D02*
X3822937Y871182D01*
X3822937D02*
X3823250Y870955D01*
X3823562Y870273*
X3823562D02*
Y868227D01*
Y869818D02*
X3827000Y871409D01*
X3822000Y876864D02*
X3821375Y876636D01*
X3820750Y876182*
X3820437Y875727*
X3820437D02*
Y874818D01*
X3820437D02*
X3820750Y874364D01*
X3821375Y873909*
X3822000Y873682*
X3822937Y873455*
X3822937D02*
X3824500D01*
X3825437Y873682*
X3825437D02*
X3826062Y873909D01*
X3826062D02*
X3826687Y874364D01*
X3826687D02*
X3827000Y874818D01*
Y875727*
X3826687Y876182*
X3826687D02*
X3826062Y876636D01*
X3826062D02*
X3825437Y876864D01*
X3825437D02*
X3824500D01*
Y875727D02*
Y876864D01*
X3820437Y878909D02*
X3827000D01*
X3820437D02*
Y881864D01*
X3823562Y878909D02*
Y880727D01*
X3827000Y878909D02*
Y881864D01*
X3820437Y885500D02*
X3827000D01*
X3820437Y883909D02*
Y887091D01*
X3900437Y853000D02*
X3907000D01*
Y855727*
X3900437Y858227D02*
Y860727D01*
X3900437D02*
X3902937Y859364D01*
X3902937D02*
Y860045D01*
X3902937D02*
X3903250Y860500D01*
X3903562Y860727*
X3903562D02*
X3904500Y860955D01*
X3905125*
X3906062Y860727*
X3906062D02*
X3906687Y860273D01*
X3906687D02*
X3907000Y859591D01*
Y858909*
X3906687Y858227*
X3906687D02*
X3906375Y858000D01*
X3905750Y857773*
X3900437Y868227D02*
X3907000D01*
X3900437D02*
Y871182D01*
X3903562Y868227D02*
Y870045D01*
X3907000Y868227D02*
Y871182D01*
X3900437Y874818D02*
X3907000D01*
X3900437Y873227D02*
Y876409D01*
X3902000Y881864D02*
X3901375Y881636D01*
X3900750Y881182*
X3900437Y880727*
X3900437D02*
Y879818D01*
X3900437D02*
X3900750Y879364D01*
X3901375Y878909*
X3902000Y878682*
X3902937Y878455*
X3902937D02*
X3904500D01*
X3905437Y878682*
X3905437D02*
X3906062Y878909D01*
X3906062D02*
X3906687Y879364D01*
X3906687D02*
X3907000Y879818D01*
Y880727*
X3906687Y881182*
X3906687D02*
X3906062Y881636D01*
X3906062D02*
X3905437Y881864D01*
X3900437Y883909D02*
X3907000D01*
X3900437Y887091D02*
X3907000D01*
X3903562Y883909D02*
Y887091D01*
X3749500Y178000D02*
Y753000D01*
X3487000*
Y178000*
X3749500*
X3449500Y520500D02*
Y820500D01*
X3467000Y850500D02*
X3472000D01*
X3432000D02*
X3427000D01*
X3449500Y867500D02*
Y873000D01*
Y833500D02*
Y828000D01*
X3464500Y851500D02*
X3450500D01*
Y865500*
Y835500D02*
Y849500D01*
X3464500*
X3434500Y851500D02*
X3448500D01*
Y865500*
X3462400Y851402D02*
G75*
G03X3462276Y852500I-12900J-902D01*
G01X3462400Y848503D02*
G03X3462524Y849612I-12899J1997D01*
G01X3436600Y849598D02*
G03X3436654Y849014I12902J902D01*
G01X3436599Y851993D02*
G03X3436545Y851407I12902J-1492D01*
G01X3469500Y850500D02*
G03X3469500I-20000J0D01*
G01X3436599Y849007D02*
G03X3447985Y837602I12901J1493D01*
G01X3448007Y863401D02*
G03X3436602Y852015I1493J-12901D01*
G01X3462401Y851993D02*
G03X3451015Y863398I-12901J-1493D01*
G01X3450402Y837600D02*
G03X3462346Y849014I-902J12900D01*
G01X3434500Y849500D02*
X3448500D01*
Y835500*
X3479500Y50500D02*
X3549500D01*
X3449500Y90500D02*
Y340500D01*
X3467000Y50500D02*
X3472000D01*
X3432000D02*
X3427000D01*
X3449500Y67500D02*
Y73000D01*
Y33500D02*
Y28000D01*
X3464500Y51500D02*
X3450500D01*
Y65500*
Y35500D02*
Y49500D01*
X3464500*
X3434500Y51500D02*
X3448500D01*
Y65500*
X3462400Y51402D02*
G03X3462276Y52500I-12900J-902D01*
G01X3462400Y48503D02*
G03X3462524Y49612I-12899J1997D01*
G01X3436600Y49598D02*
G03X3436654Y49014I12902J902D01*
G01X3436599Y51993D02*
G03X3436545Y51407I12902J-1492D01*
G01X3469500Y50500D02*
G03X3469500I-20000J0D01*
G01X3436599Y49007D02*
G03X3447985Y37602I12901J1493D01*
G01X3448007Y63401D02*
G03X3436602Y52015I1493J-12901D01*
G01X3462401Y51993D02*
G03X3451015Y63398I-12901J-1493D01*
G01X3450402Y37600D02*
G03X3462346Y49014I-902J12900D01*
G01X3434500Y49500D02*
X3448500D01*
Y35500*
X3724500Y50500D02*
X3919500D01*
X3967000D02*
X3972000D01*
X3932000D02*
X3927000D01*
X3949500Y67500D02*
Y73000D01*
Y33500D02*
Y28000D01*
X3964500Y51500D02*
X3950500D01*
Y65500*
Y35500D02*
Y49500D01*
X3964500*
X3934500Y51500D02*
X3948500D01*
Y65500*
X3962400Y51402D02*
G03X3962276Y52500I-12900J-902D01*
G01X3962400Y48503D02*
G03X3962524Y49612I-12899J1997D01*
G01X3936600Y49598D02*
G03X3936654Y49014I12902J902D01*
G01X3936599Y51993D02*
G03X3936545Y51407I12902J-1492D01*
G01X3969500Y50500D02*
G03X3969500I-20000J0D01*
G01X3936599Y49007D02*
G03X3947985Y37602I12901J1493D01*
G01X3948007Y63401D02*
G03X3936602Y52015I1493J-12901D01*
G01X3962401Y51993D02*
G03X3951015Y63398I-12901J-1493D01*
G01X3950402Y37600D02*
G03X3962346Y49014I-902J12900D01*
G01X3934500Y49500D02*
X3948500D01*
Y35500*
X3399500Y500D02*
Y900500D01*
X3999500*
Y500*
X3399500*
G54D15*
X3702500Y293000D02*
Y330500D01*
X3695500Y337500*
X3585000*
X3569500Y353000*
Y431000*
X3582500Y444000*
Y510500*
X3590000Y518000*
Y571000*
X3593500Y574500*
Y605000*
X3576000Y622500*
Y640500*
X3569000Y647500*
Y696000*
X3562500Y702500*
Y730500*
X3566500Y734500*
X3573000*
X3718000Y563000D02*
X3652500D01*
X3644000Y571500*
X3628500*
X3718000Y563000D02*
X3722000Y567000D01*
Y594500*
X3628500Y571500D02*
X3625500Y574500D01*
X3617500*
X3614500Y577500*
Y585500*
X3604500Y595500*
Y606500*
X3609500Y611500*
Y678000*
X3573000Y714500*
Y726500*
X3618000Y741500D02*
X3615500Y739000D01*
X3614000*
X3605500Y747500*
X3618000Y734000D02*
Y735500D01*
X3616000Y737500*
X3612500*
X3604500Y745500*
X3574000Y322000D02*
X3559500Y336500D01*
X3556000*
X3552000Y340500*
Y452500*
X3560500Y461000*
Y472000*
X3554000Y478500*
Y555500*
X3551750Y557750*
Y590500*
X3556000Y594750*
Y605500*
X3550500Y611000*
Y617000*
X3537500Y630000*
Y658500*
X3552000Y673000*
Y740000*
X3559500Y747500*
X3605500*
X3574000Y322000D02*
X3579000D01*
X3581000Y324000*
Y330000*
X3574500Y324500D02*
X3578000D01*
X3579000Y325500*
Y328000*
X3577000Y330000*
X3574500Y324500D02*
X3560500Y338500D01*
X3556500*
X3554000Y341000*
Y451000*
X3562500Y459500*
Y473500*
X3556000Y480000*
Y557000*
X3553859Y559141*
Y588859*
X3558000Y593000*
Y606500*
X3552500Y612000*
Y617500*
X3539500Y630500*
Y657500*
X3554000Y672000*
Y739000*
X3560500Y745500*
X3604500*
G54D16*
X3741500Y310000D03*
X3730000Y298500D03*
X3726000Y302250D03*
X3735750Y298500D03*
X3739500Y302250D03*
X3734000Y350000D03*
Y346500D03*
X3730000Y350000D03*
X3735750Y330000D03*
X3724000Y343000D03*
Y350000D03*
X3720500Y346500D03*
X3739500Y326500D03*
X3720500Y389500D03*
Y385500D03*
Y378000D03*
X3739500Y438000D03*
X3724500D03*
X3729500D03*
X3734500D03*
X3744500D03*
X3730000Y479500D03*
Y471500D03*
X3724000Y457000D03*
Y449500D03*
X3729500Y447000D03*
X3736000Y457500D03*
X3729500Y459500D03*
X3744500Y478000D03*
Y473000D03*
Y468000D03*
Y463000D03*
Y453000D03*
Y448000D03*
Y443000D03*
Y458000D03*
X3729000Y508000D03*
X3744500Y503000D03*
Y518000D03*
Y513000D03*
Y508000D03*
Y498000D03*
Y493000D03*
Y488000D03*
Y483000D03*
X3725000Y498500D03*
Y513500D03*
X3729000Y523000D03*
X3744500Y558000D03*
Y553000D03*
Y548000D03*
Y543000D03*
Y538000D03*
Y533000D03*
Y528000D03*
Y523000D03*
X3726000Y577500D03*
X3722000Y594500D03*
X3744500Y593000D03*
Y598000D03*
Y588000D03*
Y583000D03*
Y578000D03*
Y573000D03*
Y568000D03*
Y563000D03*
X3732000Y594000D03*
Y577500D03*
X3720500Y638000D03*
X3724500Y634000D03*
Y626000D03*
X3733500Y620500D03*
X3730500Y626000D03*
Y634000D03*
X3744500Y633000D03*
Y628000D03*
Y623000D03*
Y618000D03*
Y613000D03*
Y608000D03*
Y603000D03*
Y638000D03*
X3726500Y652000D03*
X3736500Y643500D03*
X3735500Y650500D03*
X3736000Y647000D03*
X3744500Y678000D03*
Y673000D03*
Y668000D03*
Y663000D03*
Y658000D03*
Y653000D03*
Y648000D03*
Y643000D03*
Y718000D03*
Y713000D03*
Y708000D03*
Y703000D03*
Y698000D03*
Y693000D03*
Y688000D03*
Y683000D03*
Y738000D03*
Y733000D03*
Y728000D03*
Y723000D03*
Y743000D03*
Y748000D03*
X3704500Y197500D03*
X3684500Y193000D03*
Y188000D03*
X3689500Y191000D03*
X3693000Y187500D03*
X3703250Y191000D03*
Y187500D03*
X3699500D03*
X3689000Y229000D03*
Y235500D03*
Y240500D03*
X3693500D03*
X3705500Y235500D03*
X3700500Y241500D03*
X3705500Y215500D03*
Y227000D03*
X3696000Y265500D03*
X3703500Y275500D03*
X3682000Y249500D03*
X3697000D03*
X3689500D03*
X3692000Y276500D03*
X3681500Y288000D03*
X3702500Y293000D03*
X3684000Y310000D03*
X3691500Y288500D03*
X3688500Y286500D03*
X3705000Y362000D03*
X3695500Y337500D03*
X3705000Y355500D03*
X3705500Y388500D03*
X3705000Y396500D03*
Y377500D03*
Y369000D03*
X3700000Y365500D03*
X3687000Y396000D03*
X3709000Y401000D03*
X3694500Y385500D03*
X3692000Y388000D03*
X3697000D03*
Y383000D03*
X3692000D03*
X3709000Y395000D03*
X3716500D03*
X3700500Y396500D03*
X3709000Y407000D03*
X3684500Y438000D03*
X3689500D03*
X3694500D03*
X3699500D03*
X3709500D03*
X3714500D03*
X3719500D03*
X3704500D03*
X3709000Y465500D03*
X3703000D03*
X3683000D03*
X3713500Y507500D03*
X3707000Y513000D03*
X3704500Y515500D03*
X3702000Y513000D03*
X3697000Y508000D03*
X3702000Y518000D03*
X3707000D03*
X3717500Y498500D03*
Y513500D03*
X3709000Y485500D03*
X3703000D03*
X3683000D03*
X3704000Y556000D03*
X3702500Y527500D03*
X3706500D03*
X3713500Y523500D03*
X3697000Y523000D03*
X3711500Y534500D03*
X3718000Y577500D03*
X3691000D03*
X3683000D03*
X3712000D03*
X3697000D03*
X3699500Y588500D03*
X3681500Y634000D03*
Y641500D03*
X3699000Y623000D03*
X3699500Y627500D03*
X3689000Y638500D03*
X3712000Y635500D03*
X3681500Y628000D03*
X3689500Y633000D03*
X3693500Y613000D03*
X3716000D03*
X3698500Y617000D03*
X3707000Y635500D03*
X3697000Y640500D03*
X3702000D03*
X3699500Y638000D03*
Y609500D03*
X3702000Y635500D03*
X3697000D03*
X3704500Y638000D03*
X3709500D03*
X3707000Y640500D03*
X3712000D03*
X3705500Y666000D03*
X3681500Y655000D03*
X3699500Y658500D03*
X3689500Y648000D03*
X3693000Y680500D03*
X3716500D03*
X3681500Y661000D03*
Y647500D03*
X3695500Y668500D03*
X3699500Y666000D03*
X3719500Y658000D03*
X3697000Y645500D03*
X3702000D03*
X3699500Y643000D03*
Y648000D03*
X3702000Y650500D03*
X3712000D03*
X3697000D03*
X3704500Y643000D03*
X3709500D03*
Y648000D03*
X3704500D03*
X3707000Y645500D03*
Y650500D03*
X3712000Y645500D03*
X3680500Y683000D03*
X3717000Y710500D03*
X3707000D03*
X3693500Y685000D03*
X3686500D03*
X3717000Y726500D03*
X3707000D03*
X3679500Y188000D03*
X3669500D03*
X3679500Y193000D03*
X3674500Y188000D03*
X3642500Y205250D03*
X3657000Y213000D03*
X3662000D03*
X3652000D03*
Y204750D03*
X3657000D03*
X3662000D03*
X3672750Y205000D03*
X3652500Y270000D03*
X3677500Y277000D03*
X3663000Y265000D03*
X3657000Y265500D03*
X3667000Y249500D03*
X3641500Y280500D03*
X3660000Y277000D03*
X3663000Y250500D03*
X3660000Y281000D03*
X3668000Y277000D03*
X3666500Y265000D03*
X3659500Y249500D03*
X3652000D03*
X3674500D03*
X3664000Y277000D03*
Y281000D03*
X3668000D03*
X3649500Y286000D03*
X3650000Y300000D03*
X3677500Y288000D03*
X3645500Y295500D03*
X3664000Y285000D03*
X3649500Y290000D03*
X3654000Y293000D03*
X3676500Y310000D03*
X3669000D03*
X3660000Y285000D03*
X3654000Y310000D03*
X3661500D03*
X3645500D03*
X3668000Y285000D03*
X3663500Y345000D03*
X3651500D03*
X3675500D03*
X3655500D03*
X3671500D03*
X3659500Y329000D03*
X3679500Y333500D03*
Y329000D03*
X3667500Y333500D03*
X3659500D03*
X3648000D03*
Y329000D03*
X3679500Y396000D03*
X3675000Y367000D03*
X3673500Y395500D03*
X3666500Y374500D03*
Y396500D03*
X3660000Y372000D03*
Y399000D03*
X3677000Y371000D03*
X3646500Y378500D03*
X3673500Y375500D03*
X3677000Y403500D03*
Y419500D03*
X3664500Y438000D03*
X3669500D03*
X3674500D03*
X3679500D03*
X3659500Y470500D03*
Y465500D03*
X3657000Y463000D03*
Y468000D03*
X3654500Y470500D03*
X3652000Y463000D03*
X3654500Y465500D03*
X3652000Y468000D03*
X3667000Y463000D03*
Y453000D03*
Y458000D03*
Y468000D03*
Y448000D03*
Y443000D03*
X3647000Y515000D03*
Y511000D03*
X3660500Y503000D03*
Y511000D03*
X3667000Y518000D03*
Y513000D03*
Y483000D03*
Y493000D03*
Y508000D03*
Y503000D03*
Y498000D03*
Y488000D03*
X3660500Y518500D03*
X3650000Y493500D03*
X3643500Y497000D03*
X3660500D03*
X3655750Y555500D03*
X3647000Y533500D03*
Y526000D03*
X3642000Y532610D03*
X3660500Y533500D03*
X3667000Y543000D03*
Y553000D03*
Y548000D03*
Y538000D03*
Y533000D03*
Y528000D03*
Y523000D03*
X3660500Y526000D03*
X3667500Y599500D03*
X3667000Y578000D03*
Y583000D03*
Y568000D03*
X3679500Y599500D03*
X3659500D03*
X3647800Y585700D03*
X3677000Y577500D03*
X3657500Y618000D03*
X3650500Y634500D03*
X3679500Y614000D03*
X3667000Y618000D03*
Y623000D03*
Y628000D03*
Y633000D03*
Y638000D03*
X3647800Y614200D03*
X3643500Y677000D03*
X3650500D03*
X3643500Y655000D03*
X3657500Y676500D03*
X3667000Y643000D03*
Y648000D03*
Y653000D03*
Y658000D03*
Y663000D03*
Y668000D03*
Y673000D03*
Y678000D03*
X3677500Y683000D03*
X3654500Y690000D03*
Y693500D03*
X3648500Y713500D03*
Y700500D03*
X3675000Y690500D03*
X3667000Y683000D03*
Y688000D03*
Y693000D03*
Y708000D03*
Y713000D03*
Y718000D03*
Y698000D03*
Y703000D03*
X3656500Y748000D03*
Y745000D03*
X3650500Y748000D03*
Y745000D03*
X3667000Y723000D03*
Y748000D03*
Y743000D03*
X3618000Y188500D03*
X3604000Y196000D03*
Y185500D03*
Y191000D03*
X3609000D03*
Y185500D03*
X3625500Y203500D03*
X3622250D03*
X3617000Y208000D03*
X3622250D03*
X3629500D03*
X3617000Y213000D03*
X3621750D03*
X3629500D03*
X3609000Y207500D03*
X3633000Y265500D03*
Y272500D03*
X3602000Y264500D03*
X3603500Y276000D03*
X3622500Y263500D03*
X3638000Y265500D03*
X3623000Y269000D03*
X3607500Y316000D03*
X3616500Y312500D03*
X3620500Y310000D03*
X3638000Y312500D03*
X3634000D03*
X3630000D03*
X3603000Y289500D03*
X3610500D03*
X3624500Y291000D03*
X3628000Y287500D03*
X3604500Y308500D03*
X3628000Y300500D03*
X3635500D03*
X3623000Y349000D03*
X3616500Y345000D03*
X3612344Y345500D03*
X3608500D03*
X3604500D03*
X3636000Y333500D03*
Y329000D03*
X3628000Y333500D03*
Y329000D03*
X3639000Y378500D03*
X3601000Y394500D03*
X3604500D03*
X3624000Y378500D03*
X3631500D03*
X3602000Y389000D03*
Y381500D03*
X3601000Y428500D03*
X3604500D03*
X3616500Y418000D03*
X3609000Y405000D03*
Y428500D03*
X3604500Y404750D03*
X3620500Y441000D03*
X3627500D03*
X3616500Y405000D03*
X3604000Y418000D03*
X3635000Y441000D03*
X3605000D03*
X3610000Y411500D03*
X3618000Y456000D03*
X3619000Y482000D03*
X3622000D03*
X3611500Y512500D03*
X3616500Y521000D03*
Y510000D03*
X3612000Y504750D03*
X3621500Y497000D03*
X3637500D03*
X3616500Y516000D03*
X3629500Y520500D03*
X3627000Y518000D03*
X3632000D03*
X3624500Y515500D03*
X3627000Y513000D03*
X3632000D03*
X3629500Y510500D03*
X3615500Y491500D03*
X3629500Y515500D03*
X3624500Y520500D03*
X3634500D03*
Y515500D03*
Y510500D03*
X3624500D03*
X3615500Y497000D03*
X3602500Y516500D03*
Y508000D03*
X3600500Y545500D03*
X3624000Y531000D03*
X3613000Y557500D03*
X3611500Y561000D03*
X3604500Y544500D03*
X3614500Y552500D03*
X3611000Y550500D03*
X3616500Y531000D03*
X3602000Y553000D03*
X3609500Y538500D03*
X3636000Y535000D03*
X3604500Y550000D03*
X3619500Y552500D03*
X3602500Y523500D03*
Y531000D03*
X3639500Y561000D03*
X3638000Y552000D03*
X3609500Y544500D03*
X3636000Y548000D03*
X3609500Y534500D03*
X3608500Y601000D03*
X3616500Y599000D03*
X3612500D03*
X3624000D03*
X3620000D03*
X3605000Y585000D03*
X3607500Y582500D03*
X3600000D03*
X3607000Y570500D03*
X3623500D03*
Y580500D03*
X3628500Y571500D03*
X3602000Y567000D03*
X3636100Y585700D03*
X3628500Y586000D03*
X3601000Y629000D03*
X3617000Y638000D03*
X3633500Y633500D03*
X3605500Y625500D03*
Y620000D03*
X3636100Y614500D03*
X3628000D03*
X3615500Y677000D03*
X3622500D03*
X3617000Y652000D03*
X3607000Y674000D03*
X3632000Y645500D03*
X3637000D03*
Y650500D03*
X3632000D03*
X3636500Y676500D03*
X3629500D03*
X3617000Y658000D03*
Y644000D03*
X3604000Y719000D03*
X3618000D03*
X3632000D03*
X3604000Y741500D03*
Y734000D03*
Y726500D03*
X3618000D03*
Y734000D03*
Y741500D03*
X3632000D03*
Y734000D03*
Y726500D03*
X3599500Y196000D03*
Y191000D03*
Y185500D03*
X3562000Y275500D03*
Y270500D03*
X3567000Y280500D03*
Y270500D03*
Y275500D03*
X3561000Y258500D03*
X3585000Y279000D03*
X3595500Y289500D03*
X3588000D03*
X3569000Y300000D03*
Y296500D03*
X3573000D03*
X3569000Y293000D03*
X3598500Y316500D03*
X3561000Y283000D03*
X3563000Y300000D03*
X3561000Y290500D03*
X3582500Y314000D03*
X3579000Y310500D03*
X3569000Y287000D03*
X3580000Y303000D03*
X3565500Y344500D03*
X3573000D03*
X3569000D03*
X3577000Y330000D03*
X3581000D03*
X3564500Y360500D03*
Y352500D03*
X3584000Y361500D03*
X3561000Y344500D03*
X3598500Y345500D03*
X3583500Y394000D03*
X3574000Y363500D03*
X3592500D03*
X3582500Y400500D03*
X3578000Y364500D03*
X3583500Y430000D03*
X3591000Y418000D03*
X3598500Y405000D03*
Y418000D03*
X3582500Y422500D03*
X3586000Y481500D03*
X3589500Y478000D03*
X3574000Y445000D03*
X3566500D03*
X3596500Y444500D03*
X3595500Y510000D03*
Y513000D03*
X3589500D03*
Y510000D03*
X3566000Y508500D03*
Y501000D03*
Y493500D03*
Y486000D03*
X3562500Y493500D03*
Y501000D03*
Y508500D03*
Y516000D03*
X3578000Y540500D03*
X3583500Y523000D03*
X3586500D03*
X3593000Y546000D03*
Y527000D03*
X3596500Y585000D03*
X3576000Y600000D03*
X3573000D03*
X3565000Y586000D03*
X3569500Y599000D03*
X3568500Y586000D03*
X3564500Y581500D03*
X3561000Y586000D03*
X3573000Y582000D03*
X3564500Y573500D03*
X3589500Y600000D03*
X3580500Y568500D03*
X3587000Y629000D03*
X3580000Y629500D03*
X3594000Y629000D03*
X3573000Y614000D03*
X3561163D03*
X3585000Y636000D03*
X3572000D03*
X3561000Y629000D03*
X3572000D03*
X3576500Y657000D03*
Y651500D03*
X3564000Y668500D03*
X3596500Y651500D03*
X3590000Y653000D03*
X3597500Y670500D03*
X3576500Y682000D03*
X3580000Y670500D03*
X3585000Y649000D03*
Y654500D03*
Y659500D03*
X3576500Y692000D03*
X3587000Y719000D03*
Y711000D03*
X3565000Y718500D03*
Y711500D03*
X3563500Y692000D03*
X3597500Y718500D03*
X3573000Y734500D03*
Y726500D03*
X3596000Y738000D03*
X3542000Y185500D03*
Y190500D03*
Y195500D03*
Y200500D03*
X3552000Y238000D03*
X3555500D03*
X3542000Y225500D03*
Y205500D03*
Y210500D03*
Y215500D03*
Y220500D03*
Y230500D03*
X3552000Y224000D03*
X3559500D03*
X3554500Y248000D03*
Y243000D03*
X3551500Y279500D03*
X3551000Y268500D03*
X3542000Y255500D03*
Y280500D03*
Y260500D03*
Y265500D03*
Y270500D03*
Y275500D03*
X3558000Y258500D03*
X3556000Y300000D03*
X3559500Y296500D03*
X3526000Y303000D03*
X3551500Y314000D03*
X3542000Y285500D03*
Y320500D03*
Y315500D03*
Y310500D03*
Y305500D03*
Y300500D03*
Y295500D03*
Y290500D03*
X3551500Y294000D03*
X3559000Y349500D03*
X3542000Y350500D03*
Y345500D03*
Y340500D03*
Y335500D03*
Y330500D03*
Y325500D03*
X3557000Y344500D03*
Y333000D03*
Y329000D03*
X3549000Y365500D03*
X3559000Y363500D03*
X3533000Y389500D03*
Y382500D03*
Y397000D03*
X3542000Y385500D03*
Y400500D03*
Y395500D03*
Y390500D03*
Y380500D03*
Y375500D03*
Y370500D03*
Y365500D03*
X3524500Y364500D03*
X3525000Y429500D03*
X3533000Y404500D03*
X3542000Y405500D03*
Y415500D03*
Y420500D03*
Y425500D03*
Y430500D03*
Y435500D03*
Y440500D03*
Y410500D03*
X3531500Y429000D03*
X3534500D03*
X3533000Y412000D03*
X3534500Y453000D03*
Y443500D03*
X3557000Y465500D03*
Y470500D03*
X3552000D03*
X3554500Y468000D03*
Y463000D03*
X3552000Y465500D03*
X3549500Y468000D03*
Y463000D03*
X3523000Y456500D03*
X3527000Y475500D03*
X3542000Y445500D03*
Y450500D03*
Y455500D03*
Y460500D03*
Y465500D03*
Y470500D03*
Y480500D03*
Y475500D03*
X3526500Y495000D03*
X3542000Y485500D03*
Y490500D03*
Y500500D03*
Y505500D03*
Y510500D03*
Y515500D03*
Y520500D03*
X3533500Y538000D03*
Y541000D03*
X3542000Y525500D03*
Y530500D03*
Y540500D03*
Y535500D03*
X3522000Y555500D03*
X3527000D03*
X3532000D03*
X3542000D03*
X3537000D03*
X3551000Y536500D03*
X3520500Y531000D03*
X3543500Y602000D03*
X3540500D03*
X3538500Y590000D03*
Y575000D03*
X3559000Y565000D03*
X3557500Y586000D03*
X3537000Y617000D03*
X3543500D03*
X3540500D03*
X3533500D03*
X3542000Y640500D03*
X3547500Y639500D03*
X3533500Y603000D03*
X3526000D03*
X3557500Y614000D03*
X3542000Y645500D03*
X3547500D03*
X3553500Y652000D03*
X3558000Y668500D03*
X3492000Y200500D03*
Y195500D03*
Y190500D03*
Y185500D03*
X3504000Y226000D03*
X3514000Y237500D03*
X3503500Y242000D03*
X3510500D03*
X3492000Y220500D03*
Y240500D03*
Y235500D03*
Y230500D03*
Y225500D03*
Y215500D03*
Y210500D03*
Y205500D03*
X3500500Y242000D03*
Y256500D03*
X3492000Y265500D03*
Y280500D03*
Y275500D03*
Y255500D03*
Y250500D03*
Y270500D03*
Y260500D03*
Y245500D03*
X3512000Y270000D03*
X3513500Y300000D03*
Y307500D03*
X3492000Y320500D03*
Y315500D03*
Y310500D03*
Y305500D03*
Y300500D03*
Y295500D03*
Y290500D03*
Y285500D03*
X3512000Y292500D03*
X3501000Y353500D03*
X3504500Y323000D03*
X3504000Y338500D03*
X3501000D03*
X3510500D03*
X3514500Y334500D03*
X3492000Y355500D03*
Y360500D03*
Y350500D03*
Y345500D03*
Y340500D03*
Y335500D03*
Y330500D03*
Y325500D03*
X3504500Y380500D03*
X3502500Y386000D03*
Y402000D03*
X3499000Y394000D03*
Y390000D03*
Y398000D03*
X3502500D03*
X3517500Y391500D03*
Y398500D03*
Y395000D03*
X3519500Y383000D03*
X3492000Y400500D03*
Y395500D03*
Y390500D03*
Y385500D03*
Y380500D03*
Y375500D03*
Y370500D03*
Y365500D03*
X3514000Y395000D03*
Y398500D03*
X3510500D03*
Y395000D03*
Y391500D03*
X3514000D03*
X3506500Y386000D03*
X3504500Y374500D03*
X3500500Y408500D03*
X3508500Y429000D03*
X3492000Y440500D03*
Y435500D03*
Y430500D03*
Y425500D03*
Y420500D03*
Y415500D03*
Y410500D03*
Y405500D03*
X3509000Y406500D03*
X3519000Y477500D03*
X3510500Y475500D03*
X3492000D03*
Y470500D03*
Y480500D03*
Y465500D03*
Y460500D03*
Y455500D03*
Y450500D03*
Y445500D03*
X3511000Y495000D03*
X3519000Y516500D03*
Y511500D03*
X3492000Y485500D03*
Y490500D03*
Y495500D03*
Y500500D03*
Y505500D03*
Y510500D03*
Y515500D03*
Y520500D03*
X3519000Y520000D03*
X3492000Y525500D03*
Y530500D03*
Y535500D03*
Y540500D03*
Y545500D03*
Y555500D03*
Y550500D03*
X3517000Y555500D03*
X3497000D03*
X3502000D03*
X3507000D03*
X3512000D03*
X3519000Y523500D03*
X3518500Y541000D03*
Y538000D03*
X3499000Y614500D03*
X3505500D03*
X3516000Y648000D03*
X3511500Y678500D03*
Y714500D03*
Y696500D03*
G54D23*
G54D32*
X3564500Y203000D03*
X3724500D03*
X3534500Y688000D03*
X3724500Y418000D03*
G54D43*
X3521400Y198600D03*
X3689000Y735600D03*
X3527000Y733000D03*
G54D44*
X3511400Y188600D03*
X3531400D03*
Y208600D03*
X3511400D03*
X3699000Y725600D03*
Y745600D03*
X3679000D03*
Y725600D03*
X3517000Y723000D03*
X3537000D03*
Y743000D03*
X3517000D03*
G54D46*
X3550533Y599875D03*
X3685967D03*
X3550533Y331125D03*
X3685967D03*
G54D85*
X3519547Y240500D03*
X3521516D03*
X3523484D03*
X3525453D03*
X3513047Y430000D03*
X3515016D03*
X3516984D03*
X3518953D03*
X3520047Y337500D03*
X3522016D03*
X3523984D03*
X3525953D03*
X3519547Y240500D03*
X3513047Y430000D03*
X3520047Y337500D03*
G74*
X0Y0D02*
M02*
