%
T1C.01181F095S3
X00375Y020495
X00375Y020298
X00375Y020102
X00375Y019905
X01345Y020445
X01345Y020248
X01345Y020052
X01345Y019855
X0227Y021145
X0227Y020948
X0227Y020752
X0227Y020555
T2C.014F095S3
X00955Y-00055
X00955Y-001125
X009925Y-00015
X009925Y-0015
X0107Y-0017
X01235Y-0015
X0127Y-001125
X014Y00005
X01435Y-00095
X01435Y0004
X0147Y00005
X0147Y-00055
X0147Y-00095
X0175Y0004
X01825Y0004
X01865Y0004
X0235Y-0015
X0235Y0
X0235Y-0005
X0235Y-001
X0235Y-002
X024Y-002
X0244Y-0005
X0245Y-002
X02465Y00005
X025Y-002
X0254Y00005
X02545Y-00115
X0255Y-002
X02565Y-0005
X026Y-002
X0265Y-002
X02685Y-00055
X027Y-002
X0275Y-002
X02765Y-00055
X028Y-002
X0285Y-002
X029Y-002
X0295Y-002
X02955Y-00005
X03Y-002
X0305Y-00045
X0305Y-002
X031Y-002
X03105Y-00005
X0315Y-002
X032Y-00045
X032Y-002
X0325Y-002
X033Y-002
X0335Y-002
X034Y-002
X0345Y-002
X035Y-002
X0355Y-002
X036Y-002
X0365Y-002
X037Y-002
X03745Y-00015
X03745Y-00075
X0375Y-002
X038Y-002
X0385Y-002
X039Y-002
X0391Y-00075
X03915Y00025
X0395Y-002
X04Y-002
X0405Y-002
X041Y-002
X0415Y-002
X04175Y-0009
X042Y-002
X0423Y-0006
X0423Y0
X0425Y-002
X043Y-002
X0431Y-0006
X0431Y0
X0435Y0004
X0435Y-002
X044Y-002
X04405Y-0012
X0444Y-00115
X0445Y-002
X04475Y-0011
X0449Y-0002
X045Y-002
X0455Y-002
X046Y-002
X0465Y-002
X047Y-002
X0475Y-002
X048Y-002
X0485Y-002
X049Y-002
X0495Y-002
X05Y-002
X0505Y-002
X051Y-002
X0515Y-002
X052Y-002
X0525Y-002
X053Y-002
X0535Y-002
X054Y-002
X0545Y-002
X05235Y00075
X05235Y00175
X05075Y00075
X05075Y00175
X04775Y0008
X04655Y0029
X0463Y0019
X0463Y0025
X04555Y0025
X0455Y0005
X04475Y00225
X04475Y00125
X04475Y00275
X04475Y00175
X0445Y0025
X0445Y0015
X0445Y002
X04425Y00275
X04425Y00225
X04425Y00175
X04425Y00125
X044Y0025
X044Y002
X044Y0015
X04375Y00275
X04375Y00225
X04375Y00175
X04375Y00125
X0435Y0025
X0435Y002
X0435Y0015
X04325Y00125
X04325Y00175
X04325Y00225
X04325Y00275
X04245Y0025
X042Y00255
X0414Y0026
X041Y00085
X04065Y0025
X03855Y0025
X03745Y00065
X03745Y00125
X03745Y00275
X0353Y00205
X03315Y0013
X03245Y0022
X03245Y0018
X03205Y0011
X032Y00275
X0315Y00175
X0315Y00225
X03125Y002
X03105Y0007
X031Y00175
X031Y00225
X0305Y00275
X03045Y0011
X02955Y0007
X02825Y00155
X02825Y00215
X02625Y00155
X02625Y00215
X0235Y0015
X0235Y002
X0235Y001
X0235Y0005
X0235Y0025
X0204Y00155
X0198Y00155
X01935Y0024
X01935Y00195
X0192Y00155
X0192Y0008
X01855Y0019
X0185Y00275
X018Y00275
X01745Y00195
X0166Y00195
X01625Y00245
X0159Y00195
X01525Y00195
X01345Y0029
X009Y0022
X00725Y0021
X00625Y00285
X00465Y00275
X00385Y0024
X00325Y0019
X0024Y0019
X00125Y0019
X-00055Y002
X-0012Y002125
X-00155Y002125
X-00155Y0025
X-00155Y00315
X-0015Y004
X-0015Y0045
X-0015Y005
X-0012Y0035
X-001Y004
X-001Y0045
X0002Y005175
X0026Y00355
X00325Y00355
X00375Y00355
X00375Y0031
X00465Y00425
X00465Y0035
X00465Y005
X00735Y00325
X0074Y0047
X00835Y0036
X0085Y0043
X0085Y0047
X00855Y0033
X0107Y00405
X0107Y0048
X0126Y0045
X01305Y0045
X0142Y0049
X0142Y0053
X0164Y00495
X0168Y00475
X01725Y0051
X018Y00325
X01825Y003
X0185Y00325
X01925Y0051
X0193Y00375
X0193Y0045
X02005Y00475
X02165Y00475
X0235Y0035
X0235Y004
X0235Y003
X0235Y005
X0235Y0045
X02625Y00415
X02825Y00415
X03745Y00415
X03745Y00335
X03745Y00475
X03965Y0045
X041Y0031
X0411Y0045
X0425Y0043
X043Y0035
X0431Y0043
X04355Y00355
X04385Y0043
X04445Y0043
X0445Y0035
X0452Y0043
X0458Y0043
X04775Y00315
X048Y0044
X048Y0047
X0482Y0031
X0482Y0038
X04875Y00495
X0545Y0068
X0545Y0074
X0545Y00575
X0542Y0068
X0542Y0074
X054Y00575
X052Y00575
X0515Y00575
X05105Y0076
X051Y00575
X0505Y00575
X05Y00575
X04975Y0076
X0495Y00575
X04905Y007
X049Y00575
X0487Y007
X0485Y00575
X048Y00575
X0475Y00575
X0474Y0074
X04735Y0067
X047Y00575
X0465Y00575
X046Y00575
X0455Y00575
X045Y00575
X0445Y00575
X044Y00575
X0435Y00575
X04315Y0074
X043Y00575
X0425Y00575
X042Y00575
X0415Y0067
X0415Y00575
X04112Y00767
X03965Y0057
X03965Y0065
X03827Y00767
X038Y00575
X0375Y00575
X0365Y00575
X03525Y006875
X035Y00575
X0345Y00575
X034Y00575
X0335Y00575
X03305Y00775
X03305Y0064
X033Y00575
X0325Y00575
X0323Y00775
X0323Y0064
X032Y00575
X03155Y0064
X0315Y00575
X0312Y00775
X031Y00575
X0308Y0064
X0308Y00775
X0305Y00575
X03Y0064
X03Y00575
X0295Y00575
X0294Y0064
X02905Y00745
X029Y00575
X0285Y00575
X028Y00575
X02675Y0065
X02675Y007
X0265Y00675
X0265Y00725
X0265Y00575
X02625Y007
X02625Y0065
X026Y00675
X026Y00725
X026Y00575
X0255Y00575
X025Y00575
X0245Y00575
X024Y00575
X0235Y0055
X0235Y006
X0196Y00645
X01935Y0058
X01755Y0078
X01715Y0058
X0169Y00645
X0142Y0069
X0142Y0073
X0142Y0061
X01305Y00765
X01305Y0065
X01305Y0057
X0126Y00765
X0126Y0065
X0107Y0063
X0107Y0079
X0107Y00705
X0107Y00555
X0097Y00745
X00925Y0079
X009Y00705
X0087Y0075
X0083Y0075
X0082Y00565
X0082Y00645
X0082Y00605
X0078Y00605
X0078Y00645
X0078Y00565
X0074Y00645
X0074Y00565
X0074Y00605
X0067Y0072
X00625Y00675
X0062Y00615
X0062Y0058
X00475Y00615
X00465Y00725
X00465Y0065
X00465Y00575
X001Y00675
X001Y00725
X001Y00625
X000175Y00625
X000175Y00675
X000175Y00725
X-0015Y0055
X00005Y0099
X00005Y010225
X000225Y0082
X0005Y010225
X0005Y0095
X001Y010275
X001Y0095
X00605Y0102
X00625Y00915
X00625Y00865
X0066Y01015
X00695Y00915
X00775Y0083
X00845Y00965
X0088Y01
X00975Y00965
X00975Y0089
X0107Y0104
X01095Y00865
X01095Y00905
X01095Y00945
X0126Y00885
X0126Y00965
X01305Y00885
X01305Y00965
X0146Y01015
X01755Y00855
X01755Y01005
X01755Y0093
X0238Y0104
X0238Y0097
X0238Y00895
X0279Y01025
X0294Y0081
X0294Y0103
X0294Y0087
X03075Y0095
X03075Y009
X03075Y01
X031Y00975
X031Y00925
X03125Y01
X03125Y0095
X03125Y009
X0315Y00975
X0315Y00925
X03175Y01
X03175Y009
X03175Y0095
X0328Y01005
X032961Y00825
X0332Y00885
X0345Y00885
X0349Y00865
X0358Y0085
X03675Y0101
X03685Y0096
X03775Y0101
X03827Y00884
X0383Y0096
X0396Y01005
X0396Y01045
X04115Y00884
X04115Y00965
X04305Y0091
X04425Y00925
X04425Y00875
X04475Y00875
X04475Y00925
X0452Y0081
X04735Y0088
X04735Y0095
X0474Y0102
X0474Y0081
X0516Y00925
X05235Y00925
X0531Y00925
X05385Y00925
X05385Y01205
X05385Y01065
X0535Y01285
X0531Y01205
X0531Y01065
X05235Y01205
X05235Y01065
X0516Y01205
X0516Y01065
X05155Y0127
X0474Y0109
X0471Y01175
X04675Y0127
X0455Y01075
X0449Y01075
X04485Y0128
X0441Y01075
X0435Y01075
X0426Y01235
X04225Y0119
X0417Y0119
X0398Y0116
X0396Y0108
X0396Y0112
X0382Y01195
X0382Y0128
X03795Y0117
X03795Y01245
X03675Y01175
X0364Y01225
X0358Y0113
X03545Y01115
X035Y01225
X03495Y0105
X03495Y011
X03475Y01135
X0347Y012
X03425Y0124
X03415Y0115
X03415Y012
X03355Y0115
X03315Y0115
X0328Y0108
X0328Y0122
X03205Y0122
X0318Y0108
X03135Y0122
X0313Y0108
X031Y0129
X03095Y0113
X0307Y0108
X0307Y0129
X0305Y0122
X030175Y01125
X0294Y0109
X02885Y0109
X0279Y01055
X0253Y01065
X02415Y0128
X0238Y01195
X02255Y01235
X02255Y012
X02255Y01155
X0215Y01205
X0215Y0126
X0215Y0108
X02085Y01145
X0202Y01155
X0202Y0126
X0202Y0108
X020175Y012
X01915Y012
X01915Y01235
X0186Y01225
X01785Y01225
X01425Y011216
X01425Y0126
X01425Y0116
X01425Y012
X0142Y0108
X01135Y0126
X0113Y0117
X01095Y0108
X01055Y012
X00865Y0129
X00865Y01215
X00865Y0114
X0073Y0121
X00615Y01225
X001Y01075
X0005Y01075
X00045Y01155
X-0007Y0125
X-0007Y01205
X-0012Y01155
X-0012Y01205
X-0012Y0125
X-00145Y01065
X-00175Y01205
X-00175Y01155
X-00175Y0125
X0076Y01395
X00865Y01365
X00935Y01515
X01Y01445
X01075Y01455
X0111Y0142
X0127Y01435
X0127Y01475
X01415Y01515
X01585Y01405
X01605Y0132
X01605Y01505
X01615Y01465
X0191Y0141
X01975Y0142
X0215Y01335
X02195Y0142
X0227Y0141
X0242Y01505
X0275Y0135
X02785Y01385
X0307Y0135
X031Y0135
X032Y0138
X032Y0141
X0324Y01315
X03375Y01465
X0343Y01315
X03655Y0144
X0379Y01515
X0397Y0135
X0397Y01515
X0397Y01485
X0411Y01515
X0426Y01305
X0426Y01525
X0426Y01375
X04265Y01445
X0433Y01525
X0433Y01395
X0446Y01395
X04485Y0148
X045Y01345
X04515Y01395
X0454Y0148
X04565Y01395
X04675Y01445
X0479Y0148
X0489Y0148
X0508Y01375
X0516Y01375
X05235Y01515
X05315Y01515
X05155Y01595
X05085Y01595
X0489Y0161
X04655Y01605
X04655Y01665
X0449Y0171
X04425Y0177
X04365Y0177
X0426Y01635
X0411Y016334
X0411Y0167
X0396Y0155
X0383Y01595
X0383Y0156
X0383Y0167
X0383Y01635
X03785Y016
X03705Y016
X0362Y01655
X03335Y01735
X0313Y0162
X03055Y0162
X03055Y01585
X0298Y0162
X0298Y01585
X02905Y01585
X02905Y0162
X0283Y01585
X02675Y01675
X02675Y01725
X0265Y017
X0265Y0175
X02625Y01675
X02625Y01725
X026Y017
X026Y0175
X0242Y0158
X01625Y01755
X01605Y01655
X01575Y016
X01495Y016
X01465Y01655
X01415Y01675
X01415Y0159
X01415Y01555
X01415Y01635
X013Y01675
X0126Y01675
X0111Y0173
X0097Y01685
X0097Y01555
X0097Y01615
X00935Y0165
X00935Y01555
X0091Y0173
X009Y01555
X00875Y01635
X0084Y01555
X008Y01635
X00775Y01575
X00765Y0173
X00725Y01625
X00725Y01575
X00675Y01575
X00675Y01625
X00655Y01735
X00555Y01665
X00555Y01635
X0045Y017
X004Y017
X0035Y01725
X0035Y0169
X0021Y01725
X0021Y0165
X-00175Y01825
X-00125Y01825
X-00075Y01825
X-00025Y01825
X00025Y01825
X00075Y01825
X00125Y01825
X00175Y01825
X00225Y01825
X00275Y01825
X00525Y01825
X00575Y01825
X00625Y01825
X00675Y01825
X00725Y01825
X00775Y01825
X00825Y01825
X00875Y01825
X00925Y01825
X00975Y01825
X01Y01985
X01025Y01825
X01075Y01825
X01125Y01825
X01175Y01825
X01225Y01825
X01275Y01825
X01325Y01825
X01375Y01825
X01425Y01825
X01475Y01825
X01615Y02
X01625Y01825
X01675Y01825
X01725Y01825
X01775Y01825
X01795Y01915
X01825Y01825
X01865Y01915
X01875Y01825
X01925Y01825
X0194Y01915
X01975Y01825
X02015Y01915
X02025Y01825
X02075Y01825
X0209Y01915
X02125Y01825
X02175Y01825
X02225Y01825
X0226Y0193
X0226Y019
X02265Y01995
X02275Y01825
X02325Y01825
X02375Y01825
X02405Y019
X02425Y01825
X02475Y01825
X025Y019
X02525Y01825
X02535Y02015
X02575Y01825
X02625Y01825
X02675Y01825
X02725Y01825
X02725Y01975
X02775Y01825
X02825Y01825
X02875Y01825
X0292Y0198
X02975Y01825
X03025Y01825
X03075Y01825
X03125Y01825
X03175Y01825
X03225Y01825
X03275Y01825
X0328Y0204
X03325Y01825
X0335Y0191
X03375Y01825
X0338Y0191
X03525Y01825
X03525Y01975
X03525Y01925
X03525Y01875
X03525Y02025
X0372Y0186
X0387Y0186
X0399Y0181
X0399Y0184
X04Y0191
X04Y01985
X0414Y0181
X0414Y0191
X0414Y0184
X0414Y01875
X04375Y01825
X04425Y01825
X05115Y0213
X04935Y0213
X04755Y0213
X0445Y02085
X04115Y02255
X04115Y0219
X03525Y02075
X03525Y02275
X03525Y02225
X03525Y02175
X03525Y02125
X0338Y0206
X0335Y0206
X03205Y02055
X0317Y02055
X03135Y02055
X03085Y02055
X0292Y02135
X02745Y02055
X02725Y0214
X0226Y0216
X02055Y0224
X02035Y02155
X0199Y0222
X01955Y0207
X01955Y02105
X01955Y0214
X0195Y02255
X0195Y0222
X0192Y0214
X0192Y02105
X0192Y0207
X0191Y02255
X01885Y0214
X01885Y0207
X01885Y02105
X0187Y02255
X0183Y0218
X0183Y0222
X018Y0205
X01775Y022
X01715Y022
X01505Y02235
X01355Y0214
X01355Y02235
X01355Y02205
X01315Y021
X012Y022
X01045Y0211
X0097Y0211
X00895Y02125
X0067Y02125
X00535Y0224
X0039Y0224
X0039Y0214
X0039Y0221
X00345Y02105
X0023Y02205
X-00175Y02325
X-00125Y02325
X-00075Y02325
X-00025Y02325
X00025Y02325
X00075Y02325
X00125Y02325
X00175Y02325
X00225Y02325
X00275Y02325
X00325Y02325
X00375Y02325
X00425Y02325
X00475Y02325
X00525Y02325
X00575Y02325
X00625Y02325
X00675Y02325
X00725Y02325
X00775Y02325
X00825Y02325
X00875Y02325
X00925Y02325
X00975Y02325
X01025Y02325
X01075Y02325
X01125Y02325
X01175Y02325
X01225Y02325
X01275Y02325
X01325Y02325
X01375Y02325
X01425Y02325
X01475Y02325
X01525Y02325
X01575Y02325
X01625Y02325
X01675Y02325
X01725Y02325
X01775Y02325
X01825Y02325
X01875Y02325
X01925Y02325
X01975Y02325
X02025Y02325
X02075Y02325
X02125Y02325
X02175Y02325
X02225Y02325
X02275Y02325
X02325Y02325
X02375Y02325
X02425Y02325
X02475Y02325
X02525Y02325
X02575Y02325
X02625Y02325
X02675Y02325
X02725Y02325
X02775Y02325
X02825Y02325
X02875Y02325
X02925Y02325
X02975Y02325
X03025Y02325
X03075Y02325
X03125Y02325
X03175Y02325
X03225Y02325
X03275Y02325
X03325Y02325
X03375Y02325
X03425Y02325
X03475Y02325
X03525Y02325
T3C.05512F107S55
X012813Y003853
X012813Y017397
X039688Y003853
X039688Y017397
T4C.059F107S55
X-00044Y02031
X053Y01975
X05326Y00355
T5C.067F089S55
X05226Y00255
X05226Y00455
X05426Y00455
X05426Y00255
X054Y01875
X054Y02075
X052Y01875
X052Y02075
X00056Y02131
X00056Y01931
X-00144Y01931
X-00144Y02131
T6C.156F035S9
X0Y0
X0Y016
X0215Y0
X0485Y019
M30
