*
*
G04 PADS 9.5 Build Number: 522968 generated Gerber (RS-274-X) file*
G04 PC Version=2.1*
*
%IN "Gapfiller_GSM900_REV4.p"*%
*
%MOIN*%
*
%FSLAX35Y35*%
*
*
*
*
G04 PC Standard Apertures*
*
*
G04 Thermal Relief Aperture macro.*
%AMTER*
1,1,$1,0,0*
1,0,$1-$2,0,0*
21,0,$3,$4,0,0,45*
21,0,$3,$4,0,0,135*
%
*
*
G04 Annular Aperture macro.*
%AMANN*
1,1,$1,0,0*
1,0,$2,0,0*
%
*
*
G04 Odd Aperture macro.*
%AMODD*
1,1,$1,0,0*
1,0,$1-0.005,0,0*
%
*
*
G04 PC Custom Aperture Macros*
*
*
*
*
*
*
G04 PC Aperture Table*
*
%ADD014C,0.01*%
%ADD023C,0.001*%
%ADD033R,0.034X0.038*%
%ADD034R,0.038X0.034*%
%ADD037R,0.05X0.054*%
%ADD047R,0.04016X0.0252*%
%ADD087R,0.02362X0.08268*%
%ADD088O,0.02362X0.08268*%
*
*
*
*
G04 PC Circuitry*
G04 Layer Name Gapfiller_GSM900_REV4.p - circuitry*
%LPD*%
*
*
G04 PC Custom Flashes*
G04 Layer Name Gapfiller_GSM900_REV4.p - flashes*
%LPD*%
*
*
G04 PC Circuitry*
G04 Layer Name Gapfiller_GSM900_REV4.p - circuitry*
%LPD*%
*
G54D14*
G01X3705580Y46781D02*
X3708989D01*
X3709330Y50719*
X3708989Y50281*
X3707966Y49844*
X3706943*
X3705920Y50281*
X3705239Y51156*
X3704898Y52469*
X3705239Y53344*
X3705580Y54656*
X3706261Y55531*
X3707284Y55969*
X3708307*
X3709330Y55531*
X3709670Y55094*
X3710011Y54219*
X3701489Y55094D02*
X3701830Y55531D01*
X3701489Y55969*
X3701148Y55531*
X3701489Y55094*
X3696034Y46781D02*
X3697057Y47219D01*
X3697739Y48531*
X3698080Y50719*
Y52031*
X3697739Y54219*
X3697057Y55531*
X3696034Y55969*
X3695352*
X3694330Y55531*
X3693648Y54219*
X3693307Y52031*
Y50719*
X3693648Y48531*
X3694330Y47219*
X3695352Y46781*
X3696034*
X3688193D02*
X3689216Y47219D01*
X3689898Y48531*
X3690239Y50719*
Y52031*
X3689898Y54219*
X3689216Y55531*
X3688193Y55969*
X3687511*
X3686489Y55531*
X3685807Y54219*
X3685466Y52031*
Y50719*
X3685807Y48531*
X3686489Y47219*
X3687511Y46781*
X3688193*
X3680352D02*
X3681375Y47219D01*
X3682057Y48531*
X3682398Y50719*
Y52031*
X3682057Y54219*
X3681375Y55531*
X3680352Y55969*
X3679670*
X3678648Y55531*
X3677966Y54219*
X3677625Y52031*
Y50719*
X3677966Y48531*
X3678648Y47219*
X3679670Y46781*
X3680352*
X3672511D02*
X3673534Y47219D01*
X3674216Y48531*
X3674557Y50719*
Y52031*
X3674216Y54219*
X3673534Y55531*
X3672511Y55969*
X3671830*
X3670807Y55531*
X3670125Y54219*
X3669784Y52031*
Y50719*
X3670125Y48531*
X3670807Y47219*
X3671830Y46781*
X3672511*
X3655807Y48094D02*
Y55969D01*
X3658875Y52031D02*
X3652739D01*
X3643534Y45031D02*
X3649670Y59031D01*
X3640466Y52031D02*
X3634330D01*
X3623080Y55094D02*
X3623420Y55531D01*
X3623080Y55969*
X3622739Y55531*
X3623080Y55094*
X3617625Y46781D02*
X3618648Y47219D01*
X3619330Y48531*
X3619670Y50719*
Y52031*
X3619330Y54219*
X3618648Y55531*
X3617625Y55969*
X3616943*
X3615920Y55531*
X3615239Y54219*
X3614898Y52031*
Y50719*
X3615239Y48531*
X3615920Y47219*
X3616943Y46781*
X3617625*
X3609784D02*
X3610807Y47219D01*
X3611489Y48531*
X3611830Y50719*
Y52031*
X3611489Y54219*
X3610807Y55531*
X3609784Y55969*
X3609102*
X3608080Y55531*
X3607398Y54219*
X3607057Y52031*
Y50719*
X3607398Y48531*
X3608080Y47219*
X3609102Y46781*
X3609784*
X3601943D02*
X3602966Y47219D01*
X3603648Y48531*
X3603989Y50719*
Y52031*
X3603648Y54219*
X3602966Y55531*
X3601943Y55969*
X3601261*
X3600239Y55531*
X3599557Y54219*
X3599216Y52031*
Y50719*
X3599557Y48531*
X3600239Y47219*
X3601261Y46781*
X3601943*
X3591716D02*
X3595125D01*
X3595466Y50719*
X3595125Y50281*
X3594102Y49844*
X3593080*
X3592057Y50281*
X3591375Y51156*
X3591034Y52469*
X3591375Y53344*
X3591716Y54656*
X3592398Y55531*
X3593420Y55969*
X3594443*
X3595466Y55531*
X3595807Y55094*
X3596148Y54219*
X3580125Y46781D02*
Y55969D01*
Y46781D02*
X3577057D01*
X3576034Y47219*
X3575693Y47656*
X3575352Y48531*
Y49406*
X3575693Y50281*
X3576034Y50719*
X3577057Y51156*
X3580125*
X3577739D02*
X3575352Y55969D01*
X3572284Y46781D02*
Y55969D01*
Y46781D02*
X3567852D01*
X3572284Y51156D02*
X3569557D01*
X3572284Y55969D02*
X3567852D01*
X3564784Y46781D02*
Y55969D01*
Y46781D02*
X3560352D01*
X3564784Y51156D02*
X3562057D01*
X3445781Y352943D02*
X3446219Y351920D01*
X3447094Y351580*
X3447969*
X3448844Y351920*
X3449281Y352602*
X3449719Y353966*
X3450156Y354989*
X3451031Y355670*
X3451906Y356011*
X3453219*
X3454094Y355670*
X3454531Y355330*
X3454969Y354307*
Y352943*
X3454531Y351920*
X3454094Y351580*
X3453219Y351239*
X3451906*
X3451031Y351580*
X3450156Y352261*
X3449719Y353284*
X3449281Y354648*
X3448844Y355330*
X3447969Y355670*
X3447094*
X3446219Y355330*
X3445781Y354307*
Y352943*
X3454094Y359420D02*
X3454531Y359080D01*
X3454969Y359420*
X3454531Y359761*
X3454094Y359420*
X3445781Y364875D02*
X3446219Y363852D01*
X3447531Y363170*
X3449719Y362830*
X3451031*
X3453219Y363170*
X3454531Y363852*
X3454969Y364875*
Y365557*
X3454531Y366580*
X3453219Y367261*
X3451031Y367602*
X3449719*
X3447531Y367261*
X3446219Y366580*
X3445781Y365557*
Y364875*
Y372716D02*
X3446219Y371693D01*
X3447531Y371011*
X3449719Y370670*
X3451031*
X3453219Y371011*
X3454531Y371693*
X3454969Y372716*
Y373398*
X3454531Y374420*
X3453219Y375102*
X3451031Y375443*
X3449719*
X3447531Y375102*
X3446219Y374420*
X3445781Y373398*
Y372716*
Y380557D02*
X3446219Y379534D01*
X3447531Y378852*
X3449719Y378511*
X3451031*
X3453219Y378852*
X3454531Y379534*
X3454969Y380557*
Y381239*
X3454531Y382261*
X3453219Y382943*
X3451031Y383284*
X3449719*
X3447531Y382943*
X3446219Y382261*
X3445781Y381239*
Y380557*
Y388398D02*
X3446219Y387375D01*
X3447531Y386693*
X3449719Y386352*
X3451031*
X3453219Y386693*
X3454531Y387375*
X3454969Y388398*
Y389080*
X3454531Y390102*
X3453219Y390784*
X3451031Y391125*
X3449719*
X3447531Y390784*
X3446219Y390102*
X3445781Y389080*
Y388398*
X3447094Y405102D02*
X3454969D01*
X3451031Y402034D02*
Y408170D01*
X3444031Y417375D02*
X3458031Y411239D01*
X3451031Y420443D02*
Y426580D01*
X3454094Y437830D02*
X3454531Y437489D01*
X3454969Y437830*
X3454531Y438170*
X3454094Y437830*
X3445781Y443284D02*
X3446219Y442261D01*
X3447531Y441580*
X3449719Y441239*
X3451031*
X3453219Y441580*
X3454531Y442261*
X3454969Y443284*
Y443966*
X3454531Y444989*
X3453219Y445670*
X3451031Y446011*
X3449719*
X3447531Y445670*
X3446219Y444989*
X3445781Y443966*
Y443284*
Y451125D02*
X3446219Y450102D01*
X3447531Y449420*
X3449719Y449080*
X3451031*
X3453219Y449420*
X3454531Y450102*
X3454969Y451125*
Y451807*
X3454531Y452830*
X3453219Y453511*
X3451031Y453852*
X3449719*
X3447531Y453511*
X3446219Y452830*
X3445781Y451807*
Y451125*
Y458966D02*
X3446219Y457943D01*
X3447531Y457261*
X3449719Y456920*
X3451031*
X3453219Y457261*
X3454531Y457943*
X3454969Y458966*
Y459648*
X3454531Y460670*
X3453219Y461352*
X3451031Y461693*
X3449719*
X3447531Y461352*
X3446219Y460670*
X3445781Y459648*
Y458966*
Y469193D02*
Y465784D01*
X3449719Y465443*
X3449281Y465784*
X3448844Y466807*
Y467830*
X3449281Y468852*
X3450156Y469534*
X3451469Y469875*
X3452344Y469534*
X3453656Y469193*
X3454531Y468511*
X3454969Y467489*
Y466466*
X3454531Y465443*
X3454094Y465102*
X3453219Y464761*
X3445781Y488625D02*
X3454969D01*
X3445781D02*
Y491693D01*
X3446219Y492716*
X3446656Y493057*
X3447531Y493398*
X3448406*
X3449281Y493057*
X3449719Y492716*
X3450156Y491693*
Y488625*
Y491011D02*
X3454969Y493398D01*
X3445781Y496466D02*
X3454969D01*
X3445781D02*
Y500898D01*
X3450156Y496466D02*
Y499193D01*
X3454969Y496466D02*
Y500898D01*
X3445781Y503966D02*
X3454969D01*
X3445781D02*
Y508398D01*
X3450156Y503966D02*
Y506693D01*
X3820437Y833682D02*
X3827000D01*
X3820437D02*
Y836636D01*
X3823562Y833682D02*
Y835500D01*
X3820437Y838682D02*
X3827000D01*
X3820437Y840727D02*
X3827000D01*
Y843455*
X3820437Y845500D02*
X3827000D01*
X3820437D02*
X3827000Y847318D01*
X3820437Y849136D02*
X3827000Y847318D01*
X3820437Y849136D02*
X3827000D01*
X3824187Y851182D02*
Y855273D01*
X3820437Y858909D02*
X3827000D01*
X3820437Y857318D02*
Y860500D01*
Y864364D02*
X3827000Y862545D01*
X3820437Y864364D02*
X3827000Y866182D01*
X3824812Y863227D02*
Y865500D01*
X3820437Y868227D02*
X3827000D01*
X3820437D02*
Y870273D01*
X3820437D02*
X3820750Y870955D01*
X3821062Y871182*
X3821062D02*
X3821687Y871409D01*
X3821687D02*
X3822312D01*
X3822312D02*
X3822937Y871182D01*
X3822937D02*
X3823250Y870955D01*
X3823562Y870273*
X3823562D02*
Y868227D01*
Y869818D02*
X3827000Y871409D01*
X3822000Y876864D02*
X3821375Y876636D01*
X3820750Y876182*
X3820437Y875727*
X3820437D02*
Y874818D01*
X3820437D02*
X3820750Y874364D01*
X3821375Y873909*
X3822000Y873682*
X3822937Y873455*
X3822937D02*
X3824500D01*
X3825437Y873682*
X3825437D02*
X3826062Y873909D01*
X3826062D02*
X3826687Y874364D01*
X3826687D02*
X3827000Y874818D01*
Y875727*
X3826687Y876182*
X3826687D02*
X3826062Y876636D01*
X3826062D02*
X3825437Y876864D01*
X3825437D02*
X3824500D01*
Y875727D02*
Y876864D01*
X3820437Y878909D02*
X3827000D01*
X3820437D02*
Y881864D01*
X3823562Y878909D02*
Y880727D01*
X3827000Y878909D02*
Y881864D01*
X3820437Y885500D02*
X3827000D01*
X3820437Y883909D02*
Y887091D01*
X3962937Y800273D02*
X3969500D01*
X3962937D02*
Y802318D01*
X3962937D02*
X3963250Y803000D01*
X3963562Y803227*
X3963562D02*
X3964187Y803455D01*
X3964187D02*
X3964812D01*
X3964812D02*
X3965437Y803227D01*
X3965437D02*
X3965750Y803000D01*
X3966062Y802318*
Y800273D02*
Y802318D01*
X3966062D02*
X3966375Y803000D01*
X3966687Y803227*
X3966687D02*
X3967312Y803455D01*
X3967312D02*
X3968250D01*
X3968875Y803227*
X3969187Y803000*
X3969187D02*
X3969500Y802318D01*
Y800273*
X3962937Y806864D02*
X3963250Y806409D01*
X3963875Y805955*
X3964500Y805727*
X3965437Y805500*
X3965437D02*
X3967000D01*
X3967937Y805727*
X3967937D02*
X3968562Y805955D01*
X3968562D02*
X3969187Y806409D01*
X3969187D02*
X3969500Y806864D01*
Y807773*
X3969187Y808227*
X3969187D02*
X3968562Y808682D01*
X3968562D02*
X3967937Y808909D01*
X3967937D02*
X3967000Y809136D01*
X3965437*
X3965437D02*
X3964500Y808909D01*
X3963875Y808682*
X3963250Y808227*
X3962937Y807773*
X3962937D02*
Y806864D01*
Y812773D02*
X3969500D01*
X3962937Y811182D02*
Y814364D01*
Y818000D02*
X3969500D01*
X3962937Y816409D02*
Y819591D01*
Y823000D02*
X3963250Y822545D01*
X3963875Y822091*
X3964500Y821864*
X3965437Y821636*
X3965437D02*
X3967000D01*
X3967937Y821864*
X3967937D02*
X3968562Y822091D01*
X3968562D02*
X3969187Y822545D01*
X3969187D02*
X3969500Y823000D01*
Y823909*
X3969187Y824364*
X3969187D02*
X3968562Y824818D01*
X3968562D02*
X3967937Y825045D01*
X3967937D02*
X3967000Y825273D01*
X3965437*
X3965437D02*
X3964500Y825045D01*
X3963875Y824818*
X3963250Y824364*
X3962937Y823909*
X3962937D02*
Y823000D01*
Y827318D02*
X3969500D01*
X3962937D02*
X3969500Y829136D01*
X3962937Y830955D02*
X3969500Y829136D01*
X3962937Y830955D02*
X3969500D01*
X3962937Y838227D02*
X3969500D01*
X3962937D02*
Y840273D01*
X3962937D02*
X3963250Y840955D01*
X3963562Y841182*
X3963562D02*
X3964187Y841409D01*
X3964187D02*
X3965125D01*
X3965750Y841182*
X3966062Y840955*
X3966062D02*
X3966375Y840273D01*
Y838227*
X3962937Y845273D02*
X3969500Y843455D01*
X3962937Y845273D02*
X3969500Y847091D01*
X3967312Y844136D02*
Y846409D01*
X3963875Y852318D02*
X3963250Y851864D01*
X3962937Y851182*
X3962937D02*
Y850273D01*
X3962937D02*
X3963250Y849591D01*
X3963875Y849136*
X3964500*
X3965125Y849364*
X3965437Y849591*
X3965437D02*
X3965750Y850045D01*
X3966375Y851409*
X3966687Y851864*
X3966687D02*
X3967000Y852091D01*
X3967625Y852318*
X3968562*
X3968562D02*
X3969187Y851864D01*
X3969187D02*
X3969500Y851182D01*
Y850273*
X3969187Y849591*
X3969187D02*
X3968562Y849136D01*
X3962937Y855955D02*
X3969500D01*
X3962937Y854364D02*
Y857545D01*
Y859591D02*
X3969500D01*
X3962937D02*
Y862545D01*
X3966062Y859591D02*
Y861409D01*
X3969500Y859591D02*
Y862545D01*
X3962937Y869818D02*
X3969500D01*
X3962937D02*
X3969500Y871636D01*
X3962937Y873455D02*
X3969500Y871636D01*
X3962937Y873455D02*
X3969500D01*
X3962937Y877318D02*
X3969500Y875500D01*
X3962937Y877318D02*
X3969500Y879136D01*
X3967312Y876182D02*
Y878455D01*
X3963875Y884364D02*
X3963250Y883909D01*
X3962937Y883227*
X3962937D02*
Y882318D01*
X3962937D02*
X3963250Y881636D01*
X3963875Y881182*
X3964500*
X3965125Y881409*
X3965437Y881636*
X3965437D02*
X3965750Y882091D01*
X3966375Y883455*
X3966687Y883909*
X3966687D02*
X3967000Y884136D01*
X3967625Y884364*
X3968562*
X3968562D02*
X3969187Y883909D01*
X3969187D02*
X3969500Y883227D01*
Y882318*
X3969187Y881636*
X3969187D02*
X3968562Y881182D01*
X3962937Y886409D02*
X3969500D01*
X3962937Y889591D02*
X3967312Y886409D01*
X3965750Y887545D02*
X3969500Y889591D01*
X3749500Y178000D02*
Y753000D01*
X3487000*
Y178000*
X3749500*
X3449500Y520500D02*
Y820500D01*
X3467000Y850500D02*
X3472000D01*
X3432000D02*
X3427000D01*
X3449500Y867500D02*
Y873000D01*
Y833500D02*
Y828000D01*
X3464500Y851500D02*
X3450500D01*
Y865500*
Y835500D02*
Y849500D01*
X3464500*
X3434500Y851500D02*
X3448500D01*
Y865500*
X3462400Y851402D02*
G75*
G03X3462276Y852500I-12900J-902D01*
G01X3462400Y848503D02*
G03X3462524Y849612I-12899J1997D01*
G01X3436600Y849598D02*
G03X3436654Y849014I12902J902D01*
G01X3436599Y851993D02*
G03X3436545Y851407I12902J-1492D01*
G01X3469500Y850500D02*
G03X3469500I-20000J0D01*
G01X3436599Y849007D02*
G03X3447985Y837602I12901J1493D01*
G01X3448007Y863401D02*
G03X3436602Y852015I1493J-12901D01*
G01X3462401Y851993D02*
G03X3451015Y863398I-12901J-1493D01*
G01X3450402Y837600D02*
G03X3462346Y849014I-902J12900D01*
G01X3434500Y849500D02*
X3448500D01*
Y835500*
X3479500Y50500D02*
X3549500D01*
X3449500Y90500D02*
Y340500D01*
X3467000Y50500D02*
X3472000D01*
X3432000D02*
X3427000D01*
X3449500Y67500D02*
Y73000D01*
Y33500D02*
Y28000D01*
X3464500Y51500D02*
X3450500D01*
Y65500*
Y35500D02*
Y49500D01*
X3464500*
X3434500Y51500D02*
X3448500D01*
Y65500*
X3462400Y51402D02*
G03X3462276Y52500I-12900J-902D01*
G01X3462400Y48503D02*
G03X3462524Y49612I-12899J1997D01*
G01X3436600Y49598D02*
G03X3436654Y49014I12902J902D01*
G01X3436599Y51993D02*
G03X3436545Y51407I12902J-1492D01*
G01X3469500Y50500D02*
G03X3469500I-20000J0D01*
G01X3436599Y49007D02*
G03X3447985Y37602I12901J1493D01*
G01X3448007Y63401D02*
G03X3436602Y52015I1493J-12901D01*
G01X3462401Y51993D02*
G03X3451015Y63398I-12901J-1493D01*
G01X3450402Y37600D02*
G03X3462346Y49014I-902J12900D01*
G01X3434500Y49500D02*
X3448500D01*
Y35500*
X3724500Y50500D02*
X3919500D01*
X3967000D02*
X3972000D01*
X3932000D02*
X3927000D01*
X3949500Y67500D02*
Y73000D01*
Y33500D02*
Y28000D01*
X3964500Y51500D02*
X3950500D01*
Y65500*
Y35500D02*
Y49500D01*
X3964500*
X3934500Y51500D02*
X3948500D01*
Y65500*
X3962400Y51402D02*
G03X3962276Y52500I-12900J-902D01*
G01X3962400Y48503D02*
G03X3962524Y49612I-12899J1997D01*
G01X3936600Y49598D02*
G03X3936654Y49014I12902J902D01*
G01X3936599Y51993D02*
G03X3936545Y51407I12902J-1492D01*
G01X3969500Y50500D02*
G03X3969500I-20000J0D01*
G01X3936599Y49007D02*
G03X3947985Y37602I12901J1493D01*
G01X3948007Y63401D02*
G03X3936602Y52015I1493J-12901D01*
G01X3962401Y51993D02*
G03X3951015Y63398I-12901J-1493D01*
G01X3950402Y37600D02*
G03X3962346Y49014I-902J12900D01*
G01X3934500Y49500D02*
X3948500D01*
Y35500*
X3399500Y500D02*
Y900500D01*
X3999500*
Y500*
X3399500*
G54D23*
G54D33*
X3657000Y503100D03*
Y496900D03*
X3672500Y276900D03*
Y283100D03*
X3652500Y274900D03*
Y281100D03*
X3616500Y434900D03*
Y441100D03*
X3663000Y260100D03*
Y253900D03*
X3645000Y286100D03*
Y279900D03*
X3624000Y434900D03*
Y441100D03*
X3609000Y434900D03*
Y441100D03*
X3631500Y434900D03*
Y441100D03*
X3592500Y448900D03*
Y455100D03*
X3577500D03*
Y448900D03*
X3585000Y455100D03*
Y448900D03*
X3602000Y556900D03*
Y563100D03*
X3592500Y374600D03*
Y368400D03*
X3577500D03*
Y374600D03*
X3705000Y400900D03*
Y407100D03*
X3679500Y392100D03*
Y385900D03*
X3687000Y392100D03*
Y385900D03*
X3585000Y368400D03*
Y374600D03*
X3561000Y619400D03*
Y625600D03*
X3702000Y623100D03*
Y616900D03*
X3685000Y634100D03*
Y627900D03*
Y641400D03*
Y647600D03*
X3723000Y651900D03*
Y658100D03*
X3685000Y654900D03*
Y661100D03*
X3573000Y293100D03*
Y286900D03*
X3729500Y450400D03*
Y456600D03*
X3636000Y538400D03*
Y544600D03*
X3725000Y523100D03*
Y516900D03*
X3717500Y523100D03*
Y516900D03*
Y508100D03*
Y501900D03*
X3725000Y508100D03*
Y501900D03*
X3580000Y625600D03*
Y619400D03*
X3639000Y388600D03*
Y382400D03*
X3646500Y388600D03*
Y382400D03*
X3631500Y388600D03*
Y382400D03*
X3587000Y625600D03*
Y619400D03*
X3588000Y299600D03*
Y293400D03*
X3595500Y299600D03*
Y293400D03*
X3594000Y625600D03*
Y619400D03*
X3642500Y507900D03*
Y514100D03*
X3603000Y299600D03*
Y293400D03*
X3601000Y625600D03*
Y619400D03*
X3592500Y434900D03*
Y441100D03*
X3697500Y400900D03*
Y407100D03*
X3592500Y389100D03*
Y382900D03*
X3610500Y299600D03*
Y293400D03*
X3624000Y382400D03*
Y388600D03*
X3573000Y306100D03*
Y299900D03*
X3559500Y306100D03*
Y299900D03*
G54D34*
X3557600Y290500D03*
X3551400D03*
X3650900Y533500D03*
X3657100D03*
X3650900Y526000D03*
X3657100D03*
X3650900Y511000D03*
X3657100D03*
X3557600Y283000D03*
X3551400D03*
X3637400Y500500D03*
X3643600D03*
X3612600Y516500D03*
X3606400D03*
X3612600Y523500D03*
X3606400D03*
X3650900Y518500D03*
X3657100D03*
X3682400Y283000D03*
X3688600D03*
X3682400Y276000D03*
X3688600D03*
X3673100Y290000D03*
X3666900D03*
X3659400Y270500D03*
X3665600D03*
X3642100Y260000D03*
X3635900D03*
X3653900Y288000D03*
X3660100D03*
X3616600Y415000D03*
X3610400D03*
X3616600Y422000D03*
X3610400D03*
X3598900Y401000D03*
X3605100D03*
X3598900Y408000D03*
X3605100D03*
X3591400Y422000D03*
X3597600D03*
X3591400Y415000D03*
X3597600D03*
X3577400Y434000D03*
X3583600D03*
X3697900Y414500D03*
X3704100D03*
X3577400Y382500D03*
X3583600D03*
X3693400Y631000D03*
X3699600D03*
X3724400Y630000D03*
X3730600D03*
X3724400Y638000D03*
X3730600D03*
X3693400Y655000D03*
X3699600D03*
X3705600Y662500D03*
X3699400D03*
X3572900Y314000D03*
X3579100D03*
X3621600Y500500D03*
X3615400D03*
X3717600Y531000D03*
X3711400D03*
X3561100Y314000D03*
X3554900D03*
X3612600Y508000D03*
X3606400D03*
X3607400Y719000D03*
X3613600D03*
X3607400Y726500D03*
X3613600D03*
X3607400Y741500D03*
X3613600D03*
X3607400Y734000D03*
X3613600D03*
X3622400Y719000D03*
X3628600D03*
X3622400Y726500D03*
X3628600D03*
X3622400Y741500D03*
X3628600D03*
X3622400Y734000D03*
X3628600D03*
X3612600Y531000D03*
X3606400D03*
X3649400Y260000D03*
X3655600D03*
X3622400D03*
X3628600D03*
X3583600Y441500D03*
X3577400D03*
X3689600Y401000D03*
X3683400D03*
X3583600Y390000D03*
X3577400D03*
G54D37*
X3558500Y273000D03*
X3550500D03*
G54D47*
X3571000Y454520D03*
Y449480D03*
Y368980D03*
Y374020D03*
X3599000Y449480D03*
Y454520D03*
Y374020D03*
Y368980D03*
G54D87*
X3557226Y592198D03*
Y323448D03*
G54D88*
Y607552D03*
X3561163Y592198D03*
Y607552D03*
X3565100Y592198D03*
Y607552D03*
X3569037Y592198D03*
Y607552D03*
X3572974Y592198D03*
Y607552D03*
X3576911Y592198D03*
Y607552D03*
X3580848Y592198D03*
Y607552D03*
X3584785Y592198D03*
Y607552D03*
X3588722Y592198D03*
Y607552D03*
X3592659Y592198D03*
Y607552D03*
X3596596Y592198D03*
Y607552D03*
X3600533Y592198D03*
Y607552D03*
X3604470Y592198D03*
Y607552D03*
X3608407Y592198D03*
Y607552D03*
X3612344Y592198D03*
Y607552D03*
X3616281Y592198D03*
Y607552D03*
X3620219Y592198D03*
Y607552D03*
X3624156Y592198D03*
Y607552D03*
X3628093Y592198D03*
Y607552D03*
X3632030Y592198D03*
Y607552D03*
X3635967Y592198D03*
Y607552D03*
X3639904Y592198D03*
Y607552D03*
X3643841Y592198D03*
Y607552D03*
X3647778Y592198D03*
Y607552D03*
X3651715Y592198D03*
Y607552D03*
X3655652Y592198D03*
Y607552D03*
X3659589Y592198D03*
Y607552D03*
X3663526Y592198D03*
Y607552D03*
X3667463Y592198D03*
Y607552D03*
X3671400Y592198D03*
Y607552D03*
X3675337Y592198D03*
Y607552D03*
X3679274Y592198D03*
Y607552D03*
X3557226Y338802D03*
X3561163Y323448D03*
Y338802D03*
X3565100Y323448D03*
Y338802D03*
X3569037Y323448D03*
Y338802D03*
X3572974Y323448D03*
Y338802D03*
X3576911Y323448D03*
Y338802D03*
X3580848Y323448D03*
Y338802D03*
X3584785Y323448D03*
Y338802D03*
X3588722Y323448D03*
Y338802D03*
X3592659Y323448D03*
Y338802D03*
X3596596Y323448D03*
Y338802D03*
X3600533Y323448D03*
Y338802D03*
X3604470Y323448D03*
Y338802D03*
X3608407Y323448D03*
Y338802D03*
X3612344Y323448D03*
Y338802D03*
X3616281Y323448D03*
Y338802D03*
X3620219Y323448D03*
Y338802D03*
X3624156Y323448D03*
Y338802D03*
X3628093Y323448D03*
Y338802D03*
X3632030Y323448D03*
Y338802D03*
X3635967Y323448D03*
Y338802D03*
X3639904Y323448D03*
Y338802D03*
X3643841Y323448D03*
Y338802D03*
X3647778Y323448D03*
Y338802D03*
X3651715Y323448D03*
Y338802D03*
X3655652Y323448D03*
Y338802D03*
X3659589Y323448D03*
Y338802D03*
X3663526Y323448D03*
Y338802D03*
X3667463Y323448D03*
Y338802D03*
X3671400Y323448D03*
Y338802D03*
X3675337Y323448D03*
Y338802D03*
X3679274Y323448D03*
Y338802D03*
G74*
X0Y0D02*
M02*
