*
*
G04 PADS 9.5 Build Number: 522968 generated Gerber (RS-274-X) file*
G04 PC Version=2.1*
*
%IN "Gapfiller_GSM900_REV4.p"*%
*
%MOIN*%
*
%FSLAX35Y35*%
*
*
*
*
G04 PC Standard Apertures*
*
*
G04 Thermal Relief Aperture macro.*
%AMTER*
1,1,$1,0,0*
1,0,$1-$2,0,0*
21,0,$3,$4,0,0,45*
21,0,$3,$4,0,0,135*
%
*
*
G04 Annular Aperture macro.*
%AMANN*
1,1,$1,0,0*
1,0,$2,0,0*
%
*
*
G04 Odd Aperture macro.*
%AMODD*
1,1,$1,0,0*
1,0,$1-0.005,0,0*
%
*
*
G04 PC Custom Aperture Macros*
*
*
*
*
*
*
G04 PC Aperture Table*
*
%ADD014C,0.01*%
%ADD023C,0.001*%
%ADD027C,0.00787*%
%ADD028C,0.00984*%
%ADD033R,0.034X0.038*%
%ADD034R,0.038X0.034*%
%ADD035R,0.1X0.08*%
%ADD036R,0.08X0.1*%
%ADD037R,0.05X0.054*%
%ADD038R,0.054X0.05*%
%ADD039R,0.03189X0.06693*%
%ADD040R,0.03189X0.0378*%
%ADD041R,0.04921X0.04331*%
%ADD042R,0.04331X0.04921*%
%ADD045O,0.118X0.04*%
%ADD047R,0.04016X0.0252*%
%ADD048R,0.0252X0.04016*%
%ADD049R,0.02087X0.00984*%
%ADD050R,0.00984X0.02087*%
%ADD051R,0.01417X0.02598*%
%ADD052R,0.04016X0.02717*%
%ADD053O,0.07087X0.0315*%
%ADD054R,0.02992X0.06496*%
%ADD055R,0.05512X0.02992*%
%ADD056R,0.016X0.03*%
%ADD057O,0.01181X0.02756*%
%ADD058O,0.02756X0.01181*%
%ADD060R,0.0748X0.0374*%
%ADD061R,0.0748X0.12795*%
%ADD062R,0.0374X0.0748*%
%ADD063R,0.12795X0.0748*%
%ADD064O,0.03543X0.01181*%
%ADD065O,0.01181X0.03543*%
%ADD067O,0.01693X0.02559*%
%ADD068R,0.059X0.028*%
%ADD069R,0.05709X0.01772*%
%ADD070O,0.03346X0.01181*%
%ADD071O,0.01181X0.03346*%
%ADD075R,0.02362X0.04331*%
%ADD076R,0.04331X0.02362*%
%ADD077R,0.01772X0.05906*%
%ADD078R,0.042X0.014*%
%ADD079R,0.05118X0.06299*%
%ADD081R,0.06102X0.02362*%
%ADD083R,0.03X0.016*%
%ADD084R,0.00984X0.01772*%
%ADD144R,0.06496X0.09055*%
*
*
*
*
G04 PC Circuitry*
G04 Layer Name Gapfiller_GSM900_REV4.p - circuitry*
%LPD*%
*
*
G04 PC Custom Flashes*
G04 Layer Name Gapfiller_GSM900_REV4.p - flashes*
%LPD*%
*
*
G04 PC Circuitry*
G04 Layer Name Gapfiller_GSM900_REV4.p - circuitry*
%LPD*%
*
G54D14*
G01X3705580Y46781D02*
X3708989D01*
X3709330Y50719*
X3708989Y50281*
X3707966Y49844*
X3706943*
X3705920Y50281*
X3705239Y51156*
X3704898Y52469*
X3705239Y53344*
X3705580Y54656*
X3706261Y55531*
X3707284Y55969*
X3708307*
X3709330Y55531*
X3709670Y55094*
X3710011Y54219*
X3701489Y55094D02*
X3701830Y55531D01*
X3701489Y55969*
X3701148Y55531*
X3701489Y55094*
X3696034Y46781D02*
X3697057Y47219D01*
X3697739Y48531*
X3698080Y50719*
Y52031*
X3697739Y54219*
X3697057Y55531*
X3696034Y55969*
X3695352*
X3694330Y55531*
X3693648Y54219*
X3693307Y52031*
Y50719*
X3693648Y48531*
X3694330Y47219*
X3695352Y46781*
X3696034*
X3688193D02*
X3689216Y47219D01*
X3689898Y48531*
X3690239Y50719*
Y52031*
X3689898Y54219*
X3689216Y55531*
X3688193Y55969*
X3687511*
X3686489Y55531*
X3685807Y54219*
X3685466Y52031*
Y50719*
X3685807Y48531*
X3686489Y47219*
X3687511Y46781*
X3688193*
X3680352D02*
X3681375Y47219D01*
X3682057Y48531*
X3682398Y50719*
Y52031*
X3682057Y54219*
X3681375Y55531*
X3680352Y55969*
X3679670*
X3678648Y55531*
X3677966Y54219*
X3677625Y52031*
Y50719*
X3677966Y48531*
X3678648Y47219*
X3679670Y46781*
X3680352*
X3672511D02*
X3673534Y47219D01*
X3674216Y48531*
X3674557Y50719*
Y52031*
X3674216Y54219*
X3673534Y55531*
X3672511Y55969*
X3671830*
X3670807Y55531*
X3670125Y54219*
X3669784Y52031*
Y50719*
X3670125Y48531*
X3670807Y47219*
X3671830Y46781*
X3672511*
X3655807Y48094D02*
Y55969D01*
X3658875Y52031D02*
X3652739D01*
X3643534Y45031D02*
X3649670Y59031D01*
X3640466Y52031D02*
X3634330D01*
X3623080Y55094D02*
X3623420Y55531D01*
X3623080Y55969*
X3622739Y55531*
X3623080Y55094*
X3617625Y46781D02*
X3618648Y47219D01*
X3619330Y48531*
X3619670Y50719*
Y52031*
X3619330Y54219*
X3618648Y55531*
X3617625Y55969*
X3616943*
X3615920Y55531*
X3615239Y54219*
X3614898Y52031*
Y50719*
X3615239Y48531*
X3615920Y47219*
X3616943Y46781*
X3617625*
X3609784D02*
X3610807Y47219D01*
X3611489Y48531*
X3611830Y50719*
Y52031*
X3611489Y54219*
X3610807Y55531*
X3609784Y55969*
X3609102*
X3608080Y55531*
X3607398Y54219*
X3607057Y52031*
Y50719*
X3607398Y48531*
X3608080Y47219*
X3609102Y46781*
X3609784*
X3601943D02*
X3602966Y47219D01*
X3603648Y48531*
X3603989Y50719*
Y52031*
X3603648Y54219*
X3602966Y55531*
X3601943Y55969*
X3601261*
X3600239Y55531*
X3599557Y54219*
X3599216Y52031*
Y50719*
X3599557Y48531*
X3600239Y47219*
X3601261Y46781*
X3601943*
X3591716D02*
X3595125D01*
X3595466Y50719*
X3595125Y50281*
X3594102Y49844*
X3593080*
X3592057Y50281*
X3591375Y51156*
X3591034Y52469*
X3591375Y53344*
X3591716Y54656*
X3592398Y55531*
X3593420Y55969*
X3594443*
X3595466Y55531*
X3595807Y55094*
X3596148Y54219*
X3580125Y46781D02*
Y55969D01*
Y46781D02*
X3577057D01*
X3576034Y47219*
X3575693Y47656*
X3575352Y48531*
Y49406*
X3575693Y50281*
X3576034Y50719*
X3577057Y51156*
X3580125*
X3577739D02*
X3575352Y55969D01*
X3572284Y46781D02*
Y55969D01*
Y46781D02*
X3567852D01*
X3572284Y51156D02*
X3569557D01*
X3572284Y55969D02*
X3567852D01*
X3564784Y46781D02*
Y55969D01*
Y46781D02*
X3560352D01*
X3564784Y51156D02*
X3562057D01*
X3445781Y352943D02*
X3446219Y351920D01*
X3447094Y351580*
X3447969*
X3448844Y351920*
X3449281Y352602*
X3449719Y353966*
X3450156Y354989*
X3451031Y355670*
X3451906Y356011*
X3453219*
X3454094Y355670*
X3454531Y355330*
X3454969Y354307*
Y352943*
X3454531Y351920*
X3454094Y351580*
X3453219Y351239*
X3451906*
X3451031Y351580*
X3450156Y352261*
X3449719Y353284*
X3449281Y354648*
X3448844Y355330*
X3447969Y355670*
X3447094*
X3446219Y355330*
X3445781Y354307*
Y352943*
X3454094Y359420D02*
X3454531Y359080D01*
X3454969Y359420*
X3454531Y359761*
X3454094Y359420*
X3445781Y364875D02*
X3446219Y363852D01*
X3447531Y363170*
X3449719Y362830*
X3451031*
X3453219Y363170*
X3454531Y363852*
X3454969Y364875*
Y365557*
X3454531Y366580*
X3453219Y367261*
X3451031Y367602*
X3449719*
X3447531Y367261*
X3446219Y366580*
X3445781Y365557*
Y364875*
Y372716D02*
X3446219Y371693D01*
X3447531Y371011*
X3449719Y370670*
X3451031*
X3453219Y371011*
X3454531Y371693*
X3454969Y372716*
Y373398*
X3454531Y374420*
X3453219Y375102*
X3451031Y375443*
X3449719*
X3447531Y375102*
X3446219Y374420*
X3445781Y373398*
Y372716*
Y380557D02*
X3446219Y379534D01*
X3447531Y378852*
X3449719Y378511*
X3451031*
X3453219Y378852*
X3454531Y379534*
X3454969Y380557*
Y381239*
X3454531Y382261*
X3453219Y382943*
X3451031Y383284*
X3449719*
X3447531Y382943*
X3446219Y382261*
X3445781Y381239*
Y380557*
Y388398D02*
X3446219Y387375D01*
X3447531Y386693*
X3449719Y386352*
X3451031*
X3453219Y386693*
X3454531Y387375*
X3454969Y388398*
Y389080*
X3454531Y390102*
X3453219Y390784*
X3451031Y391125*
X3449719*
X3447531Y390784*
X3446219Y390102*
X3445781Y389080*
Y388398*
X3447094Y405102D02*
X3454969D01*
X3451031Y402034D02*
Y408170D01*
X3444031Y417375D02*
X3458031Y411239D01*
X3451031Y420443D02*
Y426580D01*
X3454094Y437830D02*
X3454531Y437489D01*
X3454969Y437830*
X3454531Y438170*
X3454094Y437830*
X3445781Y443284D02*
X3446219Y442261D01*
X3447531Y441580*
X3449719Y441239*
X3451031*
X3453219Y441580*
X3454531Y442261*
X3454969Y443284*
Y443966*
X3454531Y444989*
X3453219Y445670*
X3451031Y446011*
X3449719*
X3447531Y445670*
X3446219Y444989*
X3445781Y443966*
Y443284*
Y451125D02*
X3446219Y450102D01*
X3447531Y449420*
X3449719Y449080*
X3451031*
X3453219Y449420*
X3454531Y450102*
X3454969Y451125*
Y451807*
X3454531Y452830*
X3453219Y453511*
X3451031Y453852*
X3449719*
X3447531Y453511*
X3446219Y452830*
X3445781Y451807*
Y451125*
Y458966D02*
X3446219Y457943D01*
X3447531Y457261*
X3449719Y456920*
X3451031*
X3453219Y457261*
X3454531Y457943*
X3454969Y458966*
Y459648*
X3454531Y460670*
X3453219Y461352*
X3451031Y461693*
X3449719*
X3447531Y461352*
X3446219Y460670*
X3445781Y459648*
Y458966*
Y469193D02*
Y465784D01*
X3449719Y465443*
X3449281Y465784*
X3448844Y466807*
Y467830*
X3449281Y468852*
X3450156Y469534*
X3451469Y469875*
X3452344Y469534*
X3453656Y469193*
X3454531Y468511*
X3454969Y467489*
Y466466*
X3454531Y465443*
X3454094Y465102*
X3453219Y464761*
X3445781Y488625D02*
X3454969D01*
X3445781D02*
Y491693D01*
X3446219Y492716*
X3446656Y493057*
X3447531Y493398*
X3448406*
X3449281Y493057*
X3449719Y492716*
X3450156Y491693*
Y488625*
Y491011D02*
X3454969Y493398D01*
X3445781Y496466D02*
X3454969D01*
X3445781D02*
Y500898D01*
X3450156Y496466D02*
Y499193D01*
X3454969Y496466D02*
Y500898D01*
X3445781Y503966D02*
X3454969D01*
X3445781D02*
Y508398D01*
X3450156Y503966D02*
Y506693D01*
X3820437Y833682D02*
X3827000D01*
X3820437D02*
Y836636D01*
X3823562Y833682D02*
Y835500D01*
X3820437Y838682D02*
X3827000D01*
X3820437Y840727D02*
X3827000D01*
Y843455*
X3820437Y845500D02*
X3827000D01*
X3820437D02*
X3827000Y847318D01*
X3820437Y849136D02*
X3827000Y847318D01*
X3820437Y849136D02*
X3827000D01*
X3824187Y851182D02*
Y855273D01*
X3820437Y858909D02*
X3827000D01*
X3820437Y857318D02*
Y860500D01*
Y864364D02*
X3827000Y862545D01*
X3820437Y864364D02*
X3827000Y866182D01*
X3824812Y863227D02*
Y865500D01*
X3820437Y868227D02*
X3827000D01*
X3820437D02*
Y870273D01*
X3820437D02*
X3820750Y870955D01*
X3821062Y871182*
X3821062D02*
X3821687Y871409D01*
X3821687D02*
X3822312D01*
X3822312D02*
X3822937Y871182D01*
X3822937D02*
X3823250Y870955D01*
X3823562Y870273*
X3823562D02*
Y868227D01*
Y869818D02*
X3827000Y871409D01*
X3822000Y876864D02*
X3821375Y876636D01*
X3820750Y876182*
X3820437Y875727*
X3820437D02*
Y874818D01*
X3820437D02*
X3820750Y874364D01*
X3821375Y873909*
X3822000Y873682*
X3822937Y873455*
X3822937D02*
X3824500D01*
X3825437Y873682*
X3825437D02*
X3826062Y873909D01*
X3826062D02*
X3826687Y874364D01*
X3826687D02*
X3827000Y874818D01*
Y875727*
X3826687Y876182*
X3826687D02*
X3826062Y876636D01*
X3826062D02*
X3825437Y876864D01*
X3825437D02*
X3824500D01*
Y875727D02*
Y876864D01*
X3820437Y878909D02*
X3827000D01*
X3820437D02*
Y881864D01*
X3823562Y878909D02*
Y880727D01*
X3827000Y878909D02*
Y881864D01*
X3820437Y885500D02*
X3827000D01*
X3820437Y883909D02*
Y887091D01*
X3842937Y818455D02*
X3849500D01*
X3842937Y816864D02*
Y820045D01*
Y823455D02*
X3843250Y823000D01*
X3843875Y822545*
X3844500Y822318*
X3845437Y822091*
X3845437D02*
X3847000D01*
X3847937Y822318*
X3847937D02*
X3848562Y822545D01*
X3848562D02*
X3849187Y823000D01*
X3849187D02*
X3849500Y823455D01*
Y824364*
X3849187Y824818*
X3849187D02*
X3848562Y825273D01*
X3848562D02*
X3847937Y825500D01*
X3847937D02*
X3847000Y825727D01*
X3845437*
X3845437D02*
X3844500Y825500D01*
X3843875Y825273*
X3843250Y824818*
X3842937Y824364*
X3842937D02*
Y823455D01*
Y827773D02*
X3849500D01*
X3842937D02*
Y829818D01*
X3842937D02*
X3843250Y830500D01*
X3843562Y830727*
X3843562D02*
X3844187Y830955D01*
X3844187D02*
X3845125D01*
X3845750Y830727*
X3846062Y830500*
X3846062D02*
X3846375Y829818D01*
Y827773*
X3842937Y838227D02*
X3849500D01*
X3842937D02*
Y840273D01*
X3842937D02*
X3843250Y840955D01*
X3843562Y841182*
X3843562D02*
X3844187Y841409D01*
X3844187D02*
X3845125D01*
X3845750Y841182*
X3846062Y840955*
X3846062D02*
X3846375Y840273D01*
Y838227*
X3842937Y845273D02*
X3849500Y843455D01*
X3842937Y845273D02*
X3849500Y847091D01*
X3847312Y844136D02*
Y846409D01*
X3843875Y852318D02*
X3843250Y851864D01*
X3842937Y851182*
X3842937D02*
Y850273D01*
X3842937D02*
X3843250Y849591D01*
X3843875Y849136*
X3844500*
X3845125Y849364*
X3845437Y849591*
X3845437D02*
X3845750Y850045D01*
X3846375Y851409*
X3846687Y851864*
X3846687D02*
X3847000Y852091D01*
X3847625Y852318*
X3848562*
X3848562D02*
X3849187Y851864D01*
X3849187D02*
X3849500Y851182D01*
Y850273*
X3849187Y849591*
X3849187D02*
X3848562Y849136D01*
X3842937Y855955D02*
X3849500D01*
X3842937Y854364D02*
Y857545D01*
Y859591D02*
X3849500D01*
X3842937D02*
Y862545D01*
X3846062Y859591D02*
Y861409D01*
X3849500Y859591D02*
Y862545D01*
X3842937Y869818D02*
X3849500D01*
X3842937D02*
X3849500Y871636D01*
X3842937Y873455D02*
X3849500Y871636D01*
X3842937Y873455D02*
X3849500D01*
X3842937Y877318D02*
X3849500Y875500D01*
X3842937Y877318D02*
X3849500Y879136D01*
X3847312Y876182D02*
Y878455D01*
X3843875Y884364D02*
X3843250Y883909D01*
X3842937Y883227*
X3842937D02*
Y882318D01*
X3842937D02*
X3843250Y881636D01*
X3843875Y881182*
X3844500*
X3845125Y881409*
X3845437Y881636*
X3845437D02*
X3845750Y882091D01*
X3846375Y883455*
X3846687Y883909*
X3846687D02*
X3847000Y884136D01*
X3847625Y884364*
X3848562*
X3848562D02*
X3849187Y883909D01*
X3849187D02*
X3849500Y883227D01*
Y882318*
X3849187Y881636*
X3849187D02*
X3848562Y881182D01*
X3842937Y886409D02*
X3849500D01*
X3842937Y889591D02*
X3847312Y886409D01*
X3845750Y887545D02*
X3849500Y889591D01*
X3749500Y178000D02*
Y753000D01*
X3487000*
Y178000*
X3749500*
X3449500Y520500D02*
Y820500D01*
X3467000Y850500D02*
X3472000D01*
X3432000D02*
X3427000D01*
X3449500Y867500D02*
Y873000D01*
Y833500D02*
Y828000D01*
X3464500Y851500D02*
X3450500D01*
Y865500*
Y835500D02*
Y849500D01*
X3464500*
X3434500Y851500D02*
X3448500D01*
Y865500*
X3462400Y851402D02*
G75*
G03X3462276Y852500I-12900J-902D01*
G01X3462400Y848503D02*
G03X3462524Y849612I-12899J1997D01*
G01X3436600Y849598D02*
G03X3436654Y849014I12902J902D01*
G01X3436599Y851993D02*
G03X3436545Y851407I12902J-1492D01*
G01X3469500Y850500D02*
G03X3469500I-20000J0D01*
G01X3436599Y849007D02*
G03X3447985Y837602I12901J1493D01*
G01X3448007Y863401D02*
G03X3436602Y852015I1493J-12901D01*
G01X3462401Y851993D02*
G03X3451015Y863398I-12901J-1493D01*
G01X3450402Y837600D02*
G03X3462346Y849014I-902J12900D01*
G01X3434500Y849500D02*
X3448500D01*
Y835500*
X3479500Y50500D02*
X3549500D01*
X3449500Y90500D02*
Y340500D01*
X3467000Y50500D02*
X3472000D01*
X3432000D02*
X3427000D01*
X3449500Y67500D02*
Y73000D01*
Y33500D02*
Y28000D01*
X3464500Y51500D02*
X3450500D01*
Y65500*
Y35500D02*
Y49500D01*
X3464500*
X3434500Y51500D02*
X3448500D01*
Y65500*
X3462400Y51402D02*
G03X3462276Y52500I-12900J-902D01*
G01X3462400Y48503D02*
G03X3462524Y49612I-12899J1997D01*
G01X3436600Y49598D02*
G03X3436654Y49014I12902J902D01*
G01X3436599Y51993D02*
G03X3436545Y51407I12902J-1492D01*
G01X3469500Y50500D02*
G03X3469500I-20000J0D01*
G01X3436599Y49007D02*
G03X3447985Y37602I12901J1493D01*
G01X3448007Y63401D02*
G03X3436602Y52015I1493J-12901D01*
G01X3462401Y51993D02*
G03X3451015Y63398I-12901J-1493D01*
G01X3450402Y37600D02*
G03X3462346Y49014I-902J12900D01*
G01X3434500Y49500D02*
X3448500D01*
Y35500*
X3724500Y50500D02*
X3919500D01*
X3967000D02*
X3972000D01*
X3932000D02*
X3927000D01*
X3949500Y67500D02*
Y73000D01*
Y33500D02*
Y28000D01*
X3964500Y51500D02*
X3950500D01*
Y65500*
Y35500D02*
Y49500D01*
X3964500*
X3934500Y51500D02*
X3948500D01*
Y65500*
X3962400Y51402D02*
G03X3962276Y52500I-12900J-902D01*
G01X3962400Y48503D02*
G03X3962524Y49612I-12899J1997D01*
G01X3936600Y49598D02*
G03X3936654Y49014I12902J902D01*
G01X3936599Y51993D02*
G03X3936545Y51407I12902J-1492D01*
G01X3969500Y50500D02*
G03X3969500I-20000J0D01*
G01X3936599Y49007D02*
G03X3947985Y37602I12901J1493D01*
G01X3948007Y63401D02*
G03X3936602Y52015I1493J-12901D01*
G01X3962401Y51993D02*
G03X3951015Y63398I-12901J-1493D01*
G01X3950402Y37600D02*
G03X3962346Y49014I-902J12900D01*
G01X3934500Y49500D02*
X3948500D01*
Y35500*
X3399500Y500D02*
Y900500D01*
X3999500*
Y500*
X3399500*
G54D23*
X3516885Y475385D02*
Y478041D01*
X3521115*
Y475385*
X3516885*
X3517117D02*
Y478041D01*
X3517617Y475385D02*
Y478041D01*
X3518117Y475385D02*
Y478041D01*
X3518617Y475385D02*
Y478041D01*
X3519117Y475385D02*
Y478041D01*
X3519617Y475385D02*
Y478041D01*
X3520117Y475385D02*
Y478041D01*
X3520617Y475385D02*
Y478041D01*
X3521115Y477885D02*
X3516885D01*
X3521115Y477385D02*
X3516885D01*
X3521115Y476885D02*
X3516885D01*
X3521115Y476385D02*
X3516885D01*
X3521115Y475885D02*
X3516885D01*
G54D27*
X3520531Y239713D02*
Y241287D01*
X3524469*
Y239713*
X3520531*
X3514031Y429213D02*
Y430787D01*
X3517969*
Y429213*
X3514031*
X3521031Y336713D02*
Y338287D01*
X3524969*
Y336713*
X3521031*
X3520927Y239713D02*
Y241287D01*
X3521635Y239713D02*
Y241287D01*
X3522344Y239713D02*
Y241287D01*
X3523052Y239713D02*
Y241287D01*
X3523761Y239713D02*
Y241287D01*
X3514427Y429213D02*
Y430787D01*
X3515135Y429213D02*
Y430787D01*
X3515844Y429213D02*
Y430787D01*
X3516552Y429213D02*
Y430787D01*
X3517261Y429213D02*
Y430787D01*
X3521427Y336713D02*
Y338287D01*
X3522135Y336713D02*
Y338287D01*
X3522844Y336713D02*
Y338287D01*
X3523552Y336713D02*
Y338287D01*
X3524261Y336713D02*
Y338287D01*
G54D28*
X3706173Y641327D02*
X3711882D01*
Y635618*
X3706173*
Y641327*
X3702827D02*
X3697118D01*
Y635618*
X3702827*
Y641327*
Y644673D02*
X3697118D01*
Y650382*
X3702827*
Y644673*
X3706173D02*
X3711882D01*
Y650382*
X3706173*
Y644673*
X3707128Y681577D02*
Y679623D01*
X3705447Y677943*
X3696406*
X3695120Y679229*
Y681971*
X3696406Y683257*
X3705447*
X3707128Y681577*
X3665280Y282280D02*
Y286413D01*
X3669413*
Y282280*
X3665280*
X3669413Y279720D02*
Y275587D01*
X3665280*
Y279720*
X3669413*
X3658587Y275587D02*
Y279720D01*
X3662720*
Y275587*
X3658587*
Y286413D02*
Y282280D01*
X3662720*
Y286413*
X3658587*
X3705386Y516386D02*
Y519339D01*
X3708339*
Y516386*
X3705386*
Y511661D02*
Y514614D01*
X3708339*
Y511661*
X3705386*
X3700661D02*
Y514614D01*
X3703614*
Y511661*
X3700661*
Y516386D02*
Y519339D01*
X3703614*
Y516386*
X3700661*
X3695386Y386386D02*
Y389339D01*
X3698339*
Y386386*
X3695386*
Y381661D02*
Y384614D01*
X3698339*
Y381661*
X3695386*
X3690661D02*
Y384614D01*
X3693614*
Y381661*
X3690661*
Y386386D02*
Y389339D01*
X3693614*
Y386386*
X3690661*
X3633614Y647114D02*
Y644161D01*
X3630661*
Y647114*
X3633614*
Y651839D02*
Y648886D01*
X3630661*
Y651839*
X3633614*
X3638339D02*
Y648886D01*
X3635386*
Y651839*
X3638339*
Y647114D02*
Y644161D01*
X3635386*
Y647114*
X3638339*
X3628220Y516780D02*
X3624087D01*
Y520913*
X3628220*
Y516780*
X3630780Y520913D02*
X3634913D01*
Y516780*
X3630780*
Y520913*
X3634913Y510087D02*
X3630780D01*
Y514220*
X3634913*
Y510087*
X3624087D02*
X3628220D01*
Y514220*
X3624087*
Y510087*
X3509568Y390868D02*
Y393820D01*
X3512520*
Y390868*
X3509568*
X3515080D02*
Y393820D01*
X3518032*
Y390868*
X3515080*
Y396380D02*
Y399332D01*
X3518032*
Y396380*
X3515080*
X3509568D02*
Y399332D01*
X3512520*
Y396380*
X3509568*
X3706568Y635618D02*
Y641327D01*
X3707454Y635618D02*
Y641327D01*
X3708340Y635618D02*
Y641327D01*
X3709226Y635618D02*
Y641327D01*
X3710112Y635618D02*
Y641327D01*
X3710997Y635618D02*
Y641327D01*
X3697513Y635618D02*
Y641327D01*
X3698399Y635618D02*
Y641327D01*
X3699285Y635618D02*
Y641327D01*
X3700171Y635618D02*
Y641327D01*
X3701056Y635618D02*
Y641327D01*
X3701942Y635618D02*
Y641327D01*
X3697513Y644673D02*
Y650382D01*
X3698399Y644673D02*
Y650382D01*
X3699285Y644673D02*
Y650382D01*
X3700171Y644673D02*
Y650382D01*
X3701056Y644673D02*
Y650382D01*
X3701942Y644673D02*
Y650382D01*
X3706568Y644673D02*
Y650382D01*
X3707454Y644673D02*
Y650382D01*
X3708340Y644673D02*
Y650382D01*
X3709226Y644673D02*
Y650382D01*
X3710112Y644673D02*
Y650382D01*
X3710997Y644673D02*
Y650382D01*
X3696499Y677943D02*
Y683257D01*
X3697385Y677943D02*
Y683257D01*
X3698271Y677943D02*
Y683257D01*
X3699156Y677943D02*
Y683257D01*
X3700042Y677943D02*
Y683257D01*
X3700928Y677943D02*
Y683257D01*
X3701814Y677943D02*
Y683257D01*
X3702700Y677943D02*
Y683257D01*
X3703586Y677943D02*
Y683257D01*
X3704471Y677943D02*
Y683257D01*
X3705357Y677943D02*
Y683257D01*
X3695613Y678736D02*
Y682464D01*
X3706243Y678738D02*
Y682462D01*
X3665871Y282280D02*
Y286413D01*
X3666757Y282280D02*
Y286413D01*
X3667643Y282280D02*
Y286413D01*
X3668529Y282280D02*
Y286413D01*
X3665871Y275587D02*
Y279720D01*
X3666757Y275587D02*
Y279720D01*
X3667643Y275587D02*
Y279720D01*
X3668529Y275587D02*
Y279720D01*
X3659178Y275587D02*
Y279720D01*
X3660064Y275587D02*
Y279720D01*
X3660950Y275587D02*
Y279720D01*
X3661836Y275587D02*
Y279720D01*
X3659178Y282280D02*
Y286413D01*
X3660064Y282280D02*
Y286413D01*
X3660950Y282280D02*
Y286413D01*
X3661836Y282280D02*
Y286413D01*
X3705682Y516386D02*
Y519339D01*
X3706568Y516386D02*
Y519339D01*
X3707454Y516386D02*
Y519339D01*
X3705682Y511661D02*
Y514614D01*
X3706568Y511661D02*
Y514614D01*
X3707454Y511661D02*
Y514614D01*
X3700958Y511661D02*
Y514614D01*
X3701844Y511661D02*
Y514614D01*
X3702730Y511661D02*
Y514614D01*
X3700958Y516386D02*
Y519339D01*
X3701844Y516386D02*
Y519339D01*
X3702730Y516386D02*
Y519339D01*
X3695682Y386386D02*
Y389339D01*
X3696568Y386386D02*
Y389339D01*
X3697454Y386386D02*
Y389339D01*
X3695682Y381661D02*
Y384614D01*
X3696568Y381661D02*
Y384614D01*
X3697454Y381661D02*
Y384614D01*
X3690958Y381661D02*
Y384614D01*
X3691844Y381661D02*
Y384614D01*
X3692730Y381661D02*
Y384614D01*
X3690958Y386386D02*
Y389339D01*
X3691844Y386386D02*
Y389339D01*
X3692730Y386386D02*
Y389339D01*
X3630958Y644161D02*
Y647114D01*
X3631844Y644161D02*
Y647114D01*
X3632730Y644161D02*
Y647114D01*
X3630958Y648886D02*
Y651839D01*
X3631844Y648886D02*
Y651839D01*
X3632730Y648886D02*
Y651839D01*
X3635682Y648886D02*
Y651839D01*
X3636568Y648886D02*
Y651839D01*
X3637454Y648886D02*
Y651839D01*
X3635682Y644161D02*
Y647114D01*
X3636568Y644161D02*
Y647114D01*
X3637454Y644161D02*
Y647114D01*
X3624678Y516780D02*
Y520913D01*
X3625564Y516780D02*
Y520913D01*
X3626450Y516780D02*
Y520913D01*
X3627336Y516780D02*
Y520913D01*
X3631371Y516780D02*
Y520913D01*
X3632257Y516780D02*
Y520913D01*
X3633143Y516780D02*
Y520913D01*
X3634029Y516780D02*
Y520913D01*
X3631371Y510087D02*
Y514220D01*
X3632257Y510087D02*
Y514220D01*
X3633143Y510087D02*
Y514220D01*
X3634029Y510087D02*
Y514220D01*
X3624678Y510087D02*
Y514220D01*
X3625564Y510087D02*
Y514220D01*
X3626450Y510087D02*
Y514220D01*
X3627336Y510087D02*
Y514220D01*
X3509864Y390868D02*
Y393820D01*
X3510750Y390868D02*
Y393820D01*
X3511636Y390868D02*
Y393820D01*
X3515376Y390868D02*
Y393820D01*
X3516262Y390868D02*
Y393820D01*
X3517148Y390868D02*
Y393820D01*
X3515376Y396380D02*
Y399332D01*
X3516262Y396380D02*
Y399332D01*
X3517148Y396380D02*
Y399332D01*
X3509864Y396380D02*
Y399332D01*
X3510750Y396380D02*
Y399332D01*
X3511636Y396380D02*
Y399332D01*
G54D33*
X3573000Y619400D03*
Y625600D03*
X3679500Y479400D03*
Y485600D03*
X3699500Y479400D03*
Y485600D03*
X3712500Y479400D03*
Y485600D03*
X3657000Y503100D03*
Y496900D03*
X3650000Y503100D03*
Y496900D03*
X3508000Y504400D03*
Y510600D03*
X3702500Y281900D03*
Y288100D03*
X3508000Y529400D03*
Y535600D03*
X3525000Y439100D03*
Y432900D03*
X3635500Y290900D03*
Y297100D03*
X3628000Y290900D03*
Y297100D03*
X3580000Y293400D03*
Y299600D03*
X3689500Y259100D03*
Y252900D03*
X3697000Y259100D03*
Y252900D03*
X3674500Y259100D03*
Y252900D03*
X3682000Y259100D03*
Y252900D03*
X3652000Y259100D03*
Y252900D03*
X3659500Y259100D03*
Y252900D03*
X3635500Y282600D03*
Y276400D03*
X3645500Y300400D03*
Y306600D03*
X3661500Y300400D03*
Y306600D03*
X3654000Y300400D03*
Y306600D03*
X3596500Y441100D03*
Y434900D03*
X3589000Y441100D03*
Y434900D03*
X3551200Y546300D03*
Y540100D03*
X3566500Y434900D03*
Y441100D03*
X3579000Y416900D03*
Y423100D03*
Y406100D03*
Y399900D03*
X3705000Y400900D03*
Y407100D03*
X3697500Y400900D03*
Y407100D03*
X3716500Y385400D03*
Y391600D03*
X3709000Y385400D03*
Y391600D03*
X3695500Y369100D03*
Y362900D03*
Y348100D03*
Y341900D03*
X3598500Y328400D03*
Y334600D03*
X3551000Y645600D03*
Y639400D03*
X3620500Y637900D03*
Y644100D03*
Y651900D03*
Y658100D03*
X3590000Y662600D03*
Y656400D03*
X3636500Y666900D03*
Y673100D03*
X3629500Y666900D03*
Y673100D03*
X3657500Y666900D03*
Y673100D03*
X3511000Y251600D03*
Y245400D03*
X3508000Y380600D03*
Y374400D03*
X3511000Y348600D03*
Y342400D03*
X3521400Y217500D03*
Y223700D03*
X3515000Y371000D03*
Y377200D03*
X3521500Y255400D03*
Y261600D03*
X3521400Y313500D03*
Y319700D03*
X3703000Y595900D03*
Y602100D03*
X3709000Y616900D03*
Y623100D03*
X3702000D03*
Y616900D03*
X3685000Y634100D03*
Y627900D03*
Y641400D03*
Y647600D03*
X3723100Y652000D03*
Y658200D03*
X3507000Y481600D03*
Y475400D03*
X3686500Y688400D03*
Y694600D03*
X3515000Y460400D03*
Y466600D03*
X3693500Y688400D03*
Y694600D03*
X3523000Y460400D03*
Y466600D03*
X3519000Y486900D03*
Y493100D03*
X3685000Y654900D03*
Y661100D03*
X3530500Y481600D03*
Y475400D03*
X3712100Y735700D03*
Y729500D03*
Y708200D03*
Y702000D03*
X3713000Y668600D03*
Y662400D03*
X3573000Y592100D03*
Y585900D03*
X3628500Y538400D03*
Y544600D03*
Y559400D03*
Y565600D03*
X3636000Y538400D03*
Y544600D03*
X3613500Y538400D03*
Y544600D03*
X3621000Y538400D03*
Y544600D03*
X3679500Y465400D03*
Y471600D03*
X3699500Y465400D03*
Y471600D03*
X3712500Y465400D03*
Y471600D03*
X3717500Y508100D03*
Y501900D03*
X3716000Y616900D03*
Y623100D03*
X3693500D03*
Y616900D03*
X3507000Y495100D03*
Y488900D03*
X3692000Y662400D03*
Y668600D03*
X3530500Y488900D03*
Y495100D03*
X3590000Y560100D03*
Y553900D03*
X3643500Y538400D03*
Y544600D03*
X3704500Y543600D03*
Y537400D03*
X3686500Y472400D03*
Y478600D03*
X3643300Y200700D03*
Y194500D03*
X3695000Y288100D03*
Y281900D03*
X3669000Y306600D03*
Y300400D03*
X3676500Y306600D03*
Y300400D03*
X3684000Y306600D03*
Y300400D03*
X3667000Y252900D03*
Y259100D03*
X3592500Y367400D03*
Y373600D03*
X3626000Y414600D03*
Y408400D03*
X3616500Y441100D03*
Y434900D03*
Y389100D03*
Y382900D03*
X3609000Y441100D03*
Y434900D03*
Y389100D03*
Y382900D03*
X3574000Y441100D03*
Y434900D03*
X3581500D03*
Y441100D03*
X3709000Y377600D03*
Y371400D03*
X3660000Y389400D03*
Y395600D03*
Y381600D03*
Y375400D03*
X3615500Y666900D03*
Y673100D03*
X3622500Y666900D03*
Y673100D03*
X3643500Y666900D03*
Y673100D03*
X3650500Y666900D03*
Y673100D03*
X3649500Y644600D03*
Y638400D03*
X3657500Y621400D03*
Y627600D03*
X3521000Y650100D03*
Y643900D03*
X3502000Y664400D03*
Y670600D03*
Y722400D03*
Y728600D03*
X3526000Y612600D03*
Y606400D03*
X3533500Y612600D03*
Y606400D03*
X3559500Y233600D03*
Y227400D03*
X3552000Y233600D03*
Y227400D03*
X3515000Y446900D03*
Y453100D03*
Y408400D03*
Y414600D03*
X3522000Y351900D03*
Y358100D03*
X3504000Y414600D03*
Y408400D03*
X3521500Y277900D03*
Y284100D03*
X3573000Y610100D03*
Y603900D03*
X3693800Y223000D03*
Y229200D03*
X3730000Y333400D03*
Y339600D03*
X3654500Y710100D03*
Y703900D03*
X3561000Y610100D03*
Y603900D03*
X3583500Y533400D03*
Y539600D03*
X3709500Y595900D03*
Y602100D03*
X3609200Y196400D03*
Y202600D03*
X3672800Y194500D03*
Y200700D03*
X3650800Y194500D03*
Y200700D03*
X3542000Y596100D03*
Y589900D03*
Y581100D03*
Y574900D03*
X3559000Y555400D03*
Y561600D03*
X3615500Y481900D03*
Y488100D03*
G54D34*
X3612600Y508000D03*
X3606400D03*
X3719900Y479500D03*
X3726100D03*
X3650900Y533500D03*
X3657100D03*
X3650900Y526000D03*
X3657100D03*
X3650900Y511000D03*
X3657100D03*
X3680900Y282000D03*
X3687100D03*
X3579400Y600000D03*
X3585600D03*
X3530100Y531000D03*
X3523900D03*
X3633100Y269000D03*
X3626900D03*
X3627100Y276500D03*
X3620900D03*
X3644100Y262000D03*
X3637900D03*
X3592400Y381500D03*
X3598600D03*
X3584100Y368000D03*
X3577900D03*
X3559100Y546600D03*
X3565300D03*
X3633400Y416500D03*
X3639600D03*
X3666400D03*
X3672600D03*
X3666400Y406500D03*
X3672600D03*
X3633400D03*
X3639600D03*
X3679600Y379000D03*
X3673400D03*
X3679600Y392000D03*
X3673400D03*
X3581600Y636000D03*
X3575400D03*
X3564100Y665000D03*
X3557900D03*
X3591400Y715000D03*
X3597600D03*
X3607100Y670500D03*
X3600900D03*
X3573100Y692000D03*
X3566900D03*
X3643100Y633500D03*
X3636900D03*
X3527350Y656750D03*
X3521150D03*
X3501900Y678500D03*
X3508100D03*
X3501900Y696500D03*
X3508100D03*
X3501900Y714500D03*
X3508100D03*
X3526900Y386000D03*
X3533100D03*
X3554900Y573500D03*
X3561100D03*
X3526900Y393500D03*
X3533100D03*
X3526900Y401000D03*
X3533100D03*
X3526900Y408500D03*
X3533100D03*
X3730600Y638000D03*
X3724400D03*
X3554900Y581500D03*
X3561100D03*
X3705600Y662500D03*
X3699400D03*
X3725100Y566500D03*
X3718900D03*
X3725100Y549500D03*
X3718900D03*
X3725100Y532500D03*
X3718900D03*
X3683900Y566500D03*
X3690100D03*
X3683900Y549500D03*
X3690100D03*
X3683900Y532500D03*
X3690100D03*
X3637400Y500500D03*
X3643600D03*
X3621600D03*
X3615400D03*
X3719900Y471500D03*
X3726100D03*
X3703900Y501000D03*
X3710100D03*
X3583600Y726500D03*
X3577400D03*
X3583600Y734500D03*
X3577400D03*
X3510100Y222500D03*
X3503900D03*
X3510600Y319500D03*
X3504400D03*
X3723900Y609500D03*
X3730100D03*
X3725900Y573500D03*
X3732100D03*
X3725100Y525500D03*
X3718900D03*
X3711900Y573500D03*
X3718100D03*
X3583900Y568500D03*
X3590100D03*
X3634600Y552000D03*
X3628400D03*
X3683100Y573500D03*
X3676900D03*
X3683900Y525500D03*
X3690100D03*
X3697100Y573500D03*
X3690900D03*
X3606400Y516500D03*
X3612600D03*
X3606400Y523500D03*
X3612600D03*
X3606400Y531000D03*
X3612600D03*
X3657100Y518500D03*
X3650900D03*
X3637000Y210600D03*
X3643200D03*
X3680900Y272000D03*
X3687100D03*
X3598600Y389000D03*
X3592400D03*
X3701600Y355500D03*
X3695400D03*
X3686600Y371000D03*
X3680400D03*
X3583400Y678000D03*
X3589600D03*
X3583400Y670500D03*
X3589600D03*
X3615900Y629500D03*
X3622100D03*
X3513900Y632000D03*
X3520100D03*
X3508100Y656500D03*
X3501900D03*
X3515400Y292500D03*
X3521600D03*
X3515400Y270000D03*
X3521600D03*
X3524900Y447000D03*
X3531100D03*
X3511100Y357500D03*
X3504900D03*
X3510600Y261000D03*
X3504400D03*
X3602400Y481500D03*
X3608600D03*
X3665100Y194500D03*
X3658900D03*
X3512900Y613000D03*
X3519100D03*
X3567600Y240500D03*
X3561400D03*
X3540100Y656750D03*
X3533900D03*
X3702900Y588500D03*
X3709100D03*
Y609500D03*
X3702900D03*
X3693200Y191100D03*
X3699400D03*
X3695600Y215600D03*
X3701800D03*
X3693700Y235600D03*
X3699900D03*
X3729650Y302250D03*
X3735850D03*
X3729650Y326500D03*
X3735850D03*
X3730100Y346500D03*
X3723900D03*
X3656600Y741500D03*
X3650400D03*
X3654600Y717000D03*
X3648400D03*
X3654600Y697000D03*
X3648400D03*
X3578900Y275500D03*
X3585100D03*
X3593900D03*
X3600100D03*
X3595600Y506500D03*
X3589400D03*
X3595600Y481500D03*
X3589400D03*
X3583400Y527000D03*
X3589600D03*
X3583400Y546000D03*
X3589600D03*
X3575100Y568500D03*
X3568900D03*
X3628350Y188750D03*
X3622150D03*
X3552850Y656750D03*
X3546650D03*
G54D35*
X3502500Y631500D03*
Y619500D03*
G54D36*
X3582000Y715000D03*
X3570000D03*
X3674000Y360000D03*
X3686000D03*
G54D37*
X3553000Y591000D03*
X3561000D03*
X3530000Y539500D03*
X3522000D03*
G54D38*
X3542000Y613500D03*
Y605500D03*
X3559500Y247500D03*
Y255500D03*
X3533000Y440000D03*
Y432000D03*
X3504000Y429500D03*
Y421500D03*
X3510500Y335000D03*
Y327000D03*
X3502500Y350000D03*
Y342000D03*
X3510000Y238000D03*
Y230000D03*
X3502000Y253500D03*
Y245500D03*
G54D39*
X3707415Y715667D03*
X3516715Y300167D03*
G54D40*
X3712100Y714210D03*
X3716785D03*
Y722990D03*
X3712100D03*
X3707415D03*
X3521400Y298710D03*
X3526085D03*
Y307490D03*
X3521400D03*
X3516715D03*
G54D41*
X3643500Y552063D03*
Y559937D03*
X3716500Y369063D03*
Y376937D03*
X3657500Y635063D03*
Y642937D03*
G54D42*
X3694563Y271500D03*
X3702437D03*
G54D45*
X3554748Y516000D03*
Y508500D03*
Y501000D03*
Y493500D03*
Y486000D03*
X3573252D03*
Y493500D03*
Y501000D03*
Y508500D03*
Y516000D03*
G54D47*
X3559500Y440520D03*
Y435480D03*
X3642000Y289520D03*
Y284480D03*
X3522000Y371580D03*
Y376620D03*
X3519000Y503980D03*
Y509020D03*
X3725500Y543520D03*
Y538480D03*
X3718500Y543520D03*
Y538480D03*
X3683500Y543520D03*
Y538480D03*
X3690500Y543520D03*
Y538480D03*
X3725500Y560520D03*
Y555480D03*
X3718500Y560520D03*
Y555480D03*
X3683500Y560520D03*
Y555480D03*
X3690500Y560520D03*
Y555480D03*
G54D48*
X3640980Y276000D03*
X3646020D03*
X3640980Y269000D03*
X3646020D03*
X3707080Y694100D03*
X3712120D03*
X3516480Y248500D03*
X3521520D03*
X3509980Y422000D03*
X3515020D03*
X3516980Y345500D03*
X3522020D03*
X3520020Y439000D03*
X3514980D03*
X3516380Y231600D03*
X3521420D03*
X3516880Y328600D03*
X3521920D03*
G54D49*
X3559500Y454701D03*
Y452299D03*
G54D50*
X3633201Y500500D03*
X3630799D03*
X3625799D03*
X3628201D03*
X3521999Y367100D03*
X3524401D03*
X3515099Y383100D03*
X3517501D03*
G54D51*
X3704386Y472000D03*
X3707614D03*
X3691386D03*
X3694614D03*
X3691386Y479000D03*
X3694614D03*
X3704386D03*
X3707614D03*
G54D52*
X3573500Y541256D03*
Y535744D03*
X3680500Y414244D03*
Y419756D03*
Y408756D03*
Y403244D03*
X3502000Y684744D03*
Y690256D03*
Y702744D03*
Y708256D03*
X3666500Y393756D03*
Y388244D03*
Y377244D03*
Y382756D03*
G54D53*
X3679000Y686366D03*
Y690500D03*
Y694634D03*
G54D54*
X3722000Y601760D03*
X3727000D03*
X3732000D03*
Y589240D03*
X3722000D03*
G54D55*
X3646248Y406500D03*
Y411500D03*
Y416500D03*
X3659752D03*
Y406500D03*
G54D56*
X3604559Y563445D03*
X3602000D03*
X3599441D03*
Y556555D03*
X3602000D03*
X3604559D03*
X3732059Y456945D03*
X3729500D03*
X3726941D03*
Y450055D03*
X3729500D03*
X3732059D03*
X3609059Y334945D03*
X3606500D03*
X3603941D03*
Y328055D03*
X3606500D03*
X3609059D03*
G54D57*
X3508879Y387029D03*
X3510847D03*
X3512816D03*
X3514784D03*
X3516753D03*
X3518721D03*
Y403171D03*
X3516753D03*
X3514784D03*
X3512816D03*
X3510847D03*
X3508879D03*
G54D58*
X3521871Y390179D03*
Y392147D03*
Y394116D03*
Y396084D03*
Y398053D03*
Y400021D03*
X3505729D03*
Y398053D03*
Y396084D03*
Y394116D03*
Y392147D03*
Y390179D03*
G54D60*
X3532008Y576445D03*
Y585500D03*
Y594555D03*
G54D61*
X3507992Y585500D03*
G54D62*
X3598555Y265008D03*
X3589500D03*
X3580445D03*
G54D63*
X3589500Y240992D03*
G54D64*
X3716114Y634142D03*
Y636110D03*
Y638079D03*
Y640047D03*
Y642016D03*
Y643984D03*
Y645953D03*
Y647921D03*
Y649890D03*
Y651858D03*
X3692886D03*
Y649890D03*
Y647921D03*
Y645953D03*
Y643984D03*
Y642016D03*
Y640047D03*
Y638079D03*
Y636110D03*
Y634142D03*
X3696823Y520421D03*
Y518453D03*
Y516484D03*
Y514516D03*
Y512547D03*
Y510579D03*
X3712177D03*
Y512547D03*
Y514516D03*
Y516484D03*
Y518453D03*
Y520421D03*
X3686823Y390421D03*
Y388453D03*
Y386484D03*
Y384516D03*
Y382547D03*
Y380579D03*
X3702177D03*
Y382547D03*
Y384516D03*
Y386484D03*
Y388453D03*
Y390421D03*
X3642177Y643079D03*
Y645047D03*
Y647016D03*
Y648984D03*
Y650953D03*
Y652921D03*
X3626823D03*
Y650953D03*
Y648984D03*
Y647016D03*
Y645047D03*
Y643079D03*
G54D65*
X3713358Y654614D03*
X3711390D03*
X3709421D03*
X3707453D03*
X3705484D03*
X3703516D03*
X3701547D03*
X3699579D03*
X3697610D03*
X3695642D03*
Y631386D03*
X3697610D03*
X3699579D03*
X3701547D03*
X3703516D03*
X3705484D03*
X3707453D03*
X3709421D03*
X3711390D03*
X3713358D03*
X3709421Y523177D03*
X3707453D03*
X3705484D03*
X3703516D03*
X3701547D03*
X3699579D03*
Y507823D03*
X3701547D03*
X3703516D03*
X3705484D03*
X3707453D03*
X3709421D03*
X3699421Y393177D03*
X3697453D03*
X3695484D03*
X3693516D03*
X3691547D03*
X3689579D03*
Y377823D03*
X3691547D03*
X3693516D03*
X3695484D03*
X3697453D03*
X3699421D03*
X3629579Y640323D03*
X3631547D03*
X3633516D03*
X3635484D03*
X3637453D03*
X3639421D03*
Y655677D03*
X3637453D03*
X3635484D03*
X3633516D03*
X3631547D03*
X3629579D03*
G54D67*
X3515260Y473366D03*
X3519000D03*
X3522740D03*
Y481634D03*
X3519000D03*
X3515260D03*
G54D68*
X3712150Y674700D03*
Y680600D03*
Y686500D03*
X3701650Y680600D03*
G54D69*
X3527661Y516161D03*
Y518720D03*
Y521280D03*
Y523839D03*
X3510339D03*
Y521280D03*
Y518720D03*
Y516161D03*
X3583161Y554661D03*
Y557220D03*
Y559780D03*
Y562339D03*
X3565839D03*
Y559780D03*
Y557220D03*
Y554661D03*
X3634161Y195661D03*
Y198220D03*
Y200780D03*
Y203339D03*
X3616839D03*
Y200780D03*
Y198220D03*
Y195661D03*
G54D70*
X3619854Y522390D03*
Y520421D03*
Y518453D03*
Y516484D03*
Y514516D03*
Y512547D03*
Y510579D03*
Y508610D03*
X3639146D03*
Y510579D03*
Y512547D03*
Y514516D03*
Y516484D03*
Y518453D03*
Y520421D03*
Y522390D03*
X3654354Y287890D03*
Y285921D03*
Y283953D03*
Y281984D03*
Y280016D03*
Y278047D03*
Y276079D03*
Y274110D03*
X3673646D03*
Y276079D03*
Y278047D03*
Y280016D03*
Y281984D03*
Y283953D03*
Y285921D03*
Y287890D03*
G54D71*
X3622610Y505854D03*
X3624579D03*
X3626547D03*
X3628516D03*
X3630484D03*
X3632453D03*
X3634421D03*
X3636390D03*
Y525146D03*
X3634421D03*
X3632453D03*
X3630484D03*
X3628516D03*
X3626547D03*
X3624579D03*
X3622610D03*
X3670890Y290646D03*
X3668921D03*
X3666953D03*
X3664984D03*
X3663016D03*
X3661047D03*
X3659079D03*
X3657110D03*
Y271354D03*
X3659079D03*
X3661047D03*
X3663016D03*
X3664984D03*
X3666953D03*
X3668921D03*
X3670890D03*
G54D75*
X3577260Y375382D03*
X3581000D03*
X3584740D03*
Y385618D03*
X3581000D03*
X3577260D03*
X3594740Y499315D03*
X3591000D03*
X3587260D03*
Y488685D03*
X3594740D03*
X3693560Y197785D03*
X3697300D03*
X3701040D03*
Y208415D03*
X3693560D03*
X3730260Y309685D03*
X3734000D03*
X3737740D03*
Y320315D03*
X3730260D03*
X3655240Y734815D03*
X3651500D03*
X3647760D03*
Y724185D03*
X3655240D03*
G54D76*
X3573118Y678260D03*
Y682000D03*
Y685740D03*
X3562882D03*
Y682000D03*
Y678260D03*
G54D77*
X3619134Y422917D03*
X3616575D03*
X3614016D03*
X3611457D03*
X3608898D03*
X3606339D03*
X3603780D03*
X3601220D03*
X3598661D03*
X3596102D03*
X3593543D03*
X3590984D03*
X3588425D03*
X3585866D03*
Y400083D03*
X3588425D03*
X3590984D03*
X3593543D03*
X3596102D03*
X3598661D03*
X3601220D03*
X3603780D03*
X3606339D03*
X3608898D03*
X3611457D03*
X3614016D03*
X3616575D03*
X3619134D03*
G54D78*
X3580524Y641543D03*
Y644102D03*
Y646661D03*
Y649220D03*
Y651780D03*
Y654340D03*
Y656900D03*
Y659460D03*
X3558476Y659457D03*
Y656898D03*
Y654339D03*
Y651780D03*
Y649220D03*
Y646661D03*
Y644102D03*
Y641543D03*
G54D79*
X3596382Y662571D03*
Y646429D03*
X3606618D03*
Y662571D03*
G54D81*
X3612630Y723000D03*
Y728000D03*
Y733000D03*
Y738000D03*
X3591370D03*
Y733000D03*
Y728000D03*
Y723000D03*
X3600630Y610000D03*
Y615000D03*
Y620000D03*
Y625000D03*
X3579370D03*
Y620000D03*
Y615000D03*
Y610000D03*
X3609130Y293500D03*
Y298500D03*
Y303500D03*
Y308500D03*
X3587870D03*
Y303500D03*
Y298500D03*
Y293500D03*
G54D83*
X3510445Y641441D03*
Y644000D03*
Y646559D03*
X3503555D03*
Y641441D03*
G54D84*
X3519547Y237055D03*
X3521516D03*
X3523484D03*
X3525453D03*
Y243945D03*
X3523484D03*
X3521516D03*
X3519547D03*
X3513047Y426555D03*
X3515016D03*
X3516984D03*
X3518953D03*
Y433445D03*
X3516984D03*
X3515016D03*
X3513047D03*
X3520047Y334055D03*
X3522016D03*
X3523984D03*
X3525953D03*
Y340945D03*
X3523984D03*
X3522016D03*
X3520047D03*
G54D144*
X3519000Y520000D03*
G74*
X0Y0D02*
M02*
