*
*
G04 PADS 9.5 Build Number: 522968 generated Gerber (RS-274-X) file*
G04 PC Version=2.1*
*
%IN "Gapfiller_GSM900_REV4.p"*%
*
%MOIN*%
*
%FSLAX35Y35*%
*
*
*
*
G04 PC Standard Apertures*
*
*
G04 Thermal Relief Aperture macro.*
%AMTER*
1,1,$1,0,0*
1,0,$1-$2,0,0*
21,0,$3,$4,0,0,45*
21,0,$3,$4,0,0,135*
%
*
*
G04 Annular Aperture macro.*
%AMANN*
1,1,$1,0,0*
1,0,$2,0,0*
%
*
*
G04 Odd Aperture macro.*
%AMODD*
1,1,$1,0,0*
1,0,$1-0.005,0,0*
%
*
*
G04 PC Custom Aperture Macros*
*
*
*
*
*
*
G04 PC Aperture Table*
*
%ADD014C,0.01*%
%ADD016C,0.025*%
%ADD019C,0.006*%
%ADD023C,0.001*%
%ADD025C,0.00197*%
%ADD026C,0.00787*%
%ADD027C,0.00787*%
%ADD032C,0.186*%
%ADD066R,0.16732X0.16732*%
%ADD089R,0.038X0.042*%
%ADD090R,0.042X0.038*%
%ADD091R,0.104X0.084*%
%ADD092R,0.084X0.104*%
%ADD093R,0.054X0.058*%
%ADD094R,0.058X0.054*%
%ADD095R,0.03583X0.07087*%
%ADD096R,0.03583X0.04173*%
%ADD097R,0.05315X0.04724*%
%ADD098R,0.04724X0.05315*%
%ADD099C,0.083*%
%ADD100C,0.101*%
%ADD101O,0.122X0.044*%
%ADD102C,0.05906*%
%ADD103R,0.04409X0.02913*%
%ADD104R,0.02913X0.04409*%
%ADD105R,0.0248X0.01378*%
%ADD106R,0.01378X0.0248*%
%ADD107R,0.01811X0.02992*%
%ADD108R,0.04409X0.0311*%
%ADD109O,0.0748X0.03543*%
%ADD110R,0.03386X0.0689*%
%ADD111R,0.05906X0.03386*%
%ADD112R,0.02X0.034*%
%ADD113O,0.01575X0.0315*%
%ADD114O,0.0315X0.01575*%
%ADD115R,0.12008X0.12008*%
%ADD116R,0.07874X0.04134*%
%ADD117R,0.07874X0.13189*%
%ADD118R,0.04134X0.07874*%
%ADD119R,0.13189X0.07874*%
%ADD120O,0.03937X0.01575*%
%ADD121O,0.01575X0.03937*%
%ADD122O,0.02087X0.02953*%
%ADD123R,0.063X0.032*%
%ADD124R,0.06102X0.02165*%
%ADD125O,0.0374X0.01575*%
%ADD126O,0.01575X0.0374*%
%ADD127R,0.13189X0.13189*%
%ADD128R,0.10433X0.10433*%
%ADD129R,0.09646X0.09646*%
%ADD130R,0.02756X0.04724*%
%ADD131R,0.04724X0.02756*%
%ADD132R,0.02165X0.06299*%
%ADD133R,0.046X0.018*%
%ADD134R,0.05512X0.06693*%
%ADD135R,0.07283X0.09843*%
%ADD136R,0.06496X0.02756*%
%ADD138R,0.034X0.02*%
%ADD139R,0.01181X0.01969*%
%ADD140C,0.01181*%
%ADD141C,0.08*%
*
*
*
*
G04 PC Circuitry*
G04 Layer Name Gapfiller_GSM900_REV4.p - circuitry*
%LPD*%
*
*
G04 PC Custom Flashes*
G04 Layer Name Gapfiller_GSM900_REV4.p - flashes*
%LPD*%
*
*
G04 PC Circuitry*
G04 Layer Name Gapfiller_GSM900_REV4.p - circuitry*
%LPD*%
*
G54D14*
G01X3705580Y46781D02*
X3708989D01*
X3709330Y50719*
X3708989Y50281*
X3707966Y49844*
X3706943*
X3705920Y50281*
X3705239Y51156*
X3704898Y52469*
X3705239Y53344*
X3705580Y54656*
X3706261Y55531*
X3707284Y55969*
X3708307*
X3709330Y55531*
X3709670Y55094*
X3710011Y54219*
X3701489Y55094D02*
X3701830Y55531D01*
X3701489Y55969*
X3701148Y55531*
X3701489Y55094*
X3696034Y46781D02*
X3697057Y47219D01*
X3697739Y48531*
X3698080Y50719*
Y52031*
X3697739Y54219*
X3697057Y55531*
X3696034Y55969*
X3695352*
X3694330Y55531*
X3693648Y54219*
X3693307Y52031*
Y50719*
X3693648Y48531*
X3694330Y47219*
X3695352Y46781*
X3696034*
X3688193D02*
X3689216Y47219D01*
X3689898Y48531*
X3690239Y50719*
Y52031*
X3689898Y54219*
X3689216Y55531*
X3688193Y55969*
X3687511*
X3686489Y55531*
X3685807Y54219*
X3685466Y52031*
Y50719*
X3685807Y48531*
X3686489Y47219*
X3687511Y46781*
X3688193*
X3680352D02*
X3681375Y47219D01*
X3682057Y48531*
X3682398Y50719*
Y52031*
X3682057Y54219*
X3681375Y55531*
X3680352Y55969*
X3679670*
X3678648Y55531*
X3677966Y54219*
X3677625Y52031*
Y50719*
X3677966Y48531*
X3678648Y47219*
X3679670Y46781*
X3680352*
X3672511D02*
X3673534Y47219D01*
X3674216Y48531*
X3674557Y50719*
Y52031*
X3674216Y54219*
X3673534Y55531*
X3672511Y55969*
X3671830*
X3670807Y55531*
X3670125Y54219*
X3669784Y52031*
Y50719*
X3670125Y48531*
X3670807Y47219*
X3671830Y46781*
X3672511*
X3655807Y48094D02*
Y55969D01*
X3658875Y52031D02*
X3652739D01*
X3643534Y45031D02*
X3649670Y59031D01*
X3640466Y52031D02*
X3634330D01*
X3623080Y55094D02*
X3623420Y55531D01*
X3623080Y55969*
X3622739Y55531*
X3623080Y55094*
X3617625Y46781D02*
X3618648Y47219D01*
X3619330Y48531*
X3619670Y50719*
Y52031*
X3619330Y54219*
X3618648Y55531*
X3617625Y55969*
X3616943*
X3615920Y55531*
X3615239Y54219*
X3614898Y52031*
Y50719*
X3615239Y48531*
X3615920Y47219*
X3616943Y46781*
X3617625*
X3609784D02*
X3610807Y47219D01*
X3611489Y48531*
X3611830Y50719*
Y52031*
X3611489Y54219*
X3610807Y55531*
X3609784Y55969*
X3609102*
X3608080Y55531*
X3607398Y54219*
X3607057Y52031*
Y50719*
X3607398Y48531*
X3608080Y47219*
X3609102Y46781*
X3609784*
X3601943D02*
X3602966Y47219D01*
X3603648Y48531*
X3603989Y50719*
Y52031*
X3603648Y54219*
X3602966Y55531*
X3601943Y55969*
X3601261*
X3600239Y55531*
X3599557Y54219*
X3599216Y52031*
Y50719*
X3599557Y48531*
X3600239Y47219*
X3601261Y46781*
X3601943*
X3591716D02*
X3595125D01*
X3595466Y50719*
X3595125Y50281*
X3594102Y49844*
X3593080*
X3592057Y50281*
X3591375Y51156*
X3591034Y52469*
X3591375Y53344*
X3591716Y54656*
X3592398Y55531*
X3593420Y55969*
X3594443*
X3595466Y55531*
X3595807Y55094*
X3596148Y54219*
X3580125Y46781D02*
Y55969D01*
Y46781D02*
X3577057D01*
X3576034Y47219*
X3575693Y47656*
X3575352Y48531*
Y49406*
X3575693Y50281*
X3576034Y50719*
X3577057Y51156*
X3580125*
X3577739D02*
X3575352Y55969D01*
X3572284Y46781D02*
Y55969D01*
Y46781D02*
X3567852D01*
X3572284Y51156D02*
X3569557D01*
X3572284Y55969D02*
X3567852D01*
X3564784Y46781D02*
Y55969D01*
Y46781D02*
X3560352D01*
X3564784Y51156D02*
X3562057D01*
X3445781Y352943D02*
X3446219Y351920D01*
X3447094Y351580*
X3447969*
X3448844Y351920*
X3449281Y352602*
X3449719Y353966*
X3450156Y354989*
X3451031Y355670*
X3451906Y356011*
X3453219*
X3454094Y355670*
X3454531Y355330*
X3454969Y354307*
Y352943*
X3454531Y351920*
X3454094Y351580*
X3453219Y351239*
X3451906*
X3451031Y351580*
X3450156Y352261*
X3449719Y353284*
X3449281Y354648*
X3448844Y355330*
X3447969Y355670*
X3447094*
X3446219Y355330*
X3445781Y354307*
Y352943*
X3454094Y359420D02*
X3454531Y359080D01*
X3454969Y359420*
X3454531Y359761*
X3454094Y359420*
X3445781Y364875D02*
X3446219Y363852D01*
X3447531Y363170*
X3449719Y362830*
X3451031*
X3453219Y363170*
X3454531Y363852*
X3454969Y364875*
Y365557*
X3454531Y366580*
X3453219Y367261*
X3451031Y367602*
X3449719*
X3447531Y367261*
X3446219Y366580*
X3445781Y365557*
Y364875*
Y372716D02*
X3446219Y371693D01*
X3447531Y371011*
X3449719Y370670*
X3451031*
X3453219Y371011*
X3454531Y371693*
X3454969Y372716*
Y373398*
X3454531Y374420*
X3453219Y375102*
X3451031Y375443*
X3449719*
X3447531Y375102*
X3446219Y374420*
X3445781Y373398*
Y372716*
Y380557D02*
X3446219Y379534D01*
X3447531Y378852*
X3449719Y378511*
X3451031*
X3453219Y378852*
X3454531Y379534*
X3454969Y380557*
Y381239*
X3454531Y382261*
X3453219Y382943*
X3451031Y383284*
X3449719*
X3447531Y382943*
X3446219Y382261*
X3445781Y381239*
Y380557*
Y388398D02*
X3446219Y387375D01*
X3447531Y386693*
X3449719Y386352*
X3451031*
X3453219Y386693*
X3454531Y387375*
X3454969Y388398*
Y389080*
X3454531Y390102*
X3453219Y390784*
X3451031Y391125*
X3449719*
X3447531Y390784*
X3446219Y390102*
X3445781Y389080*
Y388398*
X3447094Y405102D02*
X3454969D01*
X3451031Y402034D02*
Y408170D01*
X3444031Y417375D02*
X3458031Y411239D01*
X3451031Y420443D02*
Y426580D01*
X3454094Y437830D02*
X3454531Y437489D01*
X3454969Y437830*
X3454531Y438170*
X3454094Y437830*
X3445781Y443284D02*
X3446219Y442261D01*
X3447531Y441580*
X3449719Y441239*
X3451031*
X3453219Y441580*
X3454531Y442261*
X3454969Y443284*
Y443966*
X3454531Y444989*
X3453219Y445670*
X3451031Y446011*
X3449719*
X3447531Y445670*
X3446219Y444989*
X3445781Y443966*
Y443284*
Y451125D02*
X3446219Y450102D01*
X3447531Y449420*
X3449719Y449080*
X3451031*
X3453219Y449420*
X3454531Y450102*
X3454969Y451125*
Y451807*
X3454531Y452830*
X3453219Y453511*
X3451031Y453852*
X3449719*
X3447531Y453511*
X3446219Y452830*
X3445781Y451807*
Y451125*
Y458966D02*
X3446219Y457943D01*
X3447531Y457261*
X3449719Y456920*
X3451031*
X3453219Y457261*
X3454531Y457943*
X3454969Y458966*
Y459648*
X3454531Y460670*
X3453219Y461352*
X3451031Y461693*
X3449719*
X3447531Y461352*
X3446219Y460670*
X3445781Y459648*
Y458966*
Y469193D02*
Y465784D01*
X3449719Y465443*
X3449281Y465784*
X3448844Y466807*
Y467830*
X3449281Y468852*
X3450156Y469534*
X3451469Y469875*
X3452344Y469534*
X3453656Y469193*
X3454531Y468511*
X3454969Y467489*
Y466466*
X3454531Y465443*
X3454094Y465102*
X3453219Y464761*
X3445781Y488625D02*
X3454969D01*
X3445781D02*
Y491693D01*
X3446219Y492716*
X3446656Y493057*
X3447531Y493398*
X3448406*
X3449281Y493057*
X3449719Y492716*
X3450156Y491693*
Y488625*
Y491011D02*
X3454969Y493398D01*
X3445781Y496466D02*
X3454969D01*
X3445781D02*
Y500898D01*
X3450156Y496466D02*
Y499193D01*
X3454969Y496466D02*
Y500898D01*
X3445781Y503966D02*
X3454969D01*
X3445781D02*
Y508398D01*
X3450156Y503966D02*
Y506693D01*
X3820437Y833682D02*
X3827000D01*
X3820437D02*
Y836636D01*
X3823562Y833682D02*
Y835500D01*
X3820437Y838682D02*
X3827000D01*
X3820437Y840727D02*
X3827000D01*
Y843455*
X3820437Y845500D02*
X3827000D01*
X3820437D02*
X3827000Y847318D01*
X3820437Y849136D02*
X3827000Y847318D01*
X3820437Y849136D02*
X3827000D01*
X3824187Y851182D02*
Y855273D01*
X3820437Y858909D02*
X3827000D01*
X3820437Y857318D02*
Y860500D01*
Y864364D02*
X3827000Y862545D01*
X3820437Y864364D02*
X3827000Y866182D01*
X3824812Y863227D02*
Y865500D01*
X3820437Y868227D02*
X3827000D01*
X3820437D02*
Y870273D01*
X3820437D02*
X3820750Y870955D01*
X3821062Y871182*
X3821062D02*
X3821687Y871409D01*
X3821687D02*
X3822312D01*
X3822312D02*
X3822937Y871182D01*
X3822937D02*
X3823250Y870955D01*
X3823562Y870273*
X3823562D02*
Y868227D01*
Y869818D02*
X3827000Y871409D01*
X3822000Y876864D02*
X3821375Y876636D01*
X3820750Y876182*
X3820437Y875727*
X3820437D02*
Y874818D01*
X3820437D02*
X3820750Y874364D01*
X3821375Y873909*
X3822000Y873682*
X3822937Y873455*
X3822937D02*
X3824500D01*
X3825437Y873682*
X3825437D02*
X3826062Y873909D01*
X3826062D02*
X3826687Y874364D01*
X3826687D02*
X3827000Y874818D01*
Y875727*
X3826687Y876182*
X3826687D02*
X3826062Y876636D01*
X3826062D02*
X3825437Y876864D01*
X3825437D02*
X3824500D01*
Y875727D02*
Y876864D01*
X3820437Y878909D02*
X3827000D01*
X3820437D02*
Y881864D01*
X3823562Y878909D02*
Y880727D01*
X3827000Y878909D02*
Y881864D01*
X3820437Y885500D02*
X3827000D01*
X3820437Y883909D02*
Y887091D01*
X3865437Y813682D02*
X3872000D01*
X3865437Y812091D02*
Y815273D01*
Y818682D02*
X3865750Y818227D01*
X3866375Y817773*
X3867000Y817545*
X3867937Y817318*
X3867937D02*
X3869500D01*
X3870437Y817545*
X3870437D02*
X3871062Y817773D01*
X3871062D02*
X3871687Y818227D01*
X3871687D02*
X3872000Y818682D01*
Y819591*
X3871687Y820045*
X3871687D02*
X3871062Y820500D01*
X3871062D02*
X3870437Y820727D01*
X3870437D02*
X3869500Y820955D01*
X3867937*
X3867937D02*
X3867000Y820727D01*
X3866375Y820500*
X3865750Y820045*
X3865437Y819591*
X3865437D02*
Y818682D01*
Y823000D02*
X3872000D01*
X3865437D02*
Y825045D01*
X3865437D02*
X3865750Y825727D01*
X3866062Y825955*
X3866062D02*
X3866687Y826182D01*
X3866687D02*
X3867625D01*
X3868250Y825955*
X3868562Y825727*
X3868562D02*
X3868875Y825045D01*
Y823000*
X3866375Y836636D02*
X3865750Y836182D01*
X3865437Y835500*
X3865437D02*
Y834591D01*
X3865437D02*
X3865750Y833909D01*
X3866375Y833455*
X3867000*
X3867625Y833682*
X3867937Y833909*
X3867937D02*
X3868250Y834364D01*
X3868875Y835727*
X3869187Y836182*
X3869187D02*
X3869500Y836409D01*
X3870125Y836636*
X3871062*
X3871062D02*
X3871687Y836182D01*
X3871687D02*
X3872000Y835500D01*
Y834591*
X3871687Y833909*
X3871687D02*
X3871062Y833455D01*
X3865437Y840045D02*
X3865750Y839591D01*
X3866375Y839136*
X3867000Y838909*
X3867937Y838682*
X3867937D02*
X3869500D01*
X3870437Y838909*
X3870437D02*
X3871062Y839136D01*
X3871062D02*
X3871687Y839591D01*
X3871687D02*
X3872000Y840045D01*
Y840955*
X3871687Y841409*
X3871687D02*
X3871062Y841864D01*
X3871062D02*
X3870437Y842091D01*
X3870437D02*
X3869500Y842318D01*
X3867937*
X3867937D02*
X3867000Y842091D01*
X3866375Y841864*
X3865750Y841409*
X3865437Y840955*
X3865437D02*
Y840045D01*
Y844364D02*
X3872000D01*
Y847091*
X3865437Y849136D02*
X3872000D01*
X3865437D02*
Y850727D01*
X3865437D02*
X3865750Y851409D01*
X3866375Y851864*
X3867000Y852091*
X3867937Y852318*
X3867937D02*
X3869500D01*
X3870437Y852091*
X3870437D02*
X3871062Y851864D01*
X3871062D02*
X3871687Y851409D01*
X3871687D02*
X3872000Y850727D01*
Y849136*
X3865437Y854364D02*
X3872000D01*
X3865437D02*
Y857318D01*
X3868562Y854364D02*
Y856182D01*
X3872000Y854364D02*
Y857318D01*
X3865437Y859364D02*
X3872000D01*
X3865437D02*
Y861409D01*
X3865437D02*
X3865750Y862091D01*
X3866062Y862318*
X3866062D02*
X3866687Y862545D01*
X3866687D02*
X3867312D01*
X3867312D02*
X3867937Y862318D01*
X3867937D02*
X3868250Y862091D01*
X3868562Y861409*
X3868562D02*
Y859364D01*
Y860955D02*
X3872000Y862545D01*
X3865437Y869818D02*
X3872000D01*
X3865437D02*
X3872000Y871636D01*
X3865437Y873455D02*
X3872000Y871636D01*
X3865437Y873455D02*
X3872000D01*
X3865437Y877318D02*
X3872000Y875500D01*
X3865437Y877318D02*
X3872000Y879136D01*
X3869812Y876182D02*
Y878455D01*
X3866375Y884364D02*
X3865750Y883909D01*
X3865437Y883227*
X3865437D02*
Y882318D01*
X3865437D02*
X3865750Y881636D01*
X3866375Y881182*
X3867000*
X3867625Y881409*
X3867937Y881636*
X3867937D02*
X3868250Y882091D01*
X3868875Y883455*
X3869187Y883909*
X3869187D02*
X3869500Y884136D01*
X3870125Y884364*
X3871062*
X3871062D02*
X3871687Y883909D01*
X3871687D02*
X3872000Y883227D01*
Y882318*
X3871687Y881636*
X3871687D02*
X3871062Y881182D01*
X3865437Y886409D02*
X3872000D01*
X3865437Y889591D02*
X3869812Y886409D01*
X3868250Y887545D02*
X3872000Y889591D01*
X3749500Y178000D02*
Y753000D01*
X3487000*
Y178000*
X3749500*
X3449500Y520500D02*
Y820500D01*
X3467000Y850500D02*
X3472000D01*
X3432000D02*
X3427000D01*
X3449500Y867500D02*
Y873000D01*
Y833500D02*
Y828000D01*
X3464500Y851500D02*
X3450500D01*
Y865500*
Y835500D02*
Y849500D01*
X3464500*
X3434500Y851500D02*
X3448500D01*
Y865500*
X3462400Y851402D02*
G75*
G03X3462276Y852500I-12900J-902D01*
G01X3462400Y848503D02*
G03X3462524Y849612I-12899J1997D01*
G01X3436600Y849598D02*
G03X3436654Y849014I12902J902D01*
G01X3436599Y851993D02*
G03X3436545Y851407I12902J-1492D01*
G01X3469500Y850500D02*
G03X3469500I-20000J0D01*
G01X3436599Y849007D02*
G03X3447985Y837602I12901J1493D01*
G01X3448007Y863401D02*
G03X3436602Y852015I1493J-12901D01*
G01X3462401Y851993D02*
G03X3451015Y863398I-12901J-1493D01*
G01X3450402Y837600D02*
G03X3462346Y849014I-902J12900D01*
G01X3434500Y849500D02*
X3448500D01*
Y835500*
X3479500Y50500D02*
X3549500D01*
X3449500Y90500D02*
Y340500D01*
X3467000Y50500D02*
X3472000D01*
X3432000D02*
X3427000D01*
X3449500Y67500D02*
Y73000D01*
Y33500D02*
Y28000D01*
X3464500Y51500D02*
X3450500D01*
Y65500*
Y35500D02*
Y49500D01*
X3464500*
X3434500Y51500D02*
X3448500D01*
Y65500*
X3462400Y51402D02*
G03X3462276Y52500I-12900J-902D01*
G01X3462400Y48503D02*
G03X3462524Y49612I-12899J1997D01*
G01X3436600Y49598D02*
G03X3436654Y49014I12902J902D01*
G01X3436599Y51993D02*
G03X3436545Y51407I12902J-1492D01*
G01X3469500Y50500D02*
G03X3469500I-20000J0D01*
G01X3436599Y49007D02*
G03X3447985Y37602I12901J1493D01*
G01X3448007Y63401D02*
G03X3436602Y52015I1493J-12901D01*
G01X3462401Y51993D02*
G03X3451015Y63398I-12901J-1493D01*
G01X3450402Y37600D02*
G03X3462346Y49014I-902J12900D01*
G01X3434500Y49500D02*
X3448500D01*
Y35500*
X3724500Y50500D02*
X3919500D01*
X3967000D02*
X3972000D01*
X3932000D02*
X3927000D01*
X3949500Y67500D02*
Y73000D01*
Y33500D02*
Y28000D01*
X3964500Y51500D02*
X3950500D01*
Y65500*
Y35500D02*
Y49500D01*
X3964500*
X3934500Y51500D02*
X3948500D01*
Y65500*
X3962400Y51402D02*
G03X3962276Y52500I-12900J-902D01*
G01X3962400Y48503D02*
G03X3962524Y49612I-12899J1997D01*
G01X3936600Y49598D02*
G03X3936654Y49014I12902J902D01*
G01X3936599Y51993D02*
G03X3936545Y51407I12902J-1492D01*
G01X3969500Y50500D02*
G03X3969500I-20000J0D01*
G01X3936599Y49007D02*
G03X3947985Y37602I12901J1493D01*
G01X3948007Y63401D02*
G03X3936602Y52015I1493J-12901D01*
G01X3962401Y51993D02*
G03X3951015Y63398I-12901J-1493D01*
G01X3950402Y37600D02*
G03X3962346Y49014I-902J12900D01*
G01X3934500Y49500D02*
X3948500D01*
Y35500*
X3399500Y500D02*
Y900500D01*
X3999500*
Y500*
X3399500*
G54D16*
X3487000Y178000D02*
Y753000D01*
X3749500*
Y178000*
X3487000*
G54D19*
X3496700Y178300D02*
Y560200D01*
X3487300*
Y178300*
X3496700*
X3497300Y560200D02*
Y550800D01*
X3546700*
Y560200*
X3497300*
X3489800Y563300D02*
Y607700D01*
X3521700*
Y563300*
X3489800*
X3546700Y542700D02*
Y178300D01*
X3537300*
Y542700*
X3546700*
X3567300Y223300D02*
Y255200D01*
X3611700*
Y223300*
X3567300*
X3662300Y470200D02*
Y433300D01*
X3671700*
Y470200*
X3662300*
X3672300Y433300D02*
Y445200D01*
X3749200*
Y433300*
X3672300*
X3749200Y445800D02*
Y752700D01*
X3739800*
Y445800*
X3749200*
X3662300Y752700D02*
Y480800D01*
X3671700*
Y752700*
X3662300*
X3749200Y240800D02*
Y287700D01*
X3737300*
Y240800*
X3749200*
X3487700Y178300D02*
Y560200D01*
X3488300Y178300D02*
Y560200D01*
X3488900Y178300D02*
Y560200D01*
X3489500Y178300D02*
Y560200D01*
X3490100Y178300D02*
Y560200D01*
X3490700Y178300D02*
Y560200D01*
X3491300Y178300D02*
Y560200D01*
X3491900Y178300D02*
Y560200D01*
X3492500Y178300D02*
Y560200D01*
X3493100Y178300D02*
Y560200D01*
X3493700Y178300D02*
Y560200D01*
X3494300Y178300D02*
Y560200D01*
X3494900Y178300D02*
Y560200D01*
X3495500Y178300D02*
Y560200D01*
X3496100Y178300D02*
Y560200D01*
X3496700Y178300D02*
X3487300D01*
X3496700Y178900D02*
X3487300D01*
X3496700Y179500D02*
X3487300D01*
X3496700Y180100D02*
X3487300D01*
X3496700Y180700D02*
X3487300D01*
X3496700Y181300D02*
X3487300D01*
X3496700Y181900D02*
X3487300D01*
X3496700Y182500D02*
X3487300D01*
X3496700Y183100D02*
X3487300D01*
X3496700Y183700D02*
X3487300D01*
X3496700Y184300D02*
X3487300D01*
X3496700Y184900D02*
X3487300D01*
X3496700Y185500D02*
X3487300D01*
X3496700Y186100D02*
X3487300D01*
X3496700Y186700D02*
X3487300D01*
X3496700Y187300D02*
X3487300D01*
X3496700Y187900D02*
X3487300D01*
X3496700Y188500D02*
X3487300D01*
X3496700Y189100D02*
X3487300D01*
X3496700Y189700D02*
X3487300D01*
X3496700Y190300D02*
X3487300D01*
X3496700Y190900D02*
X3487300D01*
X3496700Y191500D02*
X3487300D01*
X3496700Y192100D02*
X3487300D01*
X3496700Y192700D02*
X3487300D01*
X3496700Y193300D02*
X3487300D01*
X3496700Y193900D02*
X3487300D01*
X3496700Y194500D02*
X3487300D01*
X3496700Y195100D02*
X3487300D01*
X3496700Y195700D02*
X3487300D01*
X3496700Y196300D02*
X3487300D01*
X3496700Y196900D02*
X3487300D01*
X3496700Y197500D02*
X3487300D01*
X3496700Y198100D02*
X3487300D01*
X3496700Y198700D02*
X3487300D01*
X3496700Y199300D02*
X3487300D01*
X3496700Y199900D02*
X3487300D01*
X3496700Y200500D02*
X3487300D01*
X3496700Y201100D02*
X3487300D01*
X3496700Y201700D02*
X3487300D01*
X3496700Y202300D02*
X3487300D01*
X3496700Y202900D02*
X3487300D01*
X3496700Y203500D02*
X3487300D01*
X3496700Y204100D02*
X3487300D01*
X3496700Y204700D02*
X3487300D01*
X3496700Y205300D02*
X3487300D01*
X3496700Y205900D02*
X3487300D01*
X3496700Y206500D02*
X3487300D01*
X3496700Y207100D02*
X3487300D01*
X3496700Y207700D02*
X3487300D01*
X3496700Y208300D02*
X3487300D01*
X3496700Y208900D02*
X3487300D01*
X3496700Y209500D02*
X3487300D01*
X3496700Y210100D02*
X3487300D01*
X3496700Y210700D02*
X3487300D01*
X3496700Y211300D02*
X3487300D01*
X3496700Y211900D02*
X3487300D01*
X3496700Y212500D02*
X3487300D01*
X3496700Y213100D02*
X3487300D01*
X3496700Y213700D02*
X3487300D01*
X3496700Y214300D02*
X3487300D01*
X3496700Y214900D02*
X3487300D01*
X3496700Y215500D02*
X3487300D01*
X3496700Y216100D02*
X3487300D01*
X3496700Y216700D02*
X3487300D01*
X3496700Y217300D02*
X3487300D01*
X3496700Y217900D02*
X3487300D01*
X3496700Y218500D02*
X3487300D01*
X3496700Y219100D02*
X3487300D01*
X3496700Y219700D02*
X3487300D01*
X3496700Y220300D02*
X3487300D01*
X3496700Y220900D02*
X3487300D01*
X3496700Y221500D02*
X3487300D01*
X3496700Y222100D02*
X3487300D01*
X3496700Y222700D02*
X3487300D01*
X3496700Y223300D02*
X3487300D01*
X3496700Y223900D02*
X3487300D01*
X3496700Y224500D02*
X3487300D01*
X3496700Y225100D02*
X3487300D01*
X3496700Y225700D02*
X3487300D01*
X3496700Y226300D02*
X3487300D01*
X3496700Y226900D02*
X3487300D01*
X3496700Y227500D02*
X3487300D01*
X3496700Y228100D02*
X3487300D01*
X3496700Y228700D02*
X3487300D01*
X3496700Y229300D02*
X3487300D01*
X3496700Y229900D02*
X3487300D01*
X3496700Y230500D02*
X3487300D01*
X3496700Y231100D02*
X3487300D01*
X3496700Y231700D02*
X3487300D01*
X3496700Y232300D02*
X3487300D01*
X3496700Y232900D02*
X3487300D01*
X3496700Y233500D02*
X3487300D01*
X3496700Y234100D02*
X3487300D01*
X3496700Y234700D02*
X3487300D01*
X3496700Y235300D02*
X3487300D01*
X3496700Y235900D02*
X3487300D01*
X3496700Y236500D02*
X3487300D01*
X3496700Y237100D02*
X3487300D01*
X3496700Y237700D02*
X3487300D01*
X3496700Y238300D02*
X3487300D01*
X3496700Y238900D02*
X3487300D01*
X3496700Y239500D02*
X3487300D01*
X3496700Y240100D02*
X3487300D01*
X3496700Y240700D02*
X3487300D01*
X3496700Y241300D02*
X3487300D01*
X3496700Y241900D02*
X3487300D01*
X3496700Y242500D02*
X3487300D01*
X3496700Y243100D02*
X3487300D01*
X3496700Y243700D02*
X3487300D01*
X3496700Y244300D02*
X3487300D01*
X3496700Y244900D02*
X3487300D01*
X3496700Y245500D02*
X3487300D01*
X3496700Y246100D02*
X3487300D01*
X3496700Y246700D02*
X3487300D01*
X3496700Y247300D02*
X3487300D01*
X3496700Y247900D02*
X3487300D01*
X3496700Y248500D02*
X3487300D01*
X3496700Y249100D02*
X3487300D01*
X3496700Y249700D02*
X3487300D01*
X3496700Y250300D02*
X3487300D01*
X3496700Y250900D02*
X3487300D01*
X3496700Y251500D02*
X3487300D01*
X3496700Y252100D02*
X3487300D01*
X3496700Y252700D02*
X3487300D01*
X3496700Y253300D02*
X3487300D01*
X3496700Y253900D02*
X3487300D01*
X3496700Y254500D02*
X3487300D01*
X3496700Y255100D02*
X3487300D01*
X3496700Y255700D02*
X3487300D01*
X3496700Y256300D02*
X3487300D01*
X3496700Y256900D02*
X3487300D01*
X3496700Y257500D02*
X3487300D01*
X3496700Y258100D02*
X3487300D01*
X3496700Y258700D02*
X3487300D01*
X3496700Y259300D02*
X3487300D01*
X3496700Y259900D02*
X3487300D01*
X3496700Y260500D02*
X3487300D01*
X3496700Y261100D02*
X3487300D01*
X3496700Y261700D02*
X3487300D01*
X3496700Y262300D02*
X3487300D01*
X3496700Y262900D02*
X3487300D01*
X3496700Y263500D02*
X3487300D01*
X3496700Y264100D02*
X3487300D01*
X3496700Y264700D02*
X3487300D01*
X3496700Y265300D02*
X3487300D01*
X3496700Y265900D02*
X3487300D01*
X3496700Y266500D02*
X3487300D01*
X3496700Y267100D02*
X3487300D01*
X3496700Y267700D02*
X3487300D01*
X3496700Y268300D02*
X3487300D01*
X3496700Y268900D02*
X3487300D01*
X3496700Y269500D02*
X3487300D01*
X3496700Y270100D02*
X3487300D01*
X3496700Y270700D02*
X3487300D01*
X3496700Y271300D02*
X3487300D01*
X3496700Y271900D02*
X3487300D01*
X3496700Y272500D02*
X3487300D01*
X3496700Y273100D02*
X3487300D01*
X3496700Y273700D02*
X3487300D01*
X3496700Y274300D02*
X3487300D01*
X3496700Y274900D02*
X3487300D01*
X3496700Y275500D02*
X3487300D01*
X3496700Y276100D02*
X3487300D01*
X3496700Y276700D02*
X3487300D01*
X3496700Y277300D02*
X3487300D01*
X3496700Y277900D02*
X3487300D01*
X3496700Y278500D02*
X3487300D01*
X3496700Y279100D02*
X3487300D01*
X3496700Y279700D02*
X3487300D01*
X3496700Y280300D02*
X3487300D01*
X3496700Y280900D02*
X3487300D01*
X3496700Y281500D02*
X3487300D01*
X3496700Y282100D02*
X3487300D01*
X3496700Y282700D02*
X3487300D01*
X3496700Y283300D02*
X3487300D01*
X3496700Y283900D02*
X3487300D01*
X3496700Y284500D02*
X3487300D01*
X3496700Y285100D02*
X3487300D01*
X3496700Y285700D02*
X3487300D01*
X3496700Y286300D02*
X3487300D01*
X3496700Y286900D02*
X3487300D01*
X3496700Y287500D02*
X3487300D01*
X3496700Y288100D02*
X3487300D01*
X3496700Y288700D02*
X3487300D01*
X3496700Y289300D02*
X3487300D01*
X3496700Y289900D02*
X3487300D01*
X3496700Y290500D02*
X3487300D01*
X3496700Y291100D02*
X3487300D01*
X3496700Y291700D02*
X3487300D01*
X3496700Y292300D02*
X3487300D01*
X3496700Y292900D02*
X3487300D01*
X3496700Y293500D02*
X3487300D01*
X3496700Y294100D02*
X3487300D01*
X3496700Y294700D02*
X3487300D01*
X3496700Y295300D02*
X3487300D01*
X3496700Y295900D02*
X3487300D01*
X3496700Y296500D02*
X3487300D01*
X3496700Y297100D02*
X3487300D01*
X3496700Y297700D02*
X3487300D01*
X3496700Y298300D02*
X3487300D01*
X3496700Y298900D02*
X3487300D01*
X3496700Y299500D02*
X3487300D01*
X3496700Y300100D02*
X3487300D01*
X3496700Y300700D02*
X3487300D01*
X3496700Y301300D02*
X3487300D01*
X3496700Y301900D02*
X3487300D01*
X3496700Y302500D02*
X3487300D01*
X3496700Y303100D02*
X3487300D01*
X3496700Y303700D02*
X3487300D01*
X3496700Y304300D02*
X3487300D01*
X3496700Y304900D02*
X3487300D01*
X3496700Y305500D02*
X3487300D01*
X3496700Y306100D02*
X3487300D01*
X3496700Y306700D02*
X3487300D01*
X3496700Y307300D02*
X3487300D01*
X3496700Y307900D02*
X3487300D01*
X3496700Y308500D02*
X3487300D01*
X3496700Y309100D02*
X3487300D01*
X3496700Y309700D02*
X3487300D01*
X3496700Y310300D02*
X3487300D01*
X3496700Y310900D02*
X3487300D01*
X3496700Y311500D02*
X3487300D01*
X3496700Y312100D02*
X3487300D01*
X3496700Y312700D02*
X3487300D01*
X3496700Y313300D02*
X3487300D01*
X3496700Y313900D02*
X3487300D01*
X3496700Y314500D02*
X3487300D01*
X3496700Y315100D02*
X3487300D01*
X3496700Y315700D02*
X3487300D01*
X3496700Y316300D02*
X3487300D01*
X3496700Y316900D02*
X3487300D01*
X3496700Y317500D02*
X3487300D01*
X3496700Y318100D02*
X3487300D01*
X3496700Y318700D02*
X3487300D01*
X3496700Y319300D02*
X3487300D01*
X3496700Y319900D02*
X3487300D01*
X3496700Y320500D02*
X3487300D01*
X3496700Y321100D02*
X3487300D01*
X3496700Y321700D02*
X3487300D01*
X3496700Y322300D02*
X3487300D01*
X3496700Y322900D02*
X3487300D01*
X3496700Y323500D02*
X3487300D01*
X3496700Y324100D02*
X3487300D01*
X3496700Y324700D02*
X3487300D01*
X3496700Y325300D02*
X3487300D01*
X3496700Y325900D02*
X3487300D01*
X3496700Y326500D02*
X3487300D01*
X3496700Y327100D02*
X3487300D01*
X3496700Y327700D02*
X3487300D01*
X3496700Y328300D02*
X3487300D01*
X3496700Y328900D02*
X3487300D01*
X3496700Y329500D02*
X3487300D01*
X3496700Y330100D02*
X3487300D01*
X3496700Y330700D02*
X3487300D01*
X3496700Y331300D02*
X3487300D01*
X3496700Y331900D02*
X3487300D01*
X3496700Y332500D02*
X3487300D01*
X3496700Y333100D02*
X3487300D01*
X3496700Y333700D02*
X3487300D01*
X3496700Y334300D02*
X3487300D01*
X3496700Y334900D02*
X3487300D01*
X3496700Y335500D02*
X3487300D01*
X3496700Y336100D02*
X3487300D01*
X3496700Y336700D02*
X3487300D01*
X3496700Y337300D02*
X3487300D01*
X3496700Y337900D02*
X3487300D01*
X3496700Y338500D02*
X3487300D01*
X3496700Y339100D02*
X3487300D01*
X3496700Y339700D02*
X3487300D01*
X3496700Y340300D02*
X3487300D01*
X3496700Y340900D02*
X3487300D01*
X3496700Y341500D02*
X3487300D01*
X3496700Y342100D02*
X3487300D01*
X3496700Y342700D02*
X3487300D01*
X3496700Y343300D02*
X3487300D01*
X3496700Y343900D02*
X3487300D01*
X3496700Y344500D02*
X3487300D01*
X3496700Y345100D02*
X3487300D01*
X3496700Y345700D02*
X3487300D01*
X3496700Y346300D02*
X3487300D01*
X3496700Y346900D02*
X3487300D01*
X3496700Y347500D02*
X3487300D01*
X3496700Y348100D02*
X3487300D01*
X3496700Y348700D02*
X3487300D01*
X3496700Y349300D02*
X3487300D01*
X3496700Y349900D02*
X3487300D01*
X3496700Y350500D02*
X3487300D01*
X3496700Y351100D02*
X3487300D01*
X3496700Y351700D02*
X3487300D01*
X3496700Y352300D02*
X3487300D01*
X3496700Y352900D02*
X3487300D01*
X3496700Y353500D02*
X3487300D01*
X3496700Y354100D02*
X3487300D01*
X3496700Y354700D02*
X3487300D01*
X3496700Y355300D02*
X3487300D01*
X3496700Y355900D02*
X3487300D01*
X3496700Y356500D02*
X3487300D01*
X3496700Y357100D02*
X3487300D01*
X3496700Y357700D02*
X3487300D01*
X3496700Y358300D02*
X3487300D01*
X3496700Y358900D02*
X3487300D01*
X3496700Y359500D02*
X3487300D01*
X3496700Y360100D02*
X3487300D01*
X3496700Y360700D02*
X3487300D01*
X3496700Y361300D02*
X3487300D01*
X3496700Y361900D02*
X3487300D01*
X3496700Y362500D02*
X3487300D01*
X3496700Y363100D02*
X3487300D01*
X3496700Y363700D02*
X3487300D01*
X3496700Y364300D02*
X3487300D01*
X3496700Y364900D02*
X3487300D01*
X3496700Y365500D02*
X3487300D01*
X3496700Y366100D02*
X3487300D01*
X3496700Y366700D02*
X3487300D01*
X3496700Y367300D02*
X3487300D01*
X3496700Y367900D02*
X3487300D01*
X3496700Y368500D02*
X3487300D01*
X3496700Y369100D02*
X3487300D01*
X3496700Y369700D02*
X3487300D01*
X3496700Y370300D02*
X3487300D01*
X3496700Y370900D02*
X3487300D01*
X3496700Y371500D02*
X3487300D01*
X3496700Y372100D02*
X3487300D01*
X3496700Y372700D02*
X3487300D01*
X3496700Y373300D02*
X3487300D01*
X3496700Y373900D02*
X3487300D01*
X3496700Y374500D02*
X3487300D01*
X3496700Y375100D02*
X3487300D01*
X3496700Y375700D02*
X3487300D01*
X3496700Y376300D02*
X3487300D01*
X3496700Y376900D02*
X3487300D01*
X3496700Y377500D02*
X3487300D01*
X3496700Y378100D02*
X3487300D01*
X3496700Y378700D02*
X3487300D01*
X3496700Y379300D02*
X3487300D01*
X3496700Y379900D02*
X3487300D01*
X3496700Y380500D02*
X3487300D01*
X3496700Y381100D02*
X3487300D01*
X3496700Y381700D02*
X3487300D01*
X3496700Y382300D02*
X3487300D01*
X3496700Y382900D02*
X3487300D01*
X3496700Y383500D02*
X3487300D01*
X3496700Y384100D02*
X3487300D01*
X3496700Y384700D02*
X3487300D01*
X3496700Y385300D02*
X3487300D01*
X3496700Y385900D02*
X3487300D01*
X3496700Y386500D02*
X3487300D01*
X3496700Y387100D02*
X3487300D01*
X3496700Y387700D02*
X3487300D01*
X3496700Y388300D02*
X3487300D01*
X3496700Y388900D02*
X3487300D01*
X3496700Y389500D02*
X3487300D01*
X3496700Y390100D02*
X3487300D01*
X3496700Y390700D02*
X3487300D01*
X3496700Y391300D02*
X3487300D01*
X3496700Y391900D02*
X3487300D01*
X3496700Y392500D02*
X3487300D01*
X3496700Y393100D02*
X3487300D01*
X3496700Y393700D02*
X3487300D01*
X3496700Y394300D02*
X3487300D01*
X3496700Y394900D02*
X3487300D01*
X3496700Y395500D02*
X3487300D01*
X3496700Y396100D02*
X3487300D01*
X3496700Y396700D02*
X3487300D01*
X3496700Y397300D02*
X3487300D01*
X3496700Y397900D02*
X3487300D01*
X3496700Y398500D02*
X3487300D01*
X3496700Y399100D02*
X3487300D01*
X3496700Y399700D02*
X3487300D01*
X3496700Y400300D02*
X3487300D01*
X3496700Y400900D02*
X3487300D01*
X3496700Y401500D02*
X3487300D01*
X3496700Y402100D02*
X3487300D01*
X3496700Y402700D02*
X3487300D01*
X3496700Y403300D02*
X3487300D01*
X3496700Y403900D02*
X3487300D01*
X3496700Y404500D02*
X3487300D01*
X3496700Y405100D02*
X3487300D01*
X3496700Y405700D02*
X3487300D01*
X3496700Y406300D02*
X3487300D01*
X3496700Y406900D02*
X3487300D01*
X3496700Y407500D02*
X3487300D01*
X3496700Y408100D02*
X3487300D01*
X3496700Y408700D02*
X3487300D01*
X3496700Y409300D02*
X3487300D01*
X3496700Y409900D02*
X3487300D01*
X3496700Y410500D02*
X3487300D01*
X3496700Y411100D02*
X3487300D01*
X3496700Y411700D02*
X3487300D01*
X3496700Y412300D02*
X3487300D01*
X3496700Y412900D02*
X3487300D01*
X3496700Y413500D02*
X3487300D01*
X3496700Y414100D02*
X3487300D01*
X3496700Y414700D02*
X3487300D01*
X3496700Y415300D02*
X3487300D01*
X3496700Y415900D02*
X3487300D01*
X3496700Y416500D02*
X3487300D01*
X3496700Y417100D02*
X3487300D01*
X3496700Y417700D02*
X3487300D01*
X3496700Y418300D02*
X3487300D01*
X3496700Y418900D02*
X3487300D01*
X3496700Y419500D02*
X3487300D01*
X3496700Y420100D02*
X3487300D01*
X3496700Y420700D02*
X3487300D01*
X3496700Y421300D02*
X3487300D01*
X3496700Y421900D02*
X3487300D01*
X3496700Y422500D02*
X3487300D01*
X3496700Y423100D02*
X3487300D01*
X3496700Y423700D02*
X3487300D01*
X3496700Y424300D02*
X3487300D01*
X3496700Y424900D02*
X3487300D01*
X3496700Y425500D02*
X3487300D01*
X3496700Y426100D02*
X3487300D01*
X3496700Y426700D02*
X3487300D01*
X3496700Y427300D02*
X3487300D01*
X3496700Y427900D02*
X3487300D01*
X3496700Y428500D02*
X3487300D01*
X3496700Y429100D02*
X3487300D01*
X3496700Y429700D02*
X3487300D01*
X3496700Y430300D02*
X3487300D01*
X3496700Y430900D02*
X3487300D01*
X3496700Y431500D02*
X3487300D01*
X3496700Y432100D02*
X3487300D01*
X3496700Y432700D02*
X3487300D01*
X3496700Y433300D02*
X3487300D01*
X3496700Y433900D02*
X3487300D01*
X3496700Y434500D02*
X3487300D01*
X3496700Y435100D02*
X3487300D01*
X3496700Y435700D02*
X3487300D01*
X3496700Y436300D02*
X3487300D01*
X3496700Y436900D02*
X3487300D01*
X3496700Y437500D02*
X3487300D01*
X3496700Y438100D02*
X3487300D01*
X3496700Y438700D02*
X3487300D01*
X3496700Y439300D02*
X3487300D01*
X3496700Y439900D02*
X3487300D01*
X3496700Y440500D02*
X3487300D01*
X3496700Y441100D02*
X3487300D01*
X3496700Y441700D02*
X3487300D01*
X3496700Y442300D02*
X3487300D01*
X3496700Y442900D02*
X3487300D01*
X3496700Y443500D02*
X3487300D01*
X3496700Y444100D02*
X3487300D01*
X3496700Y444700D02*
X3487300D01*
X3496700Y445300D02*
X3487300D01*
X3496700Y445900D02*
X3487300D01*
X3496700Y446500D02*
X3487300D01*
X3496700Y447100D02*
X3487300D01*
X3496700Y447700D02*
X3487300D01*
X3496700Y448300D02*
X3487300D01*
X3496700Y448900D02*
X3487300D01*
X3496700Y449500D02*
X3487300D01*
X3496700Y450100D02*
X3487300D01*
X3496700Y450700D02*
X3487300D01*
X3496700Y451300D02*
X3487300D01*
X3496700Y451900D02*
X3487300D01*
X3496700Y452500D02*
X3487300D01*
X3496700Y453100D02*
X3487300D01*
X3496700Y453700D02*
X3487300D01*
X3496700Y454300D02*
X3487300D01*
X3496700Y454900D02*
X3487300D01*
X3496700Y455500D02*
X3487300D01*
X3496700Y456100D02*
X3487300D01*
X3496700Y456700D02*
X3487300D01*
X3496700Y457300D02*
X3487300D01*
X3496700Y457900D02*
X3487300D01*
X3496700Y458500D02*
X3487300D01*
X3496700Y459100D02*
X3487300D01*
X3496700Y459700D02*
X3487300D01*
X3496700Y460300D02*
X3487300D01*
X3496700Y460900D02*
X3487300D01*
X3496700Y461500D02*
X3487300D01*
X3496700Y462100D02*
X3487300D01*
X3496700Y462700D02*
X3487300D01*
X3496700Y463300D02*
X3487300D01*
X3496700Y463900D02*
X3487300D01*
X3496700Y464500D02*
X3487300D01*
X3496700Y465100D02*
X3487300D01*
X3496700Y465700D02*
X3487300D01*
X3496700Y466300D02*
X3487300D01*
X3496700Y466900D02*
X3487300D01*
X3496700Y467500D02*
X3487300D01*
X3496700Y468100D02*
X3487300D01*
X3496700Y468700D02*
X3487300D01*
X3496700Y469300D02*
X3487300D01*
X3496700Y469900D02*
X3487300D01*
X3496700Y470500D02*
X3487300D01*
X3496700Y471100D02*
X3487300D01*
X3496700Y471700D02*
X3487300D01*
X3496700Y472300D02*
X3487300D01*
X3496700Y472900D02*
X3487300D01*
X3496700Y473500D02*
X3487300D01*
X3496700Y474100D02*
X3487300D01*
X3496700Y474700D02*
X3487300D01*
X3496700Y475300D02*
X3487300D01*
X3496700Y475900D02*
X3487300D01*
X3496700Y476500D02*
X3487300D01*
X3496700Y477100D02*
X3487300D01*
X3496700Y477700D02*
X3487300D01*
X3496700Y478300D02*
X3487300D01*
X3496700Y478900D02*
X3487300D01*
X3496700Y479500D02*
X3487300D01*
X3496700Y480100D02*
X3487300D01*
X3496700Y480700D02*
X3487300D01*
X3496700Y481300D02*
X3487300D01*
X3496700Y481900D02*
X3487300D01*
X3496700Y482500D02*
X3487300D01*
X3496700Y483100D02*
X3487300D01*
X3496700Y483700D02*
X3487300D01*
X3496700Y484300D02*
X3487300D01*
X3496700Y484900D02*
X3487300D01*
X3496700Y485500D02*
X3487300D01*
X3496700Y486100D02*
X3487300D01*
X3496700Y486700D02*
X3487300D01*
X3496700Y487300D02*
X3487300D01*
X3496700Y487900D02*
X3487300D01*
X3496700Y488500D02*
X3487300D01*
X3496700Y489100D02*
X3487300D01*
X3496700Y489700D02*
X3487300D01*
X3496700Y490300D02*
X3487300D01*
X3496700Y490900D02*
X3487300D01*
X3496700Y491500D02*
X3487300D01*
X3496700Y492100D02*
X3487300D01*
X3496700Y492700D02*
X3487300D01*
X3496700Y493300D02*
X3487300D01*
X3496700Y493900D02*
X3487300D01*
X3496700Y494500D02*
X3487300D01*
X3496700Y495100D02*
X3487300D01*
X3496700Y495700D02*
X3487300D01*
X3496700Y496300D02*
X3487300D01*
X3496700Y496900D02*
X3487300D01*
X3496700Y497500D02*
X3487300D01*
X3496700Y498100D02*
X3487300D01*
X3496700Y498700D02*
X3487300D01*
X3496700Y499300D02*
X3487300D01*
X3496700Y499900D02*
X3487300D01*
X3496700Y500500D02*
X3487300D01*
X3496700Y501100D02*
X3487300D01*
X3496700Y501700D02*
X3487300D01*
X3496700Y502300D02*
X3487300D01*
X3496700Y502900D02*
X3487300D01*
X3496700Y503500D02*
X3487300D01*
X3496700Y504100D02*
X3487300D01*
X3496700Y504700D02*
X3487300D01*
X3496700Y505300D02*
X3487300D01*
X3496700Y505900D02*
X3487300D01*
X3496700Y506500D02*
X3487300D01*
X3496700Y507100D02*
X3487300D01*
X3496700Y507700D02*
X3487300D01*
X3496700Y508300D02*
X3487300D01*
X3496700Y508900D02*
X3487300D01*
X3496700Y509500D02*
X3487300D01*
X3496700Y510100D02*
X3487300D01*
X3496700Y510700D02*
X3487300D01*
X3496700Y511300D02*
X3487300D01*
X3496700Y511900D02*
X3487300D01*
X3496700Y512500D02*
X3487300D01*
X3496700Y513100D02*
X3487300D01*
X3496700Y513700D02*
X3487300D01*
X3496700Y514300D02*
X3487300D01*
X3496700Y514900D02*
X3487300D01*
X3496700Y515500D02*
X3487300D01*
X3496700Y516100D02*
X3487300D01*
X3496700Y516700D02*
X3487300D01*
X3496700Y517300D02*
X3487300D01*
X3496700Y517900D02*
X3487300D01*
X3496700Y518500D02*
X3487300D01*
X3496700Y519100D02*
X3487300D01*
X3496700Y519700D02*
X3487300D01*
X3496700Y520300D02*
X3487300D01*
X3496700Y520900D02*
X3487300D01*
X3496700Y521500D02*
X3487300D01*
X3496700Y522100D02*
X3487300D01*
X3496700Y522700D02*
X3487300D01*
X3496700Y523300D02*
X3487300D01*
X3496700Y523900D02*
X3487300D01*
X3496700Y524500D02*
X3487300D01*
X3496700Y525100D02*
X3487300D01*
X3496700Y525700D02*
X3487300D01*
X3496700Y526300D02*
X3487300D01*
X3496700Y526900D02*
X3487300D01*
X3496700Y527500D02*
X3487300D01*
X3496700Y528100D02*
X3487300D01*
X3496700Y528700D02*
X3487300D01*
X3496700Y529300D02*
X3487300D01*
X3496700Y529900D02*
X3487300D01*
X3496700Y530500D02*
X3487300D01*
X3496700Y531100D02*
X3487300D01*
X3496700Y531700D02*
X3487300D01*
X3496700Y532300D02*
X3487300D01*
X3496700Y532900D02*
X3487300D01*
X3496700Y533500D02*
X3487300D01*
X3496700Y534100D02*
X3487300D01*
X3496700Y534700D02*
X3487300D01*
X3496700Y535300D02*
X3487300D01*
X3496700Y535900D02*
X3487300D01*
X3496700Y536500D02*
X3487300D01*
X3496700Y537100D02*
X3487300D01*
X3496700Y537700D02*
X3487300D01*
X3496700Y538300D02*
X3487300D01*
X3496700Y538900D02*
X3487300D01*
X3496700Y539500D02*
X3487300D01*
X3496700Y540100D02*
X3487300D01*
X3496700Y540700D02*
X3487300D01*
X3496700Y541300D02*
X3487300D01*
X3496700Y541900D02*
X3487300D01*
X3496700Y542500D02*
X3487300D01*
X3496700Y543100D02*
X3487300D01*
X3496700Y543700D02*
X3487300D01*
X3496700Y544300D02*
X3487300D01*
X3496700Y544900D02*
X3487300D01*
X3496700Y545500D02*
X3487300D01*
X3496700Y546100D02*
X3487300D01*
X3496700Y546700D02*
X3487300D01*
X3496700Y547300D02*
X3487300D01*
X3496700Y547900D02*
X3487300D01*
X3496700Y548500D02*
X3487300D01*
X3496700Y549100D02*
X3487300D01*
X3496700Y549700D02*
X3487300D01*
X3496700Y550300D02*
X3487300D01*
X3496700Y550900D02*
X3487300D01*
X3496700Y551500D02*
X3487300D01*
X3496700Y552100D02*
X3487300D01*
X3496700Y552700D02*
X3487300D01*
X3496700Y553300D02*
X3487300D01*
X3496700Y553900D02*
X3487300D01*
X3496700Y554500D02*
X3487300D01*
X3496700Y555100D02*
X3487300D01*
X3496700Y555700D02*
X3487300D01*
X3496700Y556300D02*
X3487300D01*
X3496700Y556900D02*
X3487300D01*
X3496700Y557500D02*
X3487300D01*
X3496700Y558100D02*
X3487300D01*
X3496700Y558700D02*
X3487300D01*
X3496700Y559300D02*
X3487300D01*
X3496700Y559900D02*
X3487300D01*
X3497300Y550800D02*
Y560200D01*
X3497900Y550800D02*
Y560200D01*
X3498500Y550800D02*
Y560200D01*
X3499100Y550800D02*
Y560200D01*
X3499700Y550800D02*
Y560200D01*
X3500300Y550800D02*
Y560200D01*
X3500900Y550800D02*
Y560200D01*
X3501500Y550800D02*
Y560200D01*
X3502100Y550800D02*
Y560200D01*
X3502700Y550800D02*
Y560200D01*
X3503300Y550800D02*
Y560200D01*
X3503900Y550800D02*
Y560200D01*
X3504500Y550800D02*
Y560200D01*
X3505100Y550800D02*
Y560200D01*
X3505700Y550800D02*
Y560200D01*
X3506300Y550800D02*
Y560200D01*
X3506900Y550800D02*
Y560200D01*
X3507500Y550800D02*
Y560200D01*
X3508100Y550800D02*
Y560200D01*
X3508700Y550800D02*
Y560200D01*
X3509300Y550800D02*
Y560200D01*
X3509900Y550800D02*
Y560200D01*
X3510500Y550800D02*
Y560200D01*
X3511100Y550800D02*
Y560200D01*
X3511700Y550800D02*
Y560200D01*
X3512300Y550800D02*
Y560200D01*
X3512900Y550800D02*
Y560200D01*
X3513500Y550800D02*
Y560200D01*
X3514100Y550800D02*
Y560200D01*
X3514700Y550800D02*
Y560200D01*
X3515300Y550800D02*
Y560200D01*
X3515900Y550800D02*
Y560200D01*
X3516500Y550800D02*
Y560200D01*
X3517100Y550800D02*
Y560200D01*
X3517700Y550800D02*
Y560200D01*
X3518300Y550800D02*
Y560200D01*
X3518900Y550800D02*
Y560200D01*
X3519500Y550800D02*
Y560200D01*
X3520100Y550800D02*
Y560200D01*
X3520700Y550800D02*
Y560200D01*
X3521300Y550800D02*
Y560200D01*
X3521900Y550800D02*
Y560200D01*
X3522500Y550800D02*
Y560200D01*
X3523100Y550800D02*
Y560200D01*
X3523700Y550800D02*
Y560200D01*
X3524300Y550800D02*
Y560200D01*
X3524900Y550800D02*
Y560200D01*
X3525500Y550800D02*
Y560200D01*
X3526100Y550800D02*
Y560200D01*
X3526700Y550800D02*
Y560200D01*
X3527300Y550800D02*
Y560200D01*
X3527900Y550800D02*
Y560200D01*
X3528500Y550800D02*
Y560200D01*
X3529100Y550800D02*
Y560200D01*
X3529700Y550800D02*
Y560200D01*
X3530300Y550800D02*
Y560200D01*
X3530900Y550800D02*
Y560200D01*
X3531500Y550800D02*
Y560200D01*
X3532100Y550800D02*
Y560200D01*
X3532700Y550800D02*
Y560200D01*
X3533300Y550800D02*
Y560200D01*
X3533900Y550800D02*
Y560200D01*
X3534500Y550800D02*
Y560200D01*
X3535100Y550800D02*
Y560200D01*
X3535700Y550800D02*
Y560200D01*
X3536300Y550800D02*
Y560200D01*
X3536900Y550800D02*
Y560200D01*
X3537500Y550800D02*
Y560200D01*
X3538100Y550800D02*
Y560200D01*
X3538700Y550800D02*
Y560200D01*
X3539300Y550800D02*
Y560200D01*
X3539900Y550800D02*
Y560200D01*
X3540500Y550800D02*
Y560200D01*
X3541100Y550800D02*
Y560200D01*
X3541700Y550800D02*
Y560200D01*
X3542300Y550800D02*
Y560200D01*
X3542900Y550800D02*
Y560200D01*
X3543500Y550800D02*
Y560200D01*
X3544100Y550800D02*
Y560200D01*
X3544700Y550800D02*
Y560200D01*
X3545300Y550800D02*
Y560200D01*
X3545900Y550800D02*
Y560200D01*
X3546500Y550800D02*
Y560200D01*
X3546700Y551200D02*
X3497300D01*
X3546700Y551800D02*
X3497300D01*
X3546700Y552400D02*
X3497300D01*
X3546700Y553000D02*
X3497300D01*
X3546700Y553600D02*
X3497300D01*
X3546700Y554200D02*
X3497300D01*
X3546700Y554800D02*
X3497300D01*
X3546700Y555400D02*
X3497300D01*
X3546700Y556000D02*
X3497300D01*
X3546700Y556600D02*
X3497300D01*
X3546700Y557200D02*
X3497300D01*
X3546700Y557800D02*
X3497300D01*
X3546700Y558400D02*
X3497300D01*
X3546700Y559000D02*
X3497300D01*
X3546700Y559600D02*
X3497300D01*
X3489800Y563300D02*
Y607700D01*
X3490400Y563300D02*
Y607700D01*
X3491000Y563300D02*
Y607700D01*
X3491600Y563300D02*
Y607700D01*
X3492200Y563300D02*
Y607700D01*
X3492800Y563300D02*
Y607700D01*
X3493400Y563300D02*
Y607700D01*
X3494000Y563300D02*
Y607700D01*
X3494600Y563300D02*
Y607700D01*
X3495200Y563300D02*
Y607700D01*
X3495800Y563300D02*
Y607700D01*
X3496400Y563300D02*
Y607700D01*
X3497000Y563300D02*
Y607700D01*
X3497600Y563300D02*
Y607700D01*
X3498200Y563300D02*
Y607700D01*
X3498800Y563300D02*
Y607700D01*
X3499400Y563300D02*
Y607700D01*
X3500000Y563300D02*
Y607700D01*
X3500600Y563300D02*
Y607700D01*
X3501200Y563300D02*
Y607700D01*
X3501800Y563300D02*
Y607700D01*
X3502400Y563300D02*
Y607700D01*
X3503000Y563300D02*
Y607700D01*
X3503600Y563300D02*
Y607700D01*
X3504200Y563300D02*
Y607700D01*
X3504800Y563300D02*
Y607700D01*
X3505400Y563300D02*
Y607700D01*
X3506000Y563300D02*
Y607700D01*
X3506600Y563300D02*
Y607700D01*
X3507200Y563300D02*
Y607700D01*
X3507800Y563300D02*
Y607700D01*
X3508400Y563300D02*
Y607700D01*
X3509000Y563300D02*
Y607700D01*
X3509600Y563300D02*
Y607700D01*
X3510200Y563300D02*
Y607700D01*
X3510800Y563300D02*
Y607700D01*
X3511400Y563300D02*
Y607700D01*
X3512000Y563300D02*
Y607700D01*
X3512600Y563300D02*
Y607700D01*
X3513200Y563300D02*
Y607700D01*
X3513800Y563300D02*
Y607700D01*
X3514400Y563300D02*
Y607700D01*
X3515000Y563300D02*
Y607700D01*
X3515600Y563300D02*
Y607700D01*
X3516200Y563300D02*
Y607700D01*
X3516800Y563300D02*
Y607700D01*
X3517400Y563300D02*
Y607700D01*
X3518000Y563300D02*
Y607700D01*
X3518600Y563300D02*
Y607700D01*
X3519200Y563300D02*
Y607700D01*
X3519800Y563300D02*
Y607700D01*
X3520400Y563300D02*
Y607700D01*
X3521000Y563300D02*
Y607700D01*
X3521600Y563300D02*
Y607700D01*
X3521700Y563300D02*
X3489800D01*
X3521700Y563900D02*
X3489800D01*
X3521700Y564500D02*
X3489800D01*
X3521700Y565100D02*
X3489800D01*
X3521700Y565700D02*
X3489800D01*
X3521700Y566300D02*
X3489800D01*
X3521700Y566900D02*
X3489800D01*
X3521700Y567500D02*
X3489800D01*
X3521700Y568100D02*
X3489800D01*
X3521700Y568700D02*
X3489800D01*
X3521700Y569300D02*
X3489800D01*
X3521700Y569900D02*
X3489800D01*
X3521700Y570500D02*
X3489800D01*
X3521700Y571100D02*
X3489800D01*
X3521700Y571700D02*
X3489800D01*
X3521700Y572300D02*
X3489800D01*
X3521700Y572900D02*
X3489800D01*
X3521700Y573500D02*
X3489800D01*
X3521700Y574100D02*
X3489800D01*
X3521700Y574700D02*
X3489800D01*
X3521700Y575300D02*
X3489800D01*
X3521700Y575900D02*
X3489800D01*
X3521700Y576500D02*
X3489800D01*
X3521700Y577100D02*
X3489800D01*
X3521700Y577700D02*
X3489800D01*
X3521700Y578300D02*
X3489800D01*
X3521700Y578900D02*
X3489800D01*
X3521700Y579500D02*
X3489800D01*
X3521700Y580100D02*
X3489800D01*
X3521700Y580700D02*
X3489800D01*
X3521700Y581300D02*
X3489800D01*
X3521700Y581900D02*
X3489800D01*
X3521700Y582500D02*
X3489800D01*
X3521700Y583100D02*
X3489800D01*
X3521700Y583700D02*
X3489800D01*
X3521700Y584300D02*
X3489800D01*
X3521700Y584900D02*
X3489800D01*
X3521700Y585500D02*
X3489800D01*
X3521700Y586100D02*
X3489800D01*
X3521700Y586700D02*
X3489800D01*
X3521700Y587300D02*
X3489800D01*
X3521700Y587900D02*
X3489800D01*
X3521700Y588500D02*
X3489800D01*
X3521700Y589100D02*
X3489800D01*
X3521700Y589700D02*
X3489800D01*
X3521700Y590300D02*
X3489800D01*
X3521700Y590900D02*
X3489800D01*
X3521700Y591500D02*
X3489800D01*
X3521700Y592100D02*
X3489800D01*
X3521700Y592700D02*
X3489800D01*
X3521700Y593300D02*
X3489800D01*
X3521700Y593900D02*
X3489800D01*
X3521700Y594500D02*
X3489800D01*
X3521700Y595100D02*
X3489800D01*
X3521700Y595700D02*
X3489800D01*
X3521700Y596300D02*
X3489800D01*
X3521700Y596900D02*
X3489800D01*
X3521700Y597500D02*
X3489800D01*
X3521700Y598100D02*
X3489800D01*
X3521700Y598700D02*
X3489800D01*
X3521700Y599300D02*
X3489800D01*
X3521700Y599900D02*
X3489800D01*
X3521700Y600500D02*
X3489800D01*
X3521700Y601100D02*
X3489800D01*
X3521700Y601700D02*
X3489800D01*
X3521700Y602300D02*
X3489800D01*
X3521700Y602900D02*
X3489800D01*
X3521700Y603500D02*
X3489800D01*
X3521700Y604100D02*
X3489800D01*
X3521700Y604700D02*
X3489800D01*
X3521700Y605300D02*
X3489800D01*
X3521700Y605900D02*
X3489800D01*
X3521700Y606500D02*
X3489800D01*
X3521700Y607100D02*
X3489800D01*
X3537700Y178300D02*
Y542700D01*
X3538300Y178300D02*
Y542700D01*
X3538900Y178300D02*
Y542700D01*
X3539500Y178300D02*
Y542700D01*
X3540100Y178300D02*
Y542700D01*
X3540700Y178300D02*
Y542700D01*
X3541300Y178300D02*
Y542700D01*
X3541900Y178300D02*
Y542700D01*
X3542500Y178300D02*
Y542700D01*
X3543100Y178300D02*
Y542700D01*
X3543700Y178300D02*
Y542700D01*
X3544300Y178300D02*
Y542700D01*
X3544900Y178300D02*
Y542700D01*
X3545500Y178300D02*
Y542700D01*
X3546100Y178300D02*
Y542700D01*
X3546700Y178500D02*
X3537300D01*
X3546700Y179100D02*
X3537300D01*
X3546700Y179700D02*
X3537300D01*
X3546700Y180300D02*
X3537300D01*
X3546700Y180900D02*
X3537300D01*
X3546700Y181500D02*
X3537300D01*
X3546700Y182100D02*
X3537300D01*
X3546700Y182700D02*
X3537300D01*
X3546700Y183300D02*
X3537300D01*
X3546700Y183900D02*
X3537300D01*
X3546700Y184500D02*
X3537300D01*
X3546700Y185100D02*
X3537300D01*
X3546700Y185700D02*
X3537300D01*
X3546700Y186300D02*
X3537300D01*
X3546700Y186900D02*
X3537300D01*
X3546700Y187500D02*
X3537300D01*
X3546700Y188100D02*
X3537300D01*
X3546700Y188700D02*
X3537300D01*
X3546700Y189300D02*
X3537300D01*
X3546700Y189900D02*
X3537300D01*
X3546700Y190500D02*
X3537300D01*
X3546700Y191100D02*
X3537300D01*
X3546700Y191700D02*
X3537300D01*
X3546700Y192300D02*
X3537300D01*
X3546700Y192900D02*
X3537300D01*
X3546700Y193500D02*
X3537300D01*
X3546700Y194100D02*
X3537300D01*
X3546700Y194700D02*
X3537300D01*
X3546700Y195300D02*
X3537300D01*
X3546700Y195900D02*
X3537300D01*
X3546700Y196500D02*
X3537300D01*
X3546700Y197100D02*
X3537300D01*
X3546700Y197700D02*
X3537300D01*
X3546700Y198300D02*
X3537300D01*
X3546700Y198900D02*
X3537300D01*
X3546700Y199500D02*
X3537300D01*
X3546700Y200100D02*
X3537300D01*
X3546700Y200700D02*
X3537300D01*
X3546700Y201300D02*
X3537300D01*
X3546700Y201900D02*
X3537300D01*
X3546700Y202500D02*
X3537300D01*
X3546700Y203100D02*
X3537300D01*
X3546700Y203700D02*
X3537300D01*
X3546700Y204300D02*
X3537300D01*
X3546700Y204900D02*
X3537300D01*
X3546700Y205500D02*
X3537300D01*
X3546700Y206100D02*
X3537300D01*
X3546700Y206700D02*
X3537300D01*
X3546700Y207300D02*
X3537300D01*
X3546700Y207900D02*
X3537300D01*
X3546700Y208500D02*
X3537300D01*
X3546700Y209100D02*
X3537300D01*
X3546700Y209700D02*
X3537300D01*
X3546700Y210300D02*
X3537300D01*
X3546700Y210900D02*
X3537300D01*
X3546700Y211500D02*
X3537300D01*
X3546700Y212100D02*
X3537300D01*
X3546700Y212700D02*
X3537300D01*
X3546700Y213300D02*
X3537300D01*
X3546700Y213900D02*
X3537300D01*
X3546700Y214500D02*
X3537300D01*
X3546700Y215100D02*
X3537300D01*
X3546700Y215700D02*
X3537300D01*
X3546700Y216300D02*
X3537300D01*
X3546700Y216900D02*
X3537300D01*
X3546700Y217500D02*
X3537300D01*
X3546700Y218100D02*
X3537300D01*
X3546700Y218700D02*
X3537300D01*
X3546700Y219300D02*
X3537300D01*
X3546700Y219900D02*
X3537300D01*
X3546700Y220500D02*
X3537300D01*
X3546700Y221100D02*
X3537300D01*
X3546700Y221700D02*
X3537300D01*
X3546700Y222300D02*
X3537300D01*
X3546700Y222900D02*
X3537300D01*
X3546700Y223500D02*
X3537300D01*
X3546700Y224100D02*
X3537300D01*
X3546700Y224700D02*
X3537300D01*
X3546700Y225300D02*
X3537300D01*
X3546700Y225900D02*
X3537300D01*
X3546700Y226500D02*
X3537300D01*
X3546700Y227100D02*
X3537300D01*
X3546700Y227700D02*
X3537300D01*
X3546700Y228300D02*
X3537300D01*
X3546700Y228900D02*
X3537300D01*
X3546700Y229500D02*
X3537300D01*
X3546700Y230100D02*
X3537300D01*
X3546700Y230700D02*
X3537300D01*
X3546700Y231300D02*
X3537300D01*
X3546700Y231900D02*
X3537300D01*
X3546700Y232500D02*
X3537300D01*
X3546700Y233100D02*
X3537300D01*
X3546700Y233700D02*
X3537300D01*
X3546700Y234300D02*
X3537300D01*
X3546700Y234900D02*
X3537300D01*
X3546700Y235500D02*
X3537300D01*
X3546700Y236100D02*
X3537300D01*
X3546700Y236700D02*
X3537300D01*
X3546700Y237300D02*
X3537300D01*
X3546700Y237900D02*
X3537300D01*
X3546700Y238500D02*
X3537300D01*
X3546700Y239100D02*
X3537300D01*
X3546700Y239700D02*
X3537300D01*
X3546700Y240300D02*
X3537300D01*
X3546700Y240900D02*
X3537300D01*
X3546700Y241500D02*
X3537300D01*
X3546700Y242100D02*
X3537300D01*
X3546700Y242700D02*
X3537300D01*
X3546700Y243300D02*
X3537300D01*
X3546700Y243900D02*
X3537300D01*
X3546700Y244500D02*
X3537300D01*
X3546700Y245100D02*
X3537300D01*
X3546700Y245700D02*
X3537300D01*
X3546700Y246300D02*
X3537300D01*
X3546700Y246900D02*
X3537300D01*
X3546700Y247500D02*
X3537300D01*
X3546700Y248100D02*
X3537300D01*
X3546700Y248700D02*
X3537300D01*
X3546700Y249300D02*
X3537300D01*
X3546700Y249900D02*
X3537300D01*
X3546700Y250500D02*
X3537300D01*
X3546700Y251100D02*
X3537300D01*
X3546700Y251700D02*
X3537300D01*
X3546700Y252300D02*
X3537300D01*
X3546700Y252900D02*
X3537300D01*
X3546700Y253500D02*
X3537300D01*
X3546700Y254100D02*
X3537300D01*
X3546700Y254700D02*
X3537300D01*
X3546700Y255300D02*
X3537300D01*
X3546700Y255900D02*
X3537300D01*
X3546700Y256500D02*
X3537300D01*
X3546700Y257100D02*
X3537300D01*
X3546700Y257700D02*
X3537300D01*
X3546700Y258300D02*
X3537300D01*
X3546700Y258900D02*
X3537300D01*
X3546700Y259500D02*
X3537300D01*
X3546700Y260100D02*
X3537300D01*
X3546700Y260700D02*
X3537300D01*
X3546700Y261300D02*
X3537300D01*
X3546700Y261900D02*
X3537300D01*
X3546700Y262500D02*
X3537300D01*
X3546700Y263100D02*
X3537300D01*
X3546700Y263700D02*
X3537300D01*
X3546700Y264300D02*
X3537300D01*
X3546700Y264900D02*
X3537300D01*
X3546700Y265500D02*
X3537300D01*
X3546700Y266100D02*
X3537300D01*
X3546700Y266700D02*
X3537300D01*
X3546700Y267300D02*
X3537300D01*
X3546700Y267900D02*
X3537300D01*
X3546700Y268500D02*
X3537300D01*
X3546700Y269100D02*
X3537300D01*
X3546700Y269700D02*
X3537300D01*
X3546700Y270300D02*
X3537300D01*
X3546700Y270900D02*
X3537300D01*
X3546700Y271500D02*
X3537300D01*
X3546700Y272100D02*
X3537300D01*
X3546700Y272700D02*
X3537300D01*
X3546700Y273300D02*
X3537300D01*
X3546700Y273900D02*
X3537300D01*
X3546700Y274500D02*
X3537300D01*
X3546700Y275100D02*
X3537300D01*
X3546700Y275700D02*
X3537300D01*
X3546700Y276300D02*
X3537300D01*
X3546700Y276900D02*
X3537300D01*
X3546700Y277500D02*
X3537300D01*
X3546700Y278100D02*
X3537300D01*
X3546700Y278700D02*
X3537300D01*
X3546700Y279300D02*
X3537300D01*
X3546700Y279900D02*
X3537300D01*
X3546700Y280500D02*
X3537300D01*
X3546700Y281100D02*
X3537300D01*
X3546700Y281700D02*
X3537300D01*
X3546700Y282300D02*
X3537300D01*
X3546700Y282900D02*
X3537300D01*
X3546700Y283500D02*
X3537300D01*
X3546700Y284100D02*
X3537300D01*
X3546700Y284700D02*
X3537300D01*
X3546700Y285300D02*
X3537300D01*
X3546700Y285900D02*
X3537300D01*
X3546700Y286500D02*
X3537300D01*
X3546700Y287100D02*
X3537300D01*
X3546700Y287700D02*
X3537300D01*
X3546700Y288300D02*
X3537300D01*
X3546700Y288900D02*
X3537300D01*
X3546700Y289500D02*
X3537300D01*
X3546700Y290100D02*
X3537300D01*
X3546700Y290700D02*
X3537300D01*
X3546700Y291300D02*
X3537300D01*
X3546700Y291900D02*
X3537300D01*
X3546700Y292500D02*
X3537300D01*
X3546700Y293100D02*
X3537300D01*
X3546700Y293700D02*
X3537300D01*
X3546700Y294300D02*
X3537300D01*
X3546700Y294900D02*
X3537300D01*
X3546700Y295500D02*
X3537300D01*
X3546700Y296100D02*
X3537300D01*
X3546700Y296700D02*
X3537300D01*
X3546700Y297300D02*
X3537300D01*
X3546700Y297900D02*
X3537300D01*
X3546700Y298500D02*
X3537300D01*
X3546700Y299100D02*
X3537300D01*
X3546700Y299700D02*
X3537300D01*
X3546700Y300300D02*
X3537300D01*
X3546700Y300900D02*
X3537300D01*
X3546700Y301500D02*
X3537300D01*
X3546700Y302100D02*
X3537300D01*
X3546700Y302700D02*
X3537300D01*
X3546700Y303300D02*
X3537300D01*
X3546700Y303900D02*
X3537300D01*
X3546700Y304500D02*
X3537300D01*
X3546700Y305100D02*
X3537300D01*
X3546700Y305700D02*
X3537300D01*
X3546700Y306300D02*
X3537300D01*
X3546700Y306900D02*
X3537300D01*
X3546700Y307500D02*
X3537300D01*
X3546700Y308100D02*
X3537300D01*
X3546700Y308700D02*
X3537300D01*
X3546700Y309300D02*
X3537300D01*
X3546700Y309900D02*
X3537300D01*
X3546700Y310500D02*
X3537300D01*
X3546700Y311100D02*
X3537300D01*
X3546700Y311700D02*
X3537300D01*
X3546700Y312300D02*
X3537300D01*
X3546700Y312900D02*
X3537300D01*
X3546700Y313500D02*
X3537300D01*
X3546700Y314100D02*
X3537300D01*
X3546700Y314700D02*
X3537300D01*
X3546700Y315300D02*
X3537300D01*
X3546700Y315900D02*
X3537300D01*
X3546700Y316500D02*
X3537300D01*
X3546700Y317100D02*
X3537300D01*
X3546700Y317700D02*
X3537300D01*
X3546700Y318300D02*
X3537300D01*
X3546700Y318900D02*
X3537300D01*
X3546700Y319500D02*
X3537300D01*
X3546700Y320100D02*
X3537300D01*
X3546700Y320700D02*
X3537300D01*
X3546700Y321300D02*
X3537300D01*
X3546700Y321900D02*
X3537300D01*
X3546700Y322500D02*
X3537300D01*
X3546700Y323100D02*
X3537300D01*
X3546700Y323700D02*
X3537300D01*
X3546700Y324300D02*
X3537300D01*
X3546700Y324900D02*
X3537300D01*
X3546700Y325500D02*
X3537300D01*
X3546700Y326100D02*
X3537300D01*
X3546700Y326700D02*
X3537300D01*
X3546700Y327300D02*
X3537300D01*
X3546700Y327900D02*
X3537300D01*
X3546700Y328500D02*
X3537300D01*
X3546700Y329100D02*
X3537300D01*
X3546700Y329700D02*
X3537300D01*
X3546700Y330300D02*
X3537300D01*
X3546700Y330900D02*
X3537300D01*
X3546700Y331500D02*
X3537300D01*
X3546700Y332100D02*
X3537300D01*
X3546700Y332700D02*
X3537300D01*
X3546700Y333300D02*
X3537300D01*
X3546700Y333900D02*
X3537300D01*
X3546700Y334500D02*
X3537300D01*
X3546700Y335100D02*
X3537300D01*
X3546700Y335700D02*
X3537300D01*
X3546700Y336300D02*
X3537300D01*
X3546700Y336900D02*
X3537300D01*
X3546700Y337500D02*
X3537300D01*
X3546700Y338100D02*
X3537300D01*
X3546700Y338700D02*
X3537300D01*
X3546700Y339300D02*
X3537300D01*
X3546700Y339900D02*
X3537300D01*
X3546700Y340500D02*
X3537300D01*
X3546700Y341100D02*
X3537300D01*
X3546700Y341700D02*
X3537300D01*
X3546700Y342300D02*
X3537300D01*
X3546700Y342900D02*
X3537300D01*
X3546700Y343500D02*
X3537300D01*
X3546700Y344100D02*
X3537300D01*
X3546700Y344700D02*
X3537300D01*
X3546700Y345300D02*
X3537300D01*
X3546700Y345900D02*
X3537300D01*
X3546700Y346500D02*
X3537300D01*
X3546700Y347100D02*
X3537300D01*
X3546700Y347700D02*
X3537300D01*
X3546700Y348300D02*
X3537300D01*
X3546700Y348900D02*
X3537300D01*
X3546700Y349500D02*
X3537300D01*
X3546700Y350100D02*
X3537300D01*
X3546700Y350700D02*
X3537300D01*
X3546700Y351300D02*
X3537300D01*
X3546700Y351900D02*
X3537300D01*
X3546700Y352500D02*
X3537300D01*
X3546700Y353100D02*
X3537300D01*
X3546700Y353700D02*
X3537300D01*
X3546700Y354300D02*
X3537300D01*
X3546700Y354900D02*
X3537300D01*
X3546700Y355500D02*
X3537300D01*
X3546700Y356100D02*
X3537300D01*
X3546700Y356700D02*
X3537300D01*
X3546700Y357300D02*
X3537300D01*
X3546700Y357900D02*
X3537300D01*
X3546700Y358500D02*
X3537300D01*
X3546700Y359100D02*
X3537300D01*
X3546700Y359700D02*
X3537300D01*
X3546700Y360300D02*
X3537300D01*
X3546700Y360900D02*
X3537300D01*
X3546700Y361500D02*
X3537300D01*
X3546700Y362100D02*
X3537300D01*
X3546700Y362700D02*
X3537300D01*
X3546700Y363300D02*
X3537300D01*
X3546700Y363900D02*
X3537300D01*
X3546700Y364500D02*
X3537300D01*
X3546700Y365100D02*
X3537300D01*
X3546700Y365700D02*
X3537300D01*
X3546700Y366300D02*
X3537300D01*
X3546700Y366900D02*
X3537300D01*
X3546700Y367500D02*
X3537300D01*
X3546700Y368100D02*
X3537300D01*
X3546700Y368700D02*
X3537300D01*
X3546700Y369300D02*
X3537300D01*
X3546700Y369900D02*
X3537300D01*
X3546700Y370500D02*
X3537300D01*
X3546700Y371100D02*
X3537300D01*
X3546700Y371700D02*
X3537300D01*
X3546700Y372300D02*
X3537300D01*
X3546700Y372900D02*
X3537300D01*
X3546700Y373500D02*
X3537300D01*
X3546700Y374100D02*
X3537300D01*
X3546700Y374700D02*
X3537300D01*
X3546700Y375300D02*
X3537300D01*
X3546700Y375900D02*
X3537300D01*
X3546700Y376500D02*
X3537300D01*
X3546700Y377100D02*
X3537300D01*
X3546700Y377700D02*
X3537300D01*
X3546700Y378300D02*
X3537300D01*
X3546700Y378900D02*
X3537300D01*
X3546700Y379500D02*
X3537300D01*
X3546700Y380100D02*
X3537300D01*
X3546700Y380700D02*
X3537300D01*
X3546700Y381300D02*
X3537300D01*
X3546700Y381900D02*
X3537300D01*
X3546700Y382500D02*
X3537300D01*
X3546700Y383100D02*
X3537300D01*
X3546700Y383700D02*
X3537300D01*
X3546700Y384300D02*
X3537300D01*
X3546700Y384900D02*
X3537300D01*
X3546700Y385500D02*
X3537300D01*
X3546700Y386100D02*
X3537300D01*
X3546700Y386700D02*
X3537300D01*
X3546700Y387300D02*
X3537300D01*
X3546700Y387900D02*
X3537300D01*
X3546700Y388500D02*
X3537300D01*
X3546700Y389100D02*
X3537300D01*
X3546700Y389700D02*
X3537300D01*
X3546700Y390300D02*
X3537300D01*
X3546700Y390900D02*
X3537300D01*
X3546700Y391500D02*
X3537300D01*
X3546700Y392100D02*
X3537300D01*
X3546700Y392700D02*
X3537300D01*
X3546700Y393300D02*
X3537300D01*
X3546700Y393900D02*
X3537300D01*
X3546700Y394500D02*
X3537300D01*
X3546700Y395100D02*
X3537300D01*
X3546700Y395700D02*
X3537300D01*
X3546700Y396300D02*
X3537300D01*
X3546700Y396900D02*
X3537300D01*
X3546700Y397500D02*
X3537300D01*
X3546700Y398100D02*
X3537300D01*
X3546700Y398700D02*
X3537300D01*
X3546700Y399300D02*
X3537300D01*
X3546700Y399900D02*
X3537300D01*
X3546700Y400500D02*
X3537300D01*
X3546700Y401100D02*
X3537300D01*
X3546700Y401700D02*
X3537300D01*
X3546700Y402300D02*
X3537300D01*
X3546700Y402900D02*
X3537300D01*
X3546700Y403500D02*
X3537300D01*
X3546700Y404100D02*
X3537300D01*
X3546700Y404700D02*
X3537300D01*
X3546700Y405300D02*
X3537300D01*
X3546700Y405900D02*
X3537300D01*
X3546700Y406500D02*
X3537300D01*
X3546700Y407100D02*
X3537300D01*
X3546700Y407700D02*
X3537300D01*
X3546700Y408300D02*
X3537300D01*
X3546700Y408900D02*
X3537300D01*
X3546700Y409500D02*
X3537300D01*
X3546700Y410100D02*
X3537300D01*
X3546700Y410700D02*
X3537300D01*
X3546700Y411300D02*
X3537300D01*
X3546700Y411900D02*
X3537300D01*
X3546700Y412500D02*
X3537300D01*
X3546700Y413100D02*
X3537300D01*
X3546700Y413700D02*
X3537300D01*
X3546700Y414300D02*
X3537300D01*
X3546700Y414900D02*
X3537300D01*
X3546700Y415500D02*
X3537300D01*
X3546700Y416100D02*
X3537300D01*
X3546700Y416700D02*
X3537300D01*
X3546700Y417300D02*
X3537300D01*
X3546700Y417900D02*
X3537300D01*
X3546700Y418500D02*
X3537300D01*
X3546700Y419100D02*
X3537300D01*
X3546700Y419700D02*
X3537300D01*
X3546700Y420300D02*
X3537300D01*
X3546700Y420900D02*
X3537300D01*
X3546700Y421500D02*
X3537300D01*
X3546700Y422100D02*
X3537300D01*
X3546700Y422700D02*
X3537300D01*
X3546700Y423300D02*
X3537300D01*
X3546700Y423900D02*
X3537300D01*
X3546700Y424500D02*
X3537300D01*
X3546700Y425100D02*
X3537300D01*
X3546700Y425700D02*
X3537300D01*
X3546700Y426300D02*
X3537300D01*
X3546700Y426900D02*
X3537300D01*
X3546700Y427500D02*
X3537300D01*
X3546700Y428100D02*
X3537300D01*
X3546700Y428700D02*
X3537300D01*
X3546700Y429300D02*
X3537300D01*
X3546700Y429900D02*
X3537300D01*
X3546700Y430500D02*
X3537300D01*
X3546700Y431100D02*
X3537300D01*
X3546700Y431700D02*
X3537300D01*
X3546700Y432300D02*
X3537300D01*
X3546700Y432900D02*
X3537300D01*
X3546700Y433500D02*
X3537300D01*
X3546700Y434100D02*
X3537300D01*
X3546700Y434700D02*
X3537300D01*
X3546700Y435300D02*
X3537300D01*
X3546700Y435900D02*
X3537300D01*
X3546700Y436500D02*
X3537300D01*
X3546700Y437100D02*
X3537300D01*
X3546700Y437700D02*
X3537300D01*
X3546700Y438300D02*
X3537300D01*
X3546700Y438900D02*
X3537300D01*
X3546700Y439500D02*
X3537300D01*
X3546700Y440100D02*
X3537300D01*
X3546700Y440700D02*
X3537300D01*
X3546700Y441300D02*
X3537300D01*
X3546700Y441900D02*
X3537300D01*
X3546700Y442500D02*
X3537300D01*
X3546700Y443100D02*
X3537300D01*
X3546700Y443700D02*
X3537300D01*
X3546700Y444300D02*
X3537300D01*
X3546700Y444900D02*
X3537300D01*
X3546700Y445500D02*
X3537300D01*
X3546700Y446100D02*
X3537300D01*
X3546700Y446700D02*
X3537300D01*
X3546700Y447300D02*
X3537300D01*
X3546700Y447900D02*
X3537300D01*
X3546700Y448500D02*
X3537300D01*
X3546700Y449100D02*
X3537300D01*
X3546700Y449700D02*
X3537300D01*
X3546700Y450300D02*
X3537300D01*
X3546700Y450900D02*
X3537300D01*
X3546700Y451500D02*
X3537300D01*
X3546700Y452100D02*
X3537300D01*
X3546700Y452700D02*
X3537300D01*
X3546700Y453300D02*
X3537300D01*
X3546700Y453900D02*
X3537300D01*
X3546700Y454500D02*
X3537300D01*
X3546700Y455100D02*
X3537300D01*
X3546700Y455700D02*
X3537300D01*
X3546700Y456300D02*
X3537300D01*
X3546700Y456900D02*
X3537300D01*
X3546700Y457500D02*
X3537300D01*
X3546700Y458100D02*
X3537300D01*
X3546700Y458700D02*
X3537300D01*
X3546700Y459300D02*
X3537300D01*
X3546700Y459900D02*
X3537300D01*
X3546700Y460500D02*
X3537300D01*
X3546700Y461100D02*
X3537300D01*
X3546700Y461700D02*
X3537300D01*
X3546700Y462300D02*
X3537300D01*
X3546700Y462900D02*
X3537300D01*
X3546700Y463500D02*
X3537300D01*
X3546700Y464100D02*
X3537300D01*
X3546700Y464700D02*
X3537300D01*
X3546700Y465300D02*
X3537300D01*
X3546700Y465900D02*
X3537300D01*
X3546700Y466500D02*
X3537300D01*
X3546700Y467100D02*
X3537300D01*
X3546700Y467700D02*
X3537300D01*
X3546700Y468300D02*
X3537300D01*
X3546700Y468900D02*
X3537300D01*
X3546700Y469500D02*
X3537300D01*
X3546700Y470100D02*
X3537300D01*
X3546700Y470700D02*
X3537300D01*
X3546700Y471300D02*
X3537300D01*
X3546700Y471900D02*
X3537300D01*
X3546700Y472500D02*
X3537300D01*
X3546700Y473100D02*
X3537300D01*
X3546700Y473700D02*
X3537300D01*
X3546700Y474300D02*
X3537300D01*
X3546700Y474900D02*
X3537300D01*
X3546700Y475500D02*
X3537300D01*
X3546700Y476100D02*
X3537300D01*
X3546700Y476700D02*
X3537300D01*
X3546700Y477300D02*
X3537300D01*
X3546700Y477900D02*
X3537300D01*
X3546700Y478500D02*
X3537300D01*
X3546700Y479100D02*
X3537300D01*
X3546700Y479700D02*
X3537300D01*
X3546700Y480300D02*
X3537300D01*
X3546700Y480900D02*
X3537300D01*
X3546700Y481500D02*
X3537300D01*
X3546700Y482100D02*
X3537300D01*
X3546700Y482700D02*
X3537300D01*
X3546700Y483300D02*
X3537300D01*
X3546700Y483900D02*
X3537300D01*
X3546700Y484500D02*
X3537300D01*
X3546700Y485100D02*
X3537300D01*
X3546700Y485700D02*
X3537300D01*
X3546700Y486300D02*
X3537300D01*
X3546700Y486900D02*
X3537300D01*
X3546700Y487500D02*
X3537300D01*
X3546700Y488100D02*
X3537300D01*
X3546700Y488700D02*
X3537300D01*
X3546700Y489300D02*
X3537300D01*
X3546700Y489900D02*
X3537300D01*
X3546700Y490500D02*
X3537300D01*
X3546700Y491100D02*
X3537300D01*
X3546700Y491700D02*
X3537300D01*
X3546700Y492300D02*
X3537300D01*
X3546700Y492900D02*
X3537300D01*
X3546700Y493500D02*
X3537300D01*
X3546700Y494100D02*
X3537300D01*
X3546700Y494700D02*
X3537300D01*
X3546700Y495300D02*
X3537300D01*
X3546700Y495900D02*
X3537300D01*
X3546700Y496500D02*
X3537300D01*
X3546700Y497100D02*
X3537300D01*
X3546700Y497700D02*
X3537300D01*
X3546700Y498300D02*
X3537300D01*
X3546700Y498900D02*
X3537300D01*
X3546700Y499500D02*
X3537300D01*
X3546700Y500100D02*
X3537300D01*
X3546700Y500700D02*
X3537300D01*
X3546700Y501300D02*
X3537300D01*
X3546700Y501900D02*
X3537300D01*
X3546700Y502500D02*
X3537300D01*
X3546700Y503100D02*
X3537300D01*
X3546700Y503700D02*
X3537300D01*
X3546700Y504300D02*
X3537300D01*
X3546700Y504900D02*
X3537300D01*
X3546700Y505500D02*
X3537300D01*
X3546700Y506100D02*
X3537300D01*
X3546700Y506700D02*
X3537300D01*
X3546700Y507300D02*
X3537300D01*
X3546700Y507900D02*
X3537300D01*
X3546700Y508500D02*
X3537300D01*
X3546700Y509100D02*
X3537300D01*
X3546700Y509700D02*
X3537300D01*
X3546700Y510300D02*
X3537300D01*
X3546700Y510900D02*
X3537300D01*
X3546700Y511500D02*
X3537300D01*
X3546700Y512100D02*
X3537300D01*
X3546700Y512700D02*
X3537300D01*
X3546700Y513300D02*
X3537300D01*
X3546700Y513900D02*
X3537300D01*
X3546700Y514500D02*
X3537300D01*
X3546700Y515100D02*
X3537300D01*
X3546700Y515700D02*
X3537300D01*
X3546700Y516300D02*
X3537300D01*
X3546700Y516900D02*
X3537300D01*
X3546700Y517500D02*
X3537300D01*
X3546700Y518100D02*
X3537300D01*
X3546700Y518700D02*
X3537300D01*
X3546700Y519300D02*
X3537300D01*
X3546700Y519900D02*
X3537300D01*
X3546700Y520500D02*
X3537300D01*
X3546700Y521100D02*
X3537300D01*
X3546700Y521700D02*
X3537300D01*
X3546700Y522300D02*
X3537300D01*
X3546700Y522900D02*
X3537300D01*
X3546700Y523500D02*
X3537300D01*
X3546700Y524100D02*
X3537300D01*
X3546700Y524700D02*
X3537300D01*
X3546700Y525300D02*
X3537300D01*
X3546700Y525900D02*
X3537300D01*
X3546700Y526500D02*
X3537300D01*
X3546700Y527100D02*
X3537300D01*
X3546700Y527700D02*
X3537300D01*
X3546700Y528300D02*
X3537300D01*
X3546700Y528900D02*
X3537300D01*
X3546700Y529500D02*
X3537300D01*
X3546700Y530100D02*
X3537300D01*
X3546700Y530700D02*
X3537300D01*
X3546700Y531300D02*
X3537300D01*
X3546700Y531900D02*
X3537300D01*
X3546700Y532500D02*
X3537300D01*
X3546700Y533100D02*
X3537300D01*
X3546700Y533700D02*
X3537300D01*
X3546700Y534300D02*
X3537300D01*
X3546700Y534900D02*
X3537300D01*
X3546700Y535500D02*
X3537300D01*
X3546700Y536100D02*
X3537300D01*
X3546700Y536700D02*
X3537300D01*
X3546700Y537300D02*
X3537300D01*
X3546700Y537900D02*
X3537300D01*
X3546700Y538500D02*
X3537300D01*
X3546700Y539100D02*
X3537300D01*
X3546700Y539700D02*
X3537300D01*
X3546700Y540300D02*
X3537300D01*
X3546700Y540900D02*
X3537300D01*
X3546700Y541500D02*
X3537300D01*
X3546700Y542100D02*
X3537300D01*
X3567300Y223300D02*
Y255200D01*
X3567900Y223300D02*
Y255200D01*
X3568500Y223300D02*
Y255200D01*
X3569100Y223300D02*
Y255200D01*
X3569700Y223300D02*
Y255200D01*
X3570300Y223300D02*
Y255200D01*
X3570900Y223300D02*
Y255200D01*
X3571500Y223300D02*
Y255200D01*
X3572100Y223300D02*
Y255200D01*
X3572700Y223300D02*
Y255200D01*
X3573300Y223300D02*
Y255200D01*
X3573900Y223300D02*
Y255200D01*
X3574500Y223300D02*
Y255200D01*
X3575100Y223300D02*
Y255200D01*
X3575700Y223300D02*
Y255200D01*
X3576300Y223300D02*
Y255200D01*
X3576900Y223300D02*
Y255200D01*
X3577500Y223300D02*
Y255200D01*
X3578100Y223300D02*
Y255200D01*
X3578700Y223300D02*
Y255200D01*
X3579300Y223300D02*
Y255200D01*
X3579900Y223300D02*
Y255200D01*
X3580500Y223300D02*
Y255200D01*
X3581100Y223300D02*
Y255200D01*
X3581700Y223300D02*
Y255200D01*
X3582300Y223300D02*
Y255200D01*
X3582900Y223300D02*
Y255200D01*
X3583500Y223300D02*
Y255200D01*
X3584100Y223300D02*
Y255200D01*
X3584700Y223300D02*
Y255200D01*
X3585300Y223300D02*
Y255200D01*
X3585900Y223300D02*
Y255200D01*
X3586500Y223300D02*
Y255200D01*
X3587100Y223300D02*
Y255200D01*
X3587700Y223300D02*
Y255200D01*
X3588300Y223300D02*
Y255200D01*
X3588900Y223300D02*
Y255200D01*
X3589500Y223300D02*
Y255200D01*
X3590100Y223300D02*
Y255200D01*
X3590700Y223300D02*
Y255200D01*
X3591300Y223300D02*
Y255200D01*
X3591900Y223300D02*
Y255200D01*
X3592500Y223300D02*
Y255200D01*
X3593100Y223300D02*
Y255200D01*
X3593700Y223300D02*
Y255200D01*
X3594300Y223300D02*
Y255200D01*
X3594900Y223300D02*
Y255200D01*
X3595500Y223300D02*
Y255200D01*
X3596100Y223300D02*
Y255200D01*
X3596700Y223300D02*
Y255200D01*
X3597300Y223300D02*
Y255200D01*
X3597900Y223300D02*
Y255200D01*
X3598500Y223300D02*
Y255200D01*
X3599100Y223300D02*
Y255200D01*
X3599700Y223300D02*
Y255200D01*
X3600300Y223300D02*
Y255200D01*
X3600900Y223300D02*
Y255200D01*
X3601500Y223300D02*
Y255200D01*
X3602100Y223300D02*
Y255200D01*
X3602700Y223300D02*
Y255200D01*
X3603300Y223300D02*
Y255200D01*
X3603900Y223300D02*
Y255200D01*
X3604500Y223300D02*
Y255200D01*
X3605100Y223300D02*
Y255200D01*
X3605700Y223300D02*
Y255200D01*
X3606300Y223300D02*
Y255200D01*
X3606900Y223300D02*
Y255200D01*
X3607500Y223300D02*
Y255200D01*
X3608100Y223300D02*
Y255200D01*
X3608700Y223300D02*
Y255200D01*
X3609300Y223300D02*
Y255200D01*
X3609900Y223300D02*
Y255200D01*
X3610500Y223300D02*
Y255200D01*
X3611100Y223300D02*
Y255200D01*
X3611700Y223300D02*
X3567300D01*
X3611700Y223900D02*
X3567300D01*
X3611700Y224500D02*
X3567300D01*
X3611700Y225100D02*
X3567300D01*
X3611700Y225700D02*
X3567300D01*
X3611700Y226300D02*
X3567300D01*
X3611700Y226900D02*
X3567300D01*
X3611700Y227500D02*
X3567300D01*
X3611700Y228100D02*
X3567300D01*
X3611700Y228700D02*
X3567300D01*
X3611700Y229300D02*
X3567300D01*
X3611700Y229900D02*
X3567300D01*
X3611700Y230500D02*
X3567300D01*
X3611700Y231100D02*
X3567300D01*
X3611700Y231700D02*
X3567300D01*
X3611700Y232300D02*
X3567300D01*
X3611700Y232900D02*
X3567300D01*
X3611700Y233500D02*
X3567300D01*
X3611700Y234100D02*
X3567300D01*
X3611700Y234700D02*
X3567300D01*
X3611700Y235300D02*
X3567300D01*
X3611700Y235900D02*
X3567300D01*
X3611700Y236500D02*
X3567300D01*
X3611700Y237100D02*
X3567300D01*
X3611700Y237700D02*
X3567300D01*
X3611700Y238300D02*
X3567300D01*
X3611700Y238900D02*
X3567300D01*
X3611700Y239500D02*
X3567300D01*
X3611700Y240100D02*
X3567300D01*
X3611700Y240700D02*
X3567300D01*
X3611700Y241300D02*
X3567300D01*
X3611700Y241900D02*
X3567300D01*
X3611700Y242500D02*
X3567300D01*
X3611700Y243100D02*
X3567300D01*
X3611700Y243700D02*
X3567300D01*
X3611700Y244300D02*
X3567300D01*
X3611700Y244900D02*
X3567300D01*
X3611700Y245500D02*
X3567300D01*
X3611700Y246100D02*
X3567300D01*
X3611700Y246700D02*
X3567300D01*
X3611700Y247300D02*
X3567300D01*
X3611700Y247900D02*
X3567300D01*
X3611700Y248500D02*
X3567300D01*
X3611700Y249100D02*
X3567300D01*
X3611700Y249700D02*
X3567300D01*
X3611700Y250300D02*
X3567300D01*
X3611700Y250900D02*
X3567300D01*
X3611700Y251500D02*
X3567300D01*
X3611700Y252100D02*
X3567300D01*
X3611700Y252700D02*
X3567300D01*
X3611700Y253300D02*
X3567300D01*
X3611700Y253900D02*
X3567300D01*
X3611700Y254500D02*
X3567300D01*
X3611700Y255100D02*
X3567300D01*
X3662300Y433300D02*
Y470200D01*
X3662900Y433300D02*
Y470200D01*
X3663500Y433300D02*
Y470200D01*
X3664100Y433300D02*
Y470200D01*
X3664700Y433300D02*
Y470200D01*
X3665300Y433300D02*
Y470200D01*
X3665900Y433300D02*
Y470200D01*
X3666500Y433300D02*
Y470200D01*
X3667100Y433300D02*
Y470200D01*
X3667700Y433300D02*
Y470200D01*
X3668300Y433300D02*
Y470200D01*
X3668900Y433300D02*
Y470200D01*
X3669500Y433300D02*
Y470200D01*
X3670100Y433300D02*
Y470200D01*
X3670700Y433300D02*
Y470200D01*
X3671300Y433300D02*
Y470200D01*
X3671700Y433600D02*
X3662300D01*
X3671700Y434200D02*
X3662300D01*
X3671700Y434800D02*
X3662300D01*
X3671700Y435400D02*
X3662300D01*
X3671700Y436000D02*
X3662300D01*
X3671700Y436600D02*
X3662300D01*
X3671700Y437200D02*
X3662300D01*
X3671700Y437800D02*
X3662300D01*
X3671700Y438400D02*
X3662300D01*
X3671700Y439000D02*
X3662300D01*
X3671700Y439600D02*
X3662300D01*
X3671700Y440200D02*
X3662300D01*
X3671700Y440800D02*
X3662300D01*
X3671700Y441400D02*
X3662300D01*
X3671700Y442000D02*
X3662300D01*
X3671700Y442600D02*
X3662300D01*
X3671700Y443200D02*
X3662300D01*
X3671700Y443800D02*
X3662300D01*
X3671700Y444400D02*
X3662300D01*
X3671700Y445000D02*
X3662300D01*
X3671700Y445600D02*
X3662300D01*
X3671700Y446200D02*
X3662300D01*
X3671700Y446800D02*
X3662300D01*
X3671700Y447400D02*
X3662300D01*
X3671700Y448000D02*
X3662300D01*
X3671700Y448600D02*
X3662300D01*
X3671700Y449200D02*
X3662300D01*
X3671700Y449800D02*
X3662300D01*
X3671700Y450400D02*
X3662300D01*
X3671700Y451000D02*
X3662300D01*
X3671700Y451600D02*
X3662300D01*
X3671700Y452200D02*
X3662300D01*
X3671700Y452800D02*
X3662300D01*
X3671700Y453400D02*
X3662300D01*
X3671700Y454000D02*
X3662300D01*
X3671700Y454600D02*
X3662300D01*
X3671700Y455200D02*
X3662300D01*
X3671700Y455800D02*
X3662300D01*
X3671700Y456400D02*
X3662300D01*
X3671700Y457000D02*
X3662300D01*
X3671700Y457600D02*
X3662300D01*
X3671700Y458200D02*
X3662300D01*
X3671700Y458800D02*
X3662300D01*
X3671700Y459400D02*
X3662300D01*
X3671700Y460000D02*
X3662300D01*
X3671700Y460600D02*
X3662300D01*
X3671700Y461200D02*
X3662300D01*
X3671700Y461800D02*
X3662300D01*
X3671700Y462400D02*
X3662300D01*
X3671700Y463000D02*
X3662300D01*
X3671700Y463600D02*
X3662300D01*
X3671700Y464200D02*
X3662300D01*
X3671700Y464800D02*
X3662300D01*
X3671700Y465400D02*
X3662300D01*
X3671700Y466000D02*
X3662300D01*
X3671700Y466600D02*
X3662300D01*
X3671700Y467200D02*
X3662300D01*
X3671700Y467800D02*
X3662300D01*
X3671700Y468400D02*
X3662300D01*
X3671700Y469000D02*
X3662300D01*
X3671700Y469600D02*
X3662300D01*
X3672300Y433300D02*
Y445200D01*
X3672900Y433300D02*
Y445200D01*
X3673500Y433300D02*
Y445200D01*
X3674100Y433300D02*
Y445200D01*
X3674700Y433300D02*
Y445200D01*
X3675300Y433300D02*
Y445200D01*
X3675900Y433300D02*
Y445200D01*
X3676500Y433300D02*
Y445200D01*
X3677100Y433300D02*
Y445200D01*
X3677700Y433300D02*
Y445200D01*
X3678300Y433300D02*
Y445200D01*
X3678900Y433300D02*
Y445200D01*
X3679500Y433300D02*
Y445200D01*
X3680100Y433300D02*
Y445200D01*
X3680700Y433300D02*
Y445200D01*
X3681300Y433300D02*
Y445200D01*
X3681900Y433300D02*
Y445200D01*
X3682500Y433300D02*
Y445200D01*
X3683100Y433300D02*
Y445200D01*
X3683700Y433300D02*
Y445200D01*
X3684300Y433300D02*
Y445200D01*
X3684900Y433300D02*
Y445200D01*
X3685500Y433300D02*
Y445200D01*
X3686100Y433300D02*
Y445200D01*
X3686700Y433300D02*
Y445200D01*
X3687300Y433300D02*
Y445200D01*
X3687900Y433300D02*
Y445200D01*
X3688500Y433300D02*
Y445200D01*
X3689100Y433300D02*
Y445200D01*
X3689700Y433300D02*
Y445200D01*
X3690300Y433300D02*
Y445200D01*
X3690900Y433300D02*
Y445200D01*
X3691500Y433300D02*
Y445200D01*
X3692100Y433300D02*
Y445200D01*
X3692700Y433300D02*
Y445200D01*
X3693300Y433300D02*
Y445200D01*
X3693900Y433300D02*
Y445200D01*
X3694500Y433300D02*
Y445200D01*
X3695100Y433300D02*
Y445200D01*
X3695700Y433300D02*
Y445200D01*
X3696300Y433300D02*
Y445200D01*
X3696900Y433300D02*
Y445200D01*
X3697500Y433300D02*
Y445200D01*
X3698100Y433300D02*
Y445200D01*
X3698700Y433300D02*
Y445200D01*
X3699300Y433300D02*
Y445200D01*
X3699900Y433300D02*
Y445200D01*
X3700500Y433300D02*
Y445200D01*
X3701100Y433300D02*
Y445200D01*
X3701700Y433300D02*
Y445200D01*
X3702300Y433300D02*
Y445200D01*
X3702900Y433300D02*
Y445200D01*
X3703500Y433300D02*
Y445200D01*
X3704100Y433300D02*
Y445200D01*
X3704700Y433300D02*
Y445200D01*
X3705300Y433300D02*
Y445200D01*
X3705900Y433300D02*
Y445200D01*
X3706500Y433300D02*
Y445200D01*
X3707100Y433300D02*
Y445200D01*
X3707700Y433300D02*
Y445200D01*
X3708300Y433300D02*
Y445200D01*
X3708900Y433300D02*
Y445200D01*
X3709500Y433300D02*
Y445200D01*
X3710100Y433300D02*
Y445200D01*
X3710700Y433300D02*
Y445200D01*
X3711300Y433300D02*
Y445200D01*
X3711900Y433300D02*
Y445200D01*
X3712500Y433300D02*
Y445200D01*
X3713100Y433300D02*
Y445200D01*
X3713700Y433300D02*
Y445200D01*
X3714300Y433300D02*
Y445200D01*
X3714900Y433300D02*
Y445200D01*
X3715500Y433300D02*
Y445200D01*
X3716100Y433300D02*
Y445200D01*
X3716700Y433300D02*
Y445200D01*
X3717300Y433300D02*
Y445200D01*
X3717900Y433300D02*
Y445200D01*
X3718500Y433300D02*
Y445200D01*
X3719100Y433300D02*
Y445200D01*
X3719700Y433300D02*
Y445200D01*
X3720300Y433300D02*
Y445200D01*
X3720900Y433300D02*
Y445200D01*
X3721500Y433300D02*
Y445200D01*
X3722100Y433300D02*
Y445200D01*
X3722700Y433300D02*
Y445200D01*
X3723300Y433300D02*
Y445200D01*
X3723900Y433300D02*
Y445200D01*
X3724500Y433300D02*
Y445200D01*
X3725100Y433300D02*
Y445200D01*
X3725700Y433300D02*
Y445200D01*
X3726300Y433300D02*
Y445200D01*
X3726900Y433300D02*
Y445200D01*
X3727500Y433300D02*
Y445200D01*
X3728100Y433300D02*
Y445200D01*
X3728700Y433300D02*
Y445200D01*
X3729300Y433300D02*
Y445200D01*
X3729900Y433300D02*
Y445200D01*
X3730500Y433300D02*
Y445200D01*
X3731100Y433300D02*
Y445200D01*
X3731700Y433300D02*
Y445200D01*
X3732300Y433300D02*
Y445200D01*
X3732900Y433300D02*
Y445200D01*
X3733500Y433300D02*
Y445200D01*
X3734100Y433300D02*
Y445200D01*
X3734700Y433300D02*
Y445200D01*
X3735300Y433300D02*
Y445200D01*
X3735900Y433300D02*
Y445200D01*
X3736500Y433300D02*
Y445200D01*
X3737100Y433300D02*
Y445200D01*
X3737700Y433300D02*
Y445200D01*
X3738300Y433300D02*
Y445200D01*
X3738900Y433300D02*
Y445200D01*
X3739500Y433300D02*
Y445200D01*
X3740100Y433300D02*
Y445200D01*
X3740700Y433300D02*
Y445200D01*
X3741300Y433300D02*
Y445200D01*
X3741900Y433300D02*
Y445200D01*
X3742500Y433300D02*
Y445200D01*
X3743100Y433300D02*
Y445200D01*
X3743700Y433300D02*
Y445200D01*
X3744300Y433300D02*
Y445200D01*
X3744900Y433300D02*
Y445200D01*
X3745500Y433300D02*
Y445200D01*
X3746100Y433300D02*
Y445200D01*
X3746700Y433300D02*
Y445200D01*
X3747300Y433300D02*
Y445200D01*
X3747900Y433300D02*
Y445200D01*
X3748500Y433300D02*
Y445200D01*
X3749100Y433300D02*
Y445200D01*
X3749200Y433300D02*
X3672300D01*
X3749200Y433900D02*
X3672300D01*
X3749200Y434500D02*
X3672300D01*
X3749200Y435100D02*
X3672300D01*
X3749200Y435700D02*
X3672300D01*
X3749200Y436300D02*
X3672300D01*
X3749200Y436900D02*
X3672300D01*
X3749200Y437500D02*
X3672300D01*
X3749200Y438100D02*
X3672300D01*
X3749200Y438700D02*
X3672300D01*
X3749200Y439300D02*
X3672300D01*
X3749200Y439900D02*
X3672300D01*
X3749200Y440500D02*
X3672300D01*
X3749200Y441100D02*
X3672300D01*
X3749200Y441700D02*
X3672300D01*
X3749200Y442300D02*
X3672300D01*
X3749200Y442900D02*
X3672300D01*
X3749200Y443500D02*
X3672300D01*
X3749200Y444100D02*
X3672300D01*
X3749200Y444700D02*
X3672300D01*
X3740200Y445800D02*
Y752700D01*
X3740800Y445800D02*
Y752700D01*
X3741400Y445800D02*
Y752700D01*
X3742000Y445800D02*
Y752700D01*
X3742600Y445800D02*
Y752700D01*
X3743200Y445800D02*
Y752700D01*
X3743800Y445800D02*
Y752700D01*
X3744400Y445800D02*
Y752700D01*
X3745000Y445800D02*
Y752700D01*
X3745600Y445800D02*
Y752700D01*
X3746200Y445800D02*
Y752700D01*
X3746800Y445800D02*
Y752700D01*
X3747400Y445800D02*
Y752700D01*
X3748000Y445800D02*
Y752700D01*
X3748600Y445800D02*
Y752700D01*
X3749200Y445800D02*
X3739800D01*
X3749200Y446400D02*
X3739800D01*
X3749200Y447000D02*
X3739800D01*
X3749200Y447600D02*
X3739800D01*
X3749200Y448200D02*
X3739800D01*
X3749200Y448800D02*
X3739800D01*
X3749200Y449400D02*
X3739800D01*
X3749200Y450000D02*
X3739800D01*
X3749200Y450600D02*
X3739800D01*
X3749200Y451200D02*
X3739800D01*
X3749200Y451800D02*
X3739800D01*
X3749200Y452400D02*
X3739800D01*
X3749200Y453000D02*
X3739800D01*
X3749200Y453600D02*
X3739800D01*
X3749200Y454200D02*
X3739800D01*
X3749200Y454800D02*
X3739800D01*
X3749200Y455400D02*
X3739800D01*
X3749200Y456000D02*
X3739800D01*
X3749200Y456600D02*
X3739800D01*
X3749200Y457200D02*
X3739800D01*
X3749200Y457800D02*
X3739800D01*
X3749200Y458400D02*
X3739800D01*
X3749200Y459000D02*
X3739800D01*
X3749200Y459600D02*
X3739800D01*
X3749200Y460200D02*
X3739800D01*
X3749200Y460800D02*
X3739800D01*
X3749200Y461400D02*
X3739800D01*
X3749200Y462000D02*
X3739800D01*
X3749200Y462600D02*
X3739800D01*
X3749200Y463200D02*
X3739800D01*
X3749200Y463800D02*
X3739800D01*
X3749200Y464400D02*
X3739800D01*
X3749200Y465000D02*
X3739800D01*
X3749200Y465600D02*
X3739800D01*
X3749200Y466200D02*
X3739800D01*
X3749200Y466800D02*
X3739800D01*
X3749200Y467400D02*
X3739800D01*
X3749200Y468000D02*
X3739800D01*
X3749200Y468600D02*
X3739800D01*
X3749200Y469200D02*
X3739800D01*
X3749200Y469800D02*
X3739800D01*
X3749200Y470400D02*
X3739800D01*
X3749200Y471000D02*
X3739800D01*
X3749200Y471600D02*
X3739800D01*
X3749200Y472200D02*
X3739800D01*
X3749200Y472800D02*
X3739800D01*
X3749200Y473400D02*
X3739800D01*
X3749200Y474000D02*
X3739800D01*
X3749200Y474600D02*
X3739800D01*
X3749200Y475200D02*
X3739800D01*
X3749200Y475800D02*
X3739800D01*
X3749200Y476400D02*
X3739800D01*
X3749200Y477000D02*
X3739800D01*
X3749200Y477600D02*
X3739800D01*
X3749200Y478200D02*
X3739800D01*
X3749200Y478800D02*
X3739800D01*
X3749200Y479400D02*
X3739800D01*
X3749200Y480000D02*
X3739800D01*
X3749200Y480600D02*
X3739800D01*
X3749200Y481200D02*
X3739800D01*
X3749200Y481800D02*
X3739800D01*
X3749200Y482400D02*
X3739800D01*
X3749200Y483000D02*
X3739800D01*
X3749200Y483600D02*
X3739800D01*
X3749200Y484200D02*
X3739800D01*
X3749200Y484800D02*
X3739800D01*
X3749200Y485400D02*
X3739800D01*
X3749200Y486000D02*
X3739800D01*
X3749200Y486600D02*
X3739800D01*
X3749200Y487200D02*
X3739800D01*
X3749200Y487800D02*
X3739800D01*
X3749200Y488400D02*
X3739800D01*
X3749200Y489000D02*
X3739800D01*
X3749200Y489600D02*
X3739800D01*
X3749200Y490200D02*
X3739800D01*
X3749200Y490800D02*
X3739800D01*
X3749200Y491400D02*
X3739800D01*
X3749200Y492000D02*
X3739800D01*
X3749200Y492600D02*
X3739800D01*
X3749200Y493200D02*
X3739800D01*
X3749200Y493800D02*
X3739800D01*
X3749200Y494400D02*
X3739800D01*
X3749200Y495000D02*
X3739800D01*
X3749200Y495600D02*
X3739800D01*
X3749200Y496200D02*
X3739800D01*
X3749200Y496800D02*
X3739800D01*
X3749200Y497400D02*
X3739800D01*
X3749200Y498000D02*
X3739800D01*
X3749200Y498600D02*
X3739800D01*
X3749200Y499200D02*
X3739800D01*
X3749200Y499800D02*
X3739800D01*
X3749200Y500400D02*
X3739800D01*
X3749200Y501000D02*
X3739800D01*
X3749200Y501600D02*
X3739800D01*
X3749200Y502200D02*
X3739800D01*
X3749200Y502800D02*
X3739800D01*
X3749200Y503400D02*
X3739800D01*
X3749200Y504000D02*
X3739800D01*
X3749200Y504600D02*
X3739800D01*
X3749200Y505200D02*
X3739800D01*
X3749200Y505800D02*
X3739800D01*
X3749200Y506400D02*
X3739800D01*
X3749200Y507000D02*
X3739800D01*
X3749200Y507600D02*
X3739800D01*
X3749200Y508200D02*
X3739800D01*
X3749200Y508800D02*
X3739800D01*
X3749200Y509400D02*
X3739800D01*
X3749200Y510000D02*
X3739800D01*
X3749200Y510600D02*
X3739800D01*
X3749200Y511200D02*
X3739800D01*
X3749200Y511800D02*
X3739800D01*
X3749200Y512400D02*
X3739800D01*
X3749200Y513000D02*
X3739800D01*
X3749200Y513600D02*
X3739800D01*
X3749200Y514200D02*
X3739800D01*
X3749200Y514800D02*
X3739800D01*
X3749200Y515400D02*
X3739800D01*
X3749200Y516000D02*
X3739800D01*
X3749200Y516600D02*
X3739800D01*
X3749200Y517200D02*
X3739800D01*
X3749200Y517800D02*
X3739800D01*
X3749200Y518400D02*
X3739800D01*
X3749200Y519000D02*
X3739800D01*
X3749200Y519600D02*
X3739800D01*
X3749200Y520200D02*
X3739800D01*
X3749200Y520800D02*
X3739800D01*
X3749200Y521400D02*
X3739800D01*
X3749200Y522000D02*
X3739800D01*
X3749200Y522600D02*
X3739800D01*
X3749200Y523200D02*
X3739800D01*
X3749200Y523800D02*
X3739800D01*
X3749200Y524400D02*
X3739800D01*
X3749200Y525000D02*
X3739800D01*
X3749200Y525600D02*
X3739800D01*
X3749200Y526200D02*
X3739800D01*
X3749200Y526800D02*
X3739800D01*
X3749200Y527400D02*
X3739800D01*
X3749200Y528000D02*
X3739800D01*
X3749200Y528600D02*
X3739800D01*
X3749200Y529200D02*
X3739800D01*
X3749200Y529800D02*
X3739800D01*
X3749200Y530400D02*
X3739800D01*
X3749200Y531000D02*
X3739800D01*
X3749200Y531600D02*
X3739800D01*
X3749200Y532200D02*
X3739800D01*
X3749200Y532800D02*
X3739800D01*
X3749200Y533400D02*
X3739800D01*
X3749200Y534000D02*
X3739800D01*
X3749200Y534600D02*
X3739800D01*
X3749200Y535200D02*
X3739800D01*
X3749200Y535800D02*
X3739800D01*
X3749200Y536400D02*
X3739800D01*
X3749200Y537000D02*
X3739800D01*
X3749200Y537600D02*
X3739800D01*
X3749200Y538200D02*
X3739800D01*
X3749200Y538800D02*
X3739800D01*
X3749200Y539400D02*
X3739800D01*
X3749200Y540000D02*
X3739800D01*
X3749200Y540600D02*
X3739800D01*
X3749200Y541200D02*
X3739800D01*
X3749200Y541800D02*
X3739800D01*
X3749200Y542400D02*
X3739800D01*
X3749200Y543000D02*
X3739800D01*
X3749200Y543600D02*
X3739800D01*
X3749200Y544200D02*
X3739800D01*
X3749200Y544800D02*
X3739800D01*
X3749200Y545400D02*
X3739800D01*
X3749200Y546000D02*
X3739800D01*
X3749200Y546600D02*
X3739800D01*
X3749200Y547200D02*
X3739800D01*
X3749200Y547800D02*
X3739800D01*
X3749200Y548400D02*
X3739800D01*
X3749200Y549000D02*
X3739800D01*
X3749200Y549600D02*
X3739800D01*
X3749200Y550200D02*
X3739800D01*
X3749200Y550800D02*
X3739800D01*
X3749200Y551400D02*
X3739800D01*
X3749200Y552000D02*
X3739800D01*
X3749200Y552600D02*
X3739800D01*
X3749200Y553200D02*
X3739800D01*
X3749200Y553800D02*
X3739800D01*
X3749200Y554400D02*
X3739800D01*
X3749200Y555000D02*
X3739800D01*
X3749200Y555600D02*
X3739800D01*
X3749200Y556200D02*
X3739800D01*
X3749200Y556800D02*
X3739800D01*
X3749200Y557400D02*
X3739800D01*
X3749200Y558000D02*
X3739800D01*
X3749200Y558600D02*
X3739800D01*
X3749200Y559200D02*
X3739800D01*
X3749200Y559800D02*
X3739800D01*
X3749200Y560400D02*
X3739800D01*
X3749200Y561000D02*
X3739800D01*
X3749200Y561600D02*
X3739800D01*
X3749200Y562200D02*
X3739800D01*
X3749200Y562800D02*
X3739800D01*
X3749200Y563400D02*
X3739800D01*
X3749200Y564000D02*
X3739800D01*
X3749200Y564600D02*
X3739800D01*
X3749200Y565200D02*
X3739800D01*
X3749200Y565800D02*
X3739800D01*
X3749200Y566400D02*
X3739800D01*
X3749200Y567000D02*
X3739800D01*
X3749200Y567600D02*
X3739800D01*
X3749200Y568200D02*
X3739800D01*
X3749200Y568800D02*
X3739800D01*
X3749200Y569400D02*
X3739800D01*
X3749200Y570000D02*
X3739800D01*
X3749200Y570600D02*
X3739800D01*
X3749200Y571200D02*
X3739800D01*
X3749200Y571800D02*
X3739800D01*
X3749200Y572400D02*
X3739800D01*
X3749200Y573000D02*
X3739800D01*
X3749200Y573600D02*
X3739800D01*
X3749200Y574200D02*
X3739800D01*
X3749200Y574800D02*
X3739800D01*
X3749200Y575400D02*
X3739800D01*
X3749200Y576000D02*
X3739800D01*
X3749200Y576600D02*
X3739800D01*
X3749200Y577200D02*
X3739800D01*
X3749200Y577800D02*
X3739800D01*
X3749200Y578400D02*
X3739800D01*
X3749200Y579000D02*
X3739800D01*
X3749200Y579600D02*
X3739800D01*
X3749200Y580200D02*
X3739800D01*
X3749200Y580800D02*
X3739800D01*
X3749200Y581400D02*
X3739800D01*
X3749200Y582000D02*
X3739800D01*
X3749200Y582600D02*
X3739800D01*
X3749200Y583200D02*
X3739800D01*
X3749200Y583800D02*
X3739800D01*
X3749200Y584400D02*
X3739800D01*
X3749200Y585000D02*
X3739800D01*
X3749200Y585600D02*
X3739800D01*
X3749200Y586200D02*
X3739800D01*
X3749200Y586800D02*
X3739800D01*
X3749200Y587400D02*
X3739800D01*
X3749200Y588000D02*
X3739800D01*
X3749200Y588600D02*
X3739800D01*
X3749200Y589200D02*
X3739800D01*
X3749200Y589800D02*
X3739800D01*
X3749200Y590400D02*
X3739800D01*
X3749200Y591000D02*
X3739800D01*
X3749200Y591600D02*
X3739800D01*
X3749200Y592200D02*
X3739800D01*
X3749200Y592800D02*
X3739800D01*
X3749200Y593400D02*
X3739800D01*
X3749200Y594000D02*
X3739800D01*
X3749200Y594600D02*
X3739800D01*
X3749200Y595200D02*
X3739800D01*
X3749200Y595800D02*
X3739800D01*
X3749200Y596400D02*
X3739800D01*
X3749200Y597000D02*
X3739800D01*
X3749200Y597600D02*
X3739800D01*
X3749200Y598200D02*
X3739800D01*
X3749200Y598800D02*
X3739800D01*
X3749200Y599400D02*
X3739800D01*
X3749200Y600000D02*
X3739800D01*
X3749200Y600600D02*
X3739800D01*
X3749200Y601200D02*
X3739800D01*
X3749200Y601800D02*
X3739800D01*
X3749200Y602400D02*
X3739800D01*
X3749200Y603000D02*
X3739800D01*
X3749200Y603600D02*
X3739800D01*
X3749200Y604200D02*
X3739800D01*
X3749200Y604800D02*
X3739800D01*
X3749200Y605400D02*
X3739800D01*
X3749200Y606000D02*
X3739800D01*
X3749200Y606600D02*
X3739800D01*
X3749200Y607200D02*
X3739800D01*
X3749200Y607800D02*
X3739800D01*
X3749200Y608400D02*
X3739800D01*
X3749200Y609000D02*
X3739800D01*
X3749200Y609600D02*
X3739800D01*
X3749200Y610200D02*
X3739800D01*
X3749200Y610800D02*
X3739800D01*
X3749200Y611400D02*
X3739800D01*
X3749200Y612000D02*
X3739800D01*
X3749200Y612600D02*
X3739800D01*
X3749200Y613200D02*
X3739800D01*
X3749200Y613800D02*
X3739800D01*
X3749200Y614400D02*
X3739800D01*
X3749200Y615000D02*
X3739800D01*
X3749200Y615600D02*
X3739800D01*
X3749200Y616200D02*
X3739800D01*
X3749200Y616800D02*
X3739800D01*
X3749200Y617400D02*
X3739800D01*
X3749200Y618000D02*
X3739800D01*
X3749200Y618600D02*
X3739800D01*
X3749200Y619200D02*
X3739800D01*
X3749200Y619800D02*
X3739800D01*
X3749200Y620400D02*
X3739800D01*
X3749200Y621000D02*
X3739800D01*
X3749200Y621600D02*
X3739800D01*
X3749200Y622200D02*
X3739800D01*
X3749200Y622800D02*
X3739800D01*
X3749200Y623400D02*
X3739800D01*
X3749200Y624000D02*
X3739800D01*
X3749200Y624600D02*
X3739800D01*
X3749200Y625200D02*
X3739800D01*
X3749200Y625800D02*
X3739800D01*
X3749200Y626400D02*
X3739800D01*
X3749200Y627000D02*
X3739800D01*
X3749200Y627600D02*
X3739800D01*
X3749200Y628200D02*
X3739800D01*
X3749200Y628800D02*
X3739800D01*
X3749200Y629400D02*
X3739800D01*
X3749200Y630000D02*
X3739800D01*
X3749200Y630600D02*
X3739800D01*
X3749200Y631200D02*
X3739800D01*
X3749200Y631800D02*
X3739800D01*
X3749200Y632400D02*
X3739800D01*
X3749200Y633000D02*
X3739800D01*
X3749200Y633600D02*
X3739800D01*
X3749200Y634200D02*
X3739800D01*
X3749200Y634800D02*
X3739800D01*
X3749200Y635400D02*
X3739800D01*
X3749200Y636000D02*
X3739800D01*
X3749200Y636600D02*
X3739800D01*
X3749200Y637200D02*
X3739800D01*
X3749200Y637800D02*
X3739800D01*
X3749200Y638400D02*
X3739800D01*
X3749200Y639000D02*
X3739800D01*
X3749200Y639600D02*
X3739800D01*
X3749200Y640200D02*
X3739800D01*
X3749200Y640800D02*
X3739800D01*
X3749200Y641400D02*
X3739800D01*
X3749200Y642000D02*
X3739800D01*
X3749200Y642600D02*
X3739800D01*
X3749200Y643200D02*
X3739800D01*
X3749200Y643800D02*
X3739800D01*
X3749200Y644400D02*
X3739800D01*
X3749200Y645000D02*
X3739800D01*
X3749200Y645600D02*
X3739800D01*
X3749200Y646200D02*
X3739800D01*
X3749200Y646800D02*
X3739800D01*
X3749200Y647400D02*
X3739800D01*
X3749200Y648000D02*
X3739800D01*
X3749200Y648600D02*
X3739800D01*
X3749200Y649200D02*
X3739800D01*
X3749200Y649800D02*
X3739800D01*
X3749200Y650400D02*
X3739800D01*
X3749200Y651000D02*
X3739800D01*
X3749200Y651600D02*
X3739800D01*
X3749200Y652200D02*
X3739800D01*
X3749200Y652800D02*
X3739800D01*
X3749200Y653400D02*
X3739800D01*
X3749200Y654000D02*
X3739800D01*
X3749200Y654600D02*
X3739800D01*
X3749200Y655200D02*
X3739800D01*
X3749200Y655800D02*
X3739800D01*
X3749200Y656400D02*
X3739800D01*
X3749200Y657000D02*
X3739800D01*
X3749200Y657600D02*
X3739800D01*
X3749200Y658200D02*
X3739800D01*
X3749200Y658800D02*
X3739800D01*
X3749200Y659400D02*
X3739800D01*
X3749200Y660000D02*
X3739800D01*
X3749200Y660600D02*
X3739800D01*
X3749200Y661200D02*
X3739800D01*
X3749200Y661800D02*
X3739800D01*
X3749200Y662400D02*
X3739800D01*
X3749200Y663000D02*
X3739800D01*
X3749200Y663600D02*
X3739800D01*
X3749200Y664200D02*
X3739800D01*
X3749200Y664800D02*
X3739800D01*
X3749200Y665400D02*
X3739800D01*
X3749200Y666000D02*
X3739800D01*
X3749200Y666600D02*
X3739800D01*
X3749200Y667200D02*
X3739800D01*
X3749200Y667800D02*
X3739800D01*
X3749200Y668400D02*
X3739800D01*
X3749200Y669000D02*
X3739800D01*
X3749200Y669600D02*
X3739800D01*
X3749200Y670200D02*
X3739800D01*
X3749200Y670800D02*
X3739800D01*
X3749200Y671400D02*
X3739800D01*
X3749200Y672000D02*
X3739800D01*
X3749200Y672600D02*
X3739800D01*
X3749200Y673200D02*
X3739800D01*
X3749200Y673800D02*
X3739800D01*
X3749200Y674400D02*
X3739800D01*
X3749200Y675000D02*
X3739800D01*
X3749200Y675600D02*
X3739800D01*
X3749200Y676200D02*
X3739800D01*
X3749200Y676800D02*
X3739800D01*
X3749200Y677400D02*
X3739800D01*
X3749200Y678000D02*
X3739800D01*
X3749200Y678600D02*
X3739800D01*
X3749200Y679200D02*
X3739800D01*
X3749200Y679800D02*
X3739800D01*
X3749200Y680400D02*
X3739800D01*
X3749200Y681000D02*
X3739800D01*
X3749200Y681600D02*
X3739800D01*
X3749200Y682200D02*
X3739800D01*
X3749200Y682800D02*
X3739800D01*
X3749200Y683400D02*
X3739800D01*
X3749200Y684000D02*
X3739800D01*
X3749200Y684600D02*
X3739800D01*
X3749200Y685200D02*
X3739800D01*
X3749200Y685800D02*
X3739800D01*
X3749200Y686400D02*
X3739800D01*
X3749200Y687000D02*
X3739800D01*
X3749200Y687600D02*
X3739800D01*
X3749200Y688200D02*
X3739800D01*
X3749200Y688800D02*
X3739800D01*
X3749200Y689400D02*
X3739800D01*
X3749200Y690000D02*
X3739800D01*
X3749200Y690600D02*
X3739800D01*
X3749200Y691200D02*
X3739800D01*
X3749200Y691800D02*
X3739800D01*
X3749200Y692400D02*
X3739800D01*
X3749200Y693000D02*
X3739800D01*
X3749200Y693600D02*
X3739800D01*
X3749200Y694200D02*
X3739800D01*
X3749200Y694800D02*
X3739800D01*
X3749200Y695400D02*
X3739800D01*
X3749200Y696000D02*
X3739800D01*
X3749200Y696600D02*
X3739800D01*
X3749200Y697200D02*
X3739800D01*
X3749200Y697800D02*
X3739800D01*
X3749200Y698400D02*
X3739800D01*
X3749200Y699000D02*
X3739800D01*
X3749200Y699600D02*
X3739800D01*
X3749200Y700200D02*
X3739800D01*
X3749200Y700800D02*
X3739800D01*
X3749200Y701400D02*
X3739800D01*
X3749200Y702000D02*
X3739800D01*
X3749200Y702600D02*
X3739800D01*
X3749200Y703200D02*
X3739800D01*
X3749200Y703800D02*
X3739800D01*
X3749200Y704400D02*
X3739800D01*
X3749200Y705000D02*
X3739800D01*
X3749200Y705600D02*
X3739800D01*
X3749200Y706200D02*
X3739800D01*
X3749200Y706800D02*
X3739800D01*
X3749200Y707400D02*
X3739800D01*
X3749200Y708000D02*
X3739800D01*
X3749200Y708600D02*
X3739800D01*
X3749200Y709200D02*
X3739800D01*
X3749200Y709800D02*
X3739800D01*
X3749200Y710400D02*
X3739800D01*
X3749200Y711000D02*
X3739800D01*
X3749200Y711600D02*
X3739800D01*
X3749200Y712200D02*
X3739800D01*
X3749200Y712800D02*
X3739800D01*
X3749200Y713400D02*
X3739800D01*
X3749200Y714000D02*
X3739800D01*
X3749200Y714600D02*
X3739800D01*
X3749200Y715200D02*
X3739800D01*
X3749200Y715800D02*
X3739800D01*
X3749200Y716400D02*
X3739800D01*
X3749200Y717000D02*
X3739800D01*
X3749200Y717600D02*
X3739800D01*
X3749200Y718200D02*
X3739800D01*
X3749200Y718800D02*
X3739800D01*
X3749200Y719400D02*
X3739800D01*
X3749200Y720000D02*
X3739800D01*
X3749200Y720600D02*
X3739800D01*
X3749200Y721200D02*
X3739800D01*
X3749200Y721800D02*
X3739800D01*
X3749200Y722400D02*
X3739800D01*
X3749200Y723000D02*
X3739800D01*
X3749200Y723600D02*
X3739800D01*
X3749200Y724200D02*
X3739800D01*
X3749200Y724800D02*
X3739800D01*
X3749200Y725400D02*
X3739800D01*
X3749200Y726000D02*
X3739800D01*
X3749200Y726600D02*
X3739800D01*
X3749200Y727200D02*
X3739800D01*
X3749200Y727800D02*
X3739800D01*
X3749200Y728400D02*
X3739800D01*
X3749200Y729000D02*
X3739800D01*
X3749200Y729600D02*
X3739800D01*
X3749200Y730200D02*
X3739800D01*
X3749200Y730800D02*
X3739800D01*
X3749200Y731400D02*
X3739800D01*
X3749200Y732000D02*
X3739800D01*
X3749200Y732600D02*
X3739800D01*
X3749200Y733200D02*
X3739800D01*
X3749200Y733800D02*
X3739800D01*
X3749200Y734400D02*
X3739800D01*
X3749200Y735000D02*
X3739800D01*
X3749200Y735600D02*
X3739800D01*
X3749200Y736200D02*
X3739800D01*
X3749200Y736800D02*
X3739800D01*
X3749200Y737400D02*
X3739800D01*
X3749200Y738000D02*
X3739800D01*
X3749200Y738600D02*
X3739800D01*
X3749200Y739200D02*
X3739800D01*
X3749200Y739800D02*
X3739800D01*
X3749200Y740400D02*
X3739800D01*
X3749200Y741000D02*
X3739800D01*
X3749200Y741600D02*
X3739800D01*
X3749200Y742200D02*
X3739800D01*
X3749200Y742800D02*
X3739800D01*
X3749200Y743400D02*
X3739800D01*
X3749200Y744000D02*
X3739800D01*
X3749200Y744600D02*
X3739800D01*
X3749200Y745200D02*
X3739800D01*
X3749200Y745800D02*
X3739800D01*
X3749200Y746400D02*
X3739800D01*
X3749200Y747000D02*
X3739800D01*
X3749200Y747600D02*
X3739800D01*
X3749200Y748200D02*
X3739800D01*
X3749200Y748800D02*
X3739800D01*
X3749200Y749400D02*
X3739800D01*
X3749200Y750000D02*
X3739800D01*
X3749200Y750600D02*
X3739800D01*
X3749200Y751200D02*
X3739800D01*
X3749200Y751800D02*
X3739800D01*
X3749200Y752400D02*
X3739800D01*
X3662300Y480800D02*
Y752700D01*
X3662900Y480800D02*
Y752700D01*
X3663500Y480800D02*
Y752700D01*
X3664100Y480800D02*
Y752700D01*
X3664700Y480800D02*
Y752700D01*
X3665300Y480800D02*
Y752700D01*
X3665900Y480800D02*
Y752700D01*
X3666500Y480800D02*
Y752700D01*
X3667100Y480800D02*
Y752700D01*
X3667700Y480800D02*
Y752700D01*
X3668300Y480800D02*
Y752700D01*
X3668900Y480800D02*
Y752700D01*
X3669500Y480800D02*
Y752700D01*
X3670100Y480800D02*
Y752700D01*
X3670700Y480800D02*
Y752700D01*
X3671300Y480800D02*
Y752700D01*
X3671700Y480900D02*
X3662300D01*
X3671700Y481500D02*
X3662300D01*
X3671700Y482100D02*
X3662300D01*
X3671700Y482700D02*
X3662300D01*
X3671700Y483300D02*
X3662300D01*
X3671700Y483900D02*
X3662300D01*
X3671700Y484500D02*
X3662300D01*
X3671700Y485100D02*
X3662300D01*
X3671700Y485700D02*
X3662300D01*
X3671700Y486300D02*
X3662300D01*
X3671700Y486900D02*
X3662300D01*
X3671700Y487500D02*
X3662300D01*
X3671700Y488100D02*
X3662300D01*
X3671700Y488700D02*
X3662300D01*
X3671700Y489300D02*
X3662300D01*
X3671700Y489900D02*
X3662300D01*
X3671700Y490500D02*
X3662300D01*
X3671700Y491100D02*
X3662300D01*
X3671700Y491700D02*
X3662300D01*
X3671700Y492300D02*
X3662300D01*
X3671700Y492900D02*
X3662300D01*
X3671700Y493500D02*
X3662300D01*
X3671700Y494100D02*
X3662300D01*
X3671700Y494700D02*
X3662300D01*
X3671700Y495300D02*
X3662300D01*
X3671700Y495900D02*
X3662300D01*
X3671700Y496500D02*
X3662300D01*
X3671700Y497100D02*
X3662300D01*
X3671700Y497700D02*
X3662300D01*
X3671700Y498300D02*
X3662300D01*
X3671700Y498900D02*
X3662300D01*
X3671700Y499500D02*
X3662300D01*
X3671700Y500100D02*
X3662300D01*
X3671700Y500700D02*
X3662300D01*
X3671700Y501300D02*
X3662300D01*
X3671700Y501900D02*
X3662300D01*
X3671700Y502500D02*
X3662300D01*
X3671700Y503100D02*
X3662300D01*
X3671700Y503700D02*
X3662300D01*
X3671700Y504300D02*
X3662300D01*
X3671700Y504900D02*
X3662300D01*
X3671700Y505500D02*
X3662300D01*
X3671700Y506100D02*
X3662300D01*
X3671700Y506700D02*
X3662300D01*
X3671700Y507300D02*
X3662300D01*
X3671700Y507900D02*
X3662300D01*
X3671700Y508500D02*
X3662300D01*
X3671700Y509100D02*
X3662300D01*
X3671700Y509700D02*
X3662300D01*
X3671700Y510300D02*
X3662300D01*
X3671700Y510900D02*
X3662300D01*
X3671700Y511500D02*
X3662300D01*
X3671700Y512100D02*
X3662300D01*
X3671700Y512700D02*
X3662300D01*
X3671700Y513300D02*
X3662300D01*
X3671700Y513900D02*
X3662300D01*
X3671700Y514500D02*
X3662300D01*
X3671700Y515100D02*
X3662300D01*
X3671700Y515700D02*
X3662300D01*
X3671700Y516300D02*
X3662300D01*
X3671700Y516900D02*
X3662300D01*
X3671700Y517500D02*
X3662300D01*
X3671700Y518100D02*
X3662300D01*
X3671700Y518700D02*
X3662300D01*
X3671700Y519300D02*
X3662300D01*
X3671700Y519900D02*
X3662300D01*
X3671700Y520500D02*
X3662300D01*
X3671700Y521100D02*
X3662300D01*
X3671700Y521700D02*
X3662300D01*
X3671700Y522300D02*
X3662300D01*
X3671700Y522900D02*
X3662300D01*
X3671700Y523500D02*
X3662300D01*
X3671700Y524100D02*
X3662300D01*
X3671700Y524700D02*
X3662300D01*
X3671700Y525300D02*
X3662300D01*
X3671700Y525900D02*
X3662300D01*
X3671700Y526500D02*
X3662300D01*
X3671700Y527100D02*
X3662300D01*
X3671700Y527700D02*
X3662300D01*
X3671700Y528300D02*
X3662300D01*
X3671700Y528900D02*
X3662300D01*
X3671700Y529500D02*
X3662300D01*
X3671700Y530100D02*
X3662300D01*
X3671700Y530700D02*
X3662300D01*
X3671700Y531300D02*
X3662300D01*
X3671700Y531900D02*
X3662300D01*
X3671700Y532500D02*
X3662300D01*
X3671700Y533100D02*
X3662300D01*
X3671700Y533700D02*
X3662300D01*
X3671700Y534300D02*
X3662300D01*
X3671700Y534900D02*
X3662300D01*
X3671700Y535500D02*
X3662300D01*
X3671700Y536100D02*
X3662300D01*
X3671700Y536700D02*
X3662300D01*
X3671700Y537300D02*
X3662300D01*
X3671700Y537900D02*
X3662300D01*
X3671700Y538500D02*
X3662300D01*
X3671700Y539100D02*
X3662300D01*
X3671700Y539700D02*
X3662300D01*
X3671700Y540300D02*
X3662300D01*
X3671700Y540900D02*
X3662300D01*
X3671700Y541500D02*
X3662300D01*
X3671700Y542100D02*
X3662300D01*
X3671700Y542700D02*
X3662300D01*
X3671700Y543300D02*
X3662300D01*
X3671700Y543900D02*
X3662300D01*
X3671700Y544500D02*
X3662300D01*
X3671700Y545100D02*
X3662300D01*
X3671700Y545700D02*
X3662300D01*
X3671700Y546300D02*
X3662300D01*
X3671700Y546900D02*
X3662300D01*
X3671700Y547500D02*
X3662300D01*
X3671700Y548100D02*
X3662300D01*
X3671700Y548700D02*
X3662300D01*
X3671700Y549300D02*
X3662300D01*
X3671700Y549900D02*
X3662300D01*
X3671700Y550500D02*
X3662300D01*
X3671700Y551100D02*
X3662300D01*
X3671700Y551700D02*
X3662300D01*
X3671700Y552300D02*
X3662300D01*
X3671700Y552900D02*
X3662300D01*
X3671700Y553500D02*
X3662300D01*
X3671700Y554100D02*
X3662300D01*
X3671700Y554700D02*
X3662300D01*
X3671700Y555300D02*
X3662300D01*
X3671700Y555900D02*
X3662300D01*
X3671700Y556500D02*
X3662300D01*
X3671700Y557100D02*
X3662300D01*
X3671700Y557700D02*
X3662300D01*
X3671700Y558300D02*
X3662300D01*
X3671700Y558900D02*
X3662300D01*
X3671700Y559500D02*
X3662300D01*
X3671700Y560100D02*
X3662300D01*
X3671700Y560700D02*
X3662300D01*
X3671700Y561300D02*
X3662300D01*
X3671700Y561900D02*
X3662300D01*
X3671700Y562500D02*
X3662300D01*
X3671700Y563100D02*
X3662300D01*
X3671700Y563700D02*
X3662300D01*
X3671700Y564300D02*
X3662300D01*
X3671700Y564900D02*
X3662300D01*
X3671700Y565500D02*
X3662300D01*
X3671700Y566100D02*
X3662300D01*
X3671700Y566700D02*
X3662300D01*
X3671700Y567300D02*
X3662300D01*
X3671700Y567900D02*
X3662300D01*
X3671700Y568500D02*
X3662300D01*
X3671700Y569100D02*
X3662300D01*
X3671700Y569700D02*
X3662300D01*
X3671700Y570300D02*
X3662300D01*
X3671700Y570900D02*
X3662300D01*
X3671700Y571500D02*
X3662300D01*
X3671700Y572100D02*
X3662300D01*
X3671700Y572700D02*
X3662300D01*
X3671700Y573300D02*
X3662300D01*
X3671700Y573900D02*
X3662300D01*
X3671700Y574500D02*
X3662300D01*
X3671700Y575100D02*
X3662300D01*
X3671700Y575700D02*
X3662300D01*
X3671700Y576300D02*
X3662300D01*
X3671700Y576900D02*
X3662300D01*
X3671700Y577500D02*
X3662300D01*
X3671700Y578100D02*
X3662300D01*
X3671700Y578700D02*
X3662300D01*
X3671700Y579300D02*
X3662300D01*
X3671700Y579900D02*
X3662300D01*
X3671700Y580500D02*
X3662300D01*
X3671700Y581100D02*
X3662300D01*
X3671700Y581700D02*
X3662300D01*
X3671700Y582300D02*
X3662300D01*
X3671700Y582900D02*
X3662300D01*
X3671700Y583500D02*
X3662300D01*
X3671700Y584100D02*
X3662300D01*
X3671700Y584700D02*
X3662300D01*
X3671700Y585300D02*
X3662300D01*
X3671700Y585900D02*
X3662300D01*
X3671700Y586500D02*
X3662300D01*
X3671700Y587100D02*
X3662300D01*
X3671700Y587700D02*
X3662300D01*
X3671700Y588300D02*
X3662300D01*
X3671700Y588900D02*
X3662300D01*
X3671700Y589500D02*
X3662300D01*
X3671700Y590100D02*
X3662300D01*
X3671700Y590700D02*
X3662300D01*
X3671700Y591300D02*
X3662300D01*
X3671700Y591900D02*
X3662300D01*
X3671700Y592500D02*
X3662300D01*
X3671700Y593100D02*
X3662300D01*
X3671700Y593700D02*
X3662300D01*
X3671700Y594300D02*
X3662300D01*
X3671700Y594900D02*
X3662300D01*
X3671700Y595500D02*
X3662300D01*
X3671700Y596100D02*
X3662300D01*
X3671700Y596700D02*
X3662300D01*
X3671700Y597300D02*
X3662300D01*
X3671700Y597900D02*
X3662300D01*
X3671700Y598500D02*
X3662300D01*
X3671700Y599100D02*
X3662300D01*
X3671700Y599700D02*
X3662300D01*
X3671700Y600300D02*
X3662300D01*
X3671700Y600900D02*
X3662300D01*
X3671700Y601500D02*
X3662300D01*
X3671700Y602100D02*
X3662300D01*
X3671700Y602700D02*
X3662300D01*
X3671700Y603300D02*
X3662300D01*
X3671700Y603900D02*
X3662300D01*
X3671700Y604500D02*
X3662300D01*
X3671700Y605100D02*
X3662300D01*
X3671700Y605700D02*
X3662300D01*
X3671700Y606300D02*
X3662300D01*
X3671700Y606900D02*
X3662300D01*
X3671700Y607500D02*
X3662300D01*
X3671700Y608100D02*
X3662300D01*
X3671700Y608700D02*
X3662300D01*
X3671700Y609300D02*
X3662300D01*
X3671700Y609900D02*
X3662300D01*
X3671700Y610500D02*
X3662300D01*
X3671700Y611100D02*
X3662300D01*
X3671700Y611700D02*
X3662300D01*
X3671700Y612300D02*
X3662300D01*
X3671700Y612900D02*
X3662300D01*
X3671700Y613500D02*
X3662300D01*
X3671700Y614100D02*
X3662300D01*
X3671700Y614700D02*
X3662300D01*
X3671700Y615300D02*
X3662300D01*
X3671700Y615900D02*
X3662300D01*
X3671700Y616500D02*
X3662300D01*
X3671700Y617100D02*
X3662300D01*
X3671700Y617700D02*
X3662300D01*
X3671700Y618300D02*
X3662300D01*
X3671700Y618900D02*
X3662300D01*
X3671700Y619500D02*
X3662300D01*
X3671700Y620100D02*
X3662300D01*
X3671700Y620700D02*
X3662300D01*
X3671700Y621300D02*
X3662300D01*
X3671700Y621900D02*
X3662300D01*
X3671700Y622500D02*
X3662300D01*
X3671700Y623100D02*
X3662300D01*
X3671700Y623700D02*
X3662300D01*
X3671700Y624300D02*
X3662300D01*
X3671700Y624900D02*
X3662300D01*
X3671700Y625500D02*
X3662300D01*
X3671700Y626100D02*
X3662300D01*
X3671700Y626700D02*
X3662300D01*
X3671700Y627300D02*
X3662300D01*
X3671700Y627900D02*
X3662300D01*
X3671700Y628500D02*
X3662300D01*
X3671700Y629100D02*
X3662300D01*
X3671700Y629700D02*
X3662300D01*
X3671700Y630300D02*
X3662300D01*
X3671700Y630900D02*
X3662300D01*
X3671700Y631500D02*
X3662300D01*
X3671700Y632100D02*
X3662300D01*
X3671700Y632700D02*
X3662300D01*
X3671700Y633300D02*
X3662300D01*
X3671700Y633900D02*
X3662300D01*
X3671700Y634500D02*
X3662300D01*
X3671700Y635100D02*
X3662300D01*
X3671700Y635700D02*
X3662300D01*
X3671700Y636300D02*
X3662300D01*
X3671700Y636900D02*
X3662300D01*
X3671700Y637500D02*
X3662300D01*
X3671700Y638100D02*
X3662300D01*
X3671700Y638700D02*
X3662300D01*
X3671700Y639300D02*
X3662300D01*
X3671700Y639900D02*
X3662300D01*
X3671700Y640500D02*
X3662300D01*
X3671700Y641100D02*
X3662300D01*
X3671700Y641700D02*
X3662300D01*
X3671700Y642300D02*
X3662300D01*
X3671700Y642900D02*
X3662300D01*
X3671700Y643500D02*
X3662300D01*
X3671700Y644100D02*
X3662300D01*
X3671700Y644700D02*
X3662300D01*
X3671700Y645300D02*
X3662300D01*
X3671700Y645900D02*
X3662300D01*
X3671700Y646500D02*
X3662300D01*
X3671700Y647100D02*
X3662300D01*
X3671700Y647700D02*
X3662300D01*
X3671700Y648300D02*
X3662300D01*
X3671700Y648900D02*
X3662300D01*
X3671700Y649500D02*
X3662300D01*
X3671700Y650100D02*
X3662300D01*
X3671700Y650700D02*
X3662300D01*
X3671700Y651300D02*
X3662300D01*
X3671700Y651900D02*
X3662300D01*
X3671700Y652500D02*
X3662300D01*
X3671700Y653100D02*
X3662300D01*
X3671700Y653700D02*
X3662300D01*
X3671700Y654300D02*
X3662300D01*
X3671700Y654900D02*
X3662300D01*
X3671700Y655500D02*
X3662300D01*
X3671700Y656100D02*
X3662300D01*
X3671700Y656700D02*
X3662300D01*
X3671700Y657300D02*
X3662300D01*
X3671700Y657900D02*
X3662300D01*
X3671700Y658500D02*
X3662300D01*
X3671700Y659100D02*
X3662300D01*
X3671700Y659700D02*
X3662300D01*
X3671700Y660300D02*
X3662300D01*
X3671700Y660900D02*
X3662300D01*
X3671700Y661500D02*
X3662300D01*
X3671700Y662100D02*
X3662300D01*
X3671700Y662700D02*
X3662300D01*
X3671700Y663300D02*
X3662300D01*
X3671700Y663900D02*
X3662300D01*
X3671700Y664500D02*
X3662300D01*
X3671700Y665100D02*
X3662300D01*
X3671700Y665700D02*
X3662300D01*
X3671700Y666300D02*
X3662300D01*
X3671700Y666900D02*
X3662300D01*
X3671700Y667500D02*
X3662300D01*
X3671700Y668100D02*
X3662300D01*
X3671700Y668700D02*
X3662300D01*
X3671700Y669300D02*
X3662300D01*
X3671700Y669900D02*
X3662300D01*
X3671700Y670500D02*
X3662300D01*
X3671700Y671100D02*
X3662300D01*
X3671700Y671700D02*
X3662300D01*
X3671700Y672300D02*
X3662300D01*
X3671700Y672900D02*
X3662300D01*
X3671700Y673500D02*
X3662300D01*
X3671700Y674100D02*
X3662300D01*
X3671700Y674700D02*
X3662300D01*
X3671700Y675300D02*
X3662300D01*
X3671700Y675900D02*
X3662300D01*
X3671700Y676500D02*
X3662300D01*
X3671700Y677100D02*
X3662300D01*
X3671700Y677700D02*
X3662300D01*
X3671700Y678300D02*
X3662300D01*
X3671700Y678900D02*
X3662300D01*
X3671700Y679500D02*
X3662300D01*
X3671700Y680100D02*
X3662300D01*
X3671700Y680700D02*
X3662300D01*
X3671700Y681300D02*
X3662300D01*
X3671700Y681900D02*
X3662300D01*
X3671700Y682500D02*
X3662300D01*
X3671700Y683100D02*
X3662300D01*
X3671700Y683700D02*
X3662300D01*
X3671700Y684300D02*
X3662300D01*
X3671700Y684900D02*
X3662300D01*
X3671700Y685500D02*
X3662300D01*
X3671700Y686100D02*
X3662300D01*
X3671700Y686700D02*
X3662300D01*
X3671700Y687300D02*
X3662300D01*
X3671700Y687900D02*
X3662300D01*
X3671700Y688500D02*
X3662300D01*
X3671700Y689100D02*
X3662300D01*
X3671700Y689700D02*
X3662300D01*
X3671700Y690300D02*
X3662300D01*
X3671700Y690900D02*
X3662300D01*
X3671700Y691500D02*
X3662300D01*
X3671700Y692100D02*
X3662300D01*
X3671700Y692700D02*
X3662300D01*
X3671700Y693300D02*
X3662300D01*
X3671700Y693900D02*
X3662300D01*
X3671700Y694500D02*
X3662300D01*
X3671700Y695100D02*
X3662300D01*
X3671700Y695700D02*
X3662300D01*
X3671700Y696300D02*
X3662300D01*
X3671700Y696900D02*
X3662300D01*
X3671700Y697500D02*
X3662300D01*
X3671700Y698100D02*
X3662300D01*
X3671700Y698700D02*
X3662300D01*
X3671700Y699300D02*
X3662300D01*
X3671700Y699900D02*
X3662300D01*
X3671700Y700500D02*
X3662300D01*
X3671700Y701100D02*
X3662300D01*
X3671700Y701700D02*
X3662300D01*
X3671700Y702300D02*
X3662300D01*
X3671700Y702900D02*
X3662300D01*
X3671700Y703500D02*
X3662300D01*
X3671700Y704100D02*
X3662300D01*
X3671700Y704700D02*
X3662300D01*
X3671700Y705300D02*
X3662300D01*
X3671700Y705900D02*
X3662300D01*
X3671700Y706500D02*
X3662300D01*
X3671700Y707100D02*
X3662300D01*
X3671700Y707700D02*
X3662300D01*
X3671700Y708300D02*
X3662300D01*
X3671700Y708900D02*
X3662300D01*
X3671700Y709500D02*
X3662300D01*
X3671700Y710100D02*
X3662300D01*
X3671700Y710700D02*
X3662300D01*
X3671700Y711300D02*
X3662300D01*
X3671700Y711900D02*
X3662300D01*
X3671700Y712500D02*
X3662300D01*
X3671700Y713100D02*
X3662300D01*
X3671700Y713700D02*
X3662300D01*
X3671700Y714300D02*
X3662300D01*
X3671700Y714900D02*
X3662300D01*
X3671700Y715500D02*
X3662300D01*
X3671700Y716100D02*
X3662300D01*
X3671700Y716700D02*
X3662300D01*
X3671700Y717300D02*
X3662300D01*
X3671700Y717900D02*
X3662300D01*
X3671700Y718500D02*
X3662300D01*
X3671700Y719100D02*
X3662300D01*
X3671700Y719700D02*
X3662300D01*
X3671700Y720300D02*
X3662300D01*
X3671700Y720900D02*
X3662300D01*
X3671700Y721500D02*
X3662300D01*
X3671700Y722100D02*
X3662300D01*
X3671700Y722700D02*
X3662300D01*
X3671700Y723300D02*
X3662300D01*
X3671700Y723900D02*
X3662300D01*
X3671700Y724500D02*
X3662300D01*
X3671700Y725100D02*
X3662300D01*
X3671700Y725700D02*
X3662300D01*
X3671700Y726300D02*
X3662300D01*
X3671700Y726900D02*
X3662300D01*
X3671700Y727500D02*
X3662300D01*
X3671700Y728100D02*
X3662300D01*
X3671700Y728700D02*
X3662300D01*
X3671700Y729300D02*
X3662300D01*
X3671700Y729900D02*
X3662300D01*
X3671700Y730500D02*
X3662300D01*
X3671700Y731100D02*
X3662300D01*
X3671700Y731700D02*
X3662300D01*
X3671700Y732300D02*
X3662300D01*
X3671700Y732900D02*
X3662300D01*
X3671700Y733500D02*
X3662300D01*
X3671700Y734100D02*
X3662300D01*
X3671700Y734700D02*
X3662300D01*
X3671700Y735300D02*
X3662300D01*
X3671700Y735900D02*
X3662300D01*
X3671700Y736500D02*
X3662300D01*
X3671700Y737100D02*
X3662300D01*
X3671700Y737700D02*
X3662300D01*
X3671700Y738300D02*
X3662300D01*
X3671700Y738900D02*
X3662300D01*
X3671700Y739500D02*
X3662300D01*
X3671700Y740100D02*
X3662300D01*
X3671700Y740700D02*
X3662300D01*
X3671700Y741300D02*
X3662300D01*
X3671700Y741900D02*
X3662300D01*
X3671700Y742500D02*
X3662300D01*
X3671700Y743100D02*
X3662300D01*
X3671700Y743700D02*
X3662300D01*
X3671700Y744300D02*
X3662300D01*
X3671700Y744900D02*
X3662300D01*
X3671700Y745500D02*
X3662300D01*
X3671700Y746100D02*
X3662300D01*
X3671700Y746700D02*
X3662300D01*
X3671700Y747300D02*
X3662300D01*
X3671700Y747900D02*
X3662300D01*
X3671700Y748500D02*
X3662300D01*
X3671700Y749100D02*
X3662300D01*
X3671700Y749700D02*
X3662300D01*
X3671700Y750300D02*
X3662300D01*
X3671700Y750900D02*
X3662300D01*
X3671700Y751500D02*
X3662300D01*
X3671700Y752100D02*
X3662300D01*
X3737800Y240800D02*
Y287700D01*
X3738400Y240800D02*
Y287700D01*
X3739000Y240800D02*
Y287700D01*
X3739600Y240800D02*
Y287700D01*
X3740200Y240800D02*
Y287700D01*
X3740800Y240800D02*
Y287700D01*
X3741400Y240800D02*
Y287700D01*
X3742000Y240800D02*
Y287700D01*
X3742600Y240800D02*
Y287700D01*
X3743200Y240800D02*
Y287700D01*
X3743800Y240800D02*
Y287700D01*
X3744400Y240800D02*
Y287700D01*
X3745000Y240800D02*
Y287700D01*
X3745600Y240800D02*
Y287700D01*
X3746200Y240800D02*
Y287700D01*
X3746800Y240800D02*
Y287700D01*
X3747400Y240800D02*
Y287700D01*
X3748000Y240800D02*
Y287700D01*
X3748600Y240800D02*
Y287700D01*
X3749200Y240800D02*
X3737300D01*
X3749200Y241400D02*
X3737300D01*
X3749200Y242000D02*
X3737300D01*
X3749200Y242600D02*
X3737300D01*
X3749200Y243200D02*
X3737300D01*
X3749200Y243800D02*
X3737300D01*
X3749200Y244400D02*
X3737300D01*
X3749200Y245000D02*
X3737300D01*
X3749200Y245600D02*
X3737300D01*
X3749200Y246200D02*
X3737300D01*
X3749200Y246800D02*
X3737300D01*
X3749200Y247400D02*
X3737300D01*
X3749200Y248000D02*
X3737300D01*
X3749200Y248600D02*
X3737300D01*
X3749200Y249200D02*
X3737300D01*
X3749200Y249800D02*
X3737300D01*
X3749200Y250400D02*
X3737300D01*
X3749200Y251000D02*
X3737300D01*
X3749200Y251600D02*
X3737300D01*
X3749200Y252200D02*
X3737300D01*
X3749200Y252800D02*
X3737300D01*
X3749200Y253400D02*
X3737300D01*
X3749200Y254000D02*
X3737300D01*
X3749200Y254600D02*
X3737300D01*
X3749200Y255200D02*
X3737300D01*
X3749200Y255800D02*
X3737300D01*
X3749200Y256400D02*
X3737300D01*
X3749200Y257000D02*
X3737300D01*
X3749200Y257600D02*
X3737300D01*
X3749200Y258200D02*
X3737300D01*
X3749200Y258800D02*
X3737300D01*
X3749200Y259400D02*
X3737300D01*
X3749200Y260000D02*
X3737300D01*
X3749200Y260600D02*
X3737300D01*
X3749200Y261200D02*
X3737300D01*
X3749200Y261800D02*
X3737300D01*
X3749200Y262400D02*
X3737300D01*
X3749200Y263000D02*
X3737300D01*
X3749200Y263600D02*
X3737300D01*
X3749200Y264200D02*
X3737300D01*
X3749200Y264800D02*
X3737300D01*
X3749200Y265400D02*
X3737300D01*
X3749200Y266000D02*
X3737300D01*
X3749200Y266600D02*
X3737300D01*
X3749200Y267200D02*
X3737300D01*
X3749200Y267800D02*
X3737300D01*
X3749200Y268400D02*
X3737300D01*
X3749200Y269000D02*
X3737300D01*
X3749200Y269600D02*
X3737300D01*
X3749200Y270200D02*
X3737300D01*
X3749200Y270800D02*
X3737300D01*
X3749200Y271400D02*
X3737300D01*
X3749200Y272000D02*
X3737300D01*
X3749200Y272600D02*
X3737300D01*
X3749200Y273200D02*
X3737300D01*
X3749200Y273800D02*
X3737300D01*
X3749200Y274400D02*
X3737300D01*
X3749200Y275000D02*
X3737300D01*
X3749200Y275600D02*
X3737300D01*
X3749200Y276200D02*
X3737300D01*
X3749200Y276800D02*
X3737300D01*
X3749200Y277400D02*
X3737300D01*
X3749200Y278000D02*
X3737300D01*
X3749200Y278600D02*
X3737300D01*
X3749200Y279200D02*
X3737300D01*
X3749200Y279800D02*
X3737300D01*
X3749200Y280400D02*
X3737300D01*
X3749200Y281000D02*
X3737300D01*
X3749200Y281600D02*
X3737300D01*
X3749200Y282200D02*
X3737300D01*
X3749200Y282800D02*
X3737300D01*
X3749200Y283400D02*
X3737300D01*
X3749200Y284000D02*
X3737300D01*
X3749200Y284600D02*
X3737300D01*
X3749200Y285200D02*
X3737300D01*
X3749200Y285800D02*
X3737300D01*
X3749200Y286400D02*
X3737300D01*
X3749200Y287000D02*
X3737300D01*
X3749200Y287600D02*
X3737300D01*
G54D23*
G54D25*
X3518075Y473268D02*
Y474843D01*
X3516343*
Y476811*
X3511618*
Y478189*
X3516343*
Y478583*
X3521657*
Y478189*
X3526382*
Y476811*
X3521657*
Y474843*
X3519925*
Y473268*
X3518075*
X3516383Y474843D02*
Y478583D01*
X3516883Y474843D02*
Y478583D01*
X3517383Y474843D02*
Y478583D01*
X3517883Y474843D02*
Y478583D01*
X3518383Y473268D02*
Y478583D01*
X3518883Y473268D02*
Y478583D01*
X3519383Y473268D02*
Y478583D01*
X3519883Y473268D02*
Y478583D01*
X3520383Y474843D02*
Y478583D01*
X3520883Y474843D02*
Y478583D01*
X3521383Y474843D02*
Y478583D01*
X3511883Y476811D02*
Y478189D01*
X3512383Y476811D02*
Y478189D01*
X3512883Y476811D02*
Y478189D01*
X3513383Y476811D02*
Y478189D01*
X3513883Y476811D02*
Y478189D01*
X3514383Y476811D02*
Y478189D01*
X3514883Y476811D02*
Y478189D01*
X3515383Y476811D02*
Y478189D01*
X3515883Y476811D02*
Y478189D01*
X3521883Y476811D02*
Y478189D01*
X3522383Y476811D02*
Y478189D01*
X3522883Y476811D02*
Y478189D01*
X3523383Y476811D02*
Y478189D01*
X3523883Y476811D02*
Y478189D01*
X3524383Y476811D02*
Y478189D01*
X3524883Y476811D02*
Y478189D01*
X3525383Y476811D02*
Y478189D01*
X3525883Y476811D02*
Y478189D01*
X3521657Y478268D02*
X3516343D01*
X3526382Y477768D02*
X3511618D01*
X3526382Y477268D02*
X3511618D01*
X3521657Y476768D02*
X3516343D01*
X3521657Y476268D02*
X3516343D01*
X3521657Y475768D02*
X3516343D01*
X3521657Y475268D02*
X3516343D01*
X3519925Y474768D02*
X3518075D01*
X3519925Y474268D02*
X3518075D01*
X3519925Y473768D02*
X3518075D01*
G54D26*
X3695050Y678407D02*
X3696213Y677243D01*
X3696213D02*
X3705637D01*
X3705637D02*
X3706800Y678407D01*
X3706800D02*
X3695050D01*
X3714707Y679193D02*
Y682007D01*
X3714707D02*
X3694493D01*
X3694493D02*
Y679193D01*
X3694493D02*
X3714707D01*
X3695050Y682793D02*
X3696213Y683957D01*
X3696213D02*
X3705637D01*
X3705637D02*
X3706800Y682793D01*
X3706800D02*
X3695050D01*
X3695469Y677988D02*
Y678407D01*
X3696177Y677280D02*
Y678407D01*
X3696885Y677243D02*
Y678407D01*
X3697593Y677243D02*
Y678407D01*
X3698302Y677243D02*
Y678407D01*
X3699010Y677243D02*
Y678407D01*
X3699718Y677243D02*
Y678407D01*
X3700427Y677243D02*
Y678407D01*
X3701135Y677243D02*
Y678407D01*
X3701843Y677243D02*
Y678407D01*
X3702552Y677243D02*
Y678407D01*
X3703260Y677243D02*
Y678407D01*
X3703968Y677243D02*
Y678407D01*
X3704676Y677243D02*
Y678407D01*
X3705385Y677243D02*
Y678407D01*
X3706093Y677700D02*
Y678407D01*
X3694875Y679193D02*
Y682007D01*
X3695584Y679193D02*
Y682007D01*
X3696292Y679193D02*
Y682007D01*
X3697000Y679193D02*
Y682007D01*
X3697709Y679193D02*
Y682007D01*
X3698417Y679193D02*
Y682007D01*
X3699125Y679193D02*
Y682007D01*
X3699834Y679193D02*
Y682007D01*
X3700542Y679193D02*
Y682007D01*
X3701250Y679193D02*
Y682007D01*
X3701958Y679193D02*
Y682007D01*
X3702667Y679193D02*
Y682007D01*
X3703375Y679193D02*
Y682007D01*
X3704083Y679193D02*
Y682007D01*
X3704792Y679193D02*
Y682007D01*
X3705500Y679193D02*
Y682007D01*
X3706208Y679193D02*
Y682007D01*
X3706917Y679193D02*
Y682007D01*
X3707625Y679193D02*
Y682007D01*
X3708333Y679193D02*
Y682007D01*
X3709041Y679193D02*
Y682007D01*
X3709750Y679193D02*
Y682007D01*
X3710458Y679193D02*
Y682007D01*
X3711166Y679193D02*
Y682007D01*
X3711875Y679193D02*
Y682007D01*
X3712583Y679193D02*
Y682007D01*
X3713291Y679193D02*
Y682007D01*
X3714000Y679193D02*
Y682007D01*
X3696885Y682793D02*
Y683957D01*
X3697593Y682793D02*
Y683957D01*
X3698302Y682793D02*
Y683957D01*
X3699010Y682793D02*
Y683957D01*
X3699718Y682793D02*
Y683957D01*
X3700427Y682793D02*
Y683957D01*
X3701135Y682793D02*
Y683957D01*
X3701843Y682793D02*
Y683957D01*
X3702552Y682793D02*
Y683957D01*
X3703260Y682793D02*
Y683957D01*
X3703968Y682793D02*
Y683957D01*
X3704676Y682793D02*
Y683957D01*
X3705385Y682793D02*
Y683957D01*
X3696177Y682793D02*
Y683920D01*
X3706093Y682793D02*
Y683500D01*
X3695469Y682793D02*
Y683212D01*
G54D27*
X3520531Y239319D02*
Y241681D01*
X3524469*
Y239319*
X3520531*
X3514031Y428819D02*
Y431181D01*
X3517969*
Y428819*
X3514031*
X3521031Y336319D02*
Y338681D01*
X3524969*
Y336319*
X3521031*
X3520927Y239319D02*
Y241681D01*
X3521635Y239319D02*
Y241681D01*
X3522344Y239319D02*
Y241681D01*
X3523052Y239319D02*
Y241681D01*
X3523761Y239319D02*
Y241681D01*
X3514427Y428819D02*
Y431181D01*
X3515135Y428819D02*
Y431181D01*
X3515844Y428819D02*
Y431181D01*
X3516552Y428819D02*
Y431181D01*
X3517261Y428819D02*
Y431181D01*
X3521427Y336319D02*
Y338681D01*
X3522135Y336319D02*
Y338681D01*
X3522844Y336319D02*
Y338681D01*
X3523552Y336319D02*
Y338681D01*
X3524261Y336319D02*
Y338681D01*
G54D32*
X3564500Y203000D03*
X3724500D03*
X3534500Y688000D03*
X3724500Y418000D03*
G54D66*
X3704500Y643000D03*
G54D89*
X3573000Y619400D03*
Y625600D03*
X3679500Y479400D03*
Y485600D03*
X3699500Y479400D03*
Y485600D03*
X3712500Y479400D03*
Y485600D03*
X3657000Y503100D03*
Y496900D03*
X3650000Y503100D03*
Y496900D03*
X3508000Y504400D03*
Y510600D03*
X3702500Y281900D03*
Y288100D03*
X3508000Y529400D03*
Y535600D03*
X3525000Y439100D03*
Y432900D03*
X3635500Y290900D03*
Y297100D03*
X3628000Y290900D03*
Y297100D03*
X3580000Y293400D03*
Y299600D03*
X3689500Y259100D03*
Y252900D03*
X3697000Y259100D03*
Y252900D03*
X3674500Y259100D03*
Y252900D03*
X3682000Y259100D03*
Y252900D03*
X3652000Y259100D03*
Y252900D03*
X3659500Y259100D03*
Y252900D03*
X3635500Y282600D03*
Y276400D03*
X3645500Y300400D03*
Y306600D03*
X3661500Y300400D03*
Y306600D03*
X3654000Y300400D03*
Y306600D03*
X3596500Y441100D03*
Y434900D03*
X3589000Y441100D03*
Y434900D03*
X3551200Y546300D03*
Y540100D03*
X3566500Y434900D03*
Y441100D03*
X3579000Y416900D03*
Y423100D03*
Y406100D03*
Y399900D03*
X3705000Y400900D03*
Y407100D03*
X3697500Y400900D03*
Y407100D03*
X3716500Y385400D03*
Y391600D03*
X3709000Y385400D03*
Y391600D03*
X3695500Y369100D03*
Y362900D03*
Y348100D03*
Y341900D03*
X3598500Y328400D03*
Y334600D03*
X3551000Y645600D03*
Y639400D03*
X3620500Y637900D03*
Y644100D03*
Y651900D03*
Y658100D03*
X3590000Y662600D03*
Y656400D03*
X3636500Y666900D03*
Y673100D03*
X3629500Y666900D03*
Y673100D03*
X3657500Y666900D03*
Y673100D03*
X3511000Y251600D03*
Y245400D03*
X3508000Y380600D03*
Y374400D03*
X3511000Y348600D03*
Y342400D03*
X3521400Y217500D03*
Y223700D03*
X3515000Y371000D03*
Y377200D03*
X3521500Y255400D03*
Y261600D03*
X3521400Y313500D03*
Y319700D03*
X3703000Y595900D03*
Y602100D03*
X3709000Y616900D03*
Y623100D03*
X3702000D03*
Y616900D03*
X3685000Y634100D03*
Y627900D03*
Y641400D03*
Y647600D03*
X3723100Y652000D03*
Y658200D03*
X3507000Y481600D03*
Y475400D03*
X3686500Y688400D03*
Y694600D03*
X3515000Y460400D03*
Y466600D03*
X3693500Y688400D03*
Y694600D03*
X3523000Y460400D03*
Y466600D03*
X3519000Y486900D03*
Y493100D03*
X3685000Y654900D03*
Y661100D03*
X3530500Y481600D03*
Y475400D03*
X3712100Y735700D03*
Y729500D03*
Y708200D03*
Y702000D03*
X3713000Y668600D03*
Y662400D03*
X3573000Y592100D03*
Y585900D03*
X3628500Y538400D03*
Y544600D03*
Y559400D03*
Y565600D03*
X3636000Y538400D03*
Y544600D03*
X3613500Y538400D03*
Y544600D03*
X3621000Y538400D03*
Y544600D03*
X3679500Y465400D03*
Y471600D03*
X3699500Y465400D03*
Y471600D03*
X3712500Y465400D03*
Y471600D03*
X3717500Y508100D03*
Y501900D03*
X3716000Y616900D03*
Y623100D03*
X3693500D03*
Y616900D03*
X3507000Y495100D03*
Y488900D03*
X3692000Y662400D03*
Y668600D03*
X3530500Y488900D03*
Y495100D03*
X3590000Y560100D03*
Y553900D03*
X3643500Y538400D03*
Y544600D03*
X3704500Y543600D03*
Y537400D03*
X3686500Y472400D03*
Y478600D03*
X3643300Y200700D03*
Y194500D03*
X3695000Y288100D03*
Y281900D03*
X3669000Y306600D03*
Y300400D03*
X3676500Y306600D03*
Y300400D03*
X3684000Y306600D03*
Y300400D03*
X3667000Y252900D03*
Y259100D03*
X3592500Y367400D03*
Y373600D03*
X3626000Y414600D03*
Y408400D03*
X3616500Y441100D03*
Y434900D03*
Y389100D03*
Y382900D03*
X3609000Y441100D03*
Y434900D03*
Y389100D03*
Y382900D03*
X3574000Y441100D03*
Y434900D03*
X3581500D03*
Y441100D03*
X3709000Y377600D03*
Y371400D03*
X3660000Y389400D03*
Y395600D03*
Y381600D03*
Y375400D03*
X3615500Y666900D03*
Y673100D03*
X3622500Y666900D03*
Y673100D03*
X3643500Y666900D03*
Y673100D03*
X3650500Y666900D03*
Y673100D03*
X3649500Y644600D03*
Y638400D03*
X3657500Y621400D03*
Y627600D03*
X3521000Y650100D03*
Y643900D03*
X3502000Y664400D03*
Y670600D03*
Y722400D03*
Y728600D03*
X3526000Y612600D03*
Y606400D03*
X3533500Y612600D03*
Y606400D03*
X3559500Y233600D03*
Y227400D03*
X3552000Y233600D03*
Y227400D03*
X3515000Y446900D03*
Y453100D03*
Y408400D03*
Y414600D03*
X3522000Y351900D03*
Y358100D03*
X3504000Y414600D03*
Y408400D03*
X3521500Y277900D03*
Y284100D03*
X3573000Y610100D03*
Y603900D03*
X3693800Y223000D03*
Y229200D03*
X3730000Y333400D03*
Y339600D03*
X3654500Y710100D03*
Y703900D03*
X3561000Y610100D03*
Y603900D03*
X3583500Y533400D03*
Y539600D03*
X3709500Y595900D03*
Y602100D03*
X3609200Y196400D03*
Y202600D03*
X3672800Y194500D03*
Y200700D03*
X3650800Y194500D03*
Y200700D03*
X3542000Y596100D03*
Y589900D03*
Y581100D03*
Y574900D03*
X3559000Y555400D03*
Y561600D03*
X3615500Y481900D03*
Y488100D03*
G54D90*
X3612600Y508000D03*
X3606400D03*
X3719900Y479500D03*
X3726100D03*
X3650900Y533500D03*
X3657100D03*
X3650900Y526000D03*
X3657100D03*
X3650900Y511000D03*
X3657100D03*
X3680900Y282000D03*
X3687100D03*
X3579400Y600000D03*
X3585600D03*
X3530100Y531000D03*
X3523900D03*
X3633100Y269000D03*
X3626900D03*
X3627100Y276500D03*
X3620900D03*
X3644100Y262000D03*
X3637900D03*
X3592400Y381500D03*
X3598600D03*
X3584100Y368000D03*
X3577900D03*
X3559100Y546600D03*
X3565300D03*
X3633400Y416500D03*
X3639600D03*
X3666400D03*
X3672600D03*
X3666400Y406500D03*
X3672600D03*
X3633400D03*
X3639600D03*
X3679600Y379000D03*
X3673400D03*
X3679600Y392000D03*
X3673400D03*
X3581600Y636000D03*
X3575400D03*
X3564100Y665000D03*
X3557900D03*
X3591400Y715000D03*
X3597600D03*
X3607100Y670500D03*
X3600900D03*
X3573100Y692000D03*
X3566900D03*
X3643100Y633500D03*
X3636900D03*
X3527350Y656750D03*
X3521150D03*
X3501900Y678500D03*
X3508100D03*
X3501900Y696500D03*
X3508100D03*
X3501900Y714500D03*
X3508100D03*
X3526900Y386000D03*
X3533100D03*
X3554900Y573500D03*
X3561100D03*
X3526900Y393500D03*
X3533100D03*
X3526900Y401000D03*
X3533100D03*
X3526900Y408500D03*
X3533100D03*
X3730600Y638000D03*
X3724400D03*
X3554900Y581500D03*
X3561100D03*
X3705600Y662500D03*
X3699400D03*
X3725100Y566500D03*
X3718900D03*
X3725100Y549500D03*
X3718900D03*
X3725100Y532500D03*
X3718900D03*
X3683900Y566500D03*
X3690100D03*
X3683900Y549500D03*
X3690100D03*
X3683900Y532500D03*
X3690100D03*
X3637400Y500500D03*
X3643600D03*
X3621600D03*
X3615400D03*
X3719900Y471500D03*
X3726100D03*
X3703900Y501000D03*
X3710100D03*
X3583600Y726500D03*
X3577400D03*
X3583600Y734500D03*
X3577400D03*
X3510100Y222500D03*
X3503900D03*
X3510600Y319500D03*
X3504400D03*
X3723900Y609500D03*
X3730100D03*
X3725900Y573500D03*
X3732100D03*
X3725100Y525500D03*
X3718900D03*
X3711900Y573500D03*
X3718100D03*
X3583900Y568500D03*
X3590100D03*
X3634600Y552000D03*
X3628400D03*
X3683100Y573500D03*
X3676900D03*
X3683900Y525500D03*
X3690100D03*
X3697100Y573500D03*
X3690900D03*
X3606400Y516500D03*
X3612600D03*
X3606400Y523500D03*
X3612600D03*
X3606400Y531000D03*
X3612600D03*
X3657100Y518500D03*
X3650900D03*
X3637000Y210600D03*
X3643200D03*
X3680900Y272000D03*
X3687100D03*
X3598600Y389000D03*
X3592400D03*
X3701600Y355500D03*
X3695400D03*
X3686600Y371000D03*
X3680400D03*
X3583400Y678000D03*
X3589600D03*
X3583400Y670500D03*
X3589600D03*
X3615900Y629500D03*
X3622100D03*
X3513900Y632000D03*
X3520100D03*
X3508100Y656500D03*
X3501900D03*
X3515400Y292500D03*
X3521600D03*
X3515400Y270000D03*
X3521600D03*
X3524900Y447000D03*
X3531100D03*
X3511100Y357500D03*
X3504900D03*
X3510600Y261000D03*
X3504400D03*
X3602400Y481500D03*
X3608600D03*
X3665100Y194500D03*
X3658900D03*
X3512900Y613000D03*
X3519100D03*
X3567600Y240500D03*
X3561400D03*
X3540100Y656750D03*
X3533900D03*
X3702900Y588500D03*
X3709100D03*
Y609500D03*
X3702900D03*
X3693200Y191100D03*
X3699400D03*
X3695600Y215600D03*
X3701800D03*
X3693700Y235600D03*
X3699900D03*
X3729650Y302250D03*
X3735850D03*
X3729650Y326500D03*
X3735850D03*
X3730100Y346500D03*
X3723900D03*
X3656600Y741500D03*
X3650400D03*
X3654600Y717000D03*
X3648400D03*
X3654600Y697000D03*
X3648400D03*
X3578900Y275500D03*
X3585100D03*
X3593900D03*
X3600100D03*
X3595600Y506500D03*
X3589400D03*
X3595600Y481500D03*
X3589400D03*
X3583400Y527000D03*
X3589600D03*
X3583400Y546000D03*
X3589600D03*
X3575100Y568500D03*
X3568900D03*
X3628350Y188750D03*
X3622150D03*
X3552850Y656750D03*
X3546650D03*
G54D91*
X3502500Y631500D03*
Y619500D03*
G54D92*
X3582000Y715000D03*
X3570000D03*
X3674000Y360000D03*
X3686000D03*
G54D93*
X3553000Y591000D03*
X3561000D03*
X3530000Y539500D03*
X3522000D03*
G54D94*
X3542000Y613500D03*
Y605500D03*
X3559500Y247500D03*
Y255500D03*
X3533000Y440000D03*
Y432000D03*
X3504000Y429500D03*
Y421500D03*
X3510500Y335000D03*
Y327000D03*
X3502500Y350000D03*
Y342000D03*
X3510000Y238000D03*
Y230000D03*
X3502000Y253500D03*
Y245500D03*
G54D95*
X3707415Y715667D03*
X3516715Y300167D03*
G54D96*
X3712100Y714210D03*
X3716785D03*
Y722990D03*
X3712100D03*
X3707415D03*
X3521400Y298710D03*
X3526085D03*
Y307490D03*
X3521400D03*
X3516715D03*
G54D97*
X3643500Y552063D03*
Y559937D03*
X3716500Y369063D03*
Y376937D03*
X3657500Y635063D03*
Y642937D03*
G54D98*
X3694563Y271500D03*
X3702437D03*
G54D99*
X3521400Y198600D03*
X3689000Y735600D03*
X3527000Y733000D03*
G54D100*
X3511400Y188600D03*
X3531400D03*
Y208600D03*
X3511400D03*
X3699000Y725600D03*
Y745600D03*
X3679000D03*
Y725600D03*
X3517000Y723000D03*
X3537000D03*
Y743000D03*
X3517000D03*
G54D101*
X3554748Y516000D03*
Y508500D03*
Y501000D03*
Y493500D03*
Y486000D03*
X3573252D03*
Y493500D03*
Y501000D03*
Y508500D03*
Y516000D03*
G54D102*
X3550533Y599875D03*
X3685967D03*
X3550533Y331125D03*
X3685967D03*
G54D103*
X3559500Y440520D03*
Y435480D03*
X3642000Y289520D03*
Y284480D03*
X3522000Y371580D03*
Y376620D03*
X3519000Y503980D03*
Y509020D03*
X3725500Y543520D03*
Y538480D03*
X3718500Y543520D03*
Y538480D03*
X3683500Y543520D03*
Y538480D03*
X3690500Y543520D03*
Y538480D03*
X3725500Y560520D03*
Y555480D03*
X3718500Y560520D03*
Y555480D03*
X3683500Y560520D03*
Y555480D03*
X3690500Y560520D03*
Y555480D03*
G54D104*
X3640980Y276000D03*
X3646020D03*
X3640980Y269000D03*
X3646020D03*
X3707080Y694100D03*
X3712120D03*
X3516480Y248500D03*
X3521520D03*
X3509980Y422000D03*
X3515020D03*
X3516980Y345500D03*
X3522020D03*
X3520020Y439000D03*
X3514980D03*
X3516380Y231600D03*
X3521420D03*
X3516880Y328600D03*
X3521920D03*
G54D105*
X3559500Y454701D03*
Y452299D03*
G54D106*
X3633201Y500500D03*
X3630799D03*
X3625799D03*
X3628201D03*
X3521999Y367100D03*
X3524401D03*
X3515099Y383100D03*
X3517501D03*
G54D107*
X3704386Y472000D03*
X3707614D03*
X3691386D03*
X3694614D03*
X3691386Y479000D03*
X3694614D03*
X3704386D03*
X3707614D03*
G54D108*
X3573500Y541256D03*
Y535744D03*
X3680500Y414244D03*
Y419756D03*
Y408756D03*
Y403244D03*
X3502000Y684744D03*
Y690256D03*
Y702744D03*
Y708256D03*
X3666500Y393756D03*
Y388244D03*
Y377244D03*
Y382756D03*
G54D109*
X3679000Y686366D03*
Y690500D03*
Y694634D03*
G54D110*
X3722000Y601760D03*
X3727000D03*
X3732000D03*
Y589240D03*
X3722000D03*
G54D111*
X3646248Y406500D03*
Y411500D03*
Y416500D03*
X3659752D03*
Y406500D03*
G54D112*
X3604559Y563445D03*
X3602000D03*
X3599441D03*
Y556555D03*
X3602000D03*
X3604559D03*
X3732059Y456945D03*
X3729500D03*
X3726941D03*
Y450055D03*
X3729500D03*
X3732059D03*
X3609059Y334945D03*
X3606500D03*
X3603941D03*
Y328055D03*
X3606500D03*
X3609059D03*
G54D113*
X3508879Y387029D03*
X3510847D03*
X3512816D03*
X3514784D03*
X3516753D03*
X3518721D03*
Y403171D03*
X3516753D03*
X3514784D03*
X3512816D03*
X3510847D03*
X3508879D03*
G54D114*
X3521871Y390179D03*
Y392147D03*
Y394116D03*
Y396084D03*
Y398053D03*
Y400021D03*
X3505729D03*
Y398053D03*
Y396084D03*
Y394116D03*
Y392147D03*
Y390179D03*
G54D115*
X3513800Y395100D03*
G54D116*
X3532008Y576445D03*
Y585500D03*
Y594555D03*
G54D117*
X3507992Y585500D03*
G54D118*
X3598555Y265008D03*
X3589500D03*
X3580445D03*
G54D119*
X3589500Y240992D03*
G54D120*
X3716114Y634142D03*
Y636110D03*
Y638079D03*
Y640047D03*
Y642016D03*
Y643984D03*
Y645953D03*
Y647921D03*
Y649890D03*
Y651858D03*
X3692886D03*
Y649890D03*
Y647921D03*
Y645953D03*
Y643984D03*
Y642016D03*
Y640047D03*
Y638079D03*
Y636110D03*
Y634142D03*
X3696823Y520421D03*
Y518453D03*
Y516484D03*
Y514516D03*
Y512547D03*
Y510579D03*
X3712177D03*
Y512547D03*
Y514516D03*
Y516484D03*
Y518453D03*
Y520421D03*
X3686823Y390421D03*
Y388453D03*
Y386484D03*
Y384516D03*
Y382547D03*
Y380579D03*
X3702177D03*
Y382547D03*
Y384516D03*
Y386484D03*
Y388453D03*
Y390421D03*
X3642177Y643079D03*
Y645047D03*
Y647016D03*
Y648984D03*
Y650953D03*
Y652921D03*
X3626823D03*
Y650953D03*
Y648984D03*
Y647016D03*
Y645047D03*
Y643079D03*
G54D121*
X3713358Y654614D03*
X3711390D03*
X3709421D03*
X3707453D03*
X3705484D03*
X3703516D03*
X3701547D03*
X3699579D03*
X3697610D03*
X3695642D03*
Y631386D03*
X3697610D03*
X3699579D03*
X3701547D03*
X3703516D03*
X3705484D03*
X3707453D03*
X3709421D03*
X3711390D03*
X3713358D03*
X3709421Y523177D03*
X3707453D03*
X3705484D03*
X3703516D03*
X3701547D03*
X3699579D03*
Y507823D03*
X3701547D03*
X3703516D03*
X3705484D03*
X3707453D03*
X3709421D03*
X3699421Y393177D03*
X3697453D03*
X3695484D03*
X3693516D03*
X3691547D03*
X3689579D03*
Y377823D03*
X3691547D03*
X3693516D03*
X3695484D03*
X3697453D03*
X3699421D03*
X3629579Y640323D03*
X3631547D03*
X3633516D03*
X3635484D03*
X3637453D03*
X3639421D03*
Y655677D03*
X3637453D03*
X3635484D03*
X3633516D03*
X3631547D03*
X3629579D03*
G54D122*
X3515260Y473366D03*
X3519000D03*
X3522740D03*
Y481634D03*
X3519000D03*
X3515260D03*
G54D123*
X3712150Y674700D03*
Y680600D03*
Y686500D03*
X3701650Y680600D03*
G54D124*
X3527661Y516161D03*
Y518720D03*
Y521280D03*
Y523839D03*
X3510339D03*
Y521280D03*
Y518720D03*
Y516161D03*
X3583161Y554661D03*
Y557220D03*
Y559780D03*
Y562339D03*
X3565839D03*
Y559780D03*
Y557220D03*
Y554661D03*
X3634161Y195661D03*
Y198220D03*
Y200780D03*
Y203339D03*
X3616839D03*
Y200780D03*
Y198220D03*
Y195661D03*
G54D125*
X3619854Y522390D03*
Y520421D03*
Y518453D03*
Y516484D03*
Y514516D03*
Y512547D03*
Y510579D03*
Y508610D03*
X3639146D03*
Y510579D03*
Y512547D03*
Y514516D03*
Y516484D03*
Y518453D03*
Y520421D03*
Y522390D03*
X3654354Y287890D03*
Y285921D03*
Y283953D03*
Y281984D03*
Y280016D03*
Y278047D03*
Y276079D03*
Y274110D03*
X3673646D03*
Y276079D03*
Y278047D03*
Y280016D03*
Y281984D03*
Y283953D03*
Y285921D03*
Y287890D03*
G54D126*
X3622610Y505854D03*
X3624579D03*
X3626547D03*
X3628516D03*
X3630484D03*
X3632453D03*
X3634421D03*
X3636390D03*
Y525146D03*
X3634421D03*
X3632453D03*
X3630484D03*
X3628516D03*
X3626547D03*
X3624579D03*
X3622610D03*
X3670890Y290646D03*
X3668921D03*
X3666953D03*
X3664984D03*
X3663016D03*
X3661047D03*
X3659079D03*
X3657110D03*
Y271354D03*
X3659079D03*
X3661047D03*
X3663016D03*
X3664984D03*
X3666953D03*
X3668921D03*
X3670890D03*
G54D127*
X3629500Y515500D03*
X3664000Y281000D03*
G54D128*
X3704500Y515500D03*
X3634500Y648000D03*
G54D129*
X3694500Y385500D03*
G54D130*
X3577260Y375382D03*
X3581000D03*
X3584740D03*
Y385618D03*
X3581000D03*
X3577260D03*
X3594740Y499315D03*
X3591000D03*
X3587260D03*
Y488685D03*
X3594740D03*
X3693560Y197785D03*
X3697300D03*
X3701040D03*
Y208415D03*
X3693560D03*
X3730260Y309685D03*
X3734000D03*
X3737740D03*
Y320315D03*
X3730260D03*
X3655240Y734815D03*
X3651500D03*
X3647760D03*
Y724185D03*
X3655240D03*
G54D131*
X3573118Y678260D03*
Y682000D03*
Y685740D03*
X3562882D03*
Y682000D03*
Y678260D03*
G54D132*
X3619134Y422917D03*
X3616575D03*
X3614016D03*
X3611457D03*
X3608898D03*
X3606339D03*
X3603780D03*
X3601220D03*
X3598661D03*
X3596102D03*
X3593543D03*
X3590984D03*
X3588425D03*
X3585866D03*
Y400083D03*
X3588425D03*
X3590984D03*
X3593543D03*
X3596102D03*
X3598661D03*
X3601220D03*
X3603780D03*
X3606339D03*
X3608898D03*
X3611457D03*
X3614016D03*
X3616575D03*
X3619134D03*
G54D133*
X3580524Y641543D03*
Y644102D03*
Y646661D03*
Y649220D03*
Y651780D03*
Y654340D03*
Y656900D03*
Y659460D03*
X3558476Y659457D03*
Y656898D03*
Y654339D03*
Y651780D03*
Y649220D03*
Y646661D03*
Y644102D03*
Y641543D03*
G54D134*
X3596382Y662571D03*
Y646429D03*
X3606618D03*
Y662571D03*
G54D135*
X3519000Y520000D03*
G54D136*
X3612630Y723000D03*
Y728000D03*
Y733000D03*
Y738000D03*
X3591370D03*
Y733000D03*
Y728000D03*
Y723000D03*
X3600630Y610000D03*
Y615000D03*
Y620000D03*
Y625000D03*
X3579370D03*
Y620000D03*
Y615000D03*
Y610000D03*
X3609130Y293500D03*
Y298500D03*
Y303500D03*
Y308500D03*
X3587870D03*
Y303500D03*
Y298500D03*
Y293500D03*
G54D138*
X3510445Y641441D03*
Y644000D03*
Y646559D03*
X3503555D03*
Y641441D03*
G54D139*
X3519547Y237055D03*
X3521516D03*
X3523484D03*
X3525453D03*
Y243945D03*
X3523484D03*
X3521516D03*
X3519547D03*
X3513047Y426555D03*
X3515016D03*
X3516984D03*
X3518953D03*
Y433445D03*
X3516984D03*
X3515016D03*
X3513047D03*
X3520047Y334055D03*
X3522016D03*
X3523984D03*
X3525953D03*
Y340945D03*
X3523984D03*
X3522016D03*
X3520047D03*
G54D140*
X3521516Y240500D03*
X3523484D03*
X3525453D03*
X3515016Y430000D03*
X3516984D03*
X3518953D03*
X3522016Y337500D03*
X3523984D03*
X3525953D03*
G54D141*
X3724500Y233000D03*
Y743000D03*
X3504500D03*
G74*
X0Y0D02*
M02*
