*
*
G04 PADS 9.5 Build Number: 522968 generated Gerber (RS-274-X) file*
G04 PC Version=2.1*
*
%IN "Gapfiller_GSM900_REV4.p"*%
*
%MOIN*%
*
%FSLAX35Y35*%
*
*
*
*
G04 PC Standard Apertures*
*
*
G04 Thermal Relief Aperture macro.*
%AMTER*
1,1,$1,0,0*
1,0,$1-$2,0,0*
21,0,$3,$4,0,0,45*
21,0,$3,$4,0,0,135*
%
*
*
G04 Annular Aperture macro.*
%AMANN*
1,1,$1,0,0*
1,0,$2,0,0*
%
*
*
G04 Odd Aperture macro.*
%AMODD*
1,1,$1,0,0*
1,0,$1-0.005,0,0*
%
*
*
G04 PC Custom Aperture Macros*
*
*
*
*
*
*
G04 PC Aperture Table*
*
%ADD010C,0.005*%
%ADD014C,0.01*%
%ADD015C,0.008*%
%ADD023C,0.001*%
%ADD026C,0.00787*%
*
*
*
*
G04 PC Circuitry*
G04 Layer Name Gapfiller_GSM900_REV4.p - circuitry*
%LPD*%
*
*
G04 PC Custom Flashes*
G04 Layer Name Gapfiller_GSM900_REV4.p - flashes*
%LPD*%
*
*
G04 PC Circuitry*
G04 Layer Name Gapfiller_GSM900_REV4.p - circuitry*
%LPD*%
*
G54D10*
G01X3559500Y293250D02*
X3560500D01*
Y287750*
X3559500*
X3549500Y293250D02*
X3548500D01*
Y287750*
X3549500*
X3649000Y530750D02*
X3648000D01*
Y536250*
X3649000*
X3659000Y530750D02*
X3660000D01*
Y536250*
X3659000*
X3649000Y523250D02*
X3648000D01*
Y528750*
X3649000*
X3659000Y523250D02*
X3660000D01*
Y528750*
X3659000*
X3649000Y508250D02*
X3648000D01*
Y513750*
X3649000*
X3659000Y508250D02*
X3660000D01*
Y513750*
X3659000*
X3559500Y285750D02*
X3560500D01*
Y280250*
X3559500*
X3549500Y285750D02*
X3548500D01*
Y280250*
X3549500*
X3635500Y497750D02*
X3634500D01*
Y503250*
X3635500*
X3645500Y497750D02*
X3646500D01*
Y503250*
X3645500*
X3654250Y505000D02*
Y506000D01*
X3659750*
Y505000*
X3654250Y495000D02*
Y494000D01*
X3659750*
Y495000*
X3614500Y519250D02*
X3615500D01*
Y513750*
X3614500*
X3604500Y519250D02*
X3603500D01*
Y513750*
X3604500*
X3614500Y526250D02*
X3615500D01*
Y520750*
X3614500*
X3604500Y526250D02*
X3603500D01*
Y520750*
X3604500*
X3649000Y515750D02*
X3648000D01*
Y521250*
X3649000*
X3659000Y515750D02*
X3660000D01*
Y521250*
X3659000*
X3680500Y280250D02*
X3679500D01*
Y285750*
X3680500*
X3690500Y280250D02*
X3691500D01*
Y285750*
X3690500*
X3680500Y273250D02*
X3679500D01*
Y278750*
X3680500*
X3690500Y273250D02*
X3691500D01*
Y278750*
X3690500*
X3675000Y292750D02*
X3676000D01*
Y287250*
X3675000*
X3665000Y292750D02*
X3664000D01*
Y287250*
X3665000*
X3675250Y275000D02*
Y274000D01*
X3669750*
Y275000*
X3675250Y285000D02*
Y286000D01*
X3669750*
Y285000*
X3657500Y267750D02*
X3656500D01*
Y273250*
X3657500*
X3667500Y267750D02*
X3668500D01*
Y273250*
X3667500*
X3655250Y273000D02*
Y272000D01*
X3649750*
Y273000*
X3655250Y283000D02*
Y284000D01*
X3649750*
Y283000*
X3619250Y433000D02*
Y432000D01*
X3613750*
Y433000*
X3619250Y443000D02*
Y444000D01*
X3613750*
Y443000*
X3644000Y262750D02*
X3645000D01*
Y257250*
X3644000*
X3634000Y262750D02*
X3633000D01*
Y257250*
X3634000*
X3660250Y262000D02*
Y263000D01*
X3665750*
Y262000*
X3660250Y252000D02*
Y251000D01*
X3665750*
Y252000*
X3652000Y285250D02*
X3651000D01*
Y290750*
X3652000*
X3662000Y285250D02*
X3663000D01*
Y290750*
X3662000*
X3642250Y288000D02*
Y289000D01*
X3647750*
Y288000*
X3642250Y278000D02*
Y277000D01*
X3647750*
Y278000*
X3618500Y417750D02*
X3619500D01*
Y412250*
X3618500*
X3608500Y417750D02*
X3607500D01*
Y412250*
X3608500*
X3626750Y433000D02*
Y432000D01*
X3621250*
Y433000*
X3626750Y443000D02*
Y444000D01*
X3621250*
Y443000*
X3618500Y424750D02*
X3619500D01*
Y419250*
X3618500*
X3608500Y424750D02*
X3607500D01*
Y419250*
X3608500*
X3611750Y433000D02*
Y432000D01*
X3606250*
Y433000*
X3611750Y443000D02*
Y444000D01*
X3606250*
Y443000*
X3634250Y433000D02*
Y432000D01*
X3628750*
Y433000*
X3634250Y443000D02*
Y444000D01*
X3628750*
Y443000*
X3597000Y398250D02*
X3596000D01*
Y403750*
X3597000*
X3607000Y398250D02*
X3608000D01*
Y403750*
X3607000*
X3597000Y405250D02*
X3596000D01*
Y410750*
X3597000*
X3607000Y405250D02*
X3608000D01*
Y410750*
X3607000*
X3589500Y419250D02*
X3588500D01*
Y424750*
X3589500*
X3599500Y419250D02*
X3600500D01*
Y424750*
X3599500*
X3589500Y412250D02*
X3588500D01*
Y417750*
X3589500*
X3599500Y412250D02*
X3600500D01*
Y417750*
X3599500*
X3595250Y447000D02*
Y446000D01*
X3589750*
Y447000*
X3595250Y457000D02*
Y458000D01*
X3589750*
Y457000*
X3574750D02*
Y458000D01*
X3580250*
Y457000*
X3574750Y447000D02*
Y446000D01*
X3580250*
Y447000*
X3582250Y457000D02*
Y458000D01*
X3587750*
Y457000*
X3582250Y447000D02*
Y446000D01*
X3587750*
Y447000*
X3575500Y431250D02*
X3574500D01*
Y436750*
X3575500*
X3585500Y431250D02*
X3586500D01*
Y436750*
X3585500*
X3604750Y555000D02*
Y554000D01*
X3599250*
Y555000*
X3604750Y565000D02*
Y566000D01*
X3599250*
Y565000*
X3589750Y376500D02*
Y377500D01*
X3595250*
Y376500*
X3589750Y366500D02*
Y365500D01*
X3595250*
Y366500*
X3580250D02*
Y365500D01*
X3574750*
Y366500*
X3580250Y376500D02*
Y377500D01*
X3574750*
Y376500*
X3707750Y399000D02*
Y398000D01*
X3702250*
Y399000*
X3707750Y409000D02*
Y410000D01*
X3702250*
Y409000*
X3696000Y411750D02*
X3695000D01*
Y417250*
X3696000*
X3706000Y411750D02*
X3707000D01*
Y417250*
X3706000*
X3676750Y394000D02*
Y395000D01*
X3682250*
Y394000*
X3676750Y384000D02*
Y383000D01*
X3682250*
Y384000*
X3684250Y394000D02*
Y395000D01*
X3689750*
Y394000*
X3684250Y384000D02*
Y383000D01*
X3689750*
Y384000*
X3587750Y366500D02*
Y365500D01*
X3582250*
Y366500*
X3587750Y376500D02*
Y377500D01*
X3582250*
Y376500*
X3575500Y379750D02*
X3574500D01*
Y385250*
X3575500*
X3585500Y379750D02*
X3586500D01*
Y385250*
X3585500*
X3563750Y617500D02*
Y616500D01*
X3558250*
Y617500*
X3563750Y627500D02*
Y628500D01*
X3558250*
Y627500*
X3699250Y625000D02*
Y626000D01*
X3704750*
Y625000*
X3699250Y615000D02*
Y614000D01*
X3704750*
Y615000*
X3682250Y636000D02*
Y637000D01*
X3687750*
Y636000*
X3682250Y626000D02*
Y625000D01*
X3687750*
Y626000*
X3691500Y628250D02*
X3690500D01*
Y633750*
X3691500*
X3701500Y628250D02*
X3702500D01*
Y633750*
X3701500*
X3722500Y627250D02*
X3721500D01*
Y632750*
X3722500*
X3732500Y627250D02*
X3733500D01*
Y632750*
X3732500*
X3722500Y635250D02*
X3721500D01*
Y640750*
X3722500*
X3732500Y635250D02*
X3733500D01*
Y640750*
X3732500*
X3687750Y639500D02*
Y638500D01*
X3682250*
Y639500*
X3687750Y649500D02*
Y650500D01*
X3682250*
Y649500*
X3691500Y652250D02*
X3690500D01*
Y657750*
X3691500*
X3701500Y652250D02*
X3702500D01*
Y657750*
X3701500*
X3725750Y650000D02*
Y649000D01*
X3720250*
Y650000*
X3725750Y660000D02*
Y661000D01*
X3720250*
Y660000*
X3687750Y653000D02*
Y652000D01*
X3682250*
Y653000*
X3687750Y663000D02*
Y664000D01*
X3682250*
Y663000*
X3570250Y295000D02*
Y296000D01*
X3575750*
Y295000*
X3570250Y285000D02*
Y284000D01*
X3575750*
Y285000*
X3707500Y665250D02*
X3708500D01*
Y659750*
X3707500*
X3697500Y665250D02*
X3696500D01*
Y659750*
X3697500*
X3732250Y448500D02*
Y447500D01*
X3726750*
Y448500*
X3732250Y458500D02*
Y459500D01*
X3726750*
Y458500*
X3638750Y536500D02*
Y535500D01*
X3633250*
Y536500*
X3638750Y546500D02*
Y547500D01*
X3633250*
Y546500*
X3571000Y311250D02*
X3570000D01*
Y316750*
X3571000*
X3581000Y311250D02*
X3582000D01*
Y316750*
X3581000*
X3623500Y503250D02*
X3624500D01*
Y497750*
X3623500*
X3613500Y503250D02*
X3612500D01*
Y497750*
X3613500*
X3719500Y533750D02*
X3720500D01*
Y528250*
X3719500*
X3709500Y533750D02*
X3708500D01*
Y528250*
X3709500*
X3722250Y525000D02*
Y526000D01*
X3727750*
Y525000*
X3722250Y515000D02*
Y514000D01*
X3727750*
Y515000*
X3563000Y316750D02*
X3564000D01*
Y311250*
X3563000*
X3553000Y316750D02*
X3552000D01*
Y311250*
X3553000*
X3714750Y525000D02*
Y526000D01*
X3720250*
Y525000*
X3714750Y515000D02*
Y514000D01*
X3720250*
Y515000*
X3714750Y510000D02*
Y511000D01*
X3720250*
Y510000*
X3714750Y500000D02*
Y499000D01*
X3720250*
Y500000*
X3722250Y510000D02*
Y511000D01*
X3727750*
Y510000*
X3722250Y500000D02*
Y499000D01*
X3727750*
Y500000*
X3614500Y510750D02*
X3615500D01*
Y505250*
X3614500*
X3604500Y510750D02*
X3603500D01*
Y505250*
X3604500*
X3577250Y627500D02*
Y628500D01*
X3582750*
Y627500*
X3577250Y617500D02*
Y616500D01*
X3582750*
Y617500*
X3636250Y390500D02*
Y391500D01*
X3641750*
Y390500*
X3636250Y380500D02*
Y379500D01*
X3641750*
Y380500*
X3643750Y390500D02*
Y391500D01*
X3649250*
Y390500*
X3643750Y380500D02*
Y379500D01*
X3649250*
Y380500*
X3628750Y390500D02*
Y391500D01*
X3634250*
Y390500*
X3628750Y380500D02*
Y379500D01*
X3634250*
Y380500*
X3605500Y716250D02*
X3604500D01*
Y721750*
X3605500*
X3615500Y716250D02*
X3616500D01*
Y721750*
X3615500*
X3605500Y723750D02*
X3604500D01*
Y729250*
X3605500*
X3615500Y723750D02*
X3616500D01*
Y729250*
X3615500*
X3605500Y738750D02*
X3604500D01*
Y744250*
X3605500*
X3615500Y738750D02*
X3616500D01*
Y744250*
X3615500*
X3605500Y731250D02*
X3604500D01*
Y736750*
X3605500*
X3615500Y731250D02*
X3616500D01*
Y736750*
X3615500*
X3620500Y716250D02*
X3619500D01*
Y721750*
X3620500*
X3630500Y716250D02*
X3631500D01*
Y721750*
X3630500*
X3584250Y627500D02*
Y628500D01*
X3589750*
Y627500*
X3584250Y617500D02*
Y616500D01*
X3589750*
Y617500*
X3620500Y723750D02*
X3619500D01*
Y729250*
X3620500*
X3630500Y723750D02*
X3631500D01*
Y729250*
X3630500*
X3620500Y738750D02*
X3619500D01*
Y744250*
X3620500*
X3630500Y738750D02*
X3631500D01*
Y744250*
X3630500*
X3620500Y731250D02*
X3619500D01*
Y736750*
X3620500*
X3630500Y731250D02*
X3631500D01*
Y736750*
X3630500*
X3585250Y301500D02*
Y302500D01*
X3590750*
Y301500*
X3585250Y291500D02*
Y290500D01*
X3590750*
Y291500*
X3592750Y301500D02*
Y302500D01*
X3598250*
Y301500*
X3592750Y291500D02*
Y290500D01*
X3598250*
Y291500*
X3591250Y627500D02*
Y628500D01*
X3596750*
Y627500*
X3591250Y617500D02*
Y616500D01*
X3596750*
Y617500*
X3645250Y506000D02*
Y505000D01*
X3639750*
Y506000*
X3645250Y516000D02*
Y517000D01*
X3639750*
Y516000*
X3614500Y533750D02*
X3615500D01*
Y528250*
X3614500*
X3604500Y533750D02*
X3603500D01*
Y528250*
X3604500*
X3600250Y301500D02*
Y302500D01*
X3605750*
Y301500*
X3600250Y291500D02*
Y290500D01*
X3605750*
Y291500*
X3647500Y257250D02*
X3646500D01*
Y262750*
X3647500*
X3657500Y257250D02*
X3658500D01*
Y262750*
X3657500*
X3620500Y257250D02*
X3619500D01*
Y262750*
X3620500*
X3630500Y257250D02*
X3631500D01*
Y262750*
X3630500*
X3598250Y627500D02*
Y628500D01*
X3603750*
Y627500*
X3598250Y617500D02*
Y616500D01*
X3603750*
Y617500*
X3585500Y444250D02*
X3586500D01*
Y438750*
X3585500*
X3575500Y444250D02*
X3574500D01*
Y438750*
X3575500*
X3595250Y433000D02*
Y432000D01*
X3589750*
Y433000*
X3595250Y443000D02*
Y444000D01*
X3589750*
Y443000*
X3691500Y403750D02*
X3692500D01*
Y398250*
X3691500*
X3681500Y403750D02*
X3680500D01*
Y398250*
X3681500*
X3700250Y399000D02*
Y398000D01*
X3694750*
Y399000*
X3700250Y409000D02*
Y410000D01*
X3694750*
Y409000*
X3589750Y391000D02*
Y392000D01*
X3595250*
Y391000*
X3589750Y381000D02*
Y380000D01*
X3595250*
Y381000*
X3585500Y392750D02*
X3586500D01*
Y387250*
X3585500*
X3575500Y392750D02*
X3574500D01*
Y387250*
X3575500*
X3607750Y301500D02*
Y302500D01*
X3613250*
Y301500*
X3607750Y291500D02*
Y290500D01*
X3613250*
Y291500*
X3626750Y380500D02*
Y379500D01*
X3621250*
Y380500*
X3626750Y390500D02*
Y391500D01*
X3621250*
Y390500*
X3561000Y276750D02*
X3562000D01*
Y269250*
X3561000*
X3548000Y276750D02*
X3547000D01*
Y269250*
X3548000*
X3570250Y308000D02*
Y309000D01*
X3575750*
Y308000*
X3570250Y298000D02*
Y297000D01*
X3575750*
Y298000*
X3556750Y308000D02*
Y309000D01*
X3562250*
Y308000*
X3556750Y298000D02*
Y297000D01*
X3562250*
Y298000*
X3549672Y584966D02*
X3552172D01*
X3552641Y585080*
X3552797Y585193*
X3552953Y585420*
Y585648*
X3552797Y585875*
X3552641Y585989*
X3552172Y586102*
X3551859*
X3550453Y583830D02*
X3550297D01*
X3549984Y583716*
X3549828Y583602*
X3549672Y583375*
Y582920*
X3549828Y582693*
X3549984Y582580*
X3550297Y582466*
X3550609*
X3550922Y582580*
X3551391Y582807*
X3552953Y583943*
Y582352*
X3544250Y293625D02*
X3543906Y293750D01*
X3543562Y294000*
X3543562D02*
X3543391Y294250D01*
Y294750*
X3543562Y295000*
X3543562D02*
X3543906Y295250D01*
X3544250Y295375*
X3544766Y295500*
X3545625*
X3546141Y295375*
X3546484Y295250*
X3546828Y295000*
X3547000Y294750*
Y294250*
X3546828Y294000*
X3546484Y293750*
X3546141Y293625*
X3544078Y292500D02*
X3543906Y292250D01*
X3543391Y291875*
X3547000*
X3543391Y290000D02*
X3543562Y290375D01*
X3543562D02*
X3544078Y290625D01*
X3544937Y290750*
X3544937D02*
X3545453D01*
X3546312Y290625*
X3546312D02*
X3546828Y290375D01*
X3547000Y290000*
Y289750*
X3546828Y289375*
X3546312Y289125*
X3546312D02*
X3545453Y289000D01*
X3544937*
X3544937D02*
X3544078Y289125D01*
X3543562Y289375*
X3543562D02*
X3543391Y289750D01*
Y290000*
X3676125Y534750D02*
X3676250Y535094D01*
X3676500Y535438*
X3676500D02*
X3676750Y535609D01*
X3677250*
X3677500Y535438*
X3677500D02*
X3677750Y535094D01*
X3677875Y534750*
X3678000Y534234*
Y533375*
X3677875Y532859*
X3677750Y532516*
X3677500Y532172*
X3677250Y532000*
X3676750*
X3676500Y532172*
X3676250Y532516*
X3676125Y532859*
X3675000Y534922D02*
X3674750Y535094D01*
X3674375Y535609*
Y532000*
X3672500Y535609D02*
X3672875Y535438D01*
X3672875D02*
X3673125Y534922D01*
X3673250Y534063*
X3673250D02*
Y533547D01*
X3673125Y532688*
X3673125D02*
X3672875Y532172D01*
X3672500Y532000*
X3672250*
X3671875Y532172*
X3671625Y532688*
X3671625D02*
X3671500Y533547D01*
Y534063*
X3671500D02*
X3671625Y534922D01*
X3671875Y535438*
X3671875D02*
X3672250Y535609D01*
X3672500*
X3668750D02*
X3670000D01*
X3670125Y534063*
X3670125D02*
X3670000Y534234D01*
X3669625Y534406*
X3669250*
X3668875Y534234*
X3668625Y533891*
X3668500Y533375*
X3668625Y533031*
X3668750Y532516*
X3669000Y532172*
X3669375Y532000*
X3669750*
X3670125Y532172*
X3670250Y532344*
X3670375Y532688*
X3676125Y526750D02*
X3676250Y527094D01*
X3676500Y527438*
X3676500D02*
X3676750Y527609D01*
X3677250*
X3677500Y527438*
X3677500D02*
X3677750Y527094D01*
X3677875Y526750*
X3678000Y526234*
Y525375*
X3677875Y524859*
X3677750Y524516*
X3677500Y524172*
X3677250Y524000*
X3676750*
X3676500Y524172*
X3676250Y524516*
X3676125Y524859*
X3675000Y526922D02*
X3674750Y527094D01*
X3674375Y527609*
Y524000*
X3672500Y527609D02*
X3672875Y527438D01*
X3672875D02*
X3673125Y526922D01*
X3673250Y526063*
X3673250D02*
Y525547D01*
X3673125Y524688*
X3673125D02*
X3672875Y524172D01*
X3672500Y524000*
X3672250*
X3671875Y524172*
X3671625Y524688*
X3671625D02*
X3671500Y525547D01*
Y526063*
X3671500D02*
X3671625Y526922D01*
X3671875Y527438*
X3671875D02*
X3672250Y527609D01*
X3672500*
X3668625D02*
X3669875Y524000D01*
X3670375Y527609D02*
X3668625D01*
X3676625Y512250D02*
X3676750Y512594D01*
X3677000Y512938*
X3677000D02*
X3677250Y513109D01*
X3677750*
X3678000Y512938*
X3678000D02*
X3678250Y512594D01*
X3678375Y512250*
X3678500Y511734*
Y510875*
X3678375Y510359*
X3678250Y510016*
X3678000Y509672*
X3677750Y509500*
X3677250*
X3677000Y509672*
X3676750Y510016*
X3676625Y510359*
X3675500Y512422D02*
X3675250Y512594D01*
X3674875Y513109*
Y509500*
X3673000Y513109D02*
X3673375Y512938D01*
X3673375D02*
X3673625Y512422D01*
X3673750Y511563*
X3673750D02*
Y511047D01*
X3673625Y510188*
X3673625D02*
X3673375Y509672D01*
X3673000Y509500*
X3672750*
X3672375Y509672*
X3672125Y510188*
X3672125D02*
X3672000Y511047D01*
Y511563*
X3672000D02*
X3672125Y512422D01*
X3672375Y512938*
X3672375D02*
X3672750Y513109D01*
X3673000*
X3669250Y511906D02*
X3669375Y511391D01*
X3669625Y511047*
X3670000Y510875*
X3670125*
X3670500Y511047*
X3670750Y511391*
X3670875Y511906*
Y512078*
X3670750Y512594*
X3670500Y512938*
X3670500D02*
X3670125Y513109D01*
X3670000*
X3669625Y512938*
X3669625D02*
X3669375Y512594D01*
X3669250Y511906*
Y511047*
X3669375Y510188*
X3669375D02*
X3669625Y509672D01*
X3670000Y509500*
X3670250*
X3670625Y509672*
X3670750Y510016*
X3544250Y283625D02*
X3543906Y283750D01*
X3543562Y284000*
X3543562D02*
X3543391Y284250D01*
Y284750*
X3543562Y285000*
X3543562D02*
X3543906Y285250D01*
X3544250Y285375*
X3544766Y285500*
X3545625*
X3546141Y285375*
X3546484Y285250*
X3546828Y285000*
X3547000Y284750*
Y284250*
X3546828Y284000*
X3546484Y283750*
X3546141Y283625*
X3544078Y282500D02*
X3543906Y282250D01*
X3543391Y281875*
X3547000*
X3544078Y280750D02*
X3543906Y280500D01*
X3543391Y280125*
X3547000*
X3642625Y494250D02*
X3642750Y494594D01*
X3643000Y494938*
X3643000D02*
X3643250Y495109D01*
X3643750*
X3644000Y494938*
X3644000D02*
X3644250Y494594D01*
X3644375Y494250*
X3644500Y493734*
Y492875*
X3644375Y492359*
X3644250Y492016*
X3644000Y491672*
X3643750Y491500*
X3643250*
X3643000Y491672*
X3642750Y492016*
X3642625Y492359*
X3641500Y494422D02*
X3641250Y494594D01*
X3640875Y495109*
Y491500*
X3639750Y494422D02*
X3639500Y494594D01*
X3639125Y495109*
Y491500*
X3637875Y494250D02*
Y494422D01*
X3637750Y494766*
X3637625Y494938*
X3637625D02*
X3637375Y495109D01*
X3636875*
X3636625Y494938*
X3636625D02*
X3636500Y494766D01*
X3636375Y494422*
Y494078*
X3636500Y493734*
X3636750Y493219*
X3638000Y491500*
X3636250*
X3650750Y502125D02*
X3650406Y502250D01*
X3650062Y502500*
X3650062D02*
X3649891Y502750D01*
Y503250*
X3650062Y503500*
X3650062D02*
X3650406Y503750D01*
X3650750Y503875*
X3651266Y504000*
X3652125*
X3652641Y503875*
X3652984Y503750*
X3653328Y503500*
X3653500Y503250*
Y502750*
X3653328Y502500*
X3652984Y502250*
X3652641Y502125*
X3650578Y501000D02*
X3650406Y500750D01*
X3649891Y500375*
X3653500*
X3650578Y499250D02*
X3650406Y499000D01*
X3649891Y498625*
X3653500*
X3649891Y497250D02*
Y495875D01*
X3651266Y496625*
Y496250*
X3651437Y496000*
X3651437D02*
X3651609Y495875D01*
X3652125Y495750*
X3652469*
X3652984Y495875*
X3653328Y496125*
X3653500Y496500*
Y496875*
X3653328Y497250*
X3653156Y497375*
X3652812Y497500*
X3598250Y516625D02*
X3597906Y516750D01*
X3597562Y517000*
X3597562D02*
X3597391Y517250D01*
Y517750*
X3597562Y518000*
X3597562D02*
X3597906Y518250D01*
X3598250Y518375*
X3598766Y518500*
X3599625*
X3600141Y518375*
X3600484Y518250*
X3600828Y518000*
X3601000Y517750*
Y517250*
X3600828Y517000*
X3600484Y516750*
X3600141Y516625*
X3598078Y515500D02*
X3597906Y515250D01*
X3597391Y514875*
X3601000*
X3598078Y513750D02*
X3597906Y513500D01*
X3597391Y513125*
X3601000*
X3597391Y510375D02*
Y511625D01*
X3598937Y511750*
X3598937D02*
X3598766Y511625D01*
X3598594Y511250*
Y510875*
X3598766Y510500*
X3599109Y510250*
X3599625Y510125*
X3599969Y510250*
X3600484Y510375*
X3600828Y510625*
X3601000Y511000*
Y511375*
X3600828Y511750*
X3600656Y511875*
X3600312Y512000*
X3598250Y527625D02*
X3597906Y527750D01*
X3597562Y528000*
X3597562D02*
X3597391Y528250D01*
Y528750*
X3597562Y529000*
X3597562D02*
X3597906Y529250D01*
X3598250Y529375*
X3598766Y529500*
X3599625*
X3600141Y529375*
X3600484Y529250*
X3600828Y529000*
X3601000Y528750*
Y528250*
X3600828Y528000*
X3600484Y527750*
X3600141Y527625*
X3598078Y526500D02*
X3597906Y526250D01*
X3597391Y525875*
X3601000*
X3598078Y524750D02*
X3597906Y524500D01*
X3597391Y524125*
X3601000*
X3597906Y521500D02*
X3597562Y521625D01*
X3597562D02*
X3597391Y522000D01*
Y522250*
X3597562Y522625*
X3597562D02*
X3598078Y522875D01*
X3598937Y523000*
X3598937D02*
X3599797D01*
X3600484Y522875*
X3600828Y522625*
X3601000Y522250*
Y522125*
X3600828Y521750*
X3600484Y521500*
X3599969Y521375*
X3599797*
X3599281Y521500*
X3598937Y521750*
X3598937D02*
X3598766Y522125D01*
Y522250*
X3598937Y522625*
X3598937D02*
X3599281Y522875D01*
X3599797Y523000*
X3676125Y518750D02*
X3676250Y519094D01*
X3676500Y519438*
X3676500D02*
X3676750Y519609D01*
X3677250*
X3677500Y519438*
X3677500D02*
X3677750Y519094D01*
X3677875Y518750*
X3678000Y518234*
Y517375*
X3677875Y516859*
X3677750Y516516*
X3677500Y516172*
X3677250Y516000*
X3676750*
X3676500Y516172*
X3676250Y516516*
X3676125Y516859*
X3675000Y518922D02*
X3674750Y519094D01*
X3674375Y519609*
Y516000*
X3673250Y518922D02*
X3673000Y519094D01*
X3672625Y519609*
Y516000*
X3669750Y519609D02*
X3671000Y516000D01*
X3671500Y519609D02*
X3669750D01*
X3694250Y289125D02*
X3693906Y289250D01*
X3693562Y289500*
X3693562D02*
X3693391Y289750D01*
Y290250*
X3693562Y290500*
X3693562D02*
X3693906Y290750D01*
X3694250Y290875*
X3694766Y291000*
X3695625*
X3696141Y290875*
X3696484Y290750*
X3696828Y290500*
X3697000Y290250*
Y289750*
X3696828Y289500*
X3696484Y289250*
X3696141Y289125*
X3694078Y288000D02*
X3693906Y287750D01*
X3693391Y287375*
X3697000*
X3694250Y286125D02*
X3694078D01*
X3693734Y286000*
X3693562Y285875*
X3693562D02*
X3693391Y285625D01*
Y285125*
X3693562Y284875*
X3693562D02*
X3693734Y284750D01*
X3694078Y284625*
X3694422*
X3694766Y284750*
X3695281Y285000*
X3697000Y286250*
Y284500*
X3694594Y281750D02*
X3695109Y281875D01*
X3695453Y282125*
X3695625Y282500*
Y282625*
X3695453Y283000*
X3695109Y283250*
X3694594Y283375*
X3694422*
X3693906Y283250*
X3693562Y283000*
X3693562D02*
X3693391Y282625D01*
Y282500*
X3693562Y282125*
X3693562D02*
X3693906Y281875D01*
X3694594Y281750*
X3695453*
X3696312Y281875*
X3696312D02*
X3696828Y282125D01*
X3697000Y282500*
Y282750*
X3696828Y283125*
X3696484Y283250*
X3694250Y275875D02*
X3693906Y276000D01*
X3693562Y276250*
X3693562D02*
X3693391Y276500D01*
Y277000*
X3693562Y277250*
X3693562D02*
X3693906Y277500D01*
X3694250Y277625*
X3694766Y277750*
X3695625*
X3696141Y277625*
X3696484Y277500*
X3696828Y277250*
X3697000Y277000*
Y276500*
X3696828Y276250*
X3696484Y276000*
X3696141Y275875*
X3694078Y274750D02*
X3693906Y274500D01*
X3693391Y274125*
X3697000*
X3693391Y272750D02*
Y271375D01*
X3694766Y272125*
Y271750*
X3694937Y271500*
X3694937D02*
X3695109Y271375D01*
X3695625Y271250*
X3695969*
X3696484Y271375*
X3696828Y271625*
X3697000Y272000*
Y272375*
X3696828Y272750*
X3696656Y272875*
X3696312Y273000*
X3693391Y269375D02*
X3693562Y269750D01*
X3693562D02*
X3694078Y270000D01*
X3694937Y270125*
X3694937D02*
X3695453D01*
X3696312Y270000*
X3696312D02*
X3696828Y269750D01*
X3697000Y269375*
Y269125*
X3696828Y268750*
X3696312Y268500*
X3696312D02*
X3695453Y268375D01*
X3694937*
X3694937D02*
X3694078Y268500D01*
X3693562Y268750*
X3693562D02*
X3693391Y269125D01*
Y269375*
X3669750Y299375D02*
X3669406Y299500D01*
X3669062Y299750*
X3669062D02*
X3668891Y300000D01*
Y300500*
X3669062Y300750*
X3669062D02*
X3669406Y301000D01*
X3669750Y301125*
X3670266Y301250*
X3671125*
X3671641Y301125*
X3671984Y301000*
X3672328Y300750*
X3672500Y300500*
Y300000*
X3672328Y299750*
X3671984Y299500*
X3671641Y299375*
X3669578Y298250D02*
X3669406Y298000D01*
X3668891Y297625*
X3672500*
X3668891Y296250D02*
Y294875D01*
X3670266Y295625*
Y295250*
X3670437Y295000*
X3670437D02*
X3670609Y294875D01*
X3671125Y294750*
X3671469*
X3671984Y294875*
X3672328Y295125*
X3672500Y295500*
Y295875*
X3672328Y296250*
X3672156Y296375*
X3671812Y296500*
X3669578Y293625D02*
X3669406Y293375D01*
X3668891Y293000*
X3672500*
X3674500Y270625D02*
X3674156Y270750D01*
X3673812Y271000*
X3673641Y271250*
Y271750*
X3673812Y272000*
X3674156Y272250*
X3674500Y272375*
X3675016Y272500*
X3675875*
X3676391Y272375*
X3676734Y272250*
X3677078Y272000*
X3677250Y271750*
Y271250*
X3677078Y271000*
X3676734Y270750*
X3676391Y270625*
X3674328Y269500D02*
X3674156Y269250D01*
X3673641Y268875*
X3677250*
X3673641Y267500D02*
Y266125D01*
X3675016Y266875*
Y266500*
X3675187Y266250*
X3675359Y266125*
X3675875Y266000*
X3676219*
X3676734Y266125*
X3677078Y266375*
X3677250Y266750*
Y267125*
X3677078Y267500*
X3676906Y267625*
X3676562Y267750*
X3674500Y264750D02*
X3674328D01*
X3673984Y264625*
X3673812Y264500*
X3673641Y264250*
Y263750*
X3673812Y263500*
X3673984Y263375*
X3674328Y263250*
X3674672*
X3675016Y263375*
X3675531Y263625*
X3677250Y264875*
Y263125*
X3668750Y263375D02*
X3668406Y263500D01*
X3668062Y263750*
X3667891Y264000*
Y264500*
X3668062Y264750*
X3668406Y265000*
X3668750Y265125*
X3669266Y265250*
X3670125*
X3670641Y265125*
X3670984Y265000*
X3671328Y264750*
X3671500Y264500*
Y264000*
X3671328Y263750*
X3670984Y263500*
X3670641Y263375*
X3668578Y262250D02*
X3668406Y262000D01*
X3667891Y261625*
X3671500*
X3667891Y259250D02*
X3670297Y260500D01*
Y258625*
X3667891Y259250D02*
X3671500D01*
X3667891Y255750D02*
X3671500Y257000D01*
X3667891Y257500D02*
Y255750D01*
X3645750Y273125D02*
X3645406Y273250D01*
X3645062Y273500*
X3645062D02*
X3644891Y273750D01*
Y274250*
X3645062Y274500*
X3645062D02*
X3645406Y274750D01*
X3645750Y274875*
X3646266Y275000*
X3647125*
X3647641Y274875*
X3647984Y274750*
X3648328Y274500*
X3648500Y274250*
Y273750*
X3648328Y273500*
X3647984Y273250*
X3647641Y273125*
X3645578Y272000D02*
X3645406Y271750D01*
X3644891Y271375*
X3648500*
X3644891Y269000D02*
X3647297Y270250D01*
Y268375*
X3644891Y269000D02*
X3648500D01*
X3644891Y266625D02*
X3645062Y267000D01*
X3645062D02*
X3645406Y267125D01*
X3645750*
X3646094Y267000*
X3646266Y266750*
X3646437Y266250*
X3646437D02*
X3646609Y265875D01*
X3646953Y265625*
X3647297Y265500*
X3647812*
X3647812D02*
X3648156Y265625D01*
X3648328Y265750*
X3648500Y266125*
Y266625*
X3648328Y267000*
X3648156Y267125*
X3647812Y267250*
X3647812D02*
X3647297D01*
X3646953Y267125*
X3646609Y266875*
X3646437Y266500*
X3646437D02*
X3646266Y266000D01*
X3646094Y265750*
X3645750Y265625*
X3645406*
X3645062Y265750*
X3645062D02*
X3644891Y266125D01*
Y266625*
X3616053Y450670D02*
X3615709Y450795D01*
X3615366Y451045*
X3615194Y451295*
Y451795*
X3615366Y452045*
X3615709Y452295*
X3616053Y452420*
X3616569Y452545*
X3617428*
X3617944Y452420*
X3618287Y452295*
X3618631Y452045*
X3618803Y451795*
Y451295*
X3618631Y451045*
X3618287Y450795*
X3617944Y450670*
X3615881Y449545D02*
X3615709Y449295D01*
X3615194Y448920*
X3618803*
X3615194Y446170D02*
Y447420D01*
X3616741Y447545*
X3616569Y447420*
X3616397Y447045*
Y446670*
X3616569Y446295*
X3616912Y446045*
X3617428Y445920*
X3617772Y446045*
X3618287Y446170*
X3618631Y446420*
X3618803Y446795*
Y447170*
X3618631Y447545*
X3618459Y447670*
X3618116Y447795*
X3638464Y254145D02*
X3638120Y254270D01*
X3637777Y254520*
X3637605Y254770*
Y255270*
X3637777Y255520*
X3638120Y255770*
X3638464Y255895*
X3638980Y256020*
X3639839*
X3640355Y255895*
X3640699Y255770*
X3641042Y255520*
X3641214Y255270*
Y254770*
X3641042Y254520*
X3640699Y254270*
X3640355Y254145*
X3638292Y253020D02*
X3638120Y252770D01*
X3637605Y252395*
X3641214*
X3637605Y249645D02*
Y250895D01*
X3639152Y251020*
X3638980Y250895*
X3638808Y250520*
Y250145*
X3638980Y249770*
X3639324Y249520*
X3639839Y249395*
X3640183Y249520*
X3640699Y249645*
X3641042Y249895*
X3641214Y250270*
Y250645*
X3641042Y251020*
X3640870Y251145*
X3640527Y251270*
X3638292Y248270D02*
X3638120Y248020D01*
X3637605Y247645*
X3641214*
X3661581Y244758D02*
X3661238Y244883D01*
X3660894Y245133*
X3660722Y245383*
Y245883*
X3660894Y246133*
X3661238Y246383*
X3661581Y246508*
X3662097Y246633*
X3662956*
X3663472Y246508*
X3663816Y246383*
X3664160Y246133*
X3664331Y245883*
Y245383*
X3664160Y245133*
X3663816Y244883*
X3663472Y244758*
X3661410Y243633D02*
X3661238Y243383D01*
X3660722Y243008*
X3664331*
X3660722Y240258D02*
Y241508D01*
X3662269Y241633*
X3662097Y241508*
X3661925Y241133*
Y240758*
X3662097Y240383*
X3662441Y240133*
X3662956Y240008*
X3663300Y240133*
X3663816Y240258*
X3664160Y240508*
X3664331Y240883*
Y241258*
X3664160Y241633*
X3663988Y241758*
X3663644Y241883*
X3661581Y238758D02*
X3661410D01*
X3661066Y238633*
X3660894Y238508*
X3660722Y238258*
Y237758*
X3660894Y237508*
X3661066Y237383*
X3661410Y237258*
X3661753*
X3662097Y237383*
X3662613Y237633*
X3664331Y238883*
Y237133*
X3657250Y298625D02*
X3656906Y298750D01*
X3656562Y299000*
X3656562D02*
X3656391Y299250D01*
Y299750*
X3656562Y300000*
X3656562D02*
X3656906Y300250D01*
X3657250Y300375*
X3657766Y300500*
X3658625*
X3659141Y300375*
X3659484Y300250*
X3659828Y300000*
X3660000Y299750*
Y299250*
X3659828Y299000*
X3659484Y298750*
X3659141Y298625*
X3657078Y297500D02*
X3656906Y297250D01*
X3656391Y296875*
X3660000*
X3656391Y294125D02*
Y295375D01*
X3657937Y295500*
X3657937D02*
X3657766Y295375D01*
X3657594Y295000*
Y294625*
X3657766Y294250*
X3658109Y294000*
X3658625Y293875*
X3658969Y294000*
X3659484Y294125*
X3659828Y294375*
X3660000Y294750*
Y295125*
X3659828Y295500*
X3659656Y295625*
X3659312Y295750*
X3656906Y291250D02*
X3656562Y291375D01*
X3656562D02*
X3656391Y291750D01*
Y292000*
X3656562Y292375*
X3656562D02*
X3657078Y292625D01*
X3657937Y292750*
X3657937D02*
X3658797D01*
X3659484Y292625*
X3659828Y292375*
X3660000Y292000*
Y291875*
X3659828Y291500*
X3659484Y291250*
X3658969Y291125*
X3658797*
X3658281Y291250*
X3657937Y291500*
X3657937D02*
X3657766Y291875D01*
Y292000*
X3657937Y292375*
X3657937D02*
X3658281Y292625D01*
X3658797Y292750*
X3638250Y285125D02*
X3637906Y285250D01*
X3637562Y285500*
X3637562D02*
X3637391Y285750D01*
Y286250*
X3637562Y286500*
X3637562D02*
X3637906Y286750D01*
X3638250Y286875*
X3638766Y287000*
X3639625*
X3640141Y286875*
X3640484Y286750*
X3640828Y286500*
X3641000Y286250*
Y285750*
X3640828Y285500*
X3640484Y285250*
X3640141Y285125*
X3638078Y284000D02*
X3637906Y283750D01*
X3637391Y283375*
X3641000*
X3637391Y280625D02*
Y281875D01*
X3638937Y282000*
X3638937D02*
X3638766Y281875D01*
X3638594Y281500*
Y281125*
X3638766Y280750*
X3639109Y280500*
X3639625Y280375*
X3639969Y280500*
X3640484Y280625*
X3640828Y280875*
X3641000Y281250*
Y281625*
X3640828Y282000*
X3640656Y282125*
X3640312Y282250*
X3637391Y277500D02*
X3641000Y278750D01*
X3637391Y279250D02*
Y277500D01*
X3622250Y414625D02*
X3621906Y414750D01*
X3621562Y415000*
X3621562D02*
X3621391Y415250D01*
Y415750*
X3621562Y416000*
X3621562D02*
X3621906Y416250D01*
X3622250Y416375*
X3622766Y416500*
X3623625*
X3624141Y416375*
X3624484Y416250*
X3624828Y416000*
X3625000Y415750*
Y415250*
X3624828Y415000*
X3624484Y414750*
X3624141Y414625*
X3622078Y413500D02*
X3621906Y413250D01*
X3621391Y412875*
X3625000*
X3621391Y410125D02*
Y411375D01*
X3622937Y411500*
X3622937D02*
X3622766Y411375D01*
X3622594Y411000*
Y410625*
X3622766Y410250*
X3623109Y410000*
X3623625Y409875*
X3623969Y410000*
X3624484Y410125*
X3624828Y410375*
X3625000Y410750*
Y411125*
X3624828Y411500*
X3624656Y411625*
X3624312Y411750*
X3622594Y407125D02*
X3623109Y407250D01*
X3623453Y407500*
X3623625Y407875*
Y408000*
X3623453Y408375*
X3623109Y408625*
X3622594Y408750*
X3622422*
X3621906Y408625*
X3621562Y408375*
X3621562D02*
X3621391Y408000D01*
Y407875*
X3621562Y407500*
X3621562D02*
X3621906Y407250D01*
X3622594Y407125*
X3623453*
X3624312Y407250*
X3624312D02*
X3624828Y407500D01*
X3625000Y407875*
Y408125*
X3624828Y408500*
X3624484Y408625*
X3623785Y450850D02*
X3623441Y450975D01*
X3623097Y451225*
X3622926Y451475*
Y451975*
X3623097Y452225*
X3623441Y452475*
X3623785Y452600*
X3624301Y452725*
X3625160*
X3625676Y452600*
X3626019Y452475*
X3626363Y452225*
X3626535Y451975*
Y451475*
X3626363Y451225*
X3626019Y450975*
X3625676Y450850*
X3623613Y449725D02*
X3623441Y449475D01*
X3622926Y449100*
X3626535*
X3623441Y446475D02*
X3623097Y446600D01*
X3622926Y446975*
Y447225*
X3623097Y447600*
X3623613Y447850*
X3624472Y447975*
X3625332*
X3626019Y447850*
X3626363Y447600*
X3626535Y447225*
Y447100*
X3626363Y446725*
X3626019Y446475*
X3625504Y446350*
X3625332*
X3624816Y446475*
X3624472Y446725*
X3624301Y447100*
Y447225*
X3624472Y447600*
X3624816Y447850*
X3625332Y447975*
X3622750Y426625D02*
X3622406Y426750D01*
X3622062Y427000*
X3622062D02*
X3621891Y427250D01*
Y427750*
X3622062Y428000*
X3622062D02*
X3622406Y428250D01*
X3622750Y428375*
X3623266Y428500*
X3624125*
X3624641Y428375*
X3624984Y428250*
X3625328Y428000*
X3625500Y427750*
Y427250*
X3625328Y427000*
X3624984Y426750*
X3624641Y426625*
X3622578Y425500D02*
X3622406Y425250D01*
X3621891Y424875*
X3625500*
X3622406Y422250D02*
X3622062Y422375D01*
X3622062D02*
X3621891Y422750D01*
Y423000*
X3622062Y423375*
X3622062D02*
X3622578Y423625D01*
X3623437Y423750*
X3623437D02*
X3624297D01*
X3624984Y423625*
X3625328Y423375*
X3625500Y423000*
Y422875*
X3625328Y422500*
X3624984Y422250*
X3624469Y422125*
X3624297*
X3623781Y422250*
X3623437Y422500*
X3623437D02*
X3623266Y422875D01*
Y423000*
X3623437Y423375*
X3623437D02*
X3623781Y423625D01*
X3624297Y423750*
X3621891Y420250D02*
X3622062Y420625D01*
X3622062D02*
X3622578Y420875D01*
X3623437Y421000*
X3623437D02*
X3623953D01*
X3624812Y420875*
X3624812D02*
X3625328Y420625D01*
X3625500Y420250*
Y420000*
X3625328Y419625*
X3624812Y419375*
X3624812D02*
X3623953Y419250D01*
X3623437*
X3623437D02*
X3622578Y419375D01*
X3622062Y419625*
X3622062D02*
X3621891Y420000D01*
Y420250*
X3607750Y453625D02*
X3607406Y453750D01*
X3607062Y454000*
X3607062D02*
X3606891Y454250D01*
Y454750*
X3607062Y455000*
X3607062D02*
X3607406Y455250D01*
X3607750Y455375*
X3608266Y455500*
X3609125*
X3609641Y455375*
X3609984Y455250*
X3610328Y455000*
X3610500Y454750*
Y454250*
X3610328Y454000*
X3609984Y453750*
X3609641Y453625*
X3607578Y452500D02*
X3607406Y452250D01*
X3606891Y451875*
X3610500*
X3607406Y449250D02*
X3607062Y449375D01*
X3607062D02*
X3606891Y449750D01*
Y450000*
X3607062Y450375*
X3607062D02*
X3607578Y450625D01*
X3608437Y450750*
X3608437D02*
X3609297D01*
X3609984Y450625*
X3610328Y450375*
X3610500Y450000*
Y449875*
X3610328Y449500*
X3609984Y449250*
X3609469Y449125*
X3609297*
X3608781Y449250*
X3608437Y449500*
X3608437D02*
X3608266Y449875D01*
Y450000*
X3608437Y450375*
X3608437D02*
X3608781Y450625D01*
X3609297Y450750*
X3606891Y447750D02*
Y446375D01*
X3608266Y447125*
Y446750*
X3608437Y446500*
X3608437D02*
X3608609Y446375D01*
X3609125Y446250*
X3609469*
X3609984Y446375*
X3610328Y446625*
X3610500Y447000*
Y447375*
X3610328Y447750*
X3610156Y447875*
X3609812Y448000*
X3631860Y450661D02*
X3631517Y450786D01*
X3631517D02*
X3631173Y451036D01*
X3631173D02*
X3631001Y451286D01*
X3631001D02*
Y451786D01*
X3631001D02*
X3631173Y452036D01*
X3631173D02*
X3631517Y452286D01*
X3631517D02*
X3631860Y452411D01*
X3631860D02*
X3632376Y452536D01*
X3632376D02*
X3633235D01*
X3633235D02*
X3633751Y452411D01*
X3633751D02*
X3634095Y452286D01*
X3634095D02*
X3634439Y452036D01*
X3634439D02*
X3634610Y451786D01*
X3634610D02*
Y451286D01*
X3634610D02*
X3634439Y451036D01*
X3634439D02*
X3634095Y450786D01*
X3634095D02*
X3633751Y450661D01*
X3631689Y449536D02*
X3631517Y449286D01*
X3631517D02*
X3631001Y448911D01*
X3631001D02*
X3634610D01*
X3631001Y446036D02*
X3634610Y447286D01*
X3631001Y447786D02*
Y446036D01*
X3617625Y401750D02*
X3617750Y402094D01*
X3618000Y402438*
X3618000D02*
X3618250Y402609D01*
X3618750*
X3619000Y402438*
X3619000D02*
X3619250Y402094D01*
X3619375Y401750*
X3619500Y401234*
Y400375*
X3619375Y399859*
X3619250Y399516*
X3619000Y399172*
X3618750Y399000*
X3618250*
X3618000Y399172*
X3617750Y399516*
X3617625Y399859*
X3616500Y401922D02*
X3616250Y402094D01*
X3615875Y402609*
Y399000*
X3613000Y402609D02*
X3614250Y399000D01*
X3614750Y402609D02*
X3613000D01*
X3611875Y401922D02*
X3611625Y402094D01*
X3611250Y402609*
Y399000*
X3617625Y408250D02*
X3617750Y408594D01*
X3618000Y408938*
X3618000D02*
X3618250Y409109D01*
X3618750*
X3619000Y408938*
X3619000D02*
X3619250Y408594D01*
X3619375Y408250*
X3619500Y407734*
Y406875*
X3619375Y406359*
X3619250Y406016*
X3619000Y405672*
X3618750Y405500*
X3618250*
X3618000Y405672*
X3617750Y406016*
X3617625Y406359*
X3616500Y408422D02*
X3616250Y408594D01*
X3615875Y409109*
Y405500*
X3613000Y409109D02*
X3614250Y405500D01*
X3614750Y409109D02*
X3613000D01*
X3611750Y408250D02*
Y408422D01*
X3611625Y408766*
X3611500Y408938*
X3611500D02*
X3611250Y409109D01*
X3610750*
X3610500Y408938*
X3610500D02*
X3610375Y408766D01*
X3610250Y408422*
Y408078*
X3610375Y407734*
X3610625Y407219*
X3611875Y405500*
X3610125*
X3584125Y423250D02*
X3584250Y423594D01*
X3584500Y423938*
X3584750Y424109*
X3585250*
X3585500Y423938*
X3585750Y423594*
X3585875Y423250*
X3586000Y422734*
Y421875*
X3585875Y421359*
X3585750Y421016*
X3585500Y420672*
X3585250Y420500*
X3584750*
X3584500Y420672*
X3584250Y421016*
X3584125Y421359*
X3583000Y423422D02*
X3582750Y423594D01*
X3582375Y424109*
Y420500*
X3579500Y424109D02*
X3580750Y420500D01*
X3581250Y424109D02*
X3579500D01*
X3578125D02*
X3576750D01*
X3577500Y422734*
X3577125*
X3576875Y422563*
X3576750Y422391*
X3576625Y421875*
Y421531*
X3576750Y421016*
X3577000Y420672*
X3577375Y420500*
X3577750*
X3578125Y420672*
X3578250Y420844*
X3578375Y421188*
X3584625Y416750D02*
X3584750Y417094D01*
X3585000Y417438*
X3585250Y417609*
X3585750*
X3586000Y417438*
X3586250Y417094*
X3586375Y416750*
X3586500Y416234*
Y415375*
X3586375Y414859*
X3586250Y414516*
X3586000Y414172*
X3585750Y414000*
X3585250*
X3585000Y414172*
X3584750Y414516*
X3584625Y414859*
X3583500Y416922D02*
X3583250Y417094D01*
X3582875Y417609*
Y414000*
X3580000Y417609D02*
X3581250Y414000D01*
X3581750Y417609D02*
X3580000D01*
X3577625D02*
X3578875Y415203D01*
X3577000*
X3577625Y417609D02*
Y414000D01*
X3591750Y467125D02*
X3591406Y467250D01*
X3591062Y467500*
X3591062D02*
X3590891Y467750D01*
Y468250*
X3591062Y468500*
X3591062D02*
X3591406Y468750D01*
X3591750Y468875*
X3592266Y469000*
X3593125*
X3593641Y468875*
X3593984Y468750*
X3594328Y468500*
X3594500Y468250*
Y467750*
X3594328Y467500*
X3593984Y467250*
X3593641Y467125*
X3591578Y466000D02*
X3591406Y465750D01*
X3590891Y465375*
X3594500*
X3590891Y462500D02*
X3594500Y463750D01*
X3590891Y464250D02*
Y462500D01*
Y459750D02*
Y461000D01*
X3592437Y461125*
X3592437D02*
X3592266Y461000D01*
X3592094Y460625*
Y460250*
X3592266Y459875*
X3592609Y459625*
X3593125Y459500*
X3593469Y459625*
X3593984Y459750*
X3594328Y460000*
X3594500Y460375*
Y460750*
X3594328Y461125*
X3594156Y461250*
X3593812Y461375*
X3576250Y467125D02*
X3575906Y467250D01*
X3575562Y467500*
X3575562D02*
X3575391Y467750D01*
Y468250*
X3575562Y468500*
X3575562D02*
X3575906Y468750D01*
X3576250Y468875*
X3576766Y469000*
X3577625*
X3578141Y468875*
X3578484Y468750*
X3578828Y468500*
X3579000Y468250*
Y467750*
X3578828Y467500*
X3578484Y467250*
X3578141Y467125*
X3576078Y466000D02*
X3575906Y465750D01*
X3575391Y465375*
X3579000*
X3575391Y462500D02*
X3579000Y463750D01*
X3575391Y464250D02*
Y462500D01*
X3575906Y459875D02*
X3575562Y460000D01*
X3575562D02*
X3575391Y460375D01*
Y460625*
X3575562Y461000*
X3575562D02*
X3576078Y461250D01*
X3576937Y461375*
X3576937D02*
X3577797D01*
X3578484Y461250*
X3578828Y461000*
X3579000Y460625*
Y460500*
X3578828Y460125*
X3578484Y459875*
X3577969Y459750*
X3577797*
X3577281Y459875*
X3576937Y460125*
X3576937D02*
X3576766Y460500D01*
Y460625*
X3576937Y461000*
X3576937D02*
X3577281Y461250D01*
X3577797Y461375*
X3584250Y467125D02*
X3583906Y467250D01*
X3583562Y467500*
X3583562D02*
X3583391Y467750D01*
Y468250*
X3583562Y468500*
X3583562D02*
X3583906Y468750D01*
X3584250Y468875*
X3584766Y469000*
X3585625*
X3586141Y468875*
X3586484Y468750*
X3586828Y468500*
X3587000Y468250*
Y467750*
X3586828Y467500*
X3586484Y467250*
X3586141Y467125*
X3584078Y466000D02*
X3583906Y465750D01*
X3583391Y465375*
X3587000*
X3583391Y462500D02*
X3587000Y463750D01*
X3583391Y464250D02*
Y462500D01*
X3584594Y459750D02*
X3585109Y459875D01*
X3585453Y460125*
X3585625Y460500*
Y460625*
X3585453Y461000*
X3585109Y461250*
X3584594Y461375*
X3584422*
X3583906Y461250*
X3583562Y461000*
X3583562D02*
X3583391Y460625D01*
Y460500*
X3583562Y460125*
X3583562D02*
X3583906Y459875D01*
X3584594Y459750*
X3585453*
X3586312Y459875*
X3586312D02*
X3586828Y460125D01*
X3587000Y460500*
Y460750*
X3586828Y461125*
X3586484Y461250*
X3570625Y434750D02*
X3570750Y435094D01*
X3571000Y435438*
X3571250Y435609*
X3571750*
X3572000Y435438*
X3572250Y435094*
X3572375Y434750*
X3572500Y434234*
Y433375*
X3572375Y432859*
X3572250Y432516*
X3572000Y432172*
X3571750Y432000*
X3571250*
X3571000Y432172*
X3570750Y432516*
X3570625Y432859*
X3569500Y434922D02*
X3569250Y435094D01*
X3568875Y435609*
Y432000*
X3567125Y435609D02*
X3567500Y435438D01*
X3567625Y435094*
Y434750*
X3567500Y434406*
X3567250Y434234*
X3566750Y434063*
X3566375Y433891*
X3566125Y433547*
X3566000Y433203*
Y432688*
X3566125Y432344*
X3566250Y432172*
X3566625Y432000*
X3567125*
X3567500Y432172*
X3567625Y432344*
X3567750Y432688*
Y433203*
X3567625Y433547*
X3567375Y433891*
X3567000Y434063*
X3566500Y434234*
X3566250Y434406*
X3566125Y434750*
Y435094*
X3566250Y435438*
X3566625Y435609*
X3567125*
X3564125D02*
X3564500Y435438D01*
X3564750Y434922*
X3564875Y434063*
Y433547*
X3564750Y432688*
X3564500Y432172*
X3564125Y432000*
X3563875*
X3563500Y432172*
X3563250Y432688*
X3563125Y433547*
Y434063*
X3563250Y434922*
X3563500Y435438*
X3563875Y435609*
X3564125*
X3595750Y561625D02*
X3595406Y561750D01*
X3595063Y562000*
X3595063D02*
X3594891Y562250D01*
Y562750*
X3595063Y563000*
X3595063D02*
X3595406Y563250D01*
X3595750Y563375*
X3596266Y563500*
X3597125*
X3597641Y563375*
X3597984Y563250*
X3598328Y563000*
X3598500Y562750*
Y562250*
X3598328Y562000*
X3597984Y561750*
X3597641Y561625*
X3595578Y560500D02*
X3595406Y560250D01*
X3594891Y559875*
X3598500*
X3596094Y557125D02*
X3596609Y557250D01*
X3596953Y557500*
X3597125Y557875*
Y558000*
X3596953Y558375*
X3596609Y558625*
X3596094Y558750*
X3595922*
X3595406Y558625*
X3595063Y558375*
X3595063D02*
X3594891Y558000D01*
Y557875*
X3595063Y557500*
X3595063D02*
X3595406Y557250D01*
X3596094Y557125*
X3596953*
X3597813Y557250*
X3597813D02*
X3598328Y557500D01*
X3598500Y557875*
Y558125*
X3598328Y558500*
X3597984Y558625*
X3591750Y361625D02*
X3591406Y361750D01*
X3591062Y362000*
X3591062D02*
X3590891Y362250D01*
Y362750*
X3591062Y363000*
X3591062D02*
X3591406Y363250D01*
X3591750Y363375*
X3592266Y363500*
X3593125*
X3593641Y363375*
X3593984Y363250*
X3594328Y363000*
X3594500Y362750*
Y362250*
X3594328Y362000*
X3593984Y361750*
X3593641Y361625*
X3591578Y360500D02*
X3591406Y360250D01*
X3590891Y359875*
X3594500*
X3592094Y357125D02*
X3592609Y357250D01*
X3592953Y357500*
X3593125Y357875*
Y358000*
X3592953Y358375*
X3592609Y358625*
X3592094Y358750*
X3591922*
X3591406Y358625*
X3591062Y358375*
X3591062D02*
X3590891Y358000D01*
Y357875*
X3591062Y357500*
X3591062D02*
X3591406Y357250D01*
X3592094Y357125*
X3592953*
X3593812Y357250*
X3593812D02*
X3594328Y357500D01*
X3594500Y357875*
Y358125*
X3594328Y358500*
X3593984Y358625*
X3591578Y356000D02*
X3591406Y355750D01*
X3590891Y355375*
X3594500*
X3576750Y361125D02*
X3576406Y361250D01*
X3576062Y361500*
X3575891Y361750*
Y362250*
X3576062Y362500*
X3576406Y362750*
X3576750Y362875*
X3577266Y363000*
X3578125*
X3578641Y362875*
X3578984Y362750*
X3579328Y362500*
X3579500Y362250*
Y361750*
X3579328Y361500*
X3578984Y361250*
X3578641Y361125*
X3576578Y360000D02*
X3576406Y359750D01*
X3575891Y359375*
X3579500*
X3577094Y356625D02*
X3577609Y356750D01*
X3577953Y357000*
X3578125Y357375*
Y357500*
X3577953Y357875*
X3577609Y358125*
X3577094Y358250*
X3576922*
X3576406Y358125*
X3576062Y357875*
X3575891Y357500*
Y357375*
X3576062Y357000*
X3576406Y356750*
X3577094Y356625*
X3577953*
X3578812Y356750*
X3579328Y357000*
X3579500Y357375*
Y357625*
X3579328Y358000*
X3578984Y358125*
X3576750Y355375D02*
X3576578D01*
X3576234Y355250*
X3576062Y355125*
X3575891Y354875*
Y354375*
X3576062Y354125*
X3576234Y354000*
X3576578Y353875*
X3576922*
X3577266Y354000*
X3577781Y354250*
X3579500Y355500*
Y353750*
X3710750Y400625D02*
X3710406Y400750D01*
X3710062Y401000*
X3710062D02*
X3709891Y401250D01*
Y401750*
X3710062Y402000*
X3710062D02*
X3710406Y402250D01*
X3710750Y402375*
X3711266Y402500*
X3712125*
X3712641Y402375*
X3712984Y402250*
X3713328Y402000*
X3713500Y401750*
Y401250*
X3713328Y401000*
X3712984Y400750*
X3712641Y400625*
X3710578Y399500D02*
X3710406Y399250D01*
X3709891Y398875*
X3713500*
X3711094Y396125D02*
X3711609Y396250D01*
X3711953Y396500*
X3712125Y396875*
Y397000*
X3711953Y397375*
X3711609Y397625*
X3711094Y397750*
X3710922*
X3710406Y397625*
X3710062Y397375*
X3710062D02*
X3709891Y397000D01*
Y396875*
X3710062Y396500*
X3710062D02*
X3710406Y396250D01*
X3711094Y396125*
X3711953*
X3712812Y396250*
X3712812D02*
X3713328Y396500D01*
X3713500Y396875*
Y397125*
X3713328Y397500*
X3712984Y397625*
X3709891Y394750D02*
Y393375D01*
X3711266Y394125*
Y393750*
X3711437Y393500*
X3711437D02*
X3711609Y393375D01*
X3712125Y393250*
X3712469*
X3712984Y393375*
X3713328Y393625*
X3713500Y394000*
Y394375*
X3713328Y394750*
X3713156Y394875*
X3712812Y395000*
X3703625Y421750D02*
X3703750Y422094D01*
X3704000Y422437*
X3704000D02*
X3704250Y422609D01*
X3704750*
X3705000Y422437*
X3705000D02*
X3705250Y422094D01*
X3705375Y421750*
X3705500Y421234*
Y420375*
X3705375Y419859*
X3705250Y419516*
X3705000Y419172*
X3704750Y419000*
X3704250*
X3704000Y419172*
X3703750Y419516*
X3703625Y419859*
X3702500Y421922D02*
X3702250Y422094D01*
X3701875Y422609*
Y419000*
X3699125Y421406D02*
X3699250Y420891D01*
X3699500Y420547*
X3699875Y420375*
X3700000*
X3700375Y420547*
X3700625Y420891*
X3700750Y421406*
Y421578*
X3700625Y422094*
X3700375Y422437*
X3700375D02*
X3700000Y422609D01*
X3699875*
X3699500Y422437*
X3699500D02*
X3699250Y422094D01*
X3699125Y421406*
Y420547*
X3699250Y419687*
X3699250D02*
X3699500Y419172D01*
X3699875Y419000*
X3700125*
X3700500Y419172*
X3700625Y419516*
X3696375Y422609D02*
X3697625D01*
X3697750Y421062*
X3697750D02*
X3697625Y421234D01*
X3697250Y421406*
X3696875*
X3696500Y421234*
X3696250Y420891*
X3696125Y420375*
X3696250Y420031*
X3696375Y419516*
X3696625Y419172*
X3697000Y419000*
X3697375*
X3697750Y419172*
X3697875Y419344*
X3698000Y419687*
X3678250Y378625D02*
X3677906Y378750D01*
X3677562Y379000*
X3677562D02*
X3677391Y379250D01*
Y379750*
X3677562Y380000*
X3677562D02*
X3677906Y380250D01*
X3678250Y380375*
X3678766Y380500*
X3679625*
X3680141Y380375*
X3680484Y380250*
X3680828Y380000*
X3681000Y379750*
Y379250*
X3680828Y379000*
X3680484Y378750*
X3680141Y378625*
X3678078Y377500D02*
X3677906Y377250D01*
X3677391Y376875*
X3681000*
X3678594Y374125D02*
X3679109Y374250D01*
X3679453Y374500*
X3679625Y374875*
Y375000*
X3679453Y375375*
X3679109Y375625*
X3678594Y375750*
X3678422*
X3677906Y375625*
X3677562Y375375*
X3677562D02*
X3677391Y375000D01*
Y374875*
X3677562Y374500*
X3677562D02*
X3677906Y374250D01*
X3678594Y374125*
X3679453*
X3680312Y374250*
X3680312D02*
X3680828Y374500D01*
X3681000Y374875*
Y375125*
X3680828Y375500*
X3680484Y375625*
X3677906Y371500D02*
X3677562Y371625D01*
X3677562D02*
X3677391Y372000D01*
Y372250*
X3677562Y372625*
X3677562D02*
X3678078Y372875D01*
X3678937Y373000*
X3678937D02*
X3679797D01*
X3680484Y372875*
X3680828Y372625*
X3681000Y372250*
Y372125*
X3680828Y371750*
X3680484Y371500*
X3679969Y371375*
X3679797*
X3679281Y371500*
X3678937Y371750*
X3678937D02*
X3678766Y372125D01*
Y372250*
X3678937Y372625*
X3678937D02*
X3679281Y372875D01*
X3679797Y373000*
X3685250Y378625D02*
X3684906Y378750D01*
X3684562Y379000*
X3684562D02*
X3684391Y379250D01*
Y379750*
X3684562Y380000*
X3684562D02*
X3684906Y380250D01*
X3685250Y380375*
X3685766Y380500*
X3686625*
X3687141Y380375*
X3687484Y380250*
X3687828Y380000*
X3688000Y379750*
Y379250*
X3687828Y379000*
X3687484Y378750*
X3687141Y378625*
X3685078Y377500D02*
X3684906Y377250D01*
X3684391Y376875*
X3688000*
X3685594Y374125D02*
X3686109Y374250D01*
X3686453Y374500*
X3686625Y374875*
Y375000*
X3686453Y375375*
X3686109Y375625*
X3685594Y375750*
X3685422*
X3684906Y375625*
X3684562Y375375*
X3684562D02*
X3684391Y375000D01*
Y374875*
X3684562Y374500*
X3684562D02*
X3684906Y374250D01*
X3685594Y374125*
X3686453*
X3687312Y374250*
X3687312D02*
X3687828Y374500D01*
X3688000Y374875*
Y375125*
X3687828Y375500*
X3687484Y375625*
X3684391Y371250D02*
X3688000Y372500D01*
X3684391Y373000D02*
Y371250D01*
X3583750Y360625D02*
X3583406Y360750D01*
X3583062Y361000*
X3582891Y361250*
Y361750*
X3583062Y362000*
X3583406Y362250*
X3583750Y362375*
X3584266Y362500*
X3585125*
X3585641Y362375*
X3585984Y362250*
X3586328Y362000*
X3586500Y361750*
Y361250*
X3586328Y361000*
X3585984Y360750*
X3585641Y360625*
X3583578Y359500D02*
X3583406Y359250D01*
X3582891Y358875*
X3586500*
X3584094Y356125D02*
X3584609Y356250D01*
X3584953Y356500*
X3585125Y356875*
Y357000*
X3584953Y357375*
X3584609Y357625*
X3584094Y357750*
X3583922*
X3583406Y357625*
X3583062Y357375*
X3582891Y357000*
Y356875*
X3583062Y356500*
X3583406Y356250*
X3584094Y356125*
X3584953*
X3585812Y356250*
X3586328Y356500*
X3586500Y356875*
Y357125*
X3586328Y357500*
X3585984Y357625*
X3582891Y354375D02*
X3583062Y354750D01*
X3583406Y354875*
X3583750*
X3584094Y354750*
X3584266Y354500*
X3584437Y354000*
X3584609Y353625*
X3584953Y353375*
X3585297Y353250*
X3585812*
X3586156Y353375*
X3586328Y353500*
X3586500Y353875*
Y354375*
X3586328Y354750*
X3586156Y354875*
X3585812Y355000*
X3585297*
X3584953Y354875*
X3584609Y354625*
X3584437Y354250*
X3584266Y353750*
X3584094Y353500*
X3583750Y353375*
X3583406*
X3583062Y353500*
X3582891Y353875*
Y354375*
X3570625Y383250D02*
X3570750Y383594D01*
X3571000Y383938*
X3571250Y384109*
X3571750*
X3572000Y383938*
X3572250Y383594*
X3572375Y383250*
X3572500Y382734*
Y381875*
X3572375Y381359*
X3572250Y381016*
X3572000Y380672*
X3571750Y380500*
X3571250*
X3571000Y380672*
X3570750Y381016*
X3570625Y381359*
X3569500Y383422D02*
X3569250Y383594D01*
X3568875Y384109*
Y380500*
X3566125Y382906D02*
X3566250Y382391D01*
X3566500Y382047*
X3566875Y381875*
X3567000*
X3567375Y382047*
X3567625Y382391*
X3567750Y382906*
Y383078*
X3567625Y383594*
X3567375Y383938*
X3567000Y384109*
X3566875*
X3566500Y383938*
X3566250Y383594*
X3566125Y382906*
Y382047*
X3566250Y381188*
X3566500Y380672*
X3566875Y380500*
X3567125*
X3567500Y380672*
X3567625Y381016*
X3563375Y382906D02*
X3563500Y382391D01*
X3563750Y382047*
X3564125Y381875*
X3564250*
X3564625Y382047*
X3564875Y382391*
X3565000Y382906*
Y383078*
X3564875Y383594*
X3564625Y383938*
X3564250Y384109*
X3564125*
X3563750Y383938*
X3563500Y383594*
X3563375Y382906*
Y382047*
X3563500Y381188*
X3563750Y380672*
X3564125Y380500*
X3564375*
X3564750Y380672*
X3564875Y381016*
X3555250Y623125D02*
X3554906Y623250D01*
X3554563Y623500*
X3554563D02*
X3554391Y623750D01*
Y624250*
X3554563Y624500*
X3554563D02*
X3554906Y624750D01*
X3555250Y624875*
X3555766Y625000*
X3556625*
X3557141Y624875*
X3557484Y624750*
X3557828Y624500*
X3558000Y624250*
Y623750*
X3557828Y623500*
X3557484Y623250*
X3557141Y623125*
X3555250Y621875D02*
X3555078D01*
X3554734Y621750*
X3554563Y621625*
X3554563D02*
X3554391Y621375D01*
Y620875*
X3554563Y620625*
X3554563D02*
X3554734Y620500D01*
X3555078Y620375*
X3555422*
X3555766Y620500*
X3556281Y620750*
X3558000Y622000*
Y620250*
X3706250Y621875D02*
X3705906Y622000D01*
X3705562Y622250*
X3705562D02*
X3705391Y622500D01*
Y623000*
X3705562Y623250*
X3705562D02*
X3705906Y623500D01*
X3706250Y623625*
X3706766Y623750*
X3707625*
X3708141Y623625*
X3708484Y623500*
X3708828Y623250*
X3709000Y623000*
Y622500*
X3708828Y622250*
X3708484Y622000*
X3708141Y621875*
X3705391Y620500D02*
Y619125D01*
X3706766Y619875*
Y619500*
X3706937Y619250*
X3706937D02*
X3707109Y619125D01*
X3707625Y619000*
X3707969*
X3708484Y619125*
X3708828Y619375*
X3709000Y619750*
Y620125*
X3708828Y620500*
X3708656Y620625*
X3708312Y620750*
X3705391Y616125D02*
X3709000Y617375D01*
X3705391Y617875D02*
Y616125D01*
X3677250Y632625D02*
X3676906Y632750D01*
X3676562Y633000*
X3676562D02*
X3676391Y633250D01*
Y633750*
X3676562Y634000*
X3676562D02*
X3676906Y634250D01*
X3677250Y634375*
X3677766Y634500*
X3678625*
X3679141Y634375*
X3679484Y634250*
X3679828Y634000*
X3680000Y633750*
Y633250*
X3679828Y633000*
X3679484Y632750*
X3679141Y632625*
X3676391Y630250D02*
X3678797Y631500D01*
Y629625*
X3676391Y630250D02*
X3680000D01*
X3676391Y627750D02*
X3676562Y628125D01*
X3676562D02*
X3677078Y628375D01*
X3677937Y628500*
X3677937D02*
X3678453D01*
X3679312Y628375*
X3679312D02*
X3679828Y628125D01*
X3680000Y627750*
Y627500*
X3679828Y627125*
X3679312Y626875*
X3679312D02*
X3678453Y626750D01*
X3677937*
X3677937D02*
X3677078Y626875D01*
X3676562Y627125*
X3676562D02*
X3676391Y627500D01*
Y627750*
X3691750Y624625D02*
X3691406Y624750D01*
X3691062Y625000*
X3691062D02*
X3690891Y625250D01*
Y625750*
X3691062Y626000*
X3691062D02*
X3691406Y626250D01*
X3691750Y626375*
X3692266Y626500*
X3693125*
X3693641Y626375*
X3693984Y626250*
X3694328Y626000*
X3694500Y625750*
Y625250*
X3694328Y625000*
X3693984Y624750*
X3693641Y624625*
X3690891Y622250D02*
X3693297Y623500D01*
Y621625*
X3690891Y622250D02*
X3694500D01*
X3691750Y620375D02*
X3691578D01*
X3691234Y620250*
X3691062Y620125*
X3691062D02*
X3690891Y619875D01*
Y619375*
X3691062Y619125*
X3691062D02*
X3691234Y619000D01*
X3691578Y618875*
X3691922*
X3692266Y619000*
X3692781Y619250*
X3694500Y620500*
Y618750*
X3717250Y629625D02*
X3716906Y629750D01*
X3716562Y630000*
X3716562D02*
X3716391Y630250D01*
Y630750*
X3716562Y631000*
X3716562D02*
X3716906Y631250D01*
X3717250Y631375*
X3717766Y631500*
X3718625*
X3719141Y631375*
X3719484Y631250*
X3719828Y631000*
X3720000Y630750*
Y630250*
X3719828Y630000*
X3719484Y629750*
X3719141Y629625*
X3716391Y627250D02*
X3718797Y628500D01*
Y626625*
X3716391Y627250D02*
X3720000D01*
X3716391Y625250D02*
Y623875D01*
X3717766Y624625*
Y624250*
X3717937Y624000*
X3717937D02*
X3718109Y623875D01*
X3718625Y623750*
X3718969*
X3719484Y623875*
X3719828Y624125*
X3720000Y624500*
Y624875*
X3719828Y625250*
X3719656Y625375*
X3719312Y625500*
X3736000Y639125D02*
X3735656Y639250D01*
X3735312Y639500*
X3735312D02*
X3735141Y639750D01*
Y640250*
X3735312Y640500*
X3735312D02*
X3735656Y640750D01*
X3736000Y640875*
X3736516Y641000*
X3737375*
X3737891Y640875*
X3738234Y640750*
X3738578Y640500*
X3738750Y640250*
Y639750*
X3738578Y639500*
X3738234Y639250*
X3737891Y639125*
X3735141Y636750D02*
X3737547Y638000D01*
Y636125*
X3735141Y636750D02*
X3738750D01*
X3735141Y633750D02*
X3737547Y635000D01*
Y633125*
X3735141Y633750D02*
X3738750D01*
X3677250Y646125D02*
X3676906Y646250D01*
X3676563Y646500*
X3676563D02*
X3676391Y646750D01*
Y647250*
X3676563Y647500*
X3676563D02*
X3676906Y647750D01*
X3677250Y647875*
X3677766Y648000*
X3678625*
X3679141Y647875*
X3679484Y647750*
X3679828Y647500*
X3680000Y647250*
Y646750*
X3679828Y646500*
X3679484Y646250*
X3679141Y646125*
X3676391Y643750D02*
X3678797Y645000D01*
Y643125*
X3676391Y643750D02*
X3680000D01*
X3676391Y640375D02*
Y641625D01*
X3677938Y641750*
X3677938D02*
X3677766Y641625D01*
X3677594Y641250*
Y640875*
X3677766Y640500*
X3678109Y640250*
X3678625Y640125*
X3678969Y640250*
X3679484Y640375*
X3679828Y640625*
X3680000Y641000*
Y641375*
X3679828Y641750*
X3679656Y641875*
X3679313Y642000*
X3691250Y665625D02*
X3690906Y665750D01*
X3690563Y666000*
X3690563D02*
X3690391Y666250D01*
Y666750*
X3690563Y667000*
X3690563D02*
X3690906Y667250D01*
X3691250Y667375*
X3691766Y667500*
X3692625*
X3693141Y667375*
X3693484Y667250*
X3693828Y667000*
X3694000Y666750*
Y666250*
X3693828Y666000*
X3693484Y665750*
X3693141Y665625*
X3690391Y663250D02*
X3692797Y664500D01*
Y662625*
X3690391Y663250D02*
X3694000D01*
X3690906Y660000D02*
X3690563Y660125D01*
X3690563D02*
X3690391Y660500D01*
Y660750*
X3690563Y661125*
X3690563D02*
X3691078Y661375D01*
X3691938Y661500*
X3691938D02*
X3692797D01*
X3693484Y661375*
X3693828Y661125*
X3694000Y660750*
Y660625*
X3693828Y660250*
X3693484Y660000*
X3692969Y659875*
X3692797*
X3692281Y660000*
X3691938Y660250*
X3691938D02*
X3691766Y660625D01*
Y660750*
X3691938Y661125*
X3691938D02*
X3692281Y661375D01*
X3692797Y661500*
X3721750Y669125D02*
X3721406Y669250D01*
X3721062Y669500*
X3721062D02*
X3720891Y669750D01*
Y670250*
X3721062Y670500*
X3721062D02*
X3721406Y670750D01*
X3721750Y670875*
X3722266Y671000*
X3723125*
X3723641Y670875*
X3723984Y670750*
X3724328Y670500*
X3724500Y670250*
Y669750*
X3724328Y669500*
X3723984Y669250*
X3723641Y669125*
X3720891Y666750D02*
X3723297Y668000D01*
Y666125*
X3720891Y666750D02*
X3724500D01*
X3720891Y664375D02*
X3721062Y664750D01*
X3721062D02*
X3721406Y664875D01*
X3721750*
X3722094Y664750*
X3722266Y664500*
X3722437Y664000*
X3722437D02*
X3722609Y663625D01*
X3722953Y663375*
X3723297Y663250*
X3723812*
X3723812D02*
X3724156Y663375D01*
X3724328Y663500*
X3724500Y663875*
Y664375*
X3724328Y664750*
X3724156Y664875*
X3723812Y665000*
X3723812D02*
X3723297D01*
X3722953Y664875*
X3722609Y664625*
X3722437Y664250*
X3722437D02*
X3722266Y663750D01*
X3722094Y663500*
X3721750Y663375*
X3721406*
X3721062Y663500*
X3721062D02*
X3720891Y663875D01*
Y664375*
X3677250Y659625D02*
X3676906Y659750D01*
X3676563Y660000*
X3676563D02*
X3676391Y660250D01*
Y660750*
X3676563Y661000*
X3676563D02*
X3676906Y661250D01*
X3677250Y661375*
X3677766Y661500*
X3678625*
X3679141Y661375*
X3679484Y661250*
X3679828Y661000*
X3680000Y660750*
Y660250*
X3679828Y660000*
X3679484Y659750*
X3679141Y659625*
X3676391Y656875D02*
Y658125D01*
X3677938Y658250*
X3677938D02*
X3677766Y658125D01*
X3677594Y657750*
Y657375*
X3677766Y657000*
X3678109Y656750*
X3678625Y656625*
X3678969Y656750*
X3679484Y656875*
X3679828Y657125*
X3680000Y657500*
Y657875*
X3679828Y658250*
X3679656Y658375*
X3679313Y658500*
X3676391Y654875D02*
X3676563Y655250D01*
X3676563D02*
X3676906Y655375D01*
X3677250*
X3677594Y655250*
X3677766Y655000*
X3677938Y654500*
X3677938D02*
X3678109Y654125D01*
X3678453Y653875*
X3678797Y653750*
X3679313*
X3679313D02*
X3679656Y653875D01*
X3679828Y654000*
X3680000Y654375*
Y654875*
X3679828Y655250*
X3679656Y655375*
X3679313Y655500*
X3679313D02*
X3678797D01*
X3678453Y655375*
X3678109Y655125*
X3677938Y654750*
X3677938D02*
X3677766Y654250D01*
X3677594Y654000*
X3677250Y653875*
X3676906*
X3676563Y654000*
X3676563D02*
X3676391Y654375D01*
Y654875*
X3566250Y290625D02*
X3565906Y290750D01*
X3565562Y291000*
X3565562D02*
X3565391Y291250D01*
Y291750*
X3565562Y292000*
X3565562D02*
X3565906Y292250D01*
X3566250Y292375*
X3566766Y292500*
X3567625*
X3568141Y292375*
X3568484Y292250*
X3568828Y292000*
X3569000Y291750*
Y291250*
X3568828Y291000*
X3568484Y290750*
X3568141Y290625*
X3565906Y288000D02*
X3565562Y288125D01*
X3565562D02*
X3565391Y288500D01*
Y288750*
X3565562Y289125*
X3565562D02*
X3566078Y289375D01*
X3566937Y289500*
X3566937D02*
X3567797D01*
X3568484Y289375*
X3568828Y289125*
X3569000Y288750*
Y288625*
X3568828Y288250*
X3568484Y288000*
X3567969Y287875*
X3567797*
X3567281Y288000*
X3566937Y288250*
X3566937D02*
X3566766Y288625D01*
Y288750*
X3566937Y289125*
X3566937D02*
X3567281Y289375D01*
X3567797Y289500*
X3701250Y673125D02*
X3700906Y673250D01*
X3700562Y673500*
X3700562D02*
X3700391Y673750D01*
Y674250*
X3700562Y674500*
X3700562D02*
X3700906Y674750D01*
X3701250Y674875*
X3701766Y675000*
X3702625*
X3703141Y674875*
X3703484Y674750*
X3703828Y674500*
X3704000Y674250*
Y673750*
X3703828Y673500*
X3703484Y673250*
X3703141Y673125*
X3700906Y670500D02*
X3700562Y670625D01*
X3700562D02*
X3700391Y671000D01*
Y671250*
X3700562Y671625*
X3700562D02*
X3701078Y671875D01*
X3701937Y672000*
X3701937D02*
X3702797D01*
X3703484Y671875*
X3703828Y671625*
X3704000Y671250*
Y671125*
X3703828Y670750*
X3703484Y670500*
X3702969Y670375*
X3702797*
X3702281Y670500*
X3701937Y670750*
X3701937D02*
X3701766Y671125D01*
Y671250*
X3701937Y671625*
X3701937D02*
X3702281Y671875D01*
X3702797Y672000*
X3700391Y668500D02*
X3700562Y668875D01*
X3700562D02*
X3701078Y669125D01*
X3701937Y669250*
X3701937D02*
X3702453D01*
X3703312Y669125*
X3703312D02*
X3703828Y668875D01*
X3704000Y668500*
Y668250*
X3703828Y667875*
X3703312Y667625*
X3703312D02*
X3702453Y667500D01*
X3701937*
X3701937D02*
X3701078Y667625D01*
X3700562Y667875*
X3700562D02*
X3700391Y668250D01*
Y668500*
X3722712Y455481D02*
X3722369Y455606D01*
X3722025Y455856*
X3721853Y456106*
Y456606*
X3722025Y456856*
X3722369Y457106*
X3722712Y457231*
X3723228Y457356*
X3724087*
X3724603Y457231*
X3724947Y457106*
X3725291Y456856*
X3725462Y456606*
Y456106*
X3725291Y455856*
X3724947Y455606*
X3724603Y455481*
X3722369Y452856D02*
X3722025Y452981D01*
X3721853Y453356*
Y453606*
X3722025Y453981*
X3722541Y454231*
X3723400Y454356*
X3724259*
X3724947Y454231*
X3725291Y453981*
X3725462Y453606*
Y453481*
X3725291Y453106*
X3724947Y452856*
X3724431Y452731*
X3724259*
X3723744Y452856*
X3723400Y453106*
X3723228Y453481*
Y453606*
X3723400Y453981*
X3723744Y454231*
X3724259Y454356*
X3722369Y450106D02*
X3722025Y450231D01*
X3721853Y450606*
Y450856*
X3722025Y451231*
X3722541Y451481*
X3723400Y451606*
X3724259*
X3724947Y451481*
X3725291Y451231*
X3725462Y450856*
Y450731*
X3725291Y450356*
X3724947Y450106*
X3724431Y449981*
X3724259*
X3723744Y450106*
X3723400Y450356*
X3723228Y450731*
Y450856*
X3723400Y451231*
X3723744Y451481*
X3724259Y451606*
X3629250Y543625D02*
X3628906Y543750D01*
X3628563Y544000*
X3628563D02*
X3628391Y544250D01*
Y544750*
X3628563Y545000*
X3628563D02*
X3628906Y545250D01*
X3629250Y545375*
X3629766Y545500*
X3630625*
X3631141Y545375*
X3631484Y545250*
X3631828Y545000*
X3632000Y544750*
Y544250*
X3631828Y544000*
X3631484Y543750*
X3631141Y543625*
X3628391Y540750D02*
X3632000Y542000D01*
X3628391Y542500D02*
Y540750D01*
Y539000D02*
X3628563Y539375D01*
X3628563D02*
X3628906Y539500D01*
X3629250*
X3629594Y539375*
X3629766Y539125*
X3629938Y538625*
X3629938D02*
X3630109Y538250D01*
X3630453Y538000*
X3630797Y537875*
X3631313*
X3631313D02*
X3631656Y538000D01*
X3631828Y538125*
X3632000Y538500*
Y539000*
X3631828Y539375*
X3631656Y539500*
X3631313Y539625*
X3631313D02*
X3630797D01*
X3630453Y539500*
X3630109Y539250*
X3629938Y538875*
X3629938D02*
X3629766Y538375D01*
X3629594Y538125*
X3629250Y538000*
X3628906*
X3628563Y538125*
X3628563D02*
X3628391Y538500D01*
Y539000*
X3585250Y314375D02*
X3584906Y314500D01*
X3584562Y314750*
X3584562D02*
X3584391Y315000D01*
Y315500*
X3584562Y315750*
X3584562D02*
X3584906Y316000D01*
X3585250Y316125*
X3585766Y316250*
X3586625*
X3587141Y316125*
X3587484Y316000*
X3587828Y315750*
X3588000Y315500*
Y315000*
X3587828Y314750*
X3587484Y314500*
X3587141Y314375*
X3584391Y312625D02*
X3584562Y313000D01*
X3584562D02*
X3584906Y313125D01*
X3585250*
X3585594Y313000*
X3585766Y312750*
X3585937Y312250*
X3585937D02*
X3586109Y311875D01*
X3586453Y311625*
X3586797Y311500*
X3587312*
X3587312D02*
X3587656Y311625D01*
X3587828Y311750*
X3588000Y312125*
Y312625*
X3587828Y313000*
X3587656Y313125*
X3587312Y313250*
X3587312D02*
X3586797D01*
X3586453Y313125*
X3586109Y312875*
X3585937Y312500*
X3585937D02*
X3585766Y312000D01*
X3585594Y311750*
X3585250Y311625*
X3584906*
X3584562Y311750*
X3584562D02*
X3584391Y312125D01*
Y312625*
X3620625Y494250D02*
X3620750Y494594D01*
X3621000Y494938*
X3621000D02*
X3621250Y495109D01*
X3621750*
X3622000Y494938*
X3622000D02*
X3622250Y494594D01*
X3622375Y494250*
X3622500Y493734*
Y492875*
X3622375Y492359*
X3622250Y492016*
X3622000Y491672*
X3621750Y491500*
X3621250*
X3621000Y491672*
X3620750Y492016*
X3620625Y492359*
X3618875Y495109D02*
X3619250Y494938D01*
X3619250D02*
X3619375Y494594D01*
Y494250*
X3619250Y493906*
X3619000Y493734*
X3618500Y493563*
X3618500D02*
X3618125Y493391D01*
X3617875Y493047*
X3617750Y492703*
Y492188*
X3617750D02*
X3617875Y491844D01*
X3618000Y491672*
X3618375Y491500*
X3618875*
X3619250Y491672*
X3619375Y491844*
X3619500Y492188*
X3619500D02*
Y492703D01*
X3619375Y493047*
X3619125Y493391*
X3618750Y493563*
X3618750D02*
X3618250Y493734D01*
X3618000Y493906*
X3617875Y494250*
Y494594*
X3618000Y494938*
X3618000D02*
X3618375Y495109D01*
X3618875*
X3614875D02*
X3616125Y491500D01*
X3616625Y495109D02*
X3614875D01*
X3714750Y539625D02*
X3714406Y539750D01*
X3714062Y540000*
X3714062D02*
X3713891Y540250D01*
Y540750*
X3714062Y541000*
X3714062D02*
X3714406Y541250D01*
X3714750Y541375*
X3715266Y541500*
X3716125*
X3716641Y541375*
X3716984Y541250*
X3717328Y541000*
X3717500Y540750*
Y540250*
X3717328Y540000*
X3716984Y539750*
X3716641Y539625*
X3713891Y537875D02*
X3714062Y538250D01*
X3714062D02*
X3714406Y538375D01*
X3714750*
X3715094Y538250*
X3715266Y538000*
X3715437Y537500*
X3715437D02*
X3715609Y537125D01*
X3715953Y536875*
X3716297Y536750*
X3716812*
X3716812D02*
X3717156Y536875D01*
X3717328Y537000*
X3717500Y537375*
Y537875*
X3717328Y538250*
X3717156Y538375*
X3716812Y538500*
X3716812D02*
X3716297D01*
X3715953Y538375*
X3715609Y538125*
X3715437Y537750*
X3715437D02*
X3715266Y537250D01*
X3715094Y537000*
X3714750Y536875*
X3714406*
X3714062Y537000*
X3714062D02*
X3713891Y537375D01*
Y537875*
Y535000D02*
X3714062Y535375D01*
X3714062D02*
X3714406Y535500D01*
X3714750*
X3715094Y535375*
X3715266Y535125*
X3715437Y534625*
X3715437D02*
X3715609Y534250D01*
X3715953Y534000*
X3716297Y533875*
X3716812*
X3716812D02*
X3717156Y534000D01*
X3717328Y534125*
X3717500Y534500*
Y535000*
X3717328Y535375*
X3717156Y535500*
X3716812Y535625*
X3716812D02*
X3716297D01*
X3715953Y535500*
X3715609Y535250*
X3715437Y534875*
X3715437D02*
X3715266Y534375D01*
X3715094Y534125*
X3714750Y534000*
X3714406*
X3714062Y534125*
X3714062D02*
X3713891Y534500D01*
Y535000*
X3729750Y519125D02*
X3729406Y519250D01*
X3729062Y519500*
X3729062D02*
X3728891Y519750D01*
Y520250*
X3729062Y520500*
X3729062D02*
X3729406Y520750D01*
X3729750Y520875*
X3730266Y521000*
X3731125*
X3731641Y520875*
X3731984Y520750*
X3732328Y520500*
X3732500Y520250*
Y519750*
X3732328Y519500*
X3731984Y519250*
X3731641Y519125*
X3728891Y517375D02*
X3729062Y517750D01*
X3729062D02*
X3729406Y517875D01*
X3729750*
X3730094Y517750*
X3730266Y517500*
X3730437Y517000*
X3730437D02*
X3730609Y516625D01*
X3730953Y516375*
X3731297Y516250*
X3731812*
X3731812D02*
X3732156Y516375D01*
X3732328Y516500*
X3732500Y516875*
Y517375*
X3732328Y517750*
X3732156Y517875*
X3731812Y518000*
X3731812D02*
X3731297D01*
X3730953Y517875*
X3730609Y517625*
X3730437Y517250*
X3730437D02*
X3730266Y516750D01*
X3730094Y516500*
X3729750Y516375*
X3729406*
X3729062Y516500*
X3729062D02*
X3728891Y516875D01*
Y517375*
X3730094Y513500D02*
X3730609Y513625D01*
X3730953Y513875*
X3731125Y514250*
Y514375*
X3730953Y514750*
X3730609Y515000*
X3730094Y515125*
X3729922*
X3729406Y515000*
X3729062Y514750*
X3729062D02*
X3728891Y514375D01*
Y514250*
X3729062Y513875*
X3729062D02*
X3729406Y513625D01*
X3730094Y513500*
X3730953*
X3731812Y513625*
X3731812D02*
X3732328Y513875D01*
X3732500Y514250*
Y514500*
X3732328Y514875*
X3731984Y515000*
X3547750Y314125D02*
X3547406Y314250D01*
X3547062Y314500*
X3547062D02*
X3546891Y314750D01*
Y315250*
X3547062Y315500*
X3547062D02*
X3547406Y315750D01*
X3547750Y315875*
X3548266Y316000*
X3549125*
X3549641Y315875*
X3549984Y315750*
X3550328Y315500*
X3550500Y315250*
Y314750*
X3550328Y314500*
X3549984Y314250*
X3549641Y314125*
X3548094Y311375D02*
X3548609Y311500D01*
X3548953Y311750*
X3549125Y312125*
Y312250*
X3548953Y312625*
X3548609Y312875*
X3548094Y313000*
X3547922*
X3547406Y312875*
X3547062Y312625*
X3547062D02*
X3546891Y312250D01*
Y312125*
X3547062Y311750*
X3547062D02*
X3547406Y311500D01*
X3548094Y311375*
X3548953*
X3549812Y311500*
X3549812D02*
X3550328Y311750D01*
X3550500Y312125*
Y312375*
X3550328Y312750*
X3549984Y312875*
X3710750Y519625D02*
X3710406Y519750D01*
X3710062Y520000*
X3710062D02*
X3709891Y520250D01*
Y520750*
X3710062Y521000*
X3710062D02*
X3710406Y521250D01*
X3710750Y521375*
X3711266Y521500*
X3712125*
X3712641Y521375*
X3712984Y521250*
X3713328Y521000*
X3713500Y520750*
Y520250*
X3713328Y520000*
X3712984Y519750*
X3712641Y519625*
X3711094Y516875D02*
X3711609Y517000D01*
X3711953Y517250*
X3712125Y517625*
Y517750*
X3711953Y518125*
X3711609Y518375*
X3711094Y518500*
X3710922*
X3710406Y518375*
X3710062Y518125*
X3710062D02*
X3709891Y517750D01*
Y517625*
X3710062Y517250*
X3710062D02*
X3710406Y517000D01*
X3711094Y516875*
X3711953*
X3712812Y517000*
X3712812D02*
X3713328Y517250D01*
X3713500Y517625*
Y517875*
X3713328Y518250*
X3712984Y518375*
X3709891Y515000D02*
X3710062Y515375D01*
X3710062D02*
X3710578Y515625D01*
X3711437Y515750*
X3711437D02*
X3711953D01*
X3712812Y515625*
X3712812D02*
X3713328Y515375D01*
X3713500Y515000*
Y514750*
X3713328Y514375*
X3712812Y514125*
X3712812D02*
X3711953Y514000D01*
X3711437*
X3711437D02*
X3710578Y514125D01*
X3710062Y514375*
X3710062D02*
X3709891Y514750D01*
Y515000*
X3710750Y503625D02*
X3710406Y503750D01*
X3710062Y504000*
X3710062D02*
X3709891Y504250D01*
Y504750*
X3710062Y505000*
X3710062D02*
X3710406Y505250D01*
X3710750Y505375*
X3711266Y505500*
X3712125*
X3712641Y505375*
X3712984Y505250*
X3713328Y505000*
X3713500Y504750*
Y504250*
X3713328Y504000*
X3712984Y503750*
X3712641Y503625*
X3711094Y500875D02*
X3711609Y501000D01*
X3711953Y501250*
X3712125Y501625*
Y501750*
X3711953Y502125*
X3711609Y502375*
X3711094Y502500*
X3710922*
X3710406Y502375*
X3710062Y502125*
X3710062D02*
X3709891Y501750D01*
Y501625*
X3710062Y501250*
X3710062D02*
X3710406Y501000D01*
X3711094Y500875*
X3711953*
X3712812Y501000*
X3712812D02*
X3713328Y501250D01*
X3713500Y501625*
Y501875*
X3713328Y502250*
X3712984Y502375*
X3709891Y498500D02*
X3712297Y499750D01*
Y497875*
X3709891Y498500D02*
X3713500D01*
X3729750Y504125D02*
X3729406Y504250D01*
X3729062Y504500*
X3729062D02*
X3728891Y504750D01*
Y505250*
X3729062Y505500*
X3729062D02*
X3729406Y505750D01*
X3729750Y505875*
X3730266Y506000*
X3731125*
X3731641Y505875*
X3731984Y505750*
X3732328Y505500*
X3732500Y505250*
Y504750*
X3732328Y504500*
X3731984Y504250*
X3731641Y504125*
X3730094Y501375D02*
X3730609Y501500D01*
X3730953Y501750*
X3731125Y502125*
Y502250*
X3730953Y502625*
X3730609Y502875*
X3730094Y503000*
X3729922*
X3729406Y502875*
X3729062Y502625*
X3729062D02*
X3728891Y502250D01*
Y502125*
X3729062Y501750*
X3729062D02*
X3729406Y501500D01*
X3730094Y501375*
X3730953*
X3731812Y501500*
X3731812D02*
X3732328Y501750D01*
X3732500Y502125*
Y502375*
X3732328Y502750*
X3731984Y502875*
X3728891Y498625D02*
Y499875D01*
X3730437Y500000*
X3730437D02*
X3730266Y499875D01*
X3730094Y499500*
Y499125*
X3730266Y498750*
X3730609Y498500*
X3731125Y498375*
X3731469Y498500*
X3731984Y498625*
X3732328Y498875*
X3732500Y499250*
Y499625*
X3732328Y500000*
X3732156Y500125*
X3731812Y500250*
X3605250Y501625D02*
X3604906Y501750D01*
X3604562Y502000*
X3604562D02*
X3604391Y502250D01*
Y502750*
X3604562Y503000*
X3604562D02*
X3604906Y503250D01*
X3605250Y503375*
X3605766Y503500*
X3606625*
X3607141Y503375*
X3607484Y503250*
X3607828Y503000*
X3608000Y502750*
Y502250*
X3607828Y502000*
X3607484Y501750*
X3607141Y501625*
X3605594Y498875D02*
X3606109Y499000D01*
X3606453Y499250*
X3606625Y499625*
Y499750*
X3606453Y500125*
X3606109Y500375*
X3605594Y500500*
X3605422*
X3604906Y500375*
X3604562Y500125*
X3604562D02*
X3604391Y499750D01*
Y499625*
X3604562Y499250*
X3604562D02*
X3604906Y499000D01*
X3605594Y498875*
X3606453*
X3607312Y499000*
X3607312D02*
X3607828Y499250D01*
X3608000Y499625*
Y499875*
X3607828Y500250*
X3607484Y500375*
X3605594Y496125D02*
X3606109Y496250D01*
X3606453Y496500*
X3606625Y496875*
Y497000*
X3606453Y497375*
X3606109Y497625*
X3605594Y497750*
X3605422*
X3604906Y497625*
X3604562Y497375*
X3604562D02*
X3604391Y497000D01*
Y496875*
X3604562Y496500*
X3604562D02*
X3604906Y496250D01*
X3605594Y496125*
X3606453*
X3607312Y496250*
X3607312D02*
X3607828Y496500D01*
X3608000Y496875*
Y497125*
X3607828Y497500*
X3607484Y497625*
X3578391Y635000D02*
X3582000D01*
X3578391D02*
Y633875D01*
X3578562Y633500*
X3578562D02*
X3578734Y633375D01*
X3579078Y633250*
X3579422*
X3579766Y633375*
X3579937Y633500*
X3579937D02*
X3580109Y633875D01*
Y635000*
Y634125D02*
X3582000Y633250D01*
X3579078Y632125D02*
X3578906Y631875D01*
X3578391Y631500*
X3582000*
X3636891Y376000D02*
X3640500D01*
X3636891D02*
Y374875D01*
X3637062Y374500*
X3637062D02*
X3637234Y374375D01*
X3637578Y374250*
X3637922*
X3638266Y374375*
X3638437Y374500*
X3638437D02*
X3638609Y374875D01*
Y376000*
Y375125D02*
X3640500Y374250D01*
X3637578Y373125D02*
X3637406Y372875D01*
X3636891Y372500*
X3640500*
X3636891Y370625D02*
X3637062Y371000D01*
X3637062D02*
X3637578Y371250D01*
X3638437Y371375*
X3638437D02*
X3638953D01*
X3639812Y371250*
X3639812D02*
X3640328Y371000D01*
X3640500Y370625*
Y370375*
X3640328Y370000*
X3639812Y369750*
X3639812D02*
X3638953Y369625D01*
X3638437*
X3638437D02*
X3637578Y369750D01*
X3637062Y370000*
X3637062D02*
X3636891Y370375D01*
Y370625*
X3644391Y375500D02*
X3648000D01*
X3644391D02*
Y374375D01*
X3644562Y374000*
X3644562D02*
X3644734Y373875D01*
X3645078Y373750*
X3645422*
X3645766Y373875*
X3645937Y374000*
X3645937D02*
X3646109Y374375D01*
Y375500*
Y374625D02*
X3648000Y373750D01*
X3645078Y372625D02*
X3644906Y372375D01*
X3644391Y372000*
X3648000*
X3645078Y370875D02*
X3644906Y370625D01*
X3644391Y370250*
X3648000*
X3629391Y376000D02*
X3633000D01*
X3629391D02*
Y374875D01*
X3629562Y374500*
X3629562D02*
X3629734Y374375D01*
X3630078Y374250*
X3630422*
X3630766Y374375*
X3630937Y374500*
X3630937D02*
X3631109Y374875D01*
Y376000*
Y375125D02*
X3633000Y374250D01*
X3630078Y373125D02*
X3629906Y372875D01*
X3629391Y372500*
X3633000*
X3630250Y371250D02*
X3630078D01*
X3629734Y371125*
X3629562Y371000*
X3629562D02*
X3629391Y370750D01*
Y370250*
X3629562Y370000*
X3629562D02*
X3629734Y369875D01*
X3630078Y369750*
X3630422*
X3630766Y369875*
X3631281Y370125*
X3633000Y371375*
Y369625*
X3601500Y721109D02*
Y717500D01*
Y721109D02*
X3600375D01*
X3600000Y720938*
X3599875Y720766*
X3599750Y720422*
Y720078*
X3599875Y719734*
X3600000Y719563*
X3600375Y719391*
X3601500*
X3600625D02*
X3599750Y717500D01*
X3598625Y720422D02*
X3598375Y720594D01*
X3598000Y721109*
Y717500*
X3596625Y721109D02*
X3595250D01*
X3596000Y719734*
X3595625*
X3595375Y719563*
X3595250Y719391*
X3595125Y718875*
Y718531*
X3595250Y718016*
X3595500Y717672*
X3595875Y717500*
X3596250*
X3596625Y717672*
X3596750Y717844*
X3596875Y718188*
X3601500Y728109D02*
Y724500D01*
Y728109D02*
X3600375D01*
X3600000Y727938*
X3599875Y727766*
X3599750Y727422*
Y727078*
X3599875Y726734*
X3600000Y726563*
X3600375Y726391*
X3601500*
X3600625D02*
X3599750Y724500D01*
X3598625Y727422D02*
X3598375Y727594D01*
X3598000Y728109*
Y724500*
X3595625Y728109D02*
X3596875Y725703D01*
X3595000*
X3595625Y728109D02*
Y724500D01*
X3601500Y743109D02*
Y739500D01*
Y743109D02*
X3600375D01*
X3600000Y742938*
X3599875Y742766*
X3599750Y742422*
Y742078*
X3599875Y741734*
X3600000Y741563*
X3600375Y741391*
X3601500*
X3600625D02*
X3599750Y739500D01*
X3598625Y742422D02*
X3598375Y742594D01*
X3598000Y743109*
Y739500*
X3595250Y743109D02*
X3596500D01*
X3596625Y741563*
X3596500Y741734*
X3596125Y741906*
X3595750*
X3595375Y741734*
X3595125Y741391*
X3595000Y740875*
X3595125Y740531*
X3595250Y740016*
X3595500Y739672*
X3595875Y739500*
X3596250*
X3596625Y739672*
X3596750Y739844*
X3596875Y740188*
X3601500Y735609D02*
Y732000D01*
Y735609D02*
X3600375D01*
X3600000Y735438*
X3599875Y735266*
X3599750Y734922*
Y734578*
X3599875Y734234*
X3600000Y734063*
X3600375Y733891*
X3601500*
X3600625D02*
X3599750Y732000D01*
X3598625Y734922D02*
X3598375Y735094D01*
X3598000Y735609*
Y732000*
X3595375Y735094D02*
X3595500Y735438D01*
X3595875Y735609*
X3596125*
X3596500Y735438*
X3596750Y734922*
X3596875Y734063*
Y733203*
X3596750Y732516*
X3596500Y732172*
X3596125Y732000*
X3596000*
X3595625Y732172*
X3595375Y732516*
X3595250Y733031*
Y733203*
X3595375Y733719*
X3595625Y734063*
X3596000Y734234*
X3596125*
X3596500Y734063*
X3596750Y733719*
X3596875Y733203*
X3641500Y721609D02*
Y718000D01*
Y721609D02*
X3640375D01*
X3640000Y721438*
X3640000D02*
X3639875Y721266D01*
X3639750Y720922*
Y720578*
X3639875Y720234*
X3640000Y720063*
X3640000D02*
X3640375Y719891D01*
X3641500*
X3640625D02*
X3639750Y718000D01*
X3638625Y720922D02*
X3638375Y721094D01*
X3638000Y721609*
Y718000*
X3635250Y720406D02*
X3635375Y719891D01*
X3635625Y719547*
X3636000Y719375*
X3636125*
X3636500Y719547*
X3636750Y719891*
X3636875Y720406*
Y720578*
X3636750Y721094*
X3636500Y721438*
X3636500D02*
X3636125Y721609D01*
X3636000*
X3635625Y721438*
X3635625D02*
X3635375Y721094D01*
X3635250Y720406*
Y719547*
X3635375Y718688*
X3635375D02*
X3635625Y718172D01*
X3636000Y718000*
X3636250*
X3636625Y718172*
X3636750Y718516*
X3586467Y635382D02*
X3590076D01*
X3586467D02*
Y634257D01*
X3586639Y633882*
X3586810Y633757*
X3587154Y633632*
X3587498*
X3587842Y633757*
X3588014Y633882*
X3588185Y634257*
Y635382*
Y634507D02*
X3590076Y633632D01*
X3587326Y632382D02*
X3587154D01*
X3586810Y632257*
X3586639Y632132*
X3586467Y631882*
Y631382*
X3586639Y631132*
X3586810Y631007*
X3587154Y630882*
X3587498*
X3587842Y631007*
X3588357Y631257*
X3590076Y632507*
Y630757*
X3641500Y728609D02*
Y725000D01*
Y728609D02*
X3640375D01*
X3640000Y728438*
X3640000D02*
X3639875Y728266D01*
X3639750Y727922*
Y727578*
X3639875Y727234*
X3640000Y727063*
X3640000D02*
X3640375Y726891D01*
X3641500*
X3640625D02*
X3639750Y725000D01*
X3638500Y727750D02*
Y727922D01*
X3638375Y728266*
X3638250Y728438*
X3638250D02*
X3638000Y728609D01*
X3637500*
X3637250Y728438*
X3637250D02*
X3637125Y728266D01*
X3637000Y727922*
Y727578*
X3637125Y727234*
X3637375Y726719*
X3638625Y725000*
X3636875*
X3635000Y728609D02*
X3635375Y728438D01*
X3635375D02*
X3635625Y727922D01*
X3635750Y727063*
X3635750D02*
Y726547D01*
X3635625Y725688*
X3635625D02*
X3635375Y725172D01*
X3635000Y725000*
X3634750*
X3634375Y725172*
X3634125Y725688*
X3634125D02*
X3634000Y726547D01*
Y727063*
X3634000D02*
X3634125Y727922D01*
X3634375Y728438*
X3634375D02*
X3634750Y728609D01*
X3635000*
X3641500Y743609D02*
Y740000D01*
Y743609D02*
X3640375D01*
X3640000Y743438*
X3640000D02*
X3639875Y743266D01*
X3639750Y742922*
Y742578*
X3639875Y742234*
X3640000Y742063*
X3640000D02*
X3640375Y741891D01*
X3641500*
X3640625D02*
X3639750Y740000D01*
X3638500Y742750D02*
Y742922D01*
X3638375Y743266*
X3638250Y743438*
X3638250D02*
X3638000Y743609D01*
X3637500*
X3637250Y743438*
X3637250D02*
X3637125Y743266D01*
X3637000Y742922*
Y742578*
X3637125Y742234*
X3637375Y741719*
X3638625Y740000*
X3636875*
X3635750Y742922D02*
X3635500Y743094D01*
X3635125Y743609*
Y740000*
X3641500Y736109D02*
Y732500D01*
Y736109D02*
X3640375D01*
X3640000Y735938*
X3640000D02*
X3639875Y735766D01*
X3639750Y735422*
Y735078*
X3639875Y734734*
X3640000Y734563*
X3640000D02*
X3640375Y734391D01*
X3641500*
X3640625D02*
X3639750Y732500D01*
X3638500Y735250D02*
Y735422D01*
X3638375Y735766*
X3638250Y735938*
X3638250D02*
X3638000Y736109D01*
X3637500*
X3637250Y735938*
X3637250D02*
X3637125Y735766D01*
X3637000Y735422*
Y735078*
X3637125Y734734*
X3637375Y734219*
X3638625Y732500*
X3636875*
X3635625Y735250D02*
Y735422D01*
X3635500Y735766*
X3635375Y735938*
X3635375D02*
X3635125Y736109D01*
X3634625*
X3634375Y735938*
X3634375D02*
X3634250Y735766D01*
X3634125Y735422*
Y735078*
X3634250Y734734*
X3634500Y734219*
X3635750Y732500*
X3634000*
X3585891Y286500D02*
X3589500D01*
X3585891D02*
Y285375D01*
X3586062Y285000*
X3586062D02*
X3586234Y284875D01*
X3586578Y284750*
X3586922*
X3587266Y284875*
X3587437Y285000*
X3587437D02*
X3587609Y285375D01*
Y286500*
Y285625D02*
X3589500Y284750D01*
X3585891Y283375D02*
Y282000D01*
X3587266Y282750*
Y282375*
X3587437Y282125*
X3587437D02*
X3587609Y282000D01*
X3588125Y281875*
X3588469*
X3588984Y282000*
X3589328Y282250*
X3589500Y282625*
Y283000*
X3589328Y283375*
X3589156Y283500*
X3588812Y283625*
X3593391Y286500D02*
X3597000D01*
X3593391D02*
Y285375D01*
X3593562Y285000*
X3593562D02*
X3593734Y284875D01*
X3594078Y284750*
X3594422*
X3594766Y284875*
X3594937Y285000*
X3594937D02*
X3595109Y285375D01*
Y286500*
Y285625D02*
X3597000Y284750D01*
X3593391Y282375D02*
X3595797Y283625D01*
Y281750*
X3593391Y282375D02*
X3597000D01*
X3592778Y635213D02*
X3596388D01*
X3592778D02*
Y634088D01*
X3592950Y633713*
X3593122Y633588*
X3593466Y633463*
X3593810*
X3594153Y633588*
X3594325Y633713*
X3594497Y634088*
Y635213*
Y634338D02*
X3596388Y633463D01*
X3592778Y630713D02*
Y631963D01*
X3594325Y632088*
X3594153Y631963*
X3593981Y631588*
Y631213*
X3594153Y630838*
X3594497Y630588*
X3595013Y630463*
X3595356Y630588*
X3595872Y630713*
X3596216Y630963*
X3596388Y631338*
Y631713*
X3596216Y632088*
X3596044Y632213*
X3595700Y632338*
X3639891Y526500D02*
X3643500D01*
X3639891D02*
Y525375D01*
X3640062Y525000*
X3640062D02*
X3640234Y524875D01*
X3640578Y524750*
X3640922*
X3641266Y524875*
X3641437Y525000*
X3641437D02*
X3641609Y525375D01*
Y526500*
Y525625D02*
X3643500Y524750D01*
X3639891Y522000D02*
Y523250D01*
X3641437Y523375*
X3641437D02*
X3641266Y523250D01*
X3641094Y522875*
Y522500*
X3641266Y522125*
X3641609Y521875*
X3642125Y521750*
X3642469Y521875*
X3642984Y522000*
X3643328Y522250*
X3643500Y522625*
Y523000*
X3643328Y523375*
X3643156Y523500*
X3642812Y523625*
X3639891Y519875D02*
X3640062Y520250D01*
X3640062D02*
X3640578Y520500D01*
X3641437Y520625*
X3641437D02*
X3641953D01*
X3642812Y520500*
X3642812D02*
X3643328Y520250D01*
X3643500Y519875*
Y519625*
X3643328Y519250*
X3642812Y519000*
X3642812D02*
X3641953Y518875D01*
X3641437*
X3641437D02*
X3640578Y519000D01*
X3640062Y519250*
X3640062D02*
X3639891Y519625D01*
Y519875*
X3603891Y542500D02*
X3607500D01*
X3603891D02*
Y541375D01*
X3604063Y541000*
X3604063D02*
X3604234Y540875D01*
X3604578Y540750*
X3604922*
X3605266Y540875*
X3605438Y541000*
X3605438D02*
X3605609Y541375D01*
Y542500*
Y541625D02*
X3607500Y540750D01*
X3603891Y538000D02*
Y539250D01*
X3605438Y539375*
X3605438D02*
X3605266Y539250D01*
X3605094Y538875*
Y538500*
X3605266Y538125*
X3605609Y537875*
X3606125Y537750*
X3606469Y537875*
X3606984Y538000*
X3607328Y538250*
X3607500Y538625*
Y539000*
X3607328Y539375*
X3607156Y539500*
X3606813Y539625*
X3604578Y536625D02*
X3604406Y536375D01*
X3603891Y536000*
X3607500*
X3600891Y286500D02*
X3604500D01*
X3600891D02*
Y285375D01*
X3601062Y285000*
X3601062D02*
X3601234Y284875D01*
X3601578Y284750*
X3601922*
X3602266Y284875*
X3602437Y285000*
X3602437D02*
X3602609Y285375D01*
Y286500*
Y285625D02*
X3604500Y284750D01*
X3601406Y282125D02*
X3601062Y282250D01*
X3601062D02*
X3600891Y282625D01*
Y282875*
X3601062Y283250*
X3601062D02*
X3601578Y283500D01*
X3602437Y283625*
X3602437D02*
X3603297D01*
X3603984Y283500*
X3604328Y283250*
X3604500Y282875*
Y282750*
X3604328Y282375*
X3603984Y282125*
X3603469Y282000*
X3603297*
X3602781Y282125*
X3602437Y282375*
X3602437D02*
X3602266Y282750D01*
Y282875*
X3602437Y283250*
X3602437D02*
X3602781Y283500D01*
X3603297Y283625*
X3650391Y256000D02*
X3654000D01*
X3650391D02*
Y254875D01*
X3650562Y254500*
X3650734Y254375*
X3651078Y254250*
X3651422*
X3651766Y254375*
X3651937Y254500*
X3652109Y254875*
Y256000*
Y255125D02*
X3654000Y254250D01*
X3650906Y251625D02*
X3650562Y251750D01*
X3650391Y252125*
Y252375*
X3650562Y252750*
X3651078Y253000*
X3651937Y253125*
X3652797*
X3653484Y253000*
X3653828Y252750*
X3654000Y252375*
Y252250*
X3653828Y251875*
X3653484Y251625*
X3652969Y251500*
X3652797*
X3652281Y251625*
X3651937Y251875*
X3651766Y252250*
Y252375*
X3651937Y252750*
X3652281Y253000*
X3652797Y253125*
X3650391Y249625D02*
X3650562Y250000D01*
X3651078Y250250*
X3651937Y250375*
X3652453*
X3653312Y250250*
X3653828Y250000*
X3654000Y249625*
Y249375*
X3653828Y249000*
X3653312Y248750*
X3652453Y248625*
X3651937*
X3651078Y248750*
X3650562Y249000*
X3650391Y249375*
Y249625*
X3624391Y255500D02*
X3628000D01*
X3624391D02*
Y254375D01*
X3624562Y254000*
X3624734Y253875*
X3625078Y253750*
X3625422*
X3625766Y253875*
X3625937Y254000*
X3626109Y254375*
Y255500*
Y254625D02*
X3628000Y253750D01*
X3624906Y251125D02*
X3624562Y251250D01*
X3624391Y251625*
Y251875*
X3624562Y252250*
X3625078Y252500*
X3625937Y252625*
X3626797*
X3627484Y252500*
X3627828Y252250*
X3628000Y251875*
Y251750*
X3627828Y251375*
X3627484Y251125*
X3626969Y251000*
X3626797*
X3626281Y251125*
X3625937Y251375*
X3625766Y251750*
Y251875*
X3625937Y252250*
X3626281Y252500*
X3626797Y252625*
X3625078Y249875D02*
X3624906Y249625D01*
X3624391Y249250*
X3628000*
X3599254Y635381D02*
X3602863D01*
X3599254D02*
Y634256D01*
X3599426Y633881*
X3599597Y633756*
X3599941Y633631*
X3600285*
X3600629Y633756*
X3600801Y633881*
X3600972Y634256*
Y635381*
Y634506D02*
X3602863Y633631D01*
X3599254Y630756D02*
X3602863Y632006D01*
X3599254Y632506D02*
Y630756D01*
X3572500Y443109D02*
Y439500D01*
Y443109D02*
X3571375D01*
X3571000Y442938*
X3570875Y442766*
X3570750Y442422*
Y442078*
X3570875Y441734*
X3571000Y441563*
X3571375Y441391*
X3572500*
X3571625D02*
X3570750Y439500D01*
X3567875Y443109D02*
X3569125Y439500D01*
X3569625Y443109D02*
X3567875D01*
X3566625Y442250D02*
Y442422D01*
X3566500Y442766*
X3566375Y442938*
X3566125Y443109*
X3565625*
X3565375Y442938*
X3565250Y442766*
X3565125Y442422*
Y442078*
X3565250Y441734*
X3565500Y441219*
X3566750Y439500*
X3565000*
X3596391Y441500D02*
X3600000D01*
X3596391D02*
Y440375D01*
X3596562Y440000*
X3596562D02*
X3596734Y439875D01*
X3597078Y439750*
X3597422*
X3597766Y439875*
X3597937Y440000*
X3597937D02*
X3598109Y440375D01*
Y441500*
Y440625D02*
X3600000Y439750D01*
X3596391Y436875D02*
X3600000Y438125D01*
X3596391Y438625D02*
Y436875D01*
Y435500D02*
Y434125D01*
X3597766Y434875*
Y434500*
X3597937Y434250*
X3597937D02*
X3598109Y434125D01*
X3598625Y434000*
X3598969*
X3599484Y434125*
X3599828Y434375*
X3600000Y434750*
Y435125*
X3599828Y435500*
X3599656Y435625*
X3599312Y435750*
X3674891Y407000D02*
X3678500D01*
X3674891D02*
Y405875D01*
X3675062Y405500*
X3675062D02*
X3675234Y405375D01*
X3675578Y405250*
X3675922*
X3676266Y405375*
X3676437Y405500*
X3676437D02*
X3676609Y405875D01*
Y407000*
Y406125D02*
X3678500Y405250D01*
X3674891Y402375D02*
X3678500Y403625D01*
X3674891Y404125D02*
Y402375D01*
Y399625D02*
Y400875D01*
X3676437Y401000*
X3676437D02*
X3676266Y400875D01*
X3676094Y400500*
Y400125*
X3676266Y399750*
X3676609Y399500*
X3677125Y399375*
X3677469Y399500*
X3677984Y399625*
X3678328Y399875*
X3678500Y400250*
Y400625*
X3678328Y401000*
X3678156Y401125*
X3677812Y401250*
X3688391Y414000D02*
X3692000D01*
X3688391D02*
Y412875D01*
X3688563Y412500*
X3688563D02*
X3688734Y412375D01*
X3689078Y412250*
X3689422*
X3689766Y412375*
X3689938Y412500*
X3689938D02*
X3690109Y412875D01*
Y414000*
Y413125D02*
X3692000Y412250D01*
X3688391Y409375D02*
X3692000Y410625D01*
X3688391Y411125D02*
Y409375D01*
Y406500D02*
X3692000Y407750D01*
X3688391Y408250D02*
Y406500D01*
X3595891Y389500D02*
X3599500D01*
X3595891D02*
Y388375D01*
X3596062Y388000*
X3596062D02*
X3596234Y387875D01*
X3596578Y387750*
X3596922*
X3597266Y387875*
X3597437Y388000*
X3597437D02*
X3597609Y388375D01*
Y389500*
Y388625D02*
X3599500Y387750D01*
X3595891Y384875D02*
X3599500Y386125D01*
X3595891Y386625D02*
Y384875D01*
Y383125D02*
X3596062Y383500D01*
X3596062D02*
X3596406Y383625D01*
X3596750*
X3597094Y383500*
X3597266Y383250*
X3597437Y382750*
X3597437D02*
X3597609Y382375D01*
X3597953Y382125*
X3598297Y382000*
X3598812*
X3598812D02*
X3599156Y382125D01*
X3599328Y382250*
X3599500Y382625*
Y383125*
X3599328Y383500*
X3599156Y383625*
X3598812Y383750*
X3598812D02*
X3598297D01*
X3597953Y383625*
X3597609Y383375*
X3597437Y383000*
X3597437D02*
X3597266Y382500D01*
X3597094Y382250*
X3596750Y382125*
X3596406*
X3596062Y382250*
X3596062D02*
X3595891Y382625D01*
Y383125*
X3572000Y391609D02*
Y388000D01*
Y391609D02*
X3570875D01*
X3570500Y391438*
X3570375Y391266*
X3570250Y390922*
Y390578*
X3570375Y390234*
X3570500Y390063*
X3570875Y389891*
X3572000*
X3571125D02*
X3570250Y388000D01*
X3567375Y391609D02*
X3568625Y388000D01*
X3569125Y391609D02*
X3567375D01*
X3564625Y390406D02*
X3564750Y389891D01*
X3565000Y389547*
X3565375Y389375*
X3565500*
X3565875Y389547*
X3566125Y389891*
X3566250Y390406*
Y390578*
X3566125Y391094*
X3565875Y391438*
X3565500Y391609*
X3565375*
X3565000Y391438*
X3564750Y391094*
X3564625Y390406*
Y389547*
X3564750Y388688*
X3565000Y388172*
X3565375Y388000*
X3565625*
X3566000Y388172*
X3566125Y388516*
X3608391Y287000D02*
X3612000D01*
X3608391D02*
Y285875D01*
X3608562Y285500*
X3608562D02*
X3608734Y285375D01*
X3609078Y285250*
X3609422*
X3609766Y285375*
X3609937Y285500*
X3609937D02*
X3610109Y285875D01*
Y287000*
Y286125D02*
X3612000Y285250D01*
X3608391Y283500D02*
X3608562Y283875D01*
X3608562D02*
X3608906Y284000D01*
X3609250*
X3609594Y283875*
X3609766Y283625*
X3609937Y283125*
X3609937D02*
X3610109Y282750D01*
X3610453Y282500*
X3610797Y282375*
X3611312*
X3611312D02*
X3611656Y282500D01*
X3611828Y282625*
X3612000Y283000*
Y283500*
X3611828Y283875*
X3611656Y284000*
X3611312Y284125*
X3611312D02*
X3610797D01*
X3610453Y284000*
X3610109Y283750*
X3609937Y283375*
X3609937D02*
X3609766Y282875D01*
X3609594Y282625*
X3609250Y282500*
X3608906*
X3608562Y282625*
X3608562D02*
X3608391Y283000D01*
Y283500*
X3622391Y376500D02*
X3626000D01*
X3622391D02*
Y375375D01*
X3622562Y375000*
X3622734Y374875*
X3623078Y374750*
X3623422*
X3623766Y374875*
X3623937Y375000*
X3624109Y375375*
Y376500*
Y375625D02*
X3626000Y374750D01*
X3623594Y372000D02*
X3624109Y372125D01*
X3624453Y372375*
X3624625Y372750*
Y372875*
X3624453Y373250*
X3624109Y373500*
X3623594Y373625*
X3623422*
X3622906Y373500*
X3622562Y373250*
X3622391Y372875*
Y372750*
X3622562Y372375*
X3622906Y372125*
X3623594Y372000*
X3624453*
X3625312Y372125*
X3625828Y372375*
X3626000Y372750*
Y373000*
X3625828Y373375*
X3625484Y373500*
X3545000Y265375D02*
X3544656Y265500D01*
X3544312Y265750*
X3544312D02*
X3544141Y266000D01*
Y266500*
X3544312Y266750*
X3544312D02*
X3544656Y267000D01*
X3545000Y267125*
X3545516Y267250*
X3546375*
X3546891Y267125*
X3547234Y267000*
X3547578Y266750*
X3547750Y266500*
Y266000*
X3547578Y265750*
X3547234Y265500*
X3546891Y265375*
X3544828Y264250D02*
X3544656Y264000D01*
X3544141Y263625*
X3547750*
X3545000Y262375D02*
X3544828D01*
X3544484Y262250*
X3544312Y262125*
X3544312D02*
X3544141Y261875D01*
Y261375*
X3544312Y261125*
X3544312D02*
X3544484Y261000D01*
X3544828Y260875*
X3545172*
X3545516Y261000*
X3546031Y261250*
X3547750Y262500*
Y260750*
X3550922Y348705D02*
X3553422D01*
X3553891Y348818*
X3554047Y348932*
X3554203Y349159*
Y349386*
X3554047Y349614*
X3553891Y349727*
X3553422Y349841*
X3553109*
X3551547Y347682D02*
X3551391Y347455D01*
X3550922Y347114*
X3554203*
X3566672Y306273D02*
X3569953D01*
Y304909*
X3566672Y302750D02*
X3568859Y303886D01*
Y302182*
X3566672Y302750D02*
X3569953D01*
X3553672Y306466D02*
X3556953D01*
Y305102*
X3553672Y303852D02*
Y302602D01*
X3554922Y303284*
Y302943*
X3555078Y302716*
X3555234Y302602*
X3555703Y302489*
X3556016*
X3556484Y302602*
X3556797Y302830*
X3556953Y303170*
Y303511*
X3556797Y303852*
X3556641Y303966*
X3556328Y304080*
X3563172Y456136D02*
X3566453D01*
Y454773*
X3563172Y452614D02*
X3565359Y453750D01*
Y452045*
X3563172Y452614D02*
X3566453D01*
X3563172Y449545D02*
Y450682D01*
X3564578Y450795*
X3564422Y450682*
X3564266Y450341*
Y450000*
X3564422Y449659*
X3564734Y449432*
X3565203Y449318*
X3565516Y449432*
X3565984Y449545*
X3566297Y449773*
X3566453Y450114*
Y450455*
X3566297Y450795*
X3566141Y450909*
X3565828Y451023*
X3563422Y374773D02*
X3566703D01*
Y373409*
X3563422Y371250D02*
X3565609Y372386D01*
Y370682*
X3563422Y371250D02*
X3566703D01*
X3564516Y368182D02*
X3564984Y368295D01*
X3565297Y368523*
X3565453Y368864*
Y368977*
X3565297Y369318*
X3564984Y369545*
X3564516Y369659*
X3564359*
X3563891Y369545*
X3563578Y369318*
X3563422Y368977*
Y368864*
X3563578Y368523*
X3563891Y368295*
X3564516Y368182*
X3565297*
X3566078Y368295*
X3566547Y368523*
X3566703Y368864*
Y369091*
X3566547Y369432*
X3566234Y369545*
X3602922Y455636D02*
X3606203D01*
Y454273*
X3602922Y452114D02*
X3605109Y453250D01*
Y451545*
X3602922Y452114D02*
X3606203D01*
X3602922Y449386D02*
X3605109Y450523D01*
Y448818*
X3602922Y449386D02*
X3606203D01*
X3603422Y374330D02*
X3606703D01*
Y372966*
X3603422Y370807D02*
X3605609Y371943D01*
Y370239*
X3603422Y370807D02*
X3606703D01*
X3603422Y368648D02*
X3603578Y368989D01*
X3603891Y369102*
X3604203*
X3604516Y368989*
X3604672Y368761*
X3604828Y368307*
X3604984Y367966*
X3605297Y367739*
X3605609Y367625*
X3606078*
X3606391Y367739*
X3606547Y367852*
X3606703Y368193*
Y368648*
X3606547Y368989*
X3606391Y369102*
X3606078Y369216*
X3605609*
X3605297Y369102*
X3604984Y368875*
X3604828Y368534*
X3604672Y368080*
X3604516Y367852*
X3604203Y367739*
X3603891*
X3603578Y367852*
X3603422Y368193*
Y368648*
X3715672Y230136D02*
X3718953D01*
X3715672D02*
Y228659D01*
X3717234Y230136D02*
Y229227D01*
X3715672Y227636D02*
X3718953D01*
X3715672D02*
Y226841D01*
X3715828Y226500*
X3716141Y226273*
X3716453Y226159*
X3716922Y226045*
X3717703*
X3718172Y226159*
X3718484Y226273*
X3718797Y226500*
X3718953Y226841*
Y227636*
X3715672Y223886D02*
X3717859Y225023D01*
Y223318*
X3715672Y223886D02*
X3718953D01*
X3728172Y736636D02*
X3731453D01*
X3728172D02*
Y735159D01*
X3729734Y736636D02*
Y735727D01*
X3728172Y734136D02*
X3731453D01*
X3728172D02*
Y733341D01*
X3728328Y733000*
X3728641Y732773*
X3728953Y732659*
X3729422Y732545*
X3730203*
X3730672Y732659*
X3730984Y732773*
X3731297Y733000*
X3731453Y733341*
Y734136*
X3728172Y730045D02*
Y731182D01*
X3729578Y731295*
X3729422Y731182*
X3729266Y730841*
Y730500*
X3729422Y730159*
X3729734Y729932*
X3730203Y729818*
X3730516Y729932*
X3730984Y730045*
X3731297Y730273*
X3731453Y730614*
Y730955*
X3731297Y731295*
X3731141Y731409*
X3730828Y731523*
X3495672Y746523D02*
X3498953D01*
X3495672D02*
Y745045D01*
X3497234Y746523D02*
Y745614D01*
X3495672Y744023D02*
X3498953D01*
X3495672D02*
Y743227D01*
X3495828Y742886*
X3496141Y742659*
X3496453Y742545*
X3496922Y742432*
X3497703*
X3498172Y742545*
X3498484Y742659*
X3498797Y742886*
X3498953Y743227*
Y744023*
X3496141Y740045D02*
X3495828Y740159D01*
X3495672Y740500*
Y740727*
X3495828Y741068*
X3496297Y741295*
X3497078Y741409*
X3497859*
X3498484Y741295*
X3498797Y741068*
X3498953Y740727*
Y740614*
X3498797Y740273*
X3498484Y740045*
X3498016Y739932*
X3497859*
X3497391Y740045*
X3497078Y740273*
X3496922Y740614*
Y740727*
X3497078Y741068*
X3497391Y741295*
X3497859Y741409*
X3556547Y584011D02*
X3556391Y583784D01*
X3555922Y583443*
X3559203*
X3556297Y317886D02*
X3556141Y317659D01*
X3555672Y317318*
X3558953*
G54D14*
X3705580Y46781D02*
X3708989D01*
X3709330Y50719*
X3708989Y50281*
X3707966Y49844*
X3706943*
X3705920Y50281*
X3705239Y51156*
X3704898Y52469*
X3705239Y53344*
X3705580Y54656*
X3706261Y55531*
X3707284Y55969*
X3708307*
X3709330Y55531*
X3709670Y55094*
X3710011Y54219*
X3701489Y55094D02*
X3701830Y55531D01*
X3701489Y55969*
X3701148Y55531*
X3701489Y55094*
X3696034Y46781D02*
X3697057Y47219D01*
X3697739Y48531*
X3698080Y50719*
Y52031*
X3697739Y54219*
X3697057Y55531*
X3696034Y55969*
X3695352*
X3694330Y55531*
X3693648Y54219*
X3693307Y52031*
Y50719*
X3693648Y48531*
X3694330Y47219*
X3695352Y46781*
X3696034*
X3688193D02*
X3689216Y47219D01*
X3689898Y48531*
X3690239Y50719*
Y52031*
X3689898Y54219*
X3689216Y55531*
X3688193Y55969*
X3687511*
X3686489Y55531*
X3685807Y54219*
X3685466Y52031*
Y50719*
X3685807Y48531*
X3686489Y47219*
X3687511Y46781*
X3688193*
X3680352D02*
X3681375Y47219D01*
X3682057Y48531*
X3682398Y50719*
Y52031*
X3682057Y54219*
X3681375Y55531*
X3680352Y55969*
X3679670*
X3678648Y55531*
X3677966Y54219*
X3677625Y52031*
Y50719*
X3677966Y48531*
X3678648Y47219*
X3679670Y46781*
X3680352*
X3672511D02*
X3673534Y47219D01*
X3674216Y48531*
X3674557Y50719*
Y52031*
X3674216Y54219*
X3673534Y55531*
X3672511Y55969*
X3671830*
X3670807Y55531*
X3670125Y54219*
X3669784Y52031*
Y50719*
X3670125Y48531*
X3670807Y47219*
X3671830Y46781*
X3672511*
X3655807Y48094D02*
Y55969D01*
X3658875Y52031D02*
X3652739D01*
X3643534Y45031D02*
X3649670Y59031D01*
X3640466Y52031D02*
X3634330D01*
X3623080Y55094D02*
X3623420Y55531D01*
X3623080Y55969*
X3622739Y55531*
X3623080Y55094*
X3617625Y46781D02*
X3618648Y47219D01*
X3619330Y48531*
X3619670Y50719*
Y52031*
X3619330Y54219*
X3618648Y55531*
X3617625Y55969*
X3616943*
X3615920Y55531*
X3615239Y54219*
X3614898Y52031*
Y50719*
X3615239Y48531*
X3615920Y47219*
X3616943Y46781*
X3617625*
X3609784D02*
X3610807Y47219D01*
X3611489Y48531*
X3611830Y50719*
Y52031*
X3611489Y54219*
X3610807Y55531*
X3609784Y55969*
X3609102*
X3608080Y55531*
X3607398Y54219*
X3607057Y52031*
Y50719*
X3607398Y48531*
X3608080Y47219*
X3609102Y46781*
X3609784*
X3601943D02*
X3602966Y47219D01*
X3603648Y48531*
X3603989Y50719*
Y52031*
X3603648Y54219*
X3602966Y55531*
X3601943Y55969*
X3601261*
X3600239Y55531*
X3599557Y54219*
X3599216Y52031*
Y50719*
X3599557Y48531*
X3600239Y47219*
X3601261Y46781*
X3601943*
X3591716D02*
X3595125D01*
X3595466Y50719*
X3595125Y50281*
X3594102Y49844*
X3593080*
X3592057Y50281*
X3591375Y51156*
X3591034Y52469*
X3591375Y53344*
X3591716Y54656*
X3592398Y55531*
X3593420Y55969*
X3594443*
X3595466Y55531*
X3595807Y55094*
X3596148Y54219*
X3580125Y46781D02*
Y55969D01*
Y46781D02*
X3577057D01*
X3576034Y47219*
X3575693Y47656*
X3575352Y48531*
Y49406*
X3575693Y50281*
X3576034Y50719*
X3577057Y51156*
X3580125*
X3577739D02*
X3575352Y55969D01*
X3572284Y46781D02*
Y55969D01*
Y46781D02*
X3567852D01*
X3572284Y51156D02*
X3569557D01*
X3572284Y55969D02*
X3567852D01*
X3564784Y46781D02*
Y55969D01*
Y46781D02*
X3560352D01*
X3564784Y51156D02*
X3562057D01*
X3445781Y352943D02*
X3446219Y351920D01*
X3447094Y351580*
X3447969*
X3448844Y351920*
X3449281Y352602*
X3449719Y353966*
X3450156Y354989*
X3451031Y355670*
X3451906Y356011*
X3453219*
X3454094Y355670*
X3454531Y355330*
X3454969Y354307*
Y352943*
X3454531Y351920*
X3454094Y351580*
X3453219Y351239*
X3451906*
X3451031Y351580*
X3450156Y352261*
X3449719Y353284*
X3449281Y354648*
X3448844Y355330*
X3447969Y355670*
X3447094*
X3446219Y355330*
X3445781Y354307*
Y352943*
X3454094Y359420D02*
X3454531Y359080D01*
X3454969Y359420*
X3454531Y359761*
X3454094Y359420*
X3445781Y364875D02*
X3446219Y363852D01*
X3447531Y363170*
X3449719Y362830*
X3451031*
X3453219Y363170*
X3454531Y363852*
X3454969Y364875*
Y365557*
X3454531Y366580*
X3453219Y367261*
X3451031Y367602*
X3449719*
X3447531Y367261*
X3446219Y366580*
X3445781Y365557*
Y364875*
Y372716D02*
X3446219Y371693D01*
X3447531Y371011*
X3449719Y370670*
X3451031*
X3453219Y371011*
X3454531Y371693*
X3454969Y372716*
Y373398*
X3454531Y374420*
X3453219Y375102*
X3451031Y375443*
X3449719*
X3447531Y375102*
X3446219Y374420*
X3445781Y373398*
Y372716*
Y380557D02*
X3446219Y379534D01*
X3447531Y378852*
X3449719Y378511*
X3451031*
X3453219Y378852*
X3454531Y379534*
X3454969Y380557*
Y381239*
X3454531Y382261*
X3453219Y382943*
X3451031Y383284*
X3449719*
X3447531Y382943*
X3446219Y382261*
X3445781Y381239*
Y380557*
Y388398D02*
X3446219Y387375D01*
X3447531Y386693*
X3449719Y386352*
X3451031*
X3453219Y386693*
X3454531Y387375*
X3454969Y388398*
Y389080*
X3454531Y390102*
X3453219Y390784*
X3451031Y391125*
X3449719*
X3447531Y390784*
X3446219Y390102*
X3445781Y389080*
Y388398*
X3447094Y405102D02*
X3454969D01*
X3451031Y402034D02*
Y408170D01*
X3444031Y417375D02*
X3458031Y411239D01*
X3451031Y420443D02*
Y426580D01*
X3454094Y437830D02*
X3454531Y437489D01*
X3454969Y437830*
X3454531Y438170*
X3454094Y437830*
X3445781Y443284D02*
X3446219Y442261D01*
X3447531Y441580*
X3449719Y441239*
X3451031*
X3453219Y441580*
X3454531Y442261*
X3454969Y443284*
Y443966*
X3454531Y444989*
X3453219Y445670*
X3451031Y446011*
X3449719*
X3447531Y445670*
X3446219Y444989*
X3445781Y443966*
Y443284*
Y451125D02*
X3446219Y450102D01*
X3447531Y449420*
X3449719Y449080*
X3451031*
X3453219Y449420*
X3454531Y450102*
X3454969Y451125*
Y451807*
X3454531Y452830*
X3453219Y453511*
X3451031Y453852*
X3449719*
X3447531Y453511*
X3446219Y452830*
X3445781Y451807*
Y451125*
Y458966D02*
X3446219Y457943D01*
X3447531Y457261*
X3449719Y456920*
X3451031*
X3453219Y457261*
X3454531Y457943*
X3454969Y458966*
Y459648*
X3454531Y460670*
X3453219Y461352*
X3451031Y461693*
X3449719*
X3447531Y461352*
X3446219Y460670*
X3445781Y459648*
Y458966*
Y469193D02*
Y465784D01*
X3449719Y465443*
X3449281Y465784*
X3448844Y466807*
Y467830*
X3449281Y468852*
X3450156Y469534*
X3451469Y469875*
X3452344Y469534*
X3453656Y469193*
X3454531Y468511*
X3454969Y467489*
Y466466*
X3454531Y465443*
X3454094Y465102*
X3453219Y464761*
X3445781Y488625D02*
X3454969D01*
X3445781D02*
Y491693D01*
X3446219Y492716*
X3446656Y493057*
X3447531Y493398*
X3448406*
X3449281Y493057*
X3449719Y492716*
X3450156Y491693*
Y488625*
Y491011D02*
X3454969Y493398D01*
X3445781Y496466D02*
X3454969D01*
X3445781D02*
Y500898D01*
X3450156Y496466D02*
Y499193D01*
X3454969Y496466D02*
Y500898D01*
X3445781Y503966D02*
X3454969D01*
X3445781D02*
Y508398D01*
X3450156Y503966D02*
Y506693D01*
X3820437Y833682D02*
X3827000D01*
X3820437D02*
Y836636D01*
X3823562Y833682D02*
Y835500D01*
X3820437Y838682D02*
X3827000D01*
X3820437Y840727D02*
X3827000D01*
Y843455*
X3820437Y845500D02*
X3827000D01*
X3820437D02*
X3827000Y847318D01*
X3820437Y849136D02*
X3827000Y847318D01*
X3820437Y849136D02*
X3827000D01*
X3824187Y851182D02*
Y855273D01*
X3820437Y858909D02*
X3827000D01*
X3820437Y857318D02*
Y860500D01*
Y864364D02*
X3827000Y862545D01*
X3820437Y864364D02*
X3827000Y866182D01*
X3824812Y863227D02*
Y865500D01*
X3820437Y868227D02*
X3827000D01*
X3820437D02*
Y870273D01*
X3820437D02*
X3820750Y870955D01*
X3821062Y871182*
X3821062D02*
X3821687Y871409D01*
X3821687D02*
X3822312D01*
X3822312D02*
X3822937Y871182D01*
X3822937D02*
X3823250Y870955D01*
X3823562Y870273*
X3823562D02*
Y868227D01*
Y869818D02*
X3827000Y871409D01*
X3822000Y876864D02*
X3821375Y876636D01*
X3820750Y876182*
X3820437Y875727*
X3820437D02*
Y874818D01*
X3820437D02*
X3820750Y874364D01*
X3821375Y873909*
X3822000Y873682*
X3822937Y873455*
X3822937D02*
X3824500D01*
X3825437Y873682*
X3825437D02*
X3826062Y873909D01*
X3826062D02*
X3826687Y874364D01*
X3826687D02*
X3827000Y874818D01*
Y875727*
X3826687Y876182*
X3826687D02*
X3826062Y876636D01*
X3826062D02*
X3825437Y876864D01*
X3825437D02*
X3824500D01*
Y875727D02*
Y876864D01*
X3820437Y878909D02*
X3827000D01*
X3820437D02*
Y881864D01*
X3823562Y878909D02*
Y880727D01*
X3827000Y878909D02*
Y881864D01*
X3820437Y885500D02*
X3827000D01*
X3820437Y883909D02*
Y887091D01*
X3952937Y822545D02*
X3959500D01*
X3952937D02*
Y824591D01*
X3952937D02*
X3953250Y825273D01*
X3953562Y825500*
X3953562D02*
X3954187Y825727D01*
X3954187D02*
X3954812D01*
X3954812D02*
X3955437Y825500D01*
X3955437D02*
X3955750Y825273D01*
X3956062Y824591*
Y822545D02*
Y824591D01*
X3956062D02*
X3956375Y825273D01*
X3956687Y825500*
X3956687D02*
X3957312Y825727D01*
X3957312D02*
X3958250D01*
X3958875Y825500*
X3959187Y825273*
X3959187D02*
X3959500Y824591D01*
Y822545*
X3952937Y829136D02*
X3953250Y828682D01*
X3953875Y828227*
X3954500Y828000*
X3955437Y827773*
X3955437D02*
X3957000D01*
X3957937Y828000*
X3957937D02*
X3958562Y828227D01*
X3958562D02*
X3959187Y828682D01*
X3959187D02*
X3959500Y829136D01*
Y830045*
X3959187Y830500*
X3959187D02*
X3958562Y830955D01*
X3958562D02*
X3957937Y831182D01*
X3957937D02*
X3957000Y831409D01*
X3955437*
X3955437D02*
X3954500Y831182D01*
X3953875Y830955*
X3953250Y830500*
X3952937Y830045*
X3952937D02*
Y829136D01*
Y835045D02*
X3959500D01*
X3952937Y833455D02*
Y836636D01*
Y840273D02*
X3959500D01*
X3952937Y838682D02*
Y841864D01*
Y845273D02*
X3953250Y844818D01*
X3953875Y844364*
X3954500Y844136*
X3955437Y843909*
X3955437D02*
X3957000D01*
X3957937Y844136*
X3957937D02*
X3958562Y844364D01*
X3958562D02*
X3959187Y844818D01*
X3959187D02*
X3959500Y845273D01*
Y846182*
X3959187Y846636*
X3959187D02*
X3958562Y847091D01*
X3958562D02*
X3957937Y847318D01*
X3957937D02*
X3957000Y847545D01*
X3955437*
X3955437D02*
X3954500Y847318D01*
X3953875Y847091*
X3953250Y846636*
X3952937Y846182*
X3952937D02*
Y845273D01*
Y849591D02*
X3959500D01*
X3952937D02*
X3959500Y851409D01*
X3952937Y853227D02*
X3959500Y851409D01*
X3952937Y853227D02*
X3959500D01*
X3953875Y863682D02*
X3953250Y863227D01*
X3952937Y862545*
X3952937D02*
Y861636D01*
X3952937D02*
X3953250Y860955D01*
X3953875Y860500*
X3954500*
X3955125Y860727*
X3955437Y860955*
X3955437D02*
X3955750Y861409D01*
X3956375Y862773*
X3956687Y863227*
X3956687D02*
X3957000Y863455D01*
X3957625Y863682*
X3958562*
X3958562D02*
X3959187Y863227D01*
X3959187D02*
X3959500Y862545D01*
Y861636*
X3959187Y860955*
X3959187D02*
X3958562Y860500D01*
X3954500Y869136D02*
X3953875Y868909D01*
X3953250Y868455*
X3952937Y868000*
X3952937D02*
Y867091D01*
X3952937D02*
X3953250Y866636D01*
X3953875Y866182*
X3954500Y865955*
X3955437Y865727*
X3955437D02*
X3957000D01*
X3957937Y865955*
X3957937D02*
X3958562Y866182D01*
X3958562D02*
X3959187Y866636D01*
X3959187D02*
X3959500Y867091D01*
Y868000*
X3959187Y868455*
X3959187D02*
X3958562Y868909D01*
X3958562D02*
X3957937Y869136D01*
X3952937Y871182D02*
X3959500D01*
X3952937D02*
Y873227D01*
X3952937D02*
X3953250Y873909D01*
X3953562Y874136*
X3953562D02*
X3954187Y874364D01*
X3954187D02*
X3954812D01*
X3954812D02*
X3955437Y874136D01*
X3955437D02*
X3955750Y873909D01*
X3956062Y873227*
X3956062D02*
Y871182D01*
Y872773D02*
X3959500Y874364D01*
X3952937Y876409D02*
X3959500D01*
X3952937D02*
Y879364D01*
X3956062Y876409D02*
Y878227D01*
X3959500Y876409D02*
Y879364D01*
X3952937Y881409D02*
X3959500D01*
X3952937D02*
Y884364D01*
X3956062Y881409D02*
Y883227D01*
X3959500Y881409D02*
Y884364D01*
X3952937Y886409D02*
X3959500D01*
X3952937D02*
X3959500Y889591D01*
X3952937D02*
X3959500D01*
X3749500Y178000D02*
Y753000D01*
X3487000*
Y178000*
X3749500*
X3449500Y520500D02*
Y820500D01*
X3467000Y850500D02*
X3472000D01*
X3432000D02*
X3427000D01*
X3449500Y867500D02*
Y873000D01*
Y833500D02*
Y828000D01*
X3464500Y851500D02*
X3450500D01*
Y865500*
Y835500D02*
Y849500D01*
X3464500*
X3434500Y851500D02*
X3448500D01*
Y865500*
X3462400Y851402D02*
G75*
G03X3462276Y852500I-12900J-902D01*
G01X3462400Y848503D02*
G03X3462524Y849612I-12899J1997D01*
G01X3436600Y849598D02*
G03X3436654Y849014I12902J902D01*
G01X3436599Y851993D02*
G03X3436545Y851407I12902J-1492D01*
G01X3469500Y850500D02*
G03X3469500I-20000J0D01*
G01X3436599Y849007D02*
G03X3447985Y837602I12901J1493D01*
G01X3448007Y863401D02*
G03X3436602Y852015I1493J-12901D01*
G01X3462401Y851993D02*
G03X3451015Y863398I-12901J-1493D01*
G01X3450402Y837600D02*
G03X3462346Y849014I-902J12900D01*
G01X3434500Y849500D02*
X3448500D01*
Y835500*
X3479500Y50500D02*
X3549500D01*
X3449500Y90500D02*
Y340500D01*
X3467000Y50500D02*
X3472000D01*
X3432000D02*
X3427000D01*
X3449500Y67500D02*
Y73000D01*
Y33500D02*
Y28000D01*
X3464500Y51500D02*
X3450500D01*
Y65500*
Y35500D02*
Y49500D01*
X3464500*
X3434500Y51500D02*
X3448500D01*
Y65500*
X3462400Y51402D02*
G03X3462276Y52500I-12900J-902D01*
G01X3462400Y48503D02*
G03X3462524Y49612I-12899J1997D01*
G01X3436600Y49598D02*
G03X3436654Y49014I12902J902D01*
G01X3436599Y51993D02*
G03X3436545Y51407I12902J-1492D01*
G01X3469500Y50500D02*
G03X3469500I-20000J0D01*
G01X3436599Y49007D02*
G03X3447985Y37602I12901J1493D01*
G01X3448007Y63401D02*
G03X3436602Y52015I1493J-12901D01*
G01X3462401Y51993D02*
G03X3451015Y63398I-12901J-1493D01*
G01X3450402Y37600D02*
G03X3462346Y49014I-902J12900D01*
G01X3434500Y49500D02*
X3448500D01*
Y35500*
X3724500Y50500D02*
X3919500D01*
X3967000D02*
X3972000D01*
X3932000D02*
X3927000D01*
X3949500Y67500D02*
Y73000D01*
Y33500D02*
Y28000D01*
X3964500Y51500D02*
X3950500D01*
Y65500*
Y35500D02*
Y49500D01*
X3964500*
X3934500Y51500D02*
X3948500D01*
Y65500*
X3962400Y51402D02*
G03X3962276Y52500I-12900J-902D01*
G01X3962400Y48503D02*
G03X3962524Y49612I-12899J1997D01*
G01X3936600Y49598D02*
G03X3936654Y49014I12902J902D01*
G01X3936599Y51993D02*
G03X3936545Y51407I12902J-1492D01*
G01X3969500Y50500D02*
G03X3969500I-20000J0D01*
G01X3936599Y49007D02*
G03X3947985Y37602I12901J1493D01*
G01X3948007Y63401D02*
G03X3936602Y52015I1493J-12901D01*
G01X3962401Y51993D02*
G03X3951015Y63398I-12901J-1493D01*
G01X3950402Y37600D02*
G03X3962346Y49014I-902J12900D01*
G01X3934500Y49500D02*
X3948500D01*
Y35500*
X3399500Y500D02*
Y900500D01*
X3999500*
Y500*
X3399500*
G54D15*
X3573756Y452709D02*
Y451291D01*
X3568244Y452709D02*
Y451291D01*
Y370791D02*
Y372209D01*
X3573756Y370791D02*
Y372209D01*
X3596244Y451291D02*
Y452709D01*
X3601756Y451291D02*
Y452709D01*
Y372209D02*
Y370791D01*
X3596244Y372209D02*
Y370791D01*
G54D23*
G54D26*
X3547600Y587875D02*
Y611875D01*
X3688900Y587875D02*
Y611875D01*
X3547557Y587875D02*
X3554574D01*
X3547674Y611875D02*
X3555743D01*
X3688737Y587875D02*
X3680593D01*
X3688369Y611875D02*
X3681065D01*
X3547600Y319125D02*
Y343125D01*
X3688900Y319125D02*
Y343125D01*
X3547557Y319125D02*
X3554574D01*
X3547674Y343125D02*
X3555743D01*
X3688737Y319125D02*
X3680593D01*
X3688369Y343125D02*
X3681065D01*
G74*
X0Y0D02*
M02*
